<svg width="393" height="199" viewBox="0 0 393 199" fill="none" xmlns="http://www.w3.org/2000/svg">
<g clip-path="url(#clip0_206_10)">
<path d="M217.528 74.4396C217.528 80.678 222.586 85.7352 228.824 85.7352C235.062 85.7352 240.12 80.678 240.12 74.4396C240.12 68.2012 235.062 63.144 228.824 63.144C222.586 63.144 217.528 68.2012 217.528 74.4396Z" stroke="#FFCC00" stroke-width="1.5827" stroke-miterlimit="10"/>
<path d="M251.415 74.4396C251.415 80.678 256.472 85.7352 262.711 85.7352C268.949 85.7352 274.006 80.678 274.006 74.4396C274.006 68.2012 268.949 63.144 262.711 63.144C256.472 63.144 251.415 68.2012 251.415 74.4396Z" stroke="#FFCC00" stroke-width="1.5827" stroke-miterlimit="10"/>
<path d="M183.642 74.4396C183.642 80.678 188.699 85.7352 194.937 85.7352C201.176 85.7352 206.233 80.678 206.233 74.4396C206.233 68.2012 201.176 63.144 194.937 63.144C188.699 63.144 183.642 68.2012 183.642 74.4396Z" stroke="#FFCC00" stroke-width="1.5827" stroke-miterlimit="10"/>
<path d="M149.752 74.4396C149.752 80.678 154.809 85.7352 161.048 85.7352C167.286 85.7352 172.343 80.678 172.343 74.4396C172.343 68.2012 167.286 63.144 161.048 63.144C154.809 63.144 149.752 68.2012 149.752 74.4396Z" stroke="#FFCC00" stroke-width="1.5827" stroke-miterlimit="10"/>
<path d="M115.865 74.4396C115.865 80.678 120.922 85.7352 127.161 85.7352C133.399 85.7352 138.456 80.678 138.456 74.4396C138.456 68.2012 133.399 63.144 127.161 63.144C120.922 63.144 115.865 68.2012 115.865 74.4396Z" stroke="#FFCC00" stroke-width="1.5827" stroke-miterlimit="10"/>
<path d="M228.824 85.7354L228.824 130.918L217.528 130.918L217.528 142.213L228.824 142.213L228.824 209.99L262.711 209.99L262.711 221.285L228.824 221.285L228.824 232.581L138.456 232.581L138.456 379.429" stroke="#FFCC00" stroke-width="1.5827" stroke-miterlimit="10"/>
<path d="M194.937 85.7354L194.937 130.918L206.233 130.918L206.233 142.213L183.642 142.213L183.642 153.512L217.528 153.512L217.528 221.285L127.161 221.285L127.161 379.429" stroke="#FFCC00" stroke-width="1.5827" stroke-miterlimit="10"/>
<path d="M161.048 85.7353L161.048 108.326L183.642 108.326L183.642 130.918L172.346 130.918L172.346 164.807L206.233 164.807L206.233 209.99L115.865 209.99L115.865 379.429" stroke="#FFCC00" stroke-width="1.5827" stroke-miterlimit="10"/>
<path d="M104.57 379.429L104.57 198.694L194.937 198.694L194.937 176.103L161.048 176.103L161.048 119.622L127.161 119.622L127.161 85.7353" stroke="#FFCC00" stroke-width="1.5827" stroke-miterlimit="10"/>
<path d="M149.752 379.429L149.752 243.876L240.119 243.876L240.119 232.581L274.009 232.581L274.009 198.694L240.119 198.694L240.119 187.398L251.415 187.398L251.415 176.103L240.119 176.103L240.119 97.0309L262.711 97.0309L262.711 85.7354" stroke="#FFCC00" stroke-width="1.5827" stroke-miterlimit="10"/>
</g>
<defs>
<clipPath id="clip0_206_10">
<rect width="199" height="434" fill="white" transform="translate(398) rotate(90)"/>
</clipPath>
</defs>
</svg>
