<svg width="22" height="48" viewBox="0 0 22 48" fill="none" xmlns="http://www.w3.org/2000/svg">
<path d="M10.9724 13.9123L0.914305 0.752807L21.0311 0.752808L10.9724 13.9123Z" stroke="white"/>
<path opacity="0.8" d="M20.6895 10.3036L10.9157 21.6864L1.14198 10.3032L6.19191 10.3032L10.0652 15.3716L10.0652 15.3717C10.2791 15.6516 10.5991 15.8407 10.9721 15.8407C11.1544 15.8407 11.329 15.7945 11.4851 15.711L11.4867 15.7102C11.6408 15.627 11.7724 15.5103 11.8786 15.3717L11.8789 15.3713L15.7525 10.3036L20.6895 10.3036Z" stroke="white"/>
<path opacity="0.6" d="M21.1013 19.6019C21.0784 19.5793 21.0575 19.5587 21.0384 19.5399M21.1013 19.6019L21.0384 19.5399L21.0529 19.5362L21.1013 19.5239L21.2468 19.4869C21.2566 19.5261 21.2714 19.6242 21.1942 19.6935L21.1013 19.6019ZM15.3781 24.8819C13.4419 26.8463 11.5621 28.7534 10.8593 29.4666L1.38397 19.8536L7.21387 19.8536L10.0623 23.171C10.1138 23.2321 10.1716 23.2897 10.2357 23.3411C10.2933 23.3877 10.3514 23.4214 10.3833 23.4393L10.3864 23.4414C10.3962 23.4478 10.4125 23.458 10.4332 23.4689L10.4332 23.469L10.442 23.4733C10.9067 23.7051 11.4342 23.5701 11.7676 23.1726L14.6174 19.8536L20.3343 19.8536L19.2357 20.9683L15.7097 24.5455L15.3781 24.8819Z" stroke="white"/>
<path opacity="0.2" d="M1.97088 41.6921L19.5218 41.6921L10.7466 47.7754L1.97088 41.6921Z" stroke="white"/>
<path opacity="0.4" d="M10.8026 37.2507L1.65233 29.4041L8.51756 29.4041L10.0668 30.9756C10.1169 31.029 10.1716 31.0775 10.2308 31.1204C10.6771 31.4457 11.2673 31.3843 11.6483 30.9794L12.11 30.511L12.11 30.511L13.201 29.4041L19.9525 29.4041L10.8026 37.2507Z" stroke="white"/>
</svg>
