<svg width="660" height="390" viewBox="0 0 660 390" fill="none" xmlns="http://www.w3.org/2000/svg">
<g filter="url(#filter0_b_74_970)">
<path d="M49.196 315.791C49.196 315.791 49.196 323.99 40.9967 323.99C40.9967 323.99 32.7973 323.99 32.7973 332.189V346.536C32.7973 346.536 32.7973 356.784 43.0448 356.784H57.392C57.392 356.784 65.5913 356.784 65.5913 348.585C65.5913 348.585 65.5913 340.385 73.7906 340.385H122.983C122.983 340.385 131.183 340.385 131.183 348.585C131.183 348.585 131.183 356.784 139.382 356.784C139.382 356.784 147.581 356.784 147.581 364.983C147.581 364.983 147.581 373.183 139.382 373.183H90.1893C90.1893 373.183 81.99 373.183 81.99 381.382C81.99 381.382 81.99 389.581 73.7906 389.581H40.9967C40.9967 389.581 32.7973 389.581 32.7973 381.382C32.7973 381.382 32.7973 373.183 24.598 373.183C24.598 373.183 16.3987 373.183 16.3987 364.983C16.3987 364.983 16.3987 356.784 8.19933 356.784C8.19933 356.784 0 356.784 0 348.585V315.791C0 315.791 -3.98954e-06 307.591 8.19933 307.591C8.19933 307.591 16.3987 307.591 16.3987 299.392V250.199C16.3987 250.199 16.3987 242 24.598 242C24.598 242 32.7973 242 32.7973 250.199C32.7973 250.199 32.7973 258.399 40.9967 258.399C40.9967 258.399 49.196 258.399 49.196 266.598V315.791Z" fill="#FF0000" fill-opacity="0.5"/>
<path d="M49.196 315.791C49.196 315.791 49.196 323.99 40.9967 323.99C40.9967 323.99 32.7973 323.99 32.7973 332.189V346.536C32.7973 346.536 32.7973 356.784 43.0448 356.784H57.392C57.392 356.784 65.5913 356.784 65.5913 348.585C65.5913 348.585 65.5913 340.385 73.7906 340.385H122.983C122.983 340.385 131.183 340.385 131.183 348.585C131.183 348.585 131.183 356.784 139.382 356.784C139.382 356.784 147.581 356.784 147.581 364.983C147.581 364.983 147.581 373.183 139.382 373.183H90.1893C90.1893 373.183 81.99 373.183 81.99 381.382C81.99 381.382 81.99 389.581 73.7906 389.581H40.9967C40.9967 389.581 32.7973 389.581 32.7973 381.382C32.7973 381.382 32.7973 373.183 24.598 373.183C24.598 373.183 16.3987 373.183 16.3987 364.983C16.3987 364.983 16.3987 356.784 8.19933 356.784C8.19933 356.784 0 356.784 0 348.585V315.791C0 315.791 -3.98954e-06 307.591 8.19933 307.591C8.19933 307.591 16.3987 307.591 16.3987 299.392V250.199C16.3987 250.199 16.3987 242 24.598 242C24.598 242 32.7973 242 32.7973 250.199C32.7973 250.199 32.7973 258.399 40.9967 258.399C40.9967 258.399 49.196 258.399 49.196 266.598V315.791Z" fill="url(#paint0_linear_74_970)" fill-opacity="0.5"/>
</g>
<g filter="url(#filter1_b_74_970)">
<path d="M610.385 266.598C610.385 258.399 618.585 258.399 618.585 258.399C626.784 258.399 626.784 250.199 626.784 250.199C626.784 242 634.983 242 634.983 242C643.183 242 643.183 250.199 643.183 250.199V299.392C643.183 307.591 651.382 307.591 651.382 307.591C659.581 307.591 659.581 315.791 659.581 315.791V348.585C659.581 356.784 651.382 356.784 651.382 356.784C643.183 356.784 643.183 364.983 643.183 364.983C643.183 373.183 634.983 373.183 634.983 373.183C626.784 373.183 626.784 381.382 626.784 381.382C626.784 389.581 618.585 389.581 618.585 389.581H585.791C577.591 389.581 577.591 381.382 577.591 381.382C577.591 373.183 569.392 373.183 569.392 373.183H520.199C512 373.183 512 364.983 512 364.983C512 356.784 520.199 356.784 520.199 356.784C528.399 356.784 528.399 348.585 528.399 348.585C528.399 340.385 536.598 340.385 536.598 340.385H585.791C593.99 340.385 593.99 348.585 593.99 348.585C593.99 356.784 602.189 356.784 602.189 356.784H616.536C626.784 356.784 626.784 346.536 626.784 346.536V332.189C626.784 323.99 618.585 323.99 618.585 323.99C610.385 323.99 610.385 315.791 610.385 315.791V266.598Z" fill="#FF0000" fill-opacity="0.5"/>
<path d="M610.385 266.598C610.385 258.399 618.585 258.399 618.585 258.399C626.784 258.399 626.784 250.199 626.784 250.199C626.784 242 634.983 242 634.983 242C643.183 242 643.183 250.199 643.183 250.199V299.392C643.183 307.591 651.382 307.591 651.382 307.591C659.581 307.591 659.581 315.791 659.581 315.791V348.585C659.581 356.784 651.382 356.784 651.382 356.784C643.183 356.784 643.183 364.983 643.183 364.983C643.183 373.183 634.983 373.183 634.983 373.183C626.784 373.183 626.784 381.382 626.784 381.382C626.784 389.581 618.585 389.581 618.585 389.581H585.791C577.591 389.581 577.591 381.382 577.591 381.382C577.591 373.183 569.392 373.183 569.392 373.183H520.199C512 373.183 512 364.983 512 364.983C512 356.784 520.199 356.784 520.199 356.784C528.399 356.784 528.399 348.585 528.399 348.585C528.399 340.385 536.598 340.385 536.598 340.385H585.791C593.99 340.385 593.99 348.585 593.99 348.585C593.99 356.784 602.189 356.784 602.189 356.784H616.536C626.784 356.784 626.784 346.536 626.784 346.536V332.189C626.784 323.99 618.585 323.99 618.585 323.99C610.385 323.99 610.385 315.791 610.385 315.791V266.598Z" fill="url(#paint2_linear_74_970)" fill-opacity="0.5"/>
</g>
<g filter="url(#filter2_b_74_970)">
<path d="M610.389 73.7906C610.389 73.7906 610.389 65.5913 618.588 65.5913C618.588 65.5913 626.787 65.5913 626.787 57.392V43.0448C626.787 43.0448 626.787 32.7973 616.54 32.7973H602.193C602.193 32.7973 593.993 32.7973 593.993 40.9967C593.993 40.9967 593.993 49.196 585.794 49.196H536.598C536.598 49.196 528.399 49.196 528.399 40.9967C528.399 40.9967 528.399 32.7973 520.199 32.7973C520.199 32.7973 512 32.7973 512 24.598C512 24.598 512 16.3987 520.199 16.3987H569.392C569.392 16.3987 577.591 16.3987 577.591 8.19933C577.591 8.19933 577.591 0 585.791 0H618.585C618.585 0 626.784 -3.98954e-06 626.784 8.19933C626.784 8.19933 626.784 16.3987 634.983 16.3987C634.983 16.3987 643.183 16.3987 643.183 24.598C643.183 24.598 643.183 32.7973 651.382 32.7973C651.382 32.7973 659.581 32.7973 659.581 40.9967V73.7906C659.581 73.7906 659.581 81.99 651.382 81.99C651.382 81.99 643.183 81.99 643.183 90.1893V139.382C643.183 139.382 643.183 147.581 634.983 147.581C634.983 147.581 626.784 147.581 626.784 139.382C626.784 139.382 626.784 131.183 618.585 131.183C618.585 131.183 610.385 131.183 610.385 122.983L610.389 73.7906Z" fill="#FF0000" fill-opacity="0.5"/>
<path d="M610.389 73.7906C610.389 73.7906 610.389 65.5913 618.588 65.5913C618.588 65.5913 626.787 65.5913 626.787 57.392V43.0448C626.787 43.0448 626.787 32.7973 616.54 32.7973H602.193C602.193 32.7973 593.993 32.7973 593.993 40.9967C593.993 40.9967 593.993 49.196 585.794 49.196H536.598C536.598 49.196 528.399 49.196 528.399 40.9967C528.399 40.9967 528.399 32.7973 520.199 32.7973C520.199 32.7973 512 32.7973 512 24.598C512 24.598 512 16.3987 520.199 16.3987H569.392C569.392 16.3987 577.591 16.3987 577.591 8.19933C577.591 8.19933 577.591 0 585.791 0H618.585C618.585 0 626.784 -3.98954e-06 626.784 8.19933C626.784 8.19933 626.784 16.3987 634.983 16.3987C634.983 16.3987 643.183 16.3987 643.183 24.598C643.183 24.598 643.183 32.7973 651.382 32.7973C651.382 32.7973 659.581 32.7973 659.581 40.9967V73.7906C659.581 73.7906 659.581 81.99 651.382 81.99C651.382 81.99 643.183 81.99 643.183 90.1893V139.382C643.183 139.382 643.183 147.581 634.983 147.581C634.983 147.581 626.784 147.581 626.784 139.382C626.784 139.382 626.784 131.183 618.585 131.183C618.585 131.183 610.385 131.183 610.385 122.983L610.389 73.7906Z" fill="url(#paint4_linear_74_970)" fill-opacity="0.5"/>
</g>
<g filter="url(#filter3_b_74_970)">
<path d="M49.196 122.987C49.196 131.186 40.9967 131.186 40.9967 131.186C32.7973 131.186 32.7973 139.385 32.7973 139.385C32.7973 147.585 24.598 147.585 24.598 147.585C16.3987 147.585 16.3987 139.385 16.3987 139.385V90.1893C16.3987 81.99 8.19933 81.99 8.19933 81.99C-3.98954e-06 81.99 0 73.7906 0 73.7906V40.9967C0 32.7973 8.19933 32.7973 8.19933 32.7973C16.3987 32.7973 16.3987 24.598 16.3987 24.598C16.3987 16.3987 24.598 16.3987 24.598 16.3987C32.7973 16.3987 32.7973 8.19933 32.7973 8.19933C32.7973 -3.98954e-06 40.9967 0 40.9967 0H73.7906C81.99 0 81.99 8.19933 81.99 8.19933C81.99 16.3987 90.1893 16.3987 90.1893 16.3987H139.382C147.581 16.3987 147.581 24.598 147.581 24.598C147.581 32.7973 139.382 32.7973 139.382 32.7973C131.183 32.7973 131.183 40.9967 131.183 40.9967C131.183 49.196 122.983 49.196 122.983 49.196H73.7906C65.5913 49.196 65.5913 40.9967 65.5913 40.9967C65.5913 32.7973 57.392 32.7973 57.392 32.7973H43.0448C32.7973 32.7973 32.7973 43.0448 32.7973 43.0448V57.392C32.7973 65.5913 40.9967 65.5913 40.9967 65.5913C49.196 65.5913 49.196 73.7906 49.196 73.7906V122.987Z" fill="#FD0000" fill-opacity="0.5"/>
<path d="M49.196 122.987C49.196 131.186 40.9967 131.186 40.9967 131.186C32.7973 131.186 32.7973 139.385 32.7973 139.385C32.7973 147.585 24.598 147.585 24.598 147.585C16.3987 147.585 16.3987 139.385 16.3987 139.385V90.1893C16.3987 81.99 8.19933 81.99 8.19933 81.99C-3.98954e-06 81.99 0 73.7906 0 73.7906V40.9967C0 32.7973 8.19933 32.7973 8.19933 32.7973C16.3987 32.7973 16.3987 24.598 16.3987 24.598C16.3987 16.3987 24.598 16.3987 24.598 16.3987C32.7973 16.3987 32.7973 8.19933 32.7973 8.19933C32.7973 -3.98954e-06 40.9967 0 40.9967 0H73.7906C81.99 0 81.99 8.19933 81.99 8.19933C81.99 16.3987 90.1893 16.3987 90.1893 16.3987H139.382C147.581 16.3987 147.581 24.598 147.581 24.598C147.581 32.7973 139.382 32.7973 139.382 32.7973C131.183 32.7973 131.183 40.9967 131.183 40.9967C131.183 49.196 122.983 49.196 122.983 49.196H73.7906C65.5913 49.196 65.5913 40.9967 65.5913 40.9967C65.5913 32.7973 57.392 32.7973 57.392 32.7973H43.0448C32.7973 32.7973 32.7973 43.0448 32.7973 43.0448V57.392C32.7973 65.5913 40.9967 65.5913 40.9967 65.5913C49.196 65.5913 49.196 73.7906 49.196 73.7906V122.987Z" fill="url(#paint6_linear_74_970)" fill-opacity="0.5"/>
</g>
<defs>
<filter id="filter0_b_74_970" x="-10" y="232" width="167.581" height="167.581" filterUnits="userSpaceOnUse" color-interpolation-filters="sRGB">
<feFlood flood-opacity="0" result="BackgroundImageFix"/>
<feGaussianBlur in="BackgroundImageFix" stdDeviation="5"/>
<feComposite in2="SourceAlpha" operator="in" result="effect1_backgroundBlur_74_970"/>
<feBlend mode="normal" in="SourceGraphic" in2="effect1_backgroundBlur_74_970" result="shape"/>
</filter>
<filter id="filter1_b_74_970" x="502" y="232" width="167.581" height="167.581" filterUnits="userSpaceOnUse" color-interpolation-filters="sRGB">
<feFlood flood-opacity="0" result="BackgroundImageFix"/>
<feGaussianBlur in="BackgroundImageFix" stdDeviation="5"/>
<feComposite in2="SourceAlpha" operator="in" result="effect1_backgroundBlur_74_970"/>
<feBlend mode="normal" in="SourceGraphic" in2="effect1_backgroundBlur_74_970" result="shape"/>
</filter>
<filter id="filter2_b_74_970" x="502" y="-10" width="167.581" height="167.581" filterUnits="userSpaceOnUse" color-interpolation-filters="sRGB">
<feFlood flood-opacity="0" result="BackgroundImageFix"/>
<feGaussianBlur in="BackgroundImageFix" stdDeviation="5"/>
<feComposite in2="SourceAlpha" operator="in" result="effect1_backgroundBlur_74_970"/>
<feBlend mode="normal" in="SourceGraphic" in2="effect1_backgroundBlur_74_970" result="shape"/>
</filter>
<filter id="filter3_b_74_970" x="-10" y="-10" width="167.581" height="167.585" filterUnits="userSpaceOnUse" color-interpolation-filters="sRGB">
<feFlood flood-opacity="0" result="BackgroundImageFix"/>
<feGaussianBlur in="BackgroundImageFix" stdDeviation="5"/>
<feComposite in2="SourceAlpha" operator="in" result="effect1_backgroundBlur_74_970"/>
<feBlend mode="normal" in="SourceGraphic" in2="effect1_backgroundBlur_74_970" result="shape"/>
</filter>
<linearGradient id="paint0_linear_74_970" x1="74" y1="315.791" x2="0" y2="315.791" gradientUnits="userSpaceOnUse">
<stop stop-color="#9900FF" stop-opacity="0"/>
<stop offset="1" stop-color="#9900FF"/>
</linearGradient>
<linearGradient id="paint1_linear_74_970" x1="73.7906" y1="242" x2="73.7906" y2="389.581" gradientUnits="userSpaceOnUse">
<stop stop-color="#AA3DF5"/>
<stop offset="1" stop-color="#53177C"/>
</linearGradient>
<linearGradient id="paint2_linear_74_970" x1="586" y1="316" x2="660" y2="316" gradientUnits="userSpaceOnUse">
<stop stop-color="#9900FF" stop-opacity="0"/>
<stop offset="1" stop-color="#9900FF"/>
</linearGradient>
<linearGradient id="paint3_linear_74_970" x1="585.791" y1="242" x2="585.791" y2="389.581" gradientUnits="userSpaceOnUse">
<stop stop-color="#AA3DF5"/>
<stop offset="1" stop-color="#53177C"/>
</linearGradient>
<linearGradient id="paint4_linear_74_970" x1="586" y1="74" x2="660" y2="74" gradientUnits="userSpaceOnUse">
<stop stop-color="#9900FF" stop-opacity="0"/>
<stop offset="1" stop-color="#9900FF"/>
</linearGradient>
<linearGradient id="paint5_linear_74_970" x1="585.791" y1="0" x2="585.791" y2="147.581" gradientUnits="userSpaceOnUse">
<stop stop-color="#AA3DF5"/>
<stop offset="1" stop-color="#53177C"/>
</linearGradient>
<linearGradient id="paint6_linear_74_970" x1="74" y1="73.7923" x2="0" y2="73.7923" gradientUnits="userSpaceOnUse">
<stop stop-color="#9900FF" stop-opacity="0"/>
<stop offset="1" stop-color="#9900FF"/>
</linearGradient>
<linearGradient id="paint7_linear_74_970" x1="73.7906" y1="0" x2="73.7906" y2="147.585" gradientUnits="userSpaceOnUse">
<stop stop-color="#AA3DF5"/>
<stop offset="1" stop-color="#53177C"/>
</linearGradient>
</defs>
</svg>
