<svg width="200" height="200" xmlns="http://www.w3.org/2000/svg" viewBox="0 0 147.58 147.59">
    <path d="M49.2,122.99c0,8.2-8.2,8.2-8.2,8.2-8.2,0-8.2,8.2-8.2,8.2,0,8.2-8.2,8.2-8.2,8.2-8.2,0-8.2-8.2-8.2-8.2v-49.2c0-8.2-8.2-8.2-8.2-8.2C0,81.99,0,73.79,0,73.79v-32.79c0-8.2,8.2-8.2,8.2-8.2,8.2,0,8.2-8.2,8.2-8.2,0-8.2,8.2-8.2,8.2-8.2,8.2,0,8.2-8.2,8.2-8.2C32.8,0,41,0,41,0h32.79c8.2,0,8.2,8.2,8.2,8.2,0,8.2,8.2,8.2,8.2,8.2h49.19c8.2,0,8.2,8.2,8.2,8.2,0,8.2-8.2,8.2-8.2,8.2-8.2,0-8.2,8.2-8.2,8.2,0,8.2-8.2,8.2-8.2,8.2h-49.19c-8.2,0-8.2-8.2-8.2-8.2,0-8.2-8.2-8.2-8.2-8.2h-14.35c-10.25,0-10.25,10.25-10.25,10.25v14.35c0,8.2,8.2,8.2,8.2,8.2,8.2,0,8.2,8.2,8.2,8.2v49.2Z"
          fill="none" stroke="#ffffff" stroke-width="1"/>
</svg>