<?xml version="1.0" encoding="UTF-8"?>
<svg id="Livello_1" data-name="Livello 1" xmlns="http://www.w3.org/2000/svg" xmlns:xlink="http://www.w3.org/1999/xlink" viewBox="0 0 147.58 147.59">
  <defs>
    <style>
      .cls-1 {
        fill: none;
        stroke: #ab00ff;
        stroke-miterlimit: 10;
      }

      .cls-2 {
        fill: url(#Sfumatura_senza_nome);
        fill-opacity: .5;
      }
    </style>
    <linearGradient id="Sfumatura_senza_nome" data-name="Sfumatura senza nome" x1="-1.5" y1="76.21" x2="148" y2="76.21" gradientTransform="translate(0 150) scale(1 -1)" gradientUnits="userSpaceOnUse">
      <stop offset="0" stop-color="#ab00ff" stop-opacity="0"/>
      <stop offset="1" stop-color="#ab00ff"/>
    </linearGradient>
  </defs>



  <path class="cls-2" d="M49.2,122.99c0,8.2-8.2,8.2-8.2,8.2-8.2,0-8.2,8.2-8.2,8.2,0,8.2-8.2,8.2-8.2,8.2-8.2,0-8.2-8.2-8.2-8.2v-49.2c0-8.2-8.2-8.2-8.2-8.2C0,81.99,0,73.79,0,73.79v-32.79c0-8.2,8.2-8.2,8.2-8.2,8.2,0,8.2-8.2,8.2-8.2,0-8.2,8.2-8.2,8.2-8.2,8.2,0,8.2-8.2,8.2-8.2C32.8,0,41,0,41,0h32.79c8.2,0,8.2,8.2,8.2,8.2,0,8.2,8.2,8.2,8.2,8.2h49.19c8.2,0,8.2,8.2,8.2,8.2,0,8.2-8.2,8.2-8.2,8.2-8.2,0-8.2,8.2-8.2,8.2,0,8.2-8.2,8.2-8.2,8.2h-49.19c-8.2,0-8.2-8.2-8.2-8.2,0-8.2-8.2-8.2-8.2-8.2h-14.35c-10.25,0-10.25,10.25-10.25,10.25v14.35c0,8.2,8.2,8.2,8.2,8.2,8.2,0,8.2,8.2,8.2,8.2v49.2Z"/>
  <path class="cls-1"  d="M16.9,24.6h-.5q.5,0,.5,0h0s0,0,0,0v.02s0,.04,0,.08c0,.07,0,.16-.02.28-.02.24-.05.57-.12.98-.13.8-.4,1.88-.94,2.96-.54,1.08-1.36,2.18-2.6,3.01-1.24.83-2.88,1.37-5.02,1.37M16.9,24.6c0-1.96.49-3.4,1.2-4.46.71-1.07,1.66-1.78,2.63-2.26.97-.48,1.94-.73,2.68-.85.37-.06.67-.09.88-.11.11,0,.19-.01.24-.01.03,0,.05,0,.06,0h.01s0,0,0,0M33.3,8.2h0s0,.03,0,.03c0,.01,0,.03,0,.04,0,.01,0,.02,0,.04,0,.07,0,.16-.01.28-.02.24-.05.57-.12.98-.13.8-.4,1.88-.94,2.96-.54,1.08-1.36,2.18-2.6,3.01-1.24.83-2.88,1.37-5.02,1.37M33.3,8.2c0-1.96.49-3.4,1.2-4.46.71-1.07,1.66-1.78,2.63-2.26.97-.48,1.94-.73,2.68-.85.37-.06.67-.09.88-.11.11,0,.19-.01.24-.01.03,0,.05,0,.06,0h.01s0,0,0,0h32.79c1.96,0,3.4.49,4.46,1.2,1.07.71,1.78,1.66,2.26,2.63.48.97.73,1.94.85,2.68.06.37.09.67.11.88,0,.11.01.19.01.24,0,.03,0,.05,0,.06h0v.02M41,130.69c-2.14,0-3.77.54-5.02,1.36-1.24.83-2.06,1.93-2.6,3.01-.54,1.08-.81,2.16-.94,2.96-.07.4-.1.74-.12.97,0,.12-.01.21-.02.28,0,.01,0,.02,0,.04,0,.02,0,.03,0,.04v.02s0,0,0,0h0s0,0,.5,0h-.5c0,1.96-.49,3.4-1.2,4.46-.71,1.06-1.66,1.78-2.63,2.26-.97.48-1.94.73-2.68.85-.37.06-.67.09-.88.11-.11,0-.19.01-.24.01-.02,0-.03,0-.04,0h-.03s0,0,0,0h0c-1.96,0-3.4-.49-4.46-1.2-1.07-.71-1.78-1.66-2.26-2.63-.48-.97-.73-1.94-.85-2.68-.06-.37-.09-.67-.11-.88,0-.1-.01-.19-.01-.24,0-.01,0-.03,0-.04,0,0,0-.02,0-.02h0v-.02h0v-49.2c0-2.14-.54-3.77-1.37-5.02-.83-1.24-1.93-2.06-3.01-2.6-1.08-.54-2.16-.81-2.96-.94-.4-.07-.74-.1-.98-.12-.12,0-.21-.01-.28-.01-.03,0-.06,0-.08,0h-.02s0,0,0,0h0s0,0,0,.5v-.5c-1.96,0-3.4-.49-4.46-1.2-1.07-.71-1.78-1.66-2.26-2.63-.48-.97-.73-1.94-.85-2.68-.06-.37-.09-.67-.11-.88,0-.11-.01-.19-.01-.24,0-.03,0-.05,0-.06h0s0-.02,0-.02h0v-32.79c0-1.96.49-3.4,1.2-4.46.71-1.07,1.66-1.78,2.63-2.26.97-.48,1.94-.73,2.68-.85.37-.06.67-.09.88-.11.11,0,.19-.01.24-.01.03,0,.05,0,.06,0h.01s0,0,0,0M66.09,41c0-2.14-.54-3.77-1.37-5.02-.83-1.24-1.93-2.06-3.01-2.6-1.08-.54-2.16-.81-2.96-.94-.4-.07-.74-.1-.98-.12-.12,0-.21-.01-.28-.02-.03,0-.06,0-.08,0h-.02s0,0,0,0h0s0,0,0,.5v-.5h-14.35c-2.65,0-4.67.66-6.2,1.69-1.53,1.02-2.54,2.37-3.21,3.72-.67,1.34-1,2.67-1.17,3.66-.08.5-.12.91-.15,1.21-.01.15-.02.26-.02.34,0,.04,0,.07,0,.09v.03s0,0,0,0h0s0,0,.5,0h-.5v14.35c0,2.14.54,3.77,1.37,5.02.83,1.24,1.93,2.06,3.01,2.6,1.08.54,2.16.81,2.96.94.4.07.74.1.98.12.12,0,.21.01.28.01.03,0,.06,0,.08,0h.02s0,0,0,0h0s0,0,0-.5v.5c1.96,0,3.4.49,4.46,1.2,1.07.71,1.78,1.66,2.26,2.63.48.97.73,1.94.85,2.68.06.37.09.67.11.88,0,.11.01.19.01.24,0,.03,0,.05,0,.06h0v.02h0v49.2c0,1.96-.49,3.4-1.2,4.46-.71,1.07-1.66,1.78-2.63,2.26-.97.48-1.94.73-2.68.85-.37.06-.67.09-.88.11-.11,0-.19.01-.24.01-.01,0-.02,0-.03,0-.01,0-.02,0-.03,0h-.02M139.38,32.3c-5.32-.2-8.61,4.04-8.7,8.67,0,.06-.03.02.5.03h-.5c.21,4.78-3.6,7.61-7.7,7.7-.17,0-49.14,0-49.36,0-4.66.14-7.44-3.65-7.53-7.7M81.49,8.2c0,2.23.54,3.78,1.37,5.02.83,1.24,1.93,2.06,3.01,2.6,1.08.54,2.16.81,2.96.94.4.07.74.1.98.12.12,0,.21.01.28.02.03,0,.06,0,.08,0h.02s0,0,0,0h0s0,0,0-.5v.5h49.19c1.96,0,3.4.49,4.46,1.2,1.07.71,1.78,1.66,2.26,2.63.48.97.73,1.94.85,2.68.06.37.09.67.11.88,0,.11.01.19.01.24,0,.03,0,.05,0,.06h0v.02h0c0,1.96-.49,3.4-1.2,4.46-.71,1.07-1.66,1.78-2.63,2.26-.97.48-1.94.73-2.68.85-.37.06-.67.09-.88.11-.11,0-.19.01-.24.01-.03,0-.05,0-.06,0h-.01"/>
</svg>