<svg width="70" height="70" viewBox="0 0 70 70" fill="none" xmlns="http://www.w3.org/2000/svg">
<path d="M33.4534 60.5948C32.6452 59.8318 33.5808 58.5844 35.7532 58.1317C37.9194 57.6688 40.2705 58.3282 40.7885 59.3446C41.3149 60.3754 40.0222 61.1408 38.1439 61.334C36.2642 61.523 34.2692 61.3606 33.4534 60.5948Z" fill="#FF4433"/>
<path d="M25.8421 52.2766C24.3899 49.5541 25.8552 46.3075 29.4644 45.2537C33.0708 44.1907 37.2587 45.9589 38.4529 48.9633C39.6583 51.9789 37.6441 54.8223 34.3089 55.5769C30.9675 56.3324 27.3112 55.0075 25.8421 52.2766Z" fill="#FF4433"/>
<path d="M11.0493 46.2675C11.5262 45.2017 13.0214 45.3622 14.4508 46.8719C15.8713 48.3811 16.3669 50.5949 15.5279 51.6137C14.6972 52.638 13.0443 52.1825 11.9686 50.7209C10.9009 49.2467 10.5733 47.3334 11.0493 46.2675Z" fill="#FF4433"/>
<path d="M15.3225 36.2301C17.0347 33.7736 20.7499 33.2687 23.5513 35.5675C26.348 37.8532 26.7493 42.0163 24.4795 44.4458C22.2147 46.8874 18.4851 46.7213 16.2255 44.4481C13.9837 42.1591 13.6197 38.689 15.3225 36.2301Z" fill="#FF4433"/>
<path d="M12.8917 21.3635C14.1615 21.1885 14.9949 22.6356 14.4508 24.6063C13.9169 26.5831 12.2859 28.1203 11.2145 28.0597C10.1411 27.999 9.89659 26.6149 10.2181 24.8789C10.5457 23.1354 11.6018 21.5343 12.8917 21.3635Z" fill="#FF4433"/>
<path d="M24.8878 19.7026C28.2119 19.9149 30.583 22.6771 29.7943 26.0516C29.0169 29.4228 25.2387 31.8186 21.8269 31.2675C18.4114 30.7178 16.7449 27.7708 17.5817 24.7398C18.4268 21.6915 21.5418 19.4828 24.8878 19.7026Z" fill="#FF4433"/>
<path d="M38.0529 10.8837C38.8612 11.6472 37.9255 12.8941 35.7532 13.3468C33.5869 13.8097 31.2368 13.1503 30.7179 12.1339C30.1915 11.1026 31.4837 10.3372 33.3625 10.1445C35.2417 9.95596 37.2367 10.1179 38.0529 10.8837Z" fill="#FF4433"/>
<path d="M45.6643 19.2019C47.117 21.9235 45.6512 25.171 42.042 26.2247C38.4356 27.2887 34.2478 25.5187 33.0536 22.5152C31.8482 19.4996 33.8618 16.6562 37.1976 15.9016C40.5389 15.1466 44.1957 16.4724 45.6643 19.2019Z" fill="#FF4433"/>
<path d="M60.4571 25.211C59.9797 26.2773 58.485 26.1158 57.0556 24.6066C55.6355 23.0965 55.1399 20.8826 55.9785 19.8648C56.8092 18.8396 58.4621 19.2955 59.5383 20.7576C60.606 22.2322 60.9322 24.1456 60.4571 25.211Z" fill="#FF4433"/>
<path d="M56.1838 35.2487C54.4716 37.7062 50.7565 38.2097 47.9551 35.9114C45.1584 33.6257 44.757 29.4625 47.0269 27.0331C49.2916 24.591 53.0212 24.759 55.2808 27.0307C57.5227 29.3193 57.8858 32.7889 56.1838 35.2487Z" fill="#FF4433"/>
<path d="M58.6147 50.1154C57.3449 50.2904 56.511 48.8447 57.0556 46.8721C57.5895 44.8953 59.2205 43.3581 60.2919 43.4187C61.3653 43.4799 61.6098 44.8631 61.2883 46.5995C60.9602 48.3425 59.9041 49.9451 58.6147 50.1154Z" fill="#FF4433"/>
<path d="M46.6186 51.7764C43.2941 51.564 40.9234 48.8009 41.7121 45.4274C42.49 42.0566 46.2681 39.6598 49.6795 40.2114C53.0955 40.7612 54.7619 43.7072 53.9247 46.7392C53.0796 49.7874 49.9646 51.9957 46.6186 51.7764Z" fill="#FF4433"/>
</svg>
