<svg width="393" height="696" viewBox="0 0 393 696" fill="none" xmlns="http://www.w3.org/2000/svg">
<path d="M208.745 670.005C328.831 455.013 445.364 316.797 447.528 255.387C447.54 256.887 447.546 258.363 447.546 259.863C447.552 318.387 330.033 455.085 208.745 670.005Z" fill="url(#paint0_linear_128_11602)"/>
<path d="M208.457 669.975C325.579 454.743 439.382 312.537 447.137 243.363C447.209 244.803 447.275 246.261 447.324 247.725C441.577 314.073 326.781 454.839 208.457 669.975Z" fill="url(#paint1_linear_128_11602)"/>
<path d="M208.174 669.981C322.309 454.503 433.401 308.391 446.302 231.633C446.434 233.055 446.548 234.477 446.656 235.899C435.595 309.891 323.505 454.599 208.174 669.981Z" fill="url(#paint2_linear_128_11602)"/>
<path d="M207.88 669.96C319.05 454.26 427.396 304.344 445.045 220.218C445.232 221.604 445.4 222.99 445.55 224.376C429.596 305.808 320.241 454.338 207.88 669.96Z" fill="url(#paint3_linear_128_11602)"/>
<path d="M207.603 669.94C315.798 454.036 421.384 300.412 443.368 209.098C443.608 210.448 443.837 211.792 444.035 213.142C423.596 301.834 316.988 454.108 207.603 669.94Z" fill="url(#paint4_linear_128_11602)"/>
<path d="M207.309 669.942C312.516 453.81 415.372 296.574 441.312 198.3C441.577 199.59 441.847 200.904 442.112 202.212C417.573 297.966 313.736 453.888 207.309 669.942Z" fill="url(#paint5_linear_128_11602)"/>
<path d="M207.02 669.942C309.264 453.564 409.325 292.854 438.841 187.782C439.16 189.036 439.479 190.308 439.785 191.598C411.525 294.204 310.466 453.66 207.02 669.942Z" fill="url(#paint6_linear_128_11602)"/>
<path d="M206.732 669.923C306.011 453.359 403.259 289.241 435.98 177.562C436.353 178.799 436.713 180.035 437.08 181.271C405.49 290.548 307.202 453.437 206.732 669.923Z" fill="url(#paint7_linear_128_11602)"/>
<path d="M206.449 669.926C302.747 453.158 397.212 285.746 432.764 167.666C433.166 168.866 433.599 170.042 433.972 171.242C399.43 287 303.949 453.236 206.449 669.926Z" fill="url(#paint8_linear_128_11602)"/>
<path d="M206.155 669.906C299.471 452.952 391.116 282.336 429.169 158.046C429.626 159.204 430.089 160.368 430.528 161.544C393.358 283.554 300.673 453.024 206.155 669.906Z" fill="url(#paint9_linear_128_11602)"/>
<path d="M205.878 669.888C296.213 452.766 385.045 279.042 425.237 148.74C425.742 149.862 426.241 150.984 426.716 152.112C387.281 280.242 297.415 452.82 205.878 669.888Z" fill="url(#paint10_linear_128_11602)"/>
<path d="M205.583 669.888C292.954 452.574 378.955 275.862 420.975 139.74C421.51 140.826 422.045 141.912 422.568 142.998C381.185 277.002 294.151 452.634 205.583 669.888Z" fill="url(#paint11_linear_128_11602)"/>
<path d="M205.307 669.888C289.696 452.37 372.847 272.772 416.376 131.034C416.96 132.084 417.531 133.128 418.084 134.196C375.083 273.876 290.886 452.448 205.307 669.888Z" fill="url(#paint12_linear_128_11602)"/>
<path d="M205.024 669.873C286.426 452.205 366.728 269.799 411.453 122.637C412.084 123.645 412.679 124.659 413.299 125.691C368.964 270.885 287.622 452.259 205.024 669.873Z" fill="url(#paint13_linear_128_11602)"/>
<path d="M204.724 669.852C283.174 452.034 360.608 266.934 406.241 114.546C406.878 115.5 407.546 116.496 408.171 117.486C362.856 267.96 284.364 452.088 204.724 669.852Z" fill="url(#paint14_linear_128_11602)"/>
<path d="M204.459 669.852C279.885 451.866 354.476 264.162 400.717 106.746C401.408 107.682 402.087 108.618 402.778 109.572C356.706 265.152 281.106 451.938 204.459 669.852Z" fill="url(#paint15_linear_128_11602)"/>
<path d="M204.159 669.852C276.633 451.698 348.332 261.504 394.921 99.2578C395.643 100.158 396.364 101.052 397.08 101.97C350.587 262.476 277.83 451.77 204.159 669.852Z" fill="url(#paint16_linear_128_11602)"/>
<path d="M203.876 669.852C273.363 451.566 342.171 258.978 388.856 92.0518C389.625 92.9338 390.365 93.7918 391.104 94.6738C344.431 259.878 274.571 451.62 203.876 669.852Z" fill="url(#paint17_linear_128_11602)"/>
<path d="M203.582 669.83C270.105 451.412 336.015 256.526 382.532 85.1602C383.331 85.9822 384.095 86.8282 384.888 87.6502C338.275 257.408 271.289 451.472 203.582 669.83Z" fill="url(#paint18_linear_128_11602)"/>
<path d="M203.299 669.826C266.84 451.282 329.847 254.182 375.955 78.5684C376.779 79.3544 377.578 80.1583 378.396 80.9623C332.119 255.046 268.031 451.318 203.299 669.826Z" fill="url(#paint19_linear_128_11602)"/>
<path d="M203.016 669.828C263.558 451.152 323.685 251.976 369.138 72.2822C369.992 73.0322 370.833 73.8002 371.669 74.5682C325.934 252.762 264.773 451.188 203.016 669.828Z" fill="url(#paint20_linear_128_11602)"/>
<path d="M202.734 669.809C260.3 451.019 317.487 249.84 362.087 66.3115C362.97 67.0255 363.848 67.7515 364.702 68.4655C319.766 250.614 261.496 451.061 202.734 669.809Z" fill="url(#paint21_linear_128_11602)"/>
<path d="M202.445 669.789C257.03 450.885 311.307 247.839 354.849 60.6211C355.738 61.2931 356.64 61.9891 357.53 62.6791C313.58 248.571 258.238 450.945 202.445 669.789Z" fill="url(#paint22_linear_128_11602)"/>
<path d="M202.151 669.792C253.778 450.78 305.11 245.934 347.389 55.2539C348.308 55.8899 349.216 56.5439 350.148 57.1799C307.37 246.606 254.968 450.834 202.151 669.792Z" fill="url(#paint23_linear_128_11602)"/>
<path d="M201.862 669.794C250.507 450.686 298.912 244.136 339.724 50.1797C340.662 50.7797 341.611 51.3797 342.555 51.9977C301.184 244.772 251.698 450.728 201.862 669.794Z" fill="url(#paint24_linear_128_11602)"/>
<path d="M201.58 669.794C247.231 450.572 292.696 242.45 331.885 45.4102C332.859 45.9502 333.815 46.5321 334.782 47.1141C294.986 243.05 248.439 450.614 201.58 669.794Z" fill="url(#paint25_linear_128_11602)"/>
<path d="M201.291 669.794C243.973 450.482 286.492 240.884 323.902 40.9219C324.869 41.4679 325.861 41.9899 326.847 42.5299C288.77 241.424 245.163 450.518 201.291 669.794Z" fill="url(#paint26_linear_128_11602)"/>
<path d="M201.009 669.774C240.709 450.384 280.27 239.382 315.732 36.7441C316.736 37.2301 317.74 37.7341 318.72 38.2441C282.555 239.904 241.899 450.426 201.009 669.774Z" fill="url(#paint27_linear_128_11602)"/>
<path d="M200.726 669.771C237.432 450.309 274.054 238.011 307.406 32.8652C308.428 33.3332 309.462 33.8012 310.472 34.2512C276.345 238.497 238.647 450.345 200.726 669.771Z" fill="url(#paint28_linear_128_11602)"/>
<path d="M200.438 669.772C234.174 450.232 267.82 236.74 298.948 29.3145C300 29.7285 301.028 30.1545 302.062 30.5865C270.099 237.208 235.364 450.274 200.438 669.772Z" fill="url(#paint29_linear_128_11602)"/>
<path d="M200.155 669.774C230.898 450.18 261.598 235.602 290.363 26.04C291.434 26.412 292.48 26.808 293.532 27.198C263.883 235.998 232.1 450.198 200.155 669.774Z" fill="url(#paint30_linear_128_11602)"/>
<path d="M199.854 669.772C227.627 450.1 255.371 234.532 281.689 23.0801C282.747 23.4161 283.817 23.7701 284.887 24.1301C257.661 234.91 228.83 450.124 199.854 669.772Z" fill="url(#paint31_linear_128_11602)"/>
<path d="M199.578 669.776C224.375 450.05 249.131 233.618 272.9 20.4082C273.97 20.7262 275.046 21.0442 276.122 21.3622C251.403 233.936 225.566 450.068 199.578 669.776Z" fill="url(#paint32_linear_128_11602)"/>
<path d="M199.283 669.772C221.099 450.01 242.891 232.756 263.997 18.0645C265.085 18.3285 266.173 18.6045 267.261 18.8865C245.187 233.056 222.283 450.01 199.283 669.772Z" fill="url(#paint33_linear_128_11602)"/>
<path d="M199.001 669.774C217.829 449.958 236.633 232.026 255.028 16.0078C256.128 16.2358 257.21 16.4758 258.328 16.7218C238.935 232.29 219.019 449.976 199.001 669.774Z" fill="url(#paint34_linear_128_11602)"/>
<path d="M198.712 669.774C214.559 449.916 230.393 231.426 245.987 14.25C247.093 14.436 248.193 14.646 249.299 14.85C232.689 231.636 215.767 449.916 198.712 669.774Z" fill="url(#paint35_linear_128_11602)"/>
<path d="M198.43 669.774C211.282 449.898 224.159 230.904 236.879 12.7861C237.985 12.9541 239.109 13.1221 240.228 13.2901C226.455 231.072 212.485 449.898 198.43 669.774Z" fill="url(#paint36_linear_128_11602)"/>
<path d="M198.141 669.776C208.024 449.864 217.913 230.492 227.73 11.6484C228.854 11.7624 229.972 11.8944 231.084 12.0204C220.191 230.642 209.226 449.864 198.141 669.776Z" fill="url(#paint37_linear_128_11602)"/>
<path d="M197.859 669.774C204.748 449.844 211.649 230.19 218.544 10.7822C219.662 10.8782 220.804 10.9682 221.917 11.0642C213.945 230.286 205.944 449.844 197.859 669.774Z" fill="url(#paint38_linear_128_11602)"/>
<path d="M197.558 669.774C201.478 449.844 205.415 229.986 209.335 10.2422C210.453 10.2782 211.583 10.3322 212.719 10.4102C207.705 230.064 202.686 449.844 197.558 669.774Z" fill="url(#paint39_linear_128_11602)"/>
<path d="M197.276 669.774C198.213 449.844 199.163 229.914 200.107 10.002C201.231 10.002 202.355 10.038 203.485 10.056C201.454 229.932 199.404 449.844 197.276 669.774Z" fill="url(#paint40_linear_128_11602)"/>
<path d="M196.987 669.774C194.955 449.844 192.911 229.932 190.885 10.056C192.003 10.038 193.128 10.002 194.264 10.002C195.195 229.914 196.145 449.844 196.987 669.774Z" fill="url(#paint41_linear_128_11602)"/>
<path d="M196.704 669.774C191.679 449.844 186.653 230.064 181.646 10.4102C182.782 10.3322 183.894 10.2782 185.03 10.2422C188.95 229.986 192.881 449.844 196.704 669.774Z" fill="url(#paint42_linear_128_11602)"/>
<path d="M196.416 669.774C188.409 449.844 180.419 230.286 172.46 11.0642C173.578 10.9682 174.69 10.8782 175.826 10.7822C182.698 230.19 189.611 449.844 196.416 669.774Z" fill="url(#paint43_linear_128_11602)"/>
<path d="M196.133 669.776C185.156 449.864 174.155 230.642 163.263 12.0204C164.387 11.8884 165.505 11.7564 166.617 11.6484C176.452 230.492 186.347 449.864 196.133 669.776Z" fill="url(#paint44_linear_128_11602)"/>
<path d="M195.845 669.774C181.886 449.898 167.915 231.072 154.143 13.2901C155.261 13.1221 156.367 12.9541 157.491 12.7861C170.212 230.904 183.064 449.898 195.845 669.774Z" fill="url(#paint45_linear_128_11602)"/>
<path d="M195.55 669.774C178.61 449.916 161.675 231.636 145.06 14.8441C146.166 14.6401 147.266 14.4301 148.378 14.2441C163.954 231.426 179.812 449.916 195.55 669.774Z" fill="url(#paint46_linear_128_11602)"/>
<path d="M195.262 669.774C175.34 449.976 155.429 232.29 136.042 16.716C137.13 16.47 138.237 16.23 139.343 16.002C157.714 232.026 176.548 449.958 195.262 669.774Z" fill="url(#paint47_linear_128_11602)"/>
<path d="M194.979 669.772C172.087 450.01 149.19 233.056 127.109 18.8865C128.179 18.6045 129.273 18.3225 130.362 18.0645C151.468 232.756 173.266 450.01 194.979 669.772Z" fill="url(#paint48_linear_128_11602)"/>
<path d="M194.691 669.776C168.805 450.068 142.944 233.936 118.23 21.3622C119.318 21.0442 120.407 20.7262 121.477 20.4082C145.24 233.618 170.001 450.05 194.691 669.776Z" fill="url(#paint49_linear_128_11602)"/>
<path d="M194.408 669.772C165.541 450.124 136.722 234.928 109.484 24.1301C110.542 23.7761 111.612 23.4161 112.682 23.0801C139.006 234.532 166.731 450.106 194.408 669.772Z" fill="url(#paint50_linear_128_11602)"/>
<path d="M194.119 669.774C162.259 450.198 130.488 236.01 100.827 27.198C101.879 26.808 102.937 26.412 103.989 26.04C132.772 235.602 163.467 450.18 194.119 669.774Z" fill="url(#paint51_linear_128_11602)"/>
<path d="M193.837 669.772C159.006 450.274 124.26 237.208 92.3028 30.5865C93.3368 30.1545 94.3768 29.7285 95.4047 29.3145C126.544 236.74 160.197 450.232 193.837 669.772Z" fill="url(#paint52_linear_128_11602)"/>
<path d="M193.554 669.771C155.736 450.345 118.032 238.497 83.8867 34.2512C84.9206 33.8012 85.9306 33.3332 86.9525 32.8652C120.322 238.011 156.926 450.309 193.554 669.771Z" fill="url(#paint53_linear_128_11602)"/>
<path d="M193.254 669.792C152.46 450.426 111.798 239.904 75.6329 38.2441C76.6368 37.7401 77.6407 37.2361 78.6447 36.7441C114.088 239.382 153.668 450.384 193.254 669.792Z" fill="url(#paint54_linear_128_11602)"/>
<path d="M192.965 669.794C149.208 450.518 105.588 241.424 67.5234 42.5299C68.5093 41.9899 69.4831 41.4619 70.475 40.9219C107.867 240.866 150.392 450.482 192.965 669.794Z" fill="url(#paint55_linear_128_11602)"/>
<path d="M192.683 669.794C145.925 450.614 99.4023 243.05 59.5822 47.1141C60.55 46.5321 61.5059 45.9562 62.4617 45.4102C101.663 242.456 147.134 450.572 192.683 669.794Z" fill="url(#paint56_linear_128_11602)"/>
<path d="M192.4 669.794C142.661 450.728 93.1744 244.772 51.8093 51.9977C52.7531 51.3797 53.6849 50.7797 54.6287 50.1797C95.4588 244.136 143.863 450.686 192.4 669.794Z" fill="url(#paint57_linear_128_11602)"/>
<path d="M192.112 669.792C139.409 450.834 87.0006 246.606 44.2228 57.1799C45.1486 56.5439 46.0624 55.8899 46.9881 55.2539C89.255 245.934 140.593 450.78 192.112 669.792Z" fill="url(#paint58_linear_128_11602)"/>
<path d="M191.829 669.807C136.127 450.945 80.7908 248.571 36.8347 62.6791C37.7244 61.9891 38.6141 61.2931 39.5159 60.6211C83.0691 247.839 137.329 450.891 191.829 669.807Z" fill="url(#paint59_linear_128_11602)"/>
<path d="M191.541 669.828C132.868 451.056 74.605 250.608 29.663 68.4655C30.5167 67.7515 31.4003 67.0255 32.2479 66.3115C76.8713 249.846 134.059 451.02 191.541 669.828Z" fill="url(#paint60_linear_128_11602)"/>
<path d="M191.258 669.828C129.604 451.188 68.4251 252.762 22.7077 74.5682C23.5433 73.8002 24.3849 73.0322 25.2325 72.2822C70.6854 251.976 130.794 451.152 191.258 669.828Z" fill="url(#paint61_linear_128_11602)"/>
<path d="M190.957 669.826C126.328 451.318 62.2513 255.046 15.9688 80.9682C16.7864 80.1642 17.5919 79.3602 18.4155 78.5742C64.5177 254.182 127.542 451.282 190.957 669.826Z" fill="url(#paint62_linear_128_11602)"/>
<path d="M190.675 669.83C123.076 451.472 56.1016 257.402 9.47644 87.6502C10.2519 86.8282 11.0394 85.9822 11.8269 85.1602C58.3559 256.526 124.26 451.418 190.675 669.83Z" fill="url(#paint63_linear_128_11602)"/>
<path d="M190.386 669.852C119.793 451.62 49.9278 259.878 3.26053 94.6679C3.99994 93.7859 4.75138 92.9279 5.50883 92.0459C52.1941 258.978 120.996 451.566 190.386 669.852Z" fill="url(#paint64_linear_128_11602)"/>
<path d="M190.104 669.852C116.541 451.77 43.778 262.476 -2.72092 101.97C-2.00555 101.052 -1.28417 100.158 -0.556775 99.2578C46.0443 261.504 117.731 451.698 190.104 669.852Z" fill="url(#paint65_linear_128_11602)"/>
<path d="M189.815 669.852C113.277 451.944 37.6463 265.158 -8.40176 109.572C-7.72848 108.618 -7.04317 107.682 -6.35785 106.746C39.8946 264.162 114.467 451.866 189.815 669.852Z" fill="url(#paint66_linear_128_11602)"/>
<path d="M189.533 669.852C110.007 452.088 31.5146 267.96 -13.8181 117.486C-13.1689 116.496 -12.5256 115.5 -11.8584 114.546C33.7629 266.934 111.209 452.034 189.533 669.852Z" fill="url(#paint67_linear_128_11602)"/>
<path d="M189.244 669.873C106.742 452.259 25.4008 270.885 -18.9279 125.685C-18.3268 124.653 -17.7076 123.645 -17.0884 122.631C27.6371 269.799 107.927 452.205 189.244 669.873Z" fill="url(#paint68_linear_128_11602)"/>
<path d="M188.95 669.888C103.49 452.448 19.2932 273.876 -23.7251 134.196C-23.16 133.128 -22.5889 132.084 -21.9998 131.034C21.5355 272.772 104.674 452.37 188.95 669.888Z" fill="url(#paint69_linear_128_11602)"/>
<path d="M188.661 669.888C100.208 452.634 13.1735 277.002 -28.2217 142.998C-27.6746 141.912 -27.1516 140.826 -26.6106 139.74C15.4158 275.862 101.416 452.574 188.661 669.888Z" fill="url(#paint70_linear_128_11602)"/>
<path d="M188.378 669.906C96.9557 452.82 7.09586 280.242 -32.3636 152.112C-31.8646 150.99 -31.3717 149.868 -30.8667 148.74C9.30809 279.042 98.146 452.766 188.378 669.906Z" fill="url(#paint71_linear_128_11602)"/>
<path d="M188.09 669.906C93.6734 453.024 1.01223 283.554 -36.1628 161.544C-35.724 160.368 -35.2731 159.204 -34.8223 158.046C3.23648 282.336 94.8817 452.952 188.09 669.906Z" fill="url(#paint72_linear_128_11602)"/>
<path d="M187.807 669.926C90.4212 453.236 -5.06538 287 -39.6134 171.242C-39.2227 170.042 -38.8079 168.866 -38.3871 167.666C-2.84113 285.746 91.6115 453.158 187.807 669.926Z" fill="url(#paint73_linear_128_11602)"/>
<path d="M187.519 669.924C87.1689 453.438 -11.119 290.55 -42.7094 181.266C-42.3427 180.03 -41.994 178.794 -41.6093 177.558C-8.88872 289.242 88.3592 453.36 187.519 669.924Z" fill="url(#paint74_linear_128_11602)"/>
<path d="M187.236 669.942C83.8867 453.66 -17.1605 294.204 -45.4146 191.598C-45.114 190.308 -44.7954 189.036 -44.4707 187.782C-14.9543 292.854 85.095 453.57 187.236 669.942Z" fill="url(#paint75_linear_128_11602)"/>
<path d="M186.954 669.942C80.6285 453.888 -23.2081 297.96 -47.741 202.212C-47.4765 200.904 -47.206 199.59 -46.9354 198.3C-20.9838 296.58 81.8428 453.792 186.954 669.942Z" fill="url(#paint76_linear_128_11602)"/>
<path d="M186.653 669.958C77.3763 454.108 -29.2376 301.834 -49.6766 213.142C-49.4602 211.792 -49.2558 210.448 -49.0214 209.098C-27.0193 300.412 78.5726 454.012 186.653 669.958Z" fill="url(#paint77_linear_128_11602)"/>
<path d="M186.365 669.978C74.124 454.338 -35.2251 305.808 -51.1916 224.37C-51.0233 222.984 -50.873 221.598 -50.6866 220.212C-33.0429 304.344 75.3143 454.26 186.365 669.978Z" fill="url(#paint78_linear_128_11602)"/>
<path d="M186.082 669.981C70.8417 454.599 -41.2306 309.885 -52.2917 235.899C-52.1895 234.477 -52.0693 233.055 -51.9551 231.633C-39.0304 308.391 72.056 454.509 186.082 669.981Z" fill="url(#paint79_linear_128_11602)"/>
<path d="M185.794 669.999C67.5895 454.839 -47.206 314.079 -52.965 247.731C-52.9109 246.273 -52.8448 244.809 -52.7606 243.369C-45.0358 312.543 68.7978 454.743 185.794 669.999Z" fill="url(#paint80_linear_128_11602)"/>
<path d="M185.511 670.005C64.3373 455.085 -53.1814 318.369 -53.1814 259.863C-53.1814 258.369 -53.1814 256.887 -53.1513 255.387C-51.0052 316.797 65.5276 455.013 185.511 670.005Z" fill="url(#paint81_linear_128_11602)"/>
<defs>
<linearGradient id="paint0_linear_128_11602" x1="328.146" y1="-25.7369" x2="328.146" y2="670.005" gradientUnits="userSpaceOnUse">
<stop stop-color="#AB00FF" stop-opacity="0"/>
<stop offset="1" stop-color="#AB00FF"/>
</linearGradient>
<linearGradient id="paint1_linear_128_11602" x1="327.89" y1="-45.8926" x2="327.89" y2="669.975" gradientUnits="userSpaceOnUse">
<stop stop-color="#AB00FF" stop-opacity="0"/>
<stop offset="1" stop-color="#AB00FF"/>
</linearGradient>
<linearGradient id="paint2_linear_128_11602" x1="327.415" y1="-65.5804" x2="327.415" y2="669.981" gradientUnits="userSpaceOnUse">
<stop stop-color="#AB00FF" stop-opacity="0"/>
<stop offset="1" stop-color="#AB00FF"/>
</linearGradient>
<linearGradient id="paint3_linear_128_11602" x1="326.715" y1="-84.7209" x2="326.715" y2="669.96" gradientUnits="userSpaceOnUse">
<stop stop-color="#AB00FF" stop-opacity="0"/>
<stop offset="1" stop-color="#AB00FF"/>
</linearGradient>
<linearGradient id="paint4_linear_128_11602" x1="325.819" y1="-103.367" x2="325.819" y2="669.94" gradientUnits="userSpaceOnUse">
<stop stop-color="#AB00FF" stop-opacity="0"/>
<stop offset="1" stop-color="#AB00FF"/>
</linearGradient>
<linearGradient id="paint5_linear_128_11602" x1="324.71" y1="-121.488" x2="324.71" y2="669.942" gradientUnits="userSpaceOnUse">
<stop stop-color="#AB00FF" stop-opacity="0"/>
<stop offset="1" stop-color="#AB00FF"/>
</linearGradient>
<linearGradient id="paint6_linear_128_11602" x1="323.403" y1="-139.137" x2="323.403" y2="669.942" gradientUnits="userSpaceOnUse">
<stop stop-color="#AB00FF" stop-opacity="0"/>
<stop offset="1" stop-color="#AB00FF"/>
</linearGradient>
<linearGradient id="paint7_linear_128_11602" x1="321.906" y1="-156.273" x2="321.906" y2="669.923" gradientUnits="userSpaceOnUse">
<stop stop-color="#AB00FF" stop-opacity="0"/>
<stop offset="1" stop-color="#AB00FF"/>
</linearGradient>
<linearGradient id="paint8_linear_128_11602" x1="320.21" y1="-172.882" x2="320.21" y2="669.926" gradientUnits="userSpaceOnUse">
<stop stop-color="#AB00FF" stop-opacity="0"/>
<stop offset="1" stop-color="#AB00FF"/>
</linearGradient>
<linearGradient id="paint9_linear_128_11602" x1="318.341" y1="-189.011" x2="318.341" y2="669.906" gradientUnits="userSpaceOnUse">
<stop stop-color="#AB00FF" stop-opacity="0"/>
<stop offset="1" stop-color="#AB00FF"/>
</linearGradient>
<linearGradient id="paint10_linear_128_11602" x1="316.297" y1="-204.614" x2="316.297" y2="669.888" gradientUnits="userSpaceOnUse">
<stop stop-color="#AB00FF" stop-opacity="0"/>
<stop offset="1" stop-color="#AB00FF"/>
</linearGradient>
<linearGradient id="paint11_linear_128_11602" x1="314.076" y1="-219.716" x2="314.076" y2="669.888" gradientUnits="userSpaceOnUse">
<stop stop-color="#AB00FF" stop-opacity="0"/>
<stop offset="1" stop-color="#AB00FF"/>
</linearGradient>
<linearGradient id="paint12_linear_128_11602" x1="311.695" y1="-234.325" x2="311.695" y2="669.888" gradientUnits="userSpaceOnUse">
<stop stop-color="#AB00FF" stop-opacity="0"/>
<stop offset="1" stop-color="#AB00FF"/>
</linearGradient>
<linearGradient id="paint13_linear_128_11602" x1="309.161" y1="-248.406" x2="309.161" y2="669.873" gradientUnits="userSpaceOnUse">
<stop stop-color="#AB00FF" stop-opacity="0"/>
<stop offset="1" stop-color="#AB00FF"/>
</linearGradient>
<linearGradient id="paint14_linear_128_11602" x1="306.447" y1="-261.968" x2="306.447" y2="669.852" gradientUnits="userSpaceOnUse">
<stop stop-color="#AB00FF" stop-opacity="0"/>
<stop offset="1" stop-color="#AB00FF"/>
</linearGradient>
<linearGradient id="paint15_linear_128_11602" x1="303.619" y1="-275.057" x2="303.619" y2="669.852" gradientUnits="userSpaceOnUse">
<stop stop-color="#AB00FF" stop-opacity="0"/>
<stop offset="1" stop-color="#AB00FF"/>
</linearGradient>
<linearGradient id="paint16_linear_128_11602" x1="300.619" y1="-287.622" x2="300.619" y2="669.852" gradientUnits="userSpaceOnUse">
<stop stop-color="#AB00FF" stop-opacity="0"/>
<stop offset="1" stop-color="#AB00FF"/>
</linearGradient>
<linearGradient id="paint17_linear_128_11602" x1="297.49" y1="-299.714" x2="297.49" y2="669.852" gradientUnits="userSpaceOnUse">
<stop stop-color="#AB00FF" stop-opacity="0"/>
<stop offset="1" stop-color="#AB00FF"/>
</linearGradient>
<linearGradient id="paint18_linear_128_11602" x1="294.235" y1="-311.264" x2="294.235" y2="669.83" gradientUnits="userSpaceOnUse">
<stop stop-color="#AB00FF" stop-opacity="0"/>
<stop offset="1" stop-color="#AB00FF"/>
</linearGradient>
<linearGradient id="paint19_linear_128_11602" x1="290.847" y1="-322.323" x2="290.847" y2="669.826" gradientUnits="userSpaceOnUse">
<stop stop-color="#AB00FF" stop-opacity="0"/>
<stop offset="1" stop-color="#AB00FF"/>
</linearGradient>
<linearGradient id="paint20_linear_128_11602" x1="287.343" y1="-332.872" x2="287.343" y2="669.828" gradientUnits="userSpaceOnUse">
<stop stop-color="#AB00FF" stop-opacity="0"/>
<stop offset="1" stop-color="#AB00FF"/>
</linearGradient>
<linearGradient id="paint21_linear_128_11602" x1="283.718" y1="-342.878" x2="283.718" y2="669.809" gradientUnits="userSpaceOnUse">
<stop stop-color="#AB00FF" stop-opacity="0"/>
<stop offset="1" stop-color="#AB00FF"/>
</linearGradient>
<linearGradient id="paint22_linear_128_11602" x1="279.988" y1="-352.413" x2="279.988" y2="669.789" gradientUnits="userSpaceOnUse">
<stop stop-color="#AB00FF" stop-opacity="0"/>
<stop offset="1" stop-color="#AB00FF"/>
</linearGradient>
<linearGradient id="paint23_linear_128_11602" x1="276.149" y1="-361.421" x2="276.149" y2="669.792" gradientUnits="userSpaceOnUse">
<stop stop-color="#AB00FF" stop-opacity="0"/>
<stop offset="1" stop-color="#AB00FF"/>
</linearGradient>
<linearGradient id="paint24_linear_128_11602" x1="272.209" y1="-369.937" x2="272.209" y2="669.794" gradientUnits="userSpaceOnUse">
<stop stop-color="#AB00FF" stop-opacity="0"/>
<stop offset="1" stop-color="#AB00FF"/>
</linearGradient>
<linearGradient id="paint25_linear_128_11602" x1="268.181" y1="-377.941" x2="268.181" y2="669.794" gradientUnits="userSpaceOnUse">
<stop stop-color="#AB00FF" stop-opacity="0"/>
<stop offset="1" stop-color="#AB00FF"/>
</linearGradient>
<linearGradient id="paint26_linear_128_11602" x1="264.069" y1="-385.472" x2="264.069" y2="669.794" gradientUnits="userSpaceOnUse">
<stop stop-color="#AB00FF" stop-opacity="0"/>
<stop offset="1" stop-color="#AB00FF"/>
</linearGradient>
<linearGradient id="paint27_linear_128_11602" x1="259.864" y1="-392.469" x2="259.864" y2="669.774" gradientUnits="userSpaceOnUse">
<stop stop-color="#AB00FF" stop-opacity="0"/>
<stop offset="1" stop-color="#AB00FF"/>
</linearGradient>
<linearGradient id="paint28_linear_128_11602" x1="255.599" y1="-398.976" x2="255.599" y2="669.771" gradientUnits="userSpaceOnUse">
<stop stop-color="#AB00FF" stop-opacity="0"/>
<stop offset="1" stop-color="#AB00FF"/>
</linearGradient>
<linearGradient id="paint29_linear_128_11602" x1="251.25" y1="-404.935" x2="251.25" y2="669.772" gradientUnits="userSpaceOnUse">
<stop stop-color="#AB00FF" stop-opacity="0"/>
<stop offset="1" stop-color="#AB00FF"/>
</linearGradient>
<linearGradient id="paint30_linear_128_11602" x1="246.843" y1="-410.431" x2="246.843" y2="669.774" gradientUnits="userSpaceOnUse">
<stop stop-color="#AB00FF" stop-opacity="0"/>
<stop offset="1" stop-color="#AB00FF"/>
</linearGradient>
<linearGradient id="paint31_linear_128_11602" x1="242.371" y1="-415.397" x2="242.371" y2="669.772" gradientUnits="userSpaceOnUse">
<stop stop-color="#AB00FF" stop-opacity="0"/>
<stop offset="1" stop-color="#AB00FF"/>
</linearGradient>
<linearGradient id="paint32_linear_128_11602" x1="237.85" y1="-419.883" x2="237.85" y2="669.776" gradientUnits="userSpaceOnUse">
<stop stop-color="#AB00FF" stop-opacity="0"/>
<stop offset="1" stop-color="#AB00FF"/>
</linearGradient>
<linearGradient id="paint33_linear_128_11602" x1="233.272" y1="-423.813" x2="233.272" y2="669.772" gradientUnits="userSpaceOnUse">
<stop stop-color="#AB00FF" stop-opacity="0"/>
<stop offset="1" stop-color="#AB00FF"/>
</linearGradient>
<linearGradient id="paint34_linear_128_11602" x1="228.665" y1="-427.265" x2="228.665" y2="669.774" gradientUnits="userSpaceOnUse">
<stop stop-color="#AB00FF" stop-opacity="0"/>
<stop offset="1" stop-color="#AB00FF"/>
</linearGradient>
<linearGradient id="paint35_linear_128_11602" x1="224.006" y1="-430.215" x2="224.006" y2="669.774" gradientUnits="userSpaceOnUse">
<stop stop-color="#AB00FF" stop-opacity="0"/>
<stop offset="1" stop-color="#AB00FF"/>
</linearGradient>
<linearGradient id="paint36_linear_128_11602" x1="219.329" y1="-432.672" x2="219.329" y2="669.774" gradientUnits="userSpaceOnUse">
<stop stop-color="#AB00FF" stop-opacity="0"/>
<stop offset="1" stop-color="#AB00FF"/>
</linearGradient>
<linearGradient id="paint37_linear_128_11602" x1="214.613" y1="-434.582" x2="214.613" y2="669.776" gradientUnits="userSpaceOnUse">
<stop stop-color="#AB00FF" stop-opacity="0"/>
<stop offset="1" stop-color="#AB00FF"/>
</linearGradient>
<linearGradient id="paint38_linear_128_11602" x1="209.888" y1="-436.034" x2="209.888" y2="669.774" gradientUnits="userSpaceOnUse">
<stop stop-color="#AB00FF" stop-opacity="0"/>
<stop offset="1" stop-color="#AB00FF"/>
</linearGradient>
<linearGradient id="paint39_linear_128_11602" x1="205.139" y1="-436.941" x2="205.139" y2="669.774" gradientUnits="userSpaceOnUse">
<stop stop-color="#AB00FF" stop-opacity="0"/>
<stop offset="1" stop-color="#AB00FF"/>
</linearGradient>
<linearGradient id="paint40_linear_128_11602" x1="200.38" y1="-437.344" x2="200.38" y2="669.774" gradientUnits="userSpaceOnUse">
<stop stop-color="#AB00FF" stop-opacity="0"/>
<stop offset="1" stop-color="#AB00FF"/>
</linearGradient>
<linearGradient id="paint41_linear_128_11602" x1="193.936" y1="-437.344" x2="193.936" y2="669.774" gradientUnits="userSpaceOnUse">
<stop stop-color="#AB00FF" stop-opacity="0"/>
<stop offset="1" stop-color="#AB00FF"/>
</linearGradient>
<linearGradient id="paint42_linear_128_11602" x1="189.175" y1="-436.941" x2="189.175" y2="669.774" gradientUnits="userSpaceOnUse">
<stop stop-color="#AB00FF" stop-opacity="0"/>
<stop offset="1" stop-color="#AB00FF"/>
</linearGradient>
<linearGradient id="paint43_linear_128_11602" x1="184.438" y1="-436.034" x2="184.438" y2="669.774" gradientUnits="userSpaceOnUse">
<stop stop-color="#AB00FF" stop-opacity="0"/>
<stop offset="1" stop-color="#AB00FF"/>
</linearGradient>
<linearGradient id="paint44_linear_128_11602" x1="179.698" y1="-434.582" x2="179.698" y2="669.776" gradientUnits="userSpaceOnUse">
<stop stop-color="#AB00FF" stop-opacity="0"/>
<stop offset="1" stop-color="#AB00FF"/>
</linearGradient>
<linearGradient id="paint45_linear_128_11602" x1="174.994" y1="-432.672" x2="174.994" y2="669.774" gradientUnits="userSpaceOnUse">
<stop stop-color="#AB00FF" stop-opacity="0"/>
<stop offset="1" stop-color="#AB00FF"/>
</linearGradient>
<linearGradient id="paint46_linear_128_11602" x1="170.305" y1="-430.225" x2="170.305" y2="669.774" gradientUnits="userSpaceOnUse">
<stop stop-color="#AB00FF" stop-opacity="0"/>
<stop offset="1" stop-color="#AB00FF"/>
</linearGradient>
<linearGradient id="paint47_linear_128_11602" x1="165.652" y1="-427.275" x2="165.652" y2="669.774" gradientUnits="userSpaceOnUse">
<stop stop-color="#AB00FF" stop-opacity="0"/>
<stop offset="1" stop-color="#AB00FF"/>
</linearGradient>
<linearGradient id="paint48_linear_128_11602" x1="161.044" y1="-423.813" x2="161.044" y2="669.772" gradientUnits="userSpaceOnUse">
<stop stop-color="#AB00FF" stop-opacity="0"/>
<stop offset="1" stop-color="#AB00FF"/>
</linearGradient>
<linearGradient id="paint49_linear_128_11602" x1="156.46" y1="-419.883" x2="156.46" y2="669.776" gradientUnits="userSpaceOnUse">
<stop stop-color="#AB00FF" stop-opacity="0"/>
<stop offset="1" stop-color="#AB00FF"/>
</linearGradient>
<linearGradient id="paint50_linear_128_11602" x1="151.946" y1="-415.397" x2="151.946" y2="669.772" gradientUnits="userSpaceOnUse">
<stop stop-color="#AB00FF" stop-opacity="0"/>
<stop offset="1" stop-color="#AB00FF"/>
</linearGradient>
<linearGradient id="paint51_linear_128_11602" x1="147.473" y1="-410.431" x2="147.473" y2="669.774" gradientUnits="userSpaceOnUse">
<stop stop-color="#AB00FF" stop-opacity="0"/>
<stop offset="1" stop-color="#AB00FF"/>
</linearGradient>
<linearGradient id="paint52_linear_128_11602" x1="143.07" y1="-404.935" x2="143.07" y2="669.772" gradientUnits="userSpaceOnUse">
<stop stop-color="#AB00FF" stop-opacity="0"/>
<stop offset="1" stop-color="#AB00FF"/>
</linearGradient>
<linearGradient id="paint53_linear_128_11602" x1="138.721" y1="-398.976" x2="138.721" y2="669.771" gradientUnits="userSpaceOnUse">
<stop stop-color="#AB00FF" stop-opacity="0"/>
<stop offset="1" stop-color="#AB00FF"/>
</linearGradient>
<linearGradient id="paint54_linear_128_11602" x1="134.443" y1="-392.482" x2="134.443" y2="669.792" gradientUnits="userSpaceOnUse">
<stop stop-color="#AB00FF" stop-opacity="0"/>
<stop offset="1" stop-color="#AB00FF"/>
</linearGradient>
<linearGradient id="paint55_linear_128_11602" x1="130.244" y1="-385.472" x2="130.244" y2="669.794" gradientUnits="userSpaceOnUse">
<stop stop-color="#AB00FF" stop-opacity="0"/>
<stop offset="1" stop-color="#AB00FF"/>
</linearGradient>
<linearGradient id="paint56_linear_128_11602" x1="126.132" y1="-377.941" x2="126.132" y2="669.794" gradientUnits="userSpaceOnUse">
<stop stop-color="#AB00FF" stop-opacity="0"/>
<stop offset="1" stop-color="#AB00FF"/>
</linearGradient>
<linearGradient id="paint57_linear_128_11602" x1="122.105" y1="-369.937" x2="122.105" y2="669.794" gradientUnits="userSpaceOnUse">
<stop stop-color="#AB00FF" stop-opacity="0"/>
<stop offset="1" stop-color="#AB00FF"/>
</linearGradient>
<linearGradient id="paint58_linear_128_11602" x1="118.167" y1="-361.421" x2="118.167" y2="669.792" gradientUnits="userSpaceOnUse">
<stop stop-color="#AB00FF" stop-opacity="0"/>
<stop offset="1" stop-color="#AB00FF"/>
</linearGradient>
<linearGradient id="paint59_linear_128_11602" x1="114.332" y1="-352.425" x2="114.332" y2="669.807" gradientUnits="userSpaceOnUse">
<stop stop-color="#AB00FF" stop-opacity="0"/>
<stop offset="1" stop-color="#AB00FF"/>
</linearGradient>
<linearGradient id="paint60_linear_128_11602" x1="110.602" y1="-342.891" x2="110.602" y2="669.828" gradientUnits="userSpaceOnUse">
<stop stop-color="#AB00FF" stop-opacity="0"/>
<stop offset="1" stop-color="#AB00FF"/>
</linearGradient>
<linearGradient id="paint61_linear_128_11602" x1="106.983" y1="-332.872" x2="106.983" y2="669.828" gradientUnits="userSpaceOnUse">
<stop stop-color="#AB00FF" stop-opacity="0"/>
<stop offset="1" stop-color="#AB00FF"/>
</linearGradient>
<linearGradient id="paint62_linear_128_11602" x1="103.463" y1="-322.313" x2="103.463" y2="669.826" gradientUnits="userSpaceOnUse">
<stop stop-color="#AB00FF" stop-opacity="0"/>
<stop offset="1" stop-color="#AB00FF"/>
</linearGradient>
<linearGradient id="paint63_linear_128_11602" x1="100.076" y1="-311.264" x2="100.076" y2="669.83" gradientUnits="userSpaceOnUse">
<stop stop-color="#AB00FF" stop-opacity="0"/>
<stop offset="1" stop-color="#AB00FF"/>
</linearGradient>
<linearGradient id="paint64_linear_128_11602" x1="96.8234" y1="-299.724" x2="96.8234" y2="669.852" gradientUnits="userSpaceOnUse">
<stop stop-color="#AB00FF" stop-opacity="0"/>
<stop offset="1" stop-color="#AB00FF"/>
</linearGradient>
<linearGradient id="paint65_linear_128_11602" x1="93.6914" y1="-287.622" x2="93.6914" y2="669.852" gradientUnits="userSpaceOnUse">
<stop stop-color="#AB00FF" stop-opacity="0"/>
<stop offset="1" stop-color="#AB00FF"/>
</linearGradient>
<linearGradient id="paint66_linear_128_11602" x1="90.7067" y1="-275.057" x2="90.7067" y2="669.852" gradientUnits="userSpaceOnUse">
<stop stop-color="#AB00FF" stop-opacity="0"/>
<stop offset="1" stop-color="#AB00FF"/>
</linearGradient>
<linearGradient id="paint67_linear_128_11602" x1="87.8573" y1="-261.968" x2="87.8573" y2="669.852" gradientUnits="userSpaceOnUse">
<stop stop-color="#AB00FF" stop-opacity="0"/>
<stop offset="1" stop-color="#AB00FF"/>
</linearGradient>
<linearGradient id="paint68_linear_128_11602" x1="85.1581" y1="-248.416" x2="85.1581" y2="669.873" gradientUnits="userSpaceOnUse">
<stop stop-color="#AB00FF" stop-opacity="0"/>
<stop offset="1" stop-color="#AB00FF"/>
</linearGradient>
<linearGradient id="paint69_linear_128_11602" x1="82.6123" y1="-234.325" x2="82.6123" y2="669.888" gradientUnits="userSpaceOnUse">
<stop stop-color="#AB00FF" stop-opacity="0"/>
<stop offset="1" stop-color="#AB00FF"/>
</linearGradient>
<linearGradient id="paint70_linear_128_11602" x1="80.2197" y1="-219.716" x2="80.2197" y2="669.888" gradientUnits="userSpaceOnUse">
<stop stop-color="#AB00FF" stop-opacity="0"/>
<stop offset="1" stop-color="#AB00FF"/>
</linearGradient>
<linearGradient id="paint71_linear_128_11602" x1="78.0075" y1="-204.626" x2="78.0075" y2="669.906" gradientUnits="userSpaceOnUse">
<stop stop-color="#AB00FF" stop-opacity="0"/>
<stop offset="1" stop-color="#AB00FF"/>
</linearGradient>
<linearGradient id="paint72_linear_128_11602" x1="75.9635" y1="-189.011" x2="75.9635" y2="669.906" gradientUnits="userSpaceOnUse">
<stop stop-color="#AB00FF" stop-opacity="0"/>
<stop offset="1" stop-color="#AB00FF"/>
</linearGradient>
<linearGradient id="paint73_linear_128_11602" x1="74.097" y1="-172.882" x2="74.097" y2="669.926" gradientUnits="userSpaceOnUse">
<stop stop-color="#AB00FF" stop-opacity="0"/>
<stop offset="1" stop-color="#AB00FF"/>
</linearGradient>
<linearGradient id="paint74_linear_128_11602" x1="72.4047" y1="-156.281" x2="72.4047" y2="669.924" gradientUnits="userSpaceOnUse">
<stop stop-color="#AB00FF" stop-opacity="0"/>
<stop offset="1" stop-color="#AB00FF"/>
</linearGradient>
<linearGradient id="paint75_linear_128_11602" x1="70.9109" y1="-139.137" x2="70.9109" y2="669.942" gradientUnits="userSpaceOnUse">
<stop stop-color="#AB00FF" stop-opacity="0"/>
<stop offset="1" stop-color="#AB00FF"/>
</linearGradient>
<linearGradient id="paint76_linear_128_11602" x1="69.6064" y1="-121.488" x2="69.6064" y2="669.942" gradientUnits="userSpaceOnUse">
<stop stop-color="#AB00FF" stop-opacity="0"/>
<stop offset="1" stop-color="#AB00FF"/>
</linearGradient>
<linearGradient id="paint77_linear_128_11602" x1="68.4883" y1="-103.379" x2="68.4883" y2="669.958" gradientUnits="userSpaceOnUse">
<stop stop-color="#AB00FF" stop-opacity="0"/>
<stop offset="1" stop-color="#AB00FF"/>
</linearGradient>
<linearGradient id="paint78_linear_128_11602" x1="67.5865" y1="-84.7431" x2="67.5865" y2="669.978" gradientUnits="userSpaceOnUse">
<stop stop-color="#AB00FF" stop-opacity="0"/>
<stop offset="1" stop-color="#AB00FF"/>
</linearGradient>
<linearGradient id="paint79_linear_128_11602" x1="66.8952" y1="-65.5804" x2="66.8952" y2="669.981" gradientUnits="userSpaceOnUse">
<stop stop-color="#AB00FF" stop-opacity="0"/>
<stop offset="1" stop-color="#AB00FF"/>
</linearGradient>
<linearGradient id="paint80_linear_128_11602" x1="66.4143" y1="-45.899" x2="66.4143" y2="669.999" gradientUnits="userSpaceOnUse">
<stop stop-color="#AB00FF" stop-opacity="0"/>
<stop offset="1" stop-color="#AB00FF"/>
</linearGradient>
<linearGradient id="paint81_linear_128_11602" x1="66.1648" y1="-25.7369" x2="66.1648" y2="670.005" gradientUnits="userSpaceOnUse">
<stop stop-color="#AB00FF" stop-opacity="0"/>
<stop offset="1" stop-color="#AB00FF"/>
</linearGradient>
</defs>
</svg>
