<svg width="90" height="90" viewBox="0 0 90 90" fill="none" xmlns="http://www.w3.org/2000/svg">
<path d="M78.7068 31.6921C79.1508 30.3583 79.0062 29.2339 78.2958 28.5241L63.6186 13.8457C62.1366 12.0745 57.9246 14.1097 56.1096 16.7221L53.2332 13.8457C51.7506 12.0739 47.5398 14.1103 45.7242 16.7221L42.8478 13.8457C41.3652 12.0739 37.1544 14.1103 35.3388 16.7221L32.4624 13.8457C30.9798 12.0739 26.769 14.1103 24.9534 16.7221L22.077 13.8457C20.7168 12.4849 17.8794 13.2751 15.4746 15.6793C13.7724 17.3701 11.967 20.4199 13.641 22.2817L16.5132 25.1539C14.4084 26.7625 11.706 30.3925 13.641 32.6671L16.5132 35.5393C14.4084 37.1479 11.706 40.7785 13.641 43.0525L16.5132 45.9247C14.4084 47.5333 11.706 51.1633 13.641 53.4379L16.5132 56.3101C14.4048 57.9157 11.709 61.5517 13.641 63.8233L28.3188 78.5017C30.6354 80.3791 33.9648 77.9527 35.8278 75.6253L38.7042 78.5017C41.019 80.3773 44.3514 77.9539 46.2132 75.6253L49.0896 78.5017C51.4044 80.3773 54.7368 77.9539 56.5986 75.6253L59.475 78.5017C61.7898 80.3773 65.1222 77.9539 66.984 75.6253L69.8604 78.5017C71.8854 80.0911 74.3334 78.6409 76.4628 76.6681C78.1656 74.9767 79.9692 71.9281 78.2964 70.0657L75.4254 67.1941C77.5284 65.5831 80.2314 61.9555 78.2964 59.6803L75.4254 56.8087C77.5284 55.1977 80.2314 51.5701 78.2964 49.2949L75.4254 46.4233C77.5284 44.8123 80.2314 41.1847 78.2964 38.9095L75.4254 36.0379C76.8492 34.9651 78.2286 33.1999 78.7068 31.6921ZM77.229 41.5843C76.8336 42.8455 75.537 44.4487 74.3082 45.3061C73.338 44.3359 64.3248 35.3233 63.6186 34.6159C62.481 33.5449 60.6912 33.9739 59.3934 34.6753L57.918 33.1993C60.756 32.3797 63.3612 29.8225 64.134 26.9491C66.7272 29.5435 70.9092 33.7249 73.512 36.3277C73.8486 36.6637 76.782 39.5983 77.1948 40.0105C77.457 40.2733 77.4702 40.8619 77.229 41.5843ZM77.229 51.9697C76.8336 53.2303 75.537 54.8341 74.3082 55.6915C73.338 54.7213 64.3248 45.7087 63.6186 45.0019C62.481 43.9315 60.6918 44.3605 59.3934 45.0613L57.918 43.5853C60.756 42.7657 63.3612 40.2085 64.134 37.3351C66.7278 39.9289 70.9086 44.1115 73.512 46.7137C73.8486 47.0497 76.782 49.9843 77.1948 50.3965C77.457 50.6587 77.4702 51.2473 77.229 51.9697ZM77.229 62.3551C76.8336 63.6157 75.537 65.2195 74.3082 66.0769C73.338 65.1067 64.3248 56.0941 63.6186 55.3873C62.481 54.3163 60.6912 54.7453 59.3934 55.4461L57.918 53.9701C60.756 53.1505 63.3612 50.5933 64.134 47.7199C66.7272 50.3143 70.9092 54.4957 73.512 57.0985C73.8486 57.4345 76.782 60.3691 77.1948 60.7813C77.457 61.0441 77.4702 61.6327 77.229 62.3551ZM77.229 72.7405C76.6776 75.0325 72.3366 78.5491 70.9614 77.4001C70.5396 76.9801 67.6146 74.0515 67.2792 73.7173C64.5672 71.0035 60.612 67.0507 57.918 64.3555C60.756 63.5359 63.3612 60.9787 64.134 58.1053C66.7278 60.6991 70.9092 64.8817 73.512 67.4839C73.8486 67.8199 76.782 70.7545 77.1948 71.1667C77.457 71.4295 77.4702 72.0175 77.229 72.7405ZM60.576 77.4001C56.4984 73.3213 51.6072 68.4307 47.5326 64.3555C50.3706 63.5359 52.9758 60.9787 53.7486 58.1053L55.2402 59.5975C54.45 60.9853 54.1086 63.0547 55.4844 64.1257C55.7622 64.4023 56.3208 64.9615 56.598 65.2393C58.4736 67.1155 63.9198 72.5611 65.8698 74.5111C64.6446 76.4659 61.284 78.2617 60.576 77.4001ZM50.1906 77.4001C46.113 73.3213 41.2218 68.4307 37.1472 64.3555C39.9852 63.5359 42.5904 60.9787 43.3632 58.1053L44.8548 59.5975C44.0646 60.9853 43.7232 63.0547 45.099 64.1257C45.3768 64.4023 45.9354 64.9615 46.2126 65.2393C48.0882 67.1155 53.5344 72.5611 55.4844 74.5111C54.2592 76.4659 50.8986 78.2617 50.1906 77.4001ZM39.8052 77.4001C35.7276 73.3213 30.8364 68.4307 26.7618 64.3555C29.5998 63.5359 32.205 60.9787 32.9778 58.1053L34.4694 59.5975C33.6792 60.9853 33.3378 63.0547 34.7136 64.1257C34.9914 64.4023 35.55 64.9615 35.8272 65.2393C37.7028 67.1155 43.149 72.5611 45.099 74.5111C43.8738 76.4659 40.5132 78.2617 39.8052 77.4001ZM29.4198 77.4001L16.3764 64.3555C18.8874 63.7537 21.9498 60.8947 22.5924 58.1053L24.084 59.5975C23.391 60.8449 22.9692 62.7253 24.0264 63.8227L28.3194 68.1163L34.7136 74.5111C33.4884 76.4659 30.1278 78.2617 29.4198 77.4001ZM20.0526 14.7679C20.3652 14.7121 20.8056 14.7577 20.9742 14.9473C22.1646 17.3461 16.8132 22.3675 14.742 21.1807C14.4282 20.8651 14.5446 20.0947 14.7072 19.6069C15.2028 17.6611 18.3726 14.8111 20.0526 14.7679ZM20.2434 20.4481C21.4218 19.2295 22.287 17.9761 22.5924 16.5637L24.084 18.0559C23.3034 19.3573 23.0154 21.3973 24.0264 22.2811L26.8986 25.1533C26.1924 25.6903 25.4916 26.3929 24.9534 27.1069L22.077 24.2305C21.1518 23.3053 19.5426 23.3953 17.8518 24.2899L16.3764 22.8139C17.6004 22.5199 18.981 21.7105 20.2434 20.4481ZM26.067 17.8357C27.318 16.1581 29.7876 14.1517 31.3602 14.9473C32.247 16.8721 29.4768 19.7017 27.8118 20.6827C24.3564 22.6189 24.3192 20.1907 26.067 17.8357ZM36.4524 17.8357C37.7034 16.1581 40.173 14.1517 41.7456 14.9473C42.6324 16.8721 39.8622 19.7017 38.1972 20.6827C34.7418 22.6189 34.7046 20.1907 36.4524 17.8357ZM46.8378 17.8357C48.0888 16.1581 50.5584 14.1517 52.131 14.9473C53.0178 16.8721 50.2476 19.7017 48.5826 20.6827C45.1272 22.6189 45.09 20.1907 46.8378 17.8357ZM57.2232 17.8357C58.4742 16.1581 60.9438 14.1517 62.5164 14.9473C63.4032 16.8721 60.633 19.7017 58.968 20.6827C55.512 22.6189 55.4754 20.1907 57.2232 17.8357ZM61.8678 25.1305C62.16 25.1305 62.3838 25.2007 62.5158 25.3321C63.7116 27.5431 58.5246 32.7259 56.2998 31.5751C55.8816 31.1587 56.1462 30.1579 56.4096 29.6113C56.616 29.1307 56.901 28.6573 57.2232 28.2211C58.326 26.7481 60.0048 25.2865 61.8678 25.1305ZM60.5568 35.8393C61.2096 35.5897 61.9848 35.3095 62.5164 35.7181C62.8518 36.1189 62.7036 36.9061 62.499 37.4161C61.6866 39.4165 59.955 41.1367 57.9678 41.9431C57.4434 42.1207 56.6934 42.2815 56.3004 41.9605C55.8822 41.5441 56.1468 40.5433 56.4102 39.9967C56.6166 39.5161 56.9016 39.0427 57.2238 38.6065C57.7344 37.8901 58.4688 37.1521 59.1642 36.6481C59.6058 36.3241 60.0834 36.0421 60.5568 35.8393ZM60.5568 46.2241C61.2096 45.9745 61.9848 45.6943 62.5164 46.1029C62.8518 46.5139 62.6988 47.3011 62.499 47.8009C61.6866 49.8013 59.955 51.5215 57.9678 52.3279C57.4428 52.5055 56.6946 52.6663 56.3004 52.3459C55.8822 51.9295 56.1468 50.9287 56.4102 50.3821C56.6166 49.9015 56.9016 49.4281 57.2238 48.9919C57.7344 48.2755 58.4688 47.5375 59.1642 47.0335C59.6058 46.7095 60.0834 46.4275 60.5568 46.2241ZM60.5568 56.6095C61.2096 56.3599 61.9848 56.0797 62.5164 56.4883C62.8518 56.8891 62.7036 57.6763 62.499 58.1863C61.6866 60.1867 59.9556 61.9069 57.9678 62.7127C57.4428 62.8903 56.6946 63.0511 56.3004 62.7313C55.8822 62.3149 56.1468 61.3141 56.4102 60.7675C56.6166 60.2869 56.9016 59.8135 57.2238 59.3773C57.7344 58.6609 58.4688 57.9229 59.1642 57.4189C59.6058 57.0949 60.0834 56.8123 60.5568 56.6095ZM52.005 58.4431C51.1536 60.3241 49.4856 61.9441 47.5824 62.7127C47.058 62.8897 46.3092 63.0517 45.915 62.7313C45.4968 62.3149 45.7614 61.3141 46.0248 60.7675C46.2312 60.2869 46.5162 59.8135 46.8384 59.3773C47.349 58.6609 48.0834 57.9229 48.7788 57.4189C49.2216 57.0949 49.6992 56.8123 50.172 56.6095C50.8248 56.3599 51.6 56.0797 52.1316 56.4877C52.467 56.8885 52.3188 57.6757 52.1142 58.1857C52.0818 58.2703 52.0416 58.3573 52.005 58.4431ZM41.6196 58.4431C40.7682 60.3241 39.1002 61.9441 37.197 62.7127C36.6726 62.8897 35.9238 63.0517 35.5296 62.7307C35.1114 62.3143 35.376 61.3135 35.6394 60.7669C35.8458 60.2863 36.1308 59.8129 36.453 59.3767C36.9636 58.6603 37.698 57.9223 38.3934 57.4183C38.8362 57.0943 39.3138 56.8117 39.7872 56.6089C40.44 56.3593 41.2152 56.0791 41.7468 56.4871C42.0822 56.8879 41.934 57.6751 41.7294 58.1851C41.697 58.2703 41.6562 58.3573 41.6196 58.4431ZM31.2342 58.4431C30.4266 60.2311 28.8612 61.8001 27.0822 62.5951C26.4618 62.8543 25.5798 63.0979 25.128 62.7217C24.8142 62.4067 24.9306 61.6357 25.0938 61.1479C25.6458 59.6863 26.7588 58.3399 28.0074 57.4189C28.4502 57.0949 28.9278 56.8123 29.4006 56.6095C30.0534 56.3599 30.8286 56.0797 31.3602 56.4877C31.6956 56.8885 31.5474 57.6757 31.3428 58.1857C31.3116 58.2703 31.2708 58.3573 31.2342 58.4431ZM25.0932 50.7631C25.6452 49.3015 26.7582 47.9551 28.0068 47.0341C28.4496 46.7101 28.9272 46.4275 29.4 46.2247C30.0528 45.9751 30.828 45.6949 31.3596 46.1029C31.695 46.5139 31.542 47.3011 31.3422 47.8009C30.6804 49.4629 29.3322 50.9311 27.8106 51.8383C26.4186 52.6873 24.2736 53.1445 25.0932 50.7631ZM25.0932 40.3777C25.6452 38.9161 26.7582 37.5697 28.0068 36.6487C28.4496 36.3247 28.9272 36.0421 29.4 35.8393C30.0528 35.5897 30.828 35.3095 31.3596 35.7175C31.695 36.1183 31.5468 36.9055 31.3422 37.4155C30.6804 39.0775 29.3322 40.5457 27.8106 41.4529C26.4192 42.3025 24.2736 42.7591 25.0932 40.3777ZM25.0932 29.9923C25.8552 28.0375 27.4944 26.3059 29.4006 25.4539C30.0552 25.2031 30.8268 24.9253 31.3602 25.3327C31.6746 25.6495 31.557 26.4187 31.3944 26.9065C30.8418 28.3669 29.7324 29.7205 28.4736 30.6283C27.2292 31.6303 24.1362 32.8093 25.0932 29.9923ZM36.4524 28.2211C37.4988 26.8057 39.0846 25.4479 40.8234 25.1533C41.136 25.0975 41.5764 25.1431 41.7456 25.3321C42.9414 27.5431 37.7544 32.7259 35.5296 31.5751C35.1114 31.1587 35.376 30.1579 35.6394 29.6113C35.8452 29.1307 36.1302 28.6573 36.4524 28.2211ZM46.8378 28.2211C47.8842 26.8057 49.47 25.4479 51.2088 25.1533C51.5214 25.0975 51.9618 25.1431 52.131 25.3321C53.3268 27.5431 48.1398 32.7259 45.915 31.5751C45.4968 31.1587 45.7614 30.1579 46.0248 29.6113C46.2306 29.1307 46.5156 28.6573 46.8378 28.2211ZM55.2402 28.4419C54.45 29.8297 54.1086 31.8985 55.4844 32.9701L56.0424 33.5269C56.4144 33.9037 57.663 35.1445 58.0548 35.5393C57.3492 36.0763 56.6472 36.7795 56.1096 37.4929C55.281 36.6649 54.0504 35.4331 53.2332 34.6165C52.0956 33.5455 50.3058 33.9745 49.008 34.6759L47.5326 33.1999C50.3706 32.3803 52.9758 29.8231 53.7486 26.9497L55.2402 28.4419ZM58.0536 56.3101C57.3492 56.8471 56.6472 57.5503 56.1096 58.2637C55.281 57.4357 54.0504 56.2039 53.2332 55.3873C52.0956 54.3163 50.3058 54.7453 49.008 55.4461L47.5326 53.9701C50.3706 53.1505 52.9758 50.5933 53.7486 47.7199L55.2402 49.2121C54.45 50.5999 54.1086 52.6693 55.4844 53.7403L56.0424 54.2971C56.4144 54.6745 57.663 55.9159 58.0536 56.3101ZM32.4624 55.3873C31.3248 54.3163 29.535 54.7453 28.2372 55.4461L26.7618 53.9701C29.5998 53.1505 32.205 50.5933 32.9778 47.7199L34.4694 49.2121C33.6792 50.5999 33.3378 52.6693 34.7136 53.7403L35.2716 54.2971C35.6436 54.6739 36.8922 55.9147 37.284 56.3095C36.5784 56.8465 35.8764 57.5497 35.3388 58.2631C34.5102 57.4351 33.2796 56.2039 32.4624 55.3873ZM36.4524 38.6065C36.963 37.8901 37.6974 37.1521 38.3928 36.6481C38.8356 36.3241 39.3132 36.0415 39.7866 35.8387C40.4394 35.5891 41.2146 35.3089 41.7462 35.7169C42.0816 36.1177 41.9334 36.9049 41.7288 37.4149C40.9164 39.4153 39.1848 41.1361 37.1976 41.9419C36.6726 42.1189 35.9244 42.2803 35.5302 41.9593C35.112 41.5429 35.3766 40.5421 35.64 39.9955C35.8452 39.5161 36.1302 39.0427 36.4524 38.6065ZM46.8378 38.6065C47.3484 37.8901 48.0828 37.1521 48.7782 36.6481C49.221 36.3241 49.6986 36.0415 50.1714 35.8387C50.8242 35.5891 51.5994 35.3089 52.131 35.7169C52.4664 36.1177 52.3182 36.9049 52.1136 37.4149C51.3012 39.4153 49.5696 41.1355 47.5824 41.9419C47.058 42.1195 46.308 42.2803 45.915 41.9593C45.4968 41.5429 45.7614 40.5421 46.0248 39.9955C46.2306 39.5161 46.5156 39.0427 46.8378 38.6065ZM50.1714 46.2241C50.8242 45.9745 51.5994 45.6943 52.131 46.1029C52.4664 46.5139 52.3134 47.3011 52.1136 47.8009C51.3012 49.8013 49.5696 51.5215 47.5824 52.3279C47.0574 52.5055 46.3092 52.6663 45.915 52.3459C45.4968 51.9295 45.7614 50.9287 46.0248 50.3821C46.2312 49.9015 46.5162 49.4281 46.8384 48.9919C47.349 48.2755 48.0834 47.5375 48.7788 47.0335C49.2204 46.7095 49.698 46.4275 50.1714 46.2241ZM41.6196 48.0577C40.7682 49.9387 39.1002 51.5587 37.197 52.3279C36.6726 52.5049 35.9238 52.6663 35.5296 52.3459C35.1114 51.9295 35.376 50.9287 35.6394 50.3821C35.8458 49.9015 36.1308 49.4281 36.453 48.9919C36.9636 48.2755 37.698 47.5375 38.3934 47.0335C38.8362 46.7095 39.3138 46.4269 39.7872 46.2241C40.44 45.9745 41.2152 45.6943 41.7468 46.1023C42.0822 46.5133 41.9292 47.3005 41.7294 47.8003C41.697 47.8855 41.6562 47.9719 41.6196 48.0577ZM44.8548 38.8273C44.0646 40.2151 43.7232 42.2839 45.099 43.3555L45.657 43.9123C46.029 44.2891 47.2776 45.5305 47.6694 45.9247C46.9632 46.4617 46.2624 47.1643 45.7242 47.8783C44.8962 47.0503 43.665 45.8191 42.8478 45.0019C41.7102 43.9309 39.921 44.3605 38.6226 45.0613L37.1472 43.5853C39.9852 42.7657 42.5904 40.2085 43.3632 37.3351L44.8548 38.8273ZM28.2594 43.0021C30.3936 41.7955 32.37 39.7573 32.9772 37.3345L34.4688 38.8267C33.6786 40.2145 33.3372 42.2839 34.713 43.3549L35.271 43.9117C35.643 44.2885 36.8916 45.5299 37.2834 45.9241C36.5772 46.4611 35.8764 47.1637 35.3382 47.8777C34.5102 47.0497 33.279 45.8185 32.4618 45.0013C31.3242 43.9309 29.535 44.3599 28.2366 45.0607L26.7612 43.5847C27.2424 43.4695 27.7464 43.2745 28.2594 43.0021ZM42.8478 55.3873C41.7102 54.3163 39.9204 54.7453 38.6226 55.4461L37.1472 53.9701C39.9852 53.1505 42.5904 50.5933 43.3632 47.7199L44.8548 49.2121C44.0646 50.5999 43.7232 52.6693 45.099 53.7403L45.657 54.2971C46.029 54.6739 47.2776 55.9147 47.6694 56.3095C46.9638 56.8465 46.2618 57.5497 45.7242 58.2631C44.8956 57.4351 43.6644 56.2039 42.8478 55.3873ZM58.0548 45.9247C57.3486 46.4617 56.6478 47.1643 56.1096 47.8783C55.2816 47.0503 54.0504 45.8191 53.2332 45.0019C52.0956 43.9315 50.3064 44.3605 49.008 45.0613L47.5326 43.5853C50.3706 42.7657 52.9758 40.2085 53.7486 37.3351L55.2402 38.8273C54.45 40.2151 54.1086 42.2845 55.4844 43.3555L56.0424 43.9123C56.4144 44.2891 57.663 45.5305 58.0548 45.9247ZM44.8548 28.4419C44.0646 29.8297 43.7232 31.8985 45.099 32.9701L45.657 33.5269C46.029 33.9037 47.2776 35.1451 47.6694 35.5393C46.9638 36.0763 46.2618 36.7795 45.7242 37.4929C44.8956 36.6649 43.665 35.4331 42.8478 34.6165C41.7102 33.5455 39.9204 33.9745 38.6226 34.6759L37.1472 33.1999C39.9852 32.3803 42.5904 29.8231 43.3632 26.9497L44.8548 28.4419ZM34.4694 28.4419C33.6792 29.8297 33.3378 31.8985 34.7136 32.9701L35.2716 33.5269C35.6436 33.9037 36.8922 35.1451 37.284 35.5393C36.5784 36.0763 35.8764 36.7795 35.3388 37.4929C34.5102 36.6649 33.2796 35.4331 32.4624 34.6165C31.3248 33.5455 29.535 33.9745 28.2372 34.6759L26.7618 33.1999C29.5998 32.3803 32.205 29.8231 32.9778 26.9497L34.4694 28.4419ZM54.7716 19.1137C54.3264 20.4475 54.4722 21.5719 55.1826 22.2817L58.0548 25.1539C57.3486 25.6909 56.6478 26.3935 56.1096 27.1075L53.2332 24.2311C52.0956 23.1607 50.3064 23.5897 49.008 24.2905L47.5326 22.8145C50.328 22.0537 53.0946 19.2817 53.7486 16.5643L55.2402 18.0565C55.0524 18.4111 54.8874 18.7657 54.7716 19.1137ZM44.3862 19.1137C43.941 20.4475 44.0868 21.5719 44.7972 22.2817L47.6694 25.1539C46.9632 25.6909 46.2624 26.3935 45.7242 27.1075L42.8478 24.2311C41.7102 23.1601 39.921 23.5897 38.6226 24.2905L37.1472 22.8145C39.9426 22.0537 42.7092 19.2817 43.3632 16.5643L44.8548 18.0565C44.667 18.4111 44.502 18.7657 44.3862 19.1137ZM34.0008 19.1137C33.5556 20.4475 33.7014 21.5719 34.4118 22.2817L37.284 25.1539C36.5778 25.6909 35.877 26.3935 35.3388 27.1075L32.4624 24.2311C31.3248 23.1607 29.5356 23.5897 28.2372 24.2905L26.7618 22.8145C29.5572 22.0537 32.3238 19.2817 32.9778 16.5643L34.4694 18.0565C34.2822 18.4111 34.1166 18.7657 34.0008 19.1137ZM18.2862 25.8259C19.0758 25.4023 20.2056 24.8095 20.9748 25.3327C21.36 25.7677 21.1164 26.7409 20.8488 27.2875C20.1192 29.2405 17.2824 31.6573 15.672 31.7371C14.7912 31.8535 14.4528 31.5145 14.5626 30.6439C14.8434 28.7743 16.59 26.8453 18.2862 25.8259ZM20.2434 30.8335C21.291 29.7349 22.269 28.4389 22.5924 26.9491L24.084 28.4413C23.391 29.6893 22.9686 31.5685 24.0264 32.6665L26.8986 35.5387C26.193 36.0757 25.491 36.7789 24.9534 37.4923L22.077 34.6159C21.1518 33.6907 19.5426 33.7801 17.8518 34.6753L16.3764 33.1993C17.6004 32.9053 18.981 32.0959 20.2434 30.8335ZM18.2862 36.2113C19.0758 35.7877 20.2056 35.1949 20.9748 35.7181C21.36 36.1531 21.1164 37.1263 20.8488 37.6729C20.1192 39.6259 17.2824 42.0427 15.672 42.1225C14.7912 42.2389 14.4528 41.8999 14.5626 41.0293C14.8434 39.1597 16.59 37.2307 18.2862 36.2113ZM20.2434 41.2189C21.291 40.1203 22.269 38.8243 22.5924 37.3345L24.084 38.8267C23.391 40.0747 22.9686 41.9539 24.0264 43.0519L26.8986 45.9241C26.1924 46.4611 25.4916 47.1637 24.9534 47.8777L22.077 45.0013C21.1518 44.0761 19.5426 44.1661 17.8518 45.0607L16.3764 43.5847C17.6004 43.2907 18.981 42.4813 20.2434 41.2189ZM18.2862 46.5961C19.0758 46.1725 20.2056 45.5797 20.9748 46.1029C21.36 46.5379 21.1164 47.5111 20.8488 48.0577C20.1198 50.0101 17.2818 52.4275 15.6732 52.5067C14.7912 52.6231 14.4528 52.2853 14.5626 51.4141C14.8434 49.5451 16.59 47.6161 18.2862 46.5961ZM20.2434 51.6043C21.291 50.5057 22.269 49.2097 22.5924 47.7199L24.084 49.2121C23.391 50.4601 22.9686 52.3393 24.0264 53.4373L26.8986 56.3095C26.193 56.8465 25.491 57.5497 24.9534 58.2631L22.077 55.3867C21.1518 54.4615 19.5426 54.5509 17.8518 55.4455L16.3764 53.9695C17.6004 53.6755 18.981 52.8667 20.2434 51.6043ZM18.2862 56.9815C19.0758 56.5579 20.2056 55.9651 20.9748 56.4883C21.36 56.9233 21.1164 57.8965 20.8488 58.4431C20.1192 60.3955 17.2836 62.8117 15.6732 62.8915C14.7912 63.0079 14.4528 62.6701 14.5626 61.7989C14.8434 59.9305 16.59 58.0015 18.2862 56.9815ZM63.6186 24.2311C62.481 23.1607 60.6918 23.5897 59.3934 24.2905L57.918 22.8145C60.7134 22.0537 63.48 19.2817 64.134 16.5643L77.1948 29.6257C78.0474 31.2913 75.7506 33.8563 74.3082 34.9207L63.6186 24.2311Z" fill="#FF4433"/>
</svg>
