<svg width="90" height="90" viewBox="0 0 90 90" fill="none" xmlns="http://www.w3.org/2000/svg">
<path d="M20.2164 63.8042C22.29 63.8042 24.1596 61.6586 25.4808 58.2218C25.6482 57.7856 26.2584 57.7946 26.4126 58.2356C27.6114 61.664 29.3064 63.8042 31.1862 63.8042C33.3474 63.8042 35.265 60.9782 36.4644 56.6156C36.5994 56.1254 37.296 56.1344 37.4178 56.6282C38.4954 60.9836 40.2162 63.8042 42.156 63.8042C44.4792 63.8042 46.4874 59.7578 47.4528 53.8742C47.5434 53.3228 48.3492 53.3312 48.4302 53.8838C49.287 59.7626 51.0672 63.8042 53.1258 63.8042C56.0208 63.8042 58.3668 55.8176 58.3668 45.9656C58.3668 36.1136 56.0208 28.127 53.1258 28.127C51.0672 28.127 49.287 32.1686 48.4302 38.0474C48.3498 38.6 47.5434 38.6084 47.4528 38.057C46.4874 32.1728 44.4786 28.127 42.156 28.127C40.2162 28.127 38.4954 30.947 37.4178 35.303C37.2954 35.7968 36.5988 35.8064 36.4644 35.3156C35.265 30.9524 33.3474 28.127 31.1862 28.127C29.3064 28.127 27.6114 30.2666 26.4126 33.6956C26.2584 34.1366 25.6482 34.1456 25.4808 33.7094C24.1596 30.2726 22.2906 28.127 20.2164 28.127C16.2132 28.127 12.9684 36.1136 12.9684 45.9656C12.9684 55.8176 16.2132 63.8042 20.2164 63.8042Z" fill="#FF4433"/>
<path d="M64.0956 63.8042C66.6204 63.8042 68.6676 55.8176 68.6676 45.9656C68.6676 36.1136 66.621 28.127 64.0956 28.127C61.5708 28.127 59.5242 36.1136 59.5242 45.9656C59.5242 55.8176 61.5708 63.8042 64.0956 63.8042Z" fill="#FF4433"/>
<path d="M75.066 63.8042C77.2212 63.8042 78.9684 55.8175 78.9684 45.9656C78.9684 36.1136 77.2212 28.127 75.066 28.127C72.9107 28.127 71.1636 36.1136 71.1636 45.9656C71.1636 55.8175 72.9107 63.8042 75.066 63.8042Z" fill="#FF4433"/>
</svg>
