<svg width="90" height="90" viewBox="0 0 90 90" fill="none" xmlns="http://www.w3.org/2000/svg">
<path d="M65.5002 37.0736C65.5938 36.278 65.6472 35.471 65.6472 34.6508C65.6472 23.264 56.3832 14 44.9958 14C33.6084 14 24.3444 23.264 24.3444 34.6508C24.3444 35.4704 24.3978 36.2774 24.4908 37.0718C17.151 40.2422 12 47.549 12 56.039C12 67.4258 21.264 76.6904 32.6514 76.6904C37.2762 76.6904 41.5506 75.1622 44.9964 72.5846C48.4434 75.1658 52.7208 76.6958 57.3486 76.6958C68.7354 76.6958 78 67.4312 78 56.0444C78.0006 47.5514 72.8448 40.2416 65.5002 37.0736ZM31.062 34.6514C31.062 26.9684 37.3128 20.7182 44.9958 20.7182C52.6788 20.7182 58.9296 26.969 58.9296 34.6514C58.9296 34.9226 58.92 35.1914 58.9044 35.459C58.3902 35.4206 57.873 35.3942 57.3492 35.3942C52.7244 35.3942 48.45 36.9224 45.0042 39.5C41.5572 36.9188 37.2798 35.3882 32.6514 35.3882C32.1246 35.3882 31.6038 35.4146 31.0866 35.4536C31.0716 35.1878 31.062 34.9208 31.062 34.6514ZM46.5852 56.0396C46.5852 58.3646 46.0098 60.5564 44.9988 62.4854C43.9896 60.5576 43.4154 58.3682 43.4154 56.045C43.4154 55.7738 43.425 55.5056 43.4406 55.238C43.9548 55.2764 44.472 55.3028 44.9958 55.3028C45.5226 55.3028 46.0434 55.2764 46.5606 55.2374C46.5756 55.5032 46.5852 55.7702 46.5852 56.0396ZM38.7396 47.096C36.4902 45.9608 34.59 44.234 33.2418 42.1208C35.8422 42.23 38.2596 43.0544 40.3032 44.4032C39.7182 45.2576 39.1932 46.1564 38.7396 47.096ZM49.7028 44.4056C51.7422 43.0616 54.1524 42.2384 56.745 42.1268C55.3992 44.2346 53.5044 45.9566 51.2616 47.0906C50.8092 46.154 50.286 45.2576 49.7028 44.4056ZM18.7182 56.0396C18.7182 50.609 21.8424 45.8978 26.3862 43.5998C28.545 48.0716 32.271 51.65 36.8454 53.6228C36.7518 54.4178 36.6984 55.2254 36.6984 56.045C36.6984 60.3572 38.0292 64.364 40.2984 67.6796C38.1012 69.128 35.4744 69.9734 32.652 69.9734C24.9684 69.9734 18.7182 63.7232 18.7182 56.0396ZM57.3492 69.9788C54.5244 69.9788 51.8952 69.1316 49.6974 67.6814C51.9702 64.3646 53.3028 60.3548 53.3028 56.0396C53.3028 55.22 53.2494 54.413 53.1564 53.6186C57.726 51.6452 61.4478 48.0692 63.6054 43.601C68.1546 45.8972 71.283 50.6114 71.283 56.0456C71.283 63.7286 65.0322 69.9788 57.3492 69.9788Z" fill="#FF4433"/>
</svg>
