<svg width="90" height="90" viewBox="0 0 90 90" fill="none" xmlns="http://www.w3.org/2000/svg">
<path d="M64.9716 62.7649C64.7772 62.2549 64.5684 61.7401 64.35 61.2313C63.2088 58.5745 61.7964 56.0905 60.6906 55.4245C60.5022 55.3111 60.3234 55.2505 60.1554 55.2505C59.892 55.2559 59.6724 55.3795 59.5218 55.5979C58.761 56.6995 59.7066 60.5239 60.7476 63.4645C60.8244 63.6817 60.906 63.9055 60.9912 64.1329C62.2698 67.5469 64.425 71.9239 65.9178 71.9239C65.9772 71.9239 66.036 71.9167 66.0942 71.9023C66.2496 71.8633 66.4674 71.7547 66.6216 71.4589C66.8694 70.9837 66.876 70.1065 66.7218 69.0211C66.4638 67.2121 65.7582 64.8265 64.9716 62.7649Z" fill="#FF4433"/>
<path d="M70.989 59.6541C69.6846 58.0569 68.3766 56.6079 67.3062 55.5747C65.604 53.9319 65.1708 53.9541 64.8732 54.1191C64.74 54.1929 64.6494 54.3219 64.6182 54.4815C64.3818 55.6983 68.421 60.7227 68.8824 61.2915C70.6032 63.4137 73.7958 67.0173 74.8446 67.0617C75.021 67.0623 75.1554 67.0077 75.2526 66.9063C75.4968 66.6531 75.6258 66.2325 74.3148 64.1697C73.4982 62.8839 72.3168 61.2801 70.989 59.6541Z" fill="#FF4433"/>
<path d="M73.68 55.1076C72.1104 53.9262 68.3874 51.1998 67.6644 51.363C67.5384 51.3924 67.434 51.4728 67.377 51.585C67.2312 51.873 67.2288 52.125 68.9484 53.6262C69.9762 54.5238 71.3664 55.6332 72.8634 56.751C76.0308 59.1168 77.9508 60.3132 78.579 60.3132C78.6222 60.3132 78.66 60.3072 78.6912 60.2958C78.8274 60.2454 78.927 60.1314 78.9582 59.991C79.0014 59.7984 79.1328 59.2098 73.68 55.1076Z" fill="#FF4433"/>
<path d="M68.1882 47.8808C68.0802 47.9558 68.0136 48.0926 68.0214 48.224C68.0346 48.443 68.0526 48.7424 73.6314 51.1814C77.2134 52.7474 78.2382 53.0654 78.603 53.0654C78.729 53.0654 78.7764 53.0276 78.8232 52.9898C78.9324 52.9022 78.9888 52.7486 78.9612 52.6106C78.9246 52.424 78.8688 52.1414 73.8588 49.9256C68.5944 47.5982 68.3598 47.7614 68.1882 47.8808Z" fill="#FF4433"/>
<path d="M53.6592 54.1707C53.505 54.1191 53.2614 54.0927 52.9752 54.2643C51.795 54.9711 50.7912 58.6809 50.2902 61.6437C49.8792 64.0719 49.6812 66.5577 49.7466 68.4627C49.8234 70.6833 50.2206 71.8329 50.9622 71.9769C51.0048 71.9853 51.054 71.9907 51.1086 71.9907C51.2586 71.9907 51.4494 71.9475 51.6576 71.7963C52.8858 70.9059 54.0156 66.5433 54.4968 62.6943C54.7626 60.5691 54.846 58.5555 54.732 57.0243C54.6036 55.3035 54.2526 54.3699 53.6592 54.1707Z" fill="#FF4433"/>
<path d="M46.9488 50.7703C46.6362 50.5537 46.0596 50.5207 44.1414 51.9229C42.8394 52.8745 41.2008 54.2923 39.528 55.9153C36.762 58.5985 32.7018 63.0823 32.8512 64.4383C32.8734 64.6399 32.9736 64.8049 33.1344 64.9033C33.21 64.9495 33.3108 65.0113 33.4932 65.0113C33.9144 65.0113 34.7724 64.6837 36.771 63.0895C38.4384 61.7593 40.4622 59.8795 42.3228 57.9331C43.1616 57.0559 47.3376 52.6081 47.1966 51.2107C47.1774 51.0241 47.0898 50.8681 46.9488 50.7703Z" fill="#FF4433"/>
<path d="M41.5386 46.0422C41.5836 45.9114 41.5602 45.768 41.4762 45.6588C41.3136 45.4488 41.1972 45.2976 38.151 45.8622C36.2922 46.2066 33.777 46.7502 31.0686 47.3922C27.9804 48.1242 24.8676 48.9294 22.5276 49.602C18.609 50.7282 18.516 50.9748 18.4344 51.1926C18.3858 51.3216 18.4044 51.465 18.4836 51.5766C18.5604 51.684 18.6294 51.7812 19.056 51.7812C19.5894 51.7812 20.6814 51.6288 23.0448 51.1536C25.5492 50.6496 28.8054 49.9032 31.98 49.1046C34.5678 48.4536 36.9318 47.8086 38.6376 47.289C41.3982 46.4478 41.466 46.251 41.5386 46.0422Z" fill="#FF4433"/>
<path d="M57.6846 27.1088C57.4608 26.9804 57.2052 26.9726 56.9652 27.086C56.3898 27.3578 55.9032 28.3634 55.6638 29.7752C55.3656 31.5332 55.5204 33.6446 56.3946 34.0958C56.5068 34.154 56.6262 34.1828 56.7462 34.1828C56.8734 34.1828 57.0018 34.1504 57.1248 34.0856C57.861 33.698 58.2894 32.2358 58.4448 30.9968C58.6392 29.4446 58.4844 27.5666 57.6846 27.1088Z" fill="#FF4433"/>
<path d="M60.822 36.9476C60.9384 37.0394 61.0776 37.0796 61.2318 37.0796C62.2224 37.0796 63.8352 35.426 64.0416 35.21C64.3974 34.838 65.5536 33.563 65.5056 32.777C65.4912 32.5442 65.3808 32.4074 65.2902 32.3342C64.557 31.7348 62.8668 33.275 62.3652 33.761C61.5258 34.5752 60.5592 35.777 60.5952 36.4856C60.6054 36.6758 60.6858 36.8402 60.822 36.9476Z" fill="#FF4433"/>
<path d="M64.338 40.0085C64.293 40.1447 64.3212 40.2917 64.413 40.4015C64.4628 40.4603 64.5504 40.5653 65.007 40.5653C65.5278 40.5653 66.5274 40.4291 68.4966 39.9329C71.394 39.2033 71.4942 38.8877 71.5482 38.7179C71.5914 38.5817 71.5614 38.4359 71.469 38.3285C71.3532 38.1935 71.112 37.9127 67.8756 38.6813C64.5138 39.4787 64.386 39.8639 64.338 40.0085Z" fill="#FF4433"/>
<path d="M66.9228 44.1023C66.9204 44.1203 66.9192 44.1377 66.9192 44.1557C66.9192 44.3405 67.0548 44.5019 67.2432 44.5283L71.8302 45.1811L75.8448 45.7523C75.8628 45.7547 75.8808 45.7559 75.8982 45.7559C76.0824 45.7559 76.2438 45.6203 76.2708 45.4325C76.2732 45.4145 76.2744 45.3971 76.2744 45.3791C76.2744 45.1943 76.1388 45.0329 75.9504 45.0065L67.3494 43.7825C67.1436 43.7537 66.9516 43.8965 66.9228 44.1023Z" fill="#FF4433"/>
<path d="M51.267 32.1103C51.3462 32.1313 51.423 32.1415 51.4974 32.1415C51.7086 32.1415 51.897 32.0587 52.041 31.8979C52.7976 31.0543 51.87 28.4023 51.5676 27.6097C50.7702 25.5187 49.4052 23.2063 48.3384 22.8331C48.0252 22.7239 47.7246 22.7809 47.5152 22.9915C46.7874 23.7223 47.4828 25.9897 47.8164 26.9305C48.636 29.2471 50.151 31.8181 51.267 32.1103Z" fill="#FF4433"/>
<path d="M46.068 31.4749C46.2888 31.4671 46.458 31.3561 46.539 31.1773C46.9296 30.3133 44.3706 27.0349 43.2522 25.6651C41.7984 23.8849 38.7648 20.4877 37.6866 20.3713C37.4556 20.3473 37.2582 20.4433 37.1562 20.6299C36.7266 21.4195 38.9526 24.3613 40.317 26.0443C41.8464 27.9295 45.0036 31.4755 46.068 31.4749Z" fill="#FF4433"/>
<path d="M28.596 23.4738C29.8794 24.5688 31.635 25.9548 33.5394 27.3774C35.4912 28.8354 37.3812 30.168 38.8614 31.131C40.6872 32.319 41.2794 32.5602 41.5524 32.5602C41.6466 32.5602 41.7024 32.5314 41.7582 32.5032C41.8884 32.4366 41.9736 32.3088 41.9862 32.1624C42.0048 31.9458 42.0258 31.7004 40.0374 29.994C38.8356 28.9626 37.179 27.6462 35.373 26.2878C33.4086 24.81 31.4706 23.4324 29.916 22.4088C27.369 20.7324 27.0762 20.7966 26.883 20.8392C26.7156 20.8764 26.5896 21.0012 26.5548 21.165C26.5038 21.4008 26.4516 21.645 28.596 23.4738Z" fill="#FF4433"/>
<path d="M20.802 27.9897C22.8996 28.9815 25.6416 30.2211 28.5234 31.4805C31.2078 32.6535 33.7128 33.7113 35.5764 34.4577C36.4806 34.8201 37.1958 35.0937 37.701 35.2713C38.0964 35.4099 38.3922 35.5143 38.6064 35.5143C38.775 35.5143 38.8932 35.4501 38.9694 35.2881C39.0126 35.1963 39.0168 35.0793 38.9814 34.9839C38.9154 34.8075 38.8638 34.6689 36.0126 33.3039C34.2396 32.4555 31.8336 31.3563 29.238 30.2085C26.3754 28.9431 23.499 27.7143 21.3456 26.8383C17.6958 25.3533 17.6166 25.4325 17.4006 25.6407C17.3106 25.7283 17.2662 25.8663 17.289 25.9899C17.3322 26.2287 17.3556 26.3601 20.802 27.9897Z" fill="#FF4433"/>
<path d="M38.2506 40.4003C38.4348 40.4003 38.5962 40.2647 38.6232 40.0769C38.6256 40.0589 38.6268 40.0409 38.6268 40.0229C38.6268 39.8387 38.4906 39.6773 38.3028 39.6509L27.2544 38.0789L13.398 36.1073C13.194 36.0779 13.0008 36.2213 12.972 36.4271C12.9696 36.4451 12.9684 36.4631 12.9684 36.4811C12.9684 36.6653 13.1046 36.8267 13.2924 36.8531L38.1972 40.3961C38.2152 40.3991 38.2326 40.4003 38.2506 40.4003Z" fill="#FF4433"/>
</svg>
