<svg width="384" height="217" viewBox="0 0 384 217" fill="none" xmlns="http://www.w3.org/2000/svg">
<path d="M192 217L192 3.73694e-06" stroke="url(#paint0_linear_522_21889)" stroke-width="2" stroke-miterlimit="10"/>
<path d="M160 217L160 3.73694e-06" stroke="url(#paint1_linear_522_21889)" stroke-width="2" stroke-miterlimit="10"/>
<path d="M128 217L128 3.73694e-06" stroke="url(#paint2_linear_522_21889)" stroke-width="2" stroke-miterlimit="10"/>
<path d="M96 217L96 3.73694e-06" stroke="url(#paint3_linear_522_21889)" stroke-width="2" stroke-miterlimit="10"/>
<path d="M64 217L64 3.73694e-06" stroke="url(#paint4_linear_522_21889)" stroke-width="2" stroke-miterlimit="10"/>
<path d="M32 217L32 3.73694e-06" stroke="url(#paint5_linear_522_21889)" stroke-width="2" stroke-miterlimit="10"/>
<path d="M1 217L0.999991 3.73694e-06" stroke="url(#paint6_linear_522_21889)" stroke-width="2" stroke-miterlimit="10"/>
<path d="M223 217L223 3.73694e-06" stroke="url(#paint7_linear_522_21889)" stroke-width="2" stroke-miterlimit="10"/>
<path d="M255 217L255 3.73694e-06" stroke="url(#paint8_linear_522_21889)" stroke-width="2" stroke-miterlimit="10"/>
<path d="M287 217L287 3.73694e-06" stroke="url(#paint9_linear_522_21889)" stroke-width="2" stroke-miterlimit="10"/>
<path d="M319 217L319 3.73694e-06" stroke="url(#paint10_linear_522_21889)" stroke-width="2" stroke-miterlimit="10"/>
<path d="M351 217L351 3.73694e-06" stroke="url(#paint11_linear_522_21889)" stroke-width="2" stroke-miterlimit="10"/>
<path d="M383 217L383 3.73694e-06" stroke="url(#paint12_linear_522_21889)" stroke-width="2" stroke-miterlimit="10"/>
<defs>
<linearGradient id="paint0_linear_522_21889" x1="192.5" y1="-2.23048e-08" x2="192.5" y2="217" gradientUnits="userSpaceOnUse">
<stop stop-color="#6E2899" stop-opacity="0"/>
<stop offset="1" stop-color="#AB00FF"/>
</linearGradient>
<linearGradient id="paint1_linear_522_21889" x1="160.5" y1="-2.23048e-08" x2="160.5" y2="217" gradientUnits="userSpaceOnUse">
<stop stop-color="#6E2899" stop-opacity="0"/>
<stop offset="1" stop-color="#AB00FF"/>
</linearGradient>
<linearGradient id="paint2_linear_522_21889" x1="128.5" y1="-2.23048e-08" x2="128.5" y2="217" gradientUnits="userSpaceOnUse">
<stop stop-color="#6E2899" stop-opacity="0"/>
<stop offset="1" stop-color="#AB00FF"/>
</linearGradient>
<linearGradient id="paint3_linear_522_21889" x1="96.5" y1="-2.23048e-08" x2="96.5" y2="217" gradientUnits="userSpaceOnUse">
<stop stop-color="#6E2899" stop-opacity="0"/>
<stop offset="1" stop-color="#AB00FF"/>
</linearGradient>
<linearGradient id="paint4_linear_522_21889" x1="64.5" y1="-2.23048e-08" x2="64.5" y2="217" gradientUnits="userSpaceOnUse">
<stop stop-color="#6E2899" stop-opacity="0"/>
<stop offset="1" stop-color="#AB00FF"/>
</linearGradient>
<linearGradient id="paint5_linear_522_21889" x1="32.5" y1="-2.23048e-08" x2="32.5" y2="217" gradientUnits="userSpaceOnUse">
<stop stop-color="#6E2899" stop-opacity="0"/>
<stop offset="1" stop-color="#AB00FF"/>
</linearGradient>
<linearGradient id="paint6_linear_522_21889" x1="1.49999" y1="-2.23048e-08" x2="1.5" y2="217" gradientUnits="userSpaceOnUse">
<stop stop-color="#6E2899" stop-opacity="0"/>
<stop offset="1" stop-color="#AB00FF"/>
</linearGradient>
<linearGradient id="paint7_linear_522_21889" x1="223.5" y1="-2.23048e-08" x2="223.5" y2="217" gradientUnits="userSpaceOnUse">
<stop stop-color="#6E2899" stop-opacity="0"/>
<stop offset="1" stop-color="#AB00FF"/>
</linearGradient>
<linearGradient id="paint8_linear_522_21889" x1="255.5" y1="-2.23048e-08" x2="255.5" y2="217" gradientUnits="userSpaceOnUse">
<stop stop-color="#6E2899" stop-opacity="0"/>
<stop offset="1" stop-color="#AB00FF"/>
</linearGradient>
<linearGradient id="paint9_linear_522_21889" x1="287.5" y1="-2.23048e-08" x2="287.5" y2="217" gradientUnits="userSpaceOnUse">
<stop stop-color="#6E2899" stop-opacity="0"/>
<stop offset="1" stop-color="#AB00FF"/>
</linearGradient>
<linearGradient id="paint10_linear_522_21889" x1="319.5" y1="-2.23048e-08" x2="319.5" y2="217" gradientUnits="userSpaceOnUse">
<stop stop-color="#6E2899" stop-opacity="0"/>
<stop offset="1" stop-color="#AB00FF"/>
</linearGradient>
<linearGradient id="paint11_linear_522_21889" x1="351.5" y1="-2.23048e-08" x2="351.5" y2="217" gradientUnits="userSpaceOnUse">
<stop stop-color="#6E2899" stop-opacity="0"/>
<stop offset="1" stop-color="#AB00FF"/>
</linearGradient>
<linearGradient id="paint12_linear_522_21889" x1="383.5" y1="-2.23048e-08" x2="383.5" y2="217" gradientUnits="userSpaceOnUse">
<stop stop-color="#6E2899" stop-opacity="0"/>
<stop offset="1" stop-color="#AB00FF"/>
</linearGradient>
</defs>
</svg>
