<svg width="90" height="90" viewBox="0 0 90 90" fill="none" xmlns="http://www.w3.org/2000/svg">
<path d="M78.2928 46.1356L51.5826 45.2182C50.8806 45.1942 50.8038 44.3458 51.4578 43.8268C59.8374 37.1722 76.3236 24.0802 76.3236 24.0802C76.815 23.6704 76.4202 23.1514 75.9288 23.4952L50.1876 41.944C49.5108 42.4288 48.7758 42.0784 48.9828 41.368C51.6312 32.266 56.8416 14.359 56.8416 14.359C56.9814 13.816 56.2062 13.8472 56.0142 14.359L46.3212 41.3674C46.0662 42.0772 45.1038 42.4294 44.742 41.9446C40.1076 35.7274 30.99 23.4952 30.99 23.4952C30.6966 23.137 29.9946 23.7004 30.2148 24.0802L42.2478 43.8262C42.564 44.3452 41.9376 45.1942 41.2194 45.2182C32.0172 45.5272 13.9128 46.1356 13.9128 46.1356C13.3578 46.1722 13.1406 46.9372 13.644 46.963L40.3542 47.8804C41.0562 47.9044 41.133 48.7528 40.479 49.2718C32.0994 55.9264 15.6132 69.0184 15.6132 69.0184C15.1218 69.4282 15.5166 69.9472 16.008 69.6034L41.7486 51.1546C42.4254 50.6698 43.1604 51.0202 42.9534 51.7306C40.305 60.8326 35.0946 78.7396 35.0946 78.7396C34.9548 79.2826 35.73 79.2514 35.922 78.7396L45.6144 51.7318C45.8694 51.022 46.8318 50.6698 47.1936 51.1546C51.828 57.3718 60.9456 69.604 60.9456 69.604C61.239 69.9622 61.941 69.3988 61.7208 69.019L49.6878 49.273C49.3716 48.754 49.998 47.905 50.7162 47.881C59.9184 47.572 78.0234 46.9636 78.0234 46.9636C78.5784 46.927 78.7962 46.1614 78.2928 46.1356Z" fill="#FF4433"/>
<path d="M67.8404 40.7733L68.8307 40.8896C70.1472 34.1792 68.6923 28.8367 64.9923 25.7019C61.3014 22.5749 55.524 21.772 48.4694 23.8039L48.6077 24.284L48.4694 23.8039C40.9592 25.9672 33.3156 30.957 27.0182 37.2543C20.7208 43.5517 15.731 51.1951 13.5679 58.7054L13.5679 58.7054C12.908 60.9976 12.5486 63.1495 12.4688 65.1387L13.4591 65.255C13.6212 64.4279 13.8265 63.5774 14.0783 62.7028C16.183 55.3951 21.0637 47.8932 27.2744 41.6826C33.4852 35.4719 40.9873 30.5911 48.2956 28.486C54.4931 26.7011 59.4824 27.2167 62.8484 29.4077C66.1966 31.5871 68.052 35.499 67.8404 40.7733Z" fill="#FF4433" stroke="#FF4433"/>
<path d="M24.0964 52.3264L23.1061 52.2101C21.7896 58.9205 23.2445 64.263 26.9445 67.3978C30.6354 70.5248 36.4128 71.3277 43.4674 69.2958C50.9776 67.1325 58.6212 62.1427 64.9186 55.8454C71.216 49.548 76.2058 41.9046 78.3689 34.3943L78.3689 34.3943C79.0288 32.102 79.3876 29.9502 79.468 27.9611L78.4777 27.8447C78.3156 28.6718 78.1103 29.5224 77.8585 30.397C75.7534 37.7046 70.8726 45.2065 64.6619 51.4171C58.4512 57.6278 50.9492 62.5086 43.6412 64.6136C37.4437 66.3986 32.4544 65.883 29.0884 63.692C25.7402 61.5126 23.8848 57.6007 24.0964 52.3264Z" fill="#FF4433" stroke="#FF4433"/>
</svg>
