<svg width="90" height="90" viewBox="0 0 90 90" fill="none" xmlns="http://www.w3.org/2000/svg">
<path d="M47.9094 78.9502C46.0584 78.9502 44.4666 77.644 44.1024 75.829L39.2043 51.3387C38.5611 48.1231 33.9637 48.1232 33.3208 51.3389L32.3052 56.4178C31.9428 58.2322 30.3492 59.539 28.4982 59.539H15.9684C14.3115 59.539 12.9684 58.1959 12.9684 56.539V54.7738C12.9684 53.1169 14.3115 51.7738 15.9684 51.7738H22.8557C24.2858 51.7738 25.5171 50.7644 25.7975 49.3621L32.4552 16.0714C32.8194 14.2558 34.4118 12.9502 36.2622 12.9502C38.1132 12.9502 39.7074 14.2558 40.0692 16.0714L44.9676 40.563C45.6107 43.7785 50.208 43.7785 50.8511 40.563L51.867 35.4832C52.2306 33.6688 53.823 32.362 55.674 32.362C57.5244 32.362 59.1192 33.6682 59.481 35.4832L62.2561 49.362C62.5365 50.7644 63.7678 51.7738 65.1979 51.7738H75.9678C77.6246 51.7738 78.9678 53.1169 78.9678 54.7738V56.5384C78.9678 58.1953 77.6246 59.5384 75.9678 59.5384H59.5566C57.7056 59.5384 56.1138 58.2322 55.7496 56.4172C55.7332 56.335 55.6157 56.3349 55.5992 56.4171L51.717 75.829C51.354 77.644 49.761 78.9502 47.9094 78.9502Z" fill="#FF4433"/>
</svg>
