<svg xmlns="http://www.w3.org/2000/svg" viewBox="0 0 177 54" xmlns:bx="https://boxy-svg.com">
    <g id="Layer_1" transform="matrix(1, 0, 0, 1, -137.5, -195.056503)">
        <g>
            <g clip-path="url(#svg_1)">
                <path fill="#FFFFFF" d="m208.5195,223.0425l0,-27.322l4.1429,0l0,23.444l8.0599,0l0,3.878l-12.2028,0z"></path>
                <path fill="#FFFFFF" d="m243.471,195.0565l-0.106,0l-13.06,27.989l4.2677,0l2.9061,-6.399l1.7152,-3.737l1.676,-3.707c0.401,-0.885 0.8,-1.779 1.21,-2.673c0.411,-0.894 0.81,-1.788 1.211,-2.672c0.353,0.884 0.713,1.769 1.085,2.634c0.373,0.875 0.762,1.749 1.153,2.634l1.648,3.775l1.609,3.736l2.8,6.399l4.374,0l-12.489,-27.979z"></path>
                <path fill="#FFFFFF" d="m263.621,223.0425l8.603,-14.344l-7.518,-12.978l4.688,0l5.229,9.86l5.488,-9.86l4.753,0l-7.916,12.978l8.278,14.344l-4.611,0l-6.067,-11.159l-6.251,11.159l-4.676,0z"></path>
                <path fill="#FFFFFF" d="m309.738,195.7205l-6.278,11.229l-6.288,-11.229l-4.714,0l8.934,15.507l0,11.815l4.097,0l0,-11.815l9.011,-15.507l-4.762,0z"></path>
                <path fill="#FFFFFF" d="m153.5143,212.6815l6.2299,0l0,0.039c-0.0961,0.942 -0.3627,1.845 -0.7998,2.701c-0.4371,0.855 -1.0087,1.596 -1.7244,2.234c-0.7133,0.627 -1.5538,1.131 -2.5241,1.502c-0.9703,0.372 -2.0198,0.561 -3.163,0.561c-1.1432,0 -2.4473,-0.256 -3.6289,-0.76c-1.19123,-0.503 -2.24796,-1.217 -3.18221,-2.121c-0.93424,-0.903 -1.68596,-1.987 -2.24795,-3.242c-0.5716,-1.256 -0.85739,-2.634 -0.85739,-4.135c0,-1.5 0.25697,-2.842 0.78054,-4.098c0.52356,-1.256 1.23925,-2.349 2.16149,-3.279c0.92464,-0.932 2.00058,-1.663 3.24942,-2.195c1.2489,-0.532 2.601,-0.798 4.0492,-0.798c3.2207,0 5.9537,1.484 8.2113,4.458l2.9444,-2.795c-0.867,-0.99 -1.7436,-1.836 -2.6106,-2.538c-0.867,-0.702 -1.7628,-1.282 -2.6682,-1.74c-0.9054,-0.458 -1.8493,-0.788 -2.8292,-0.997c-0.9798,-0.208 -2.0198,-0.304 -3.1053,-0.304c-1.9622,0 -3.8114,0.362 -5.55505,1.083c-1.74361,0.722 -3.26866,1.731 -4.55355,3.003c-1.2945,1.282 -2.3152,2.795 -3.06692,4.535c-0.75172,1.74 -1.12398,3.621 -1.12398,5.656c0,2.035 0.36265,3.755 1.08555,5.476c0.7229,1.711 1.71479,3.214 2.98286,4.496c1.25847,1.283 2.73309,2.292 4.42867,3.022c1.69552,0.741 3.50642,1.103 5.44932,1.103c1.943,0 3.7346,-0.333 5.3245,-0.997c1.5803,-0.666 2.9252,-1.596 4.03,-2.804c1.1048,-1.208 1.9526,-2.663 2.5626,-4.364c0.61,-1.702 0.9054,-3.593 0.9054,-5.676l0,-0.903l-10.7354,3.877l-0.0192,0z"></path>
                <path fill="#FFFFFF" d="m185.1322,195.0565l-0.1057,0l-13.0603,27.989l4.2678,0l2.906,-6.399l1.7148,-3.737l1.6764,-3.707c0.401,-0.885 0.7997,-1.779 1.2104,-2.673c0.4107,-0.894 0.8094,-1.788 1.2104,-2.672c0.3531,0.884 0.7133,1.769 1.0856,2.634c0.3722,0.875 0.7613,1.749 1.1528,2.634l1.6475,3.775l1.6091,3.736l2.8004,6.399l4.3734,0l-12.4886,-27.979z"></path>
                <path fill="#FFFFFF" d="m196.4584,236.6275l0,10.315l12.0371,0l0,2.001l-14.458,0l0,-12.316l2.4185,0l0.0024,0z"></path>
                <path fill="#FFFFFF" d="m225.982,236.6275l8.8261,12.316l-2.9877,0l-2.0414,-2.85l-9.6163,0l-2.0414,2.85l-2.9876,0l8.8261,-12.316l2.0246,0l-0.0024,0zm-4.3879,7.465l6.7487,0l-3.3743,-4.709l-3.3744,4.709z"></path>
                <path fill="#FFFFFF" d="m253.911,236.6275c0.773,0 1.595,0.218 2.262,0.781c0.666,0.563 1.098,1.486 1.098,2.545l0,0.547c0,0.769 -0.228,1.469 -0.61,2.008c0.653,0.566 1.073,1.479 1.073,2.524l0.012,0.584c0,1.06 -0.432,1.982 -1.097,2.546c-0.665,0.563 -1.487,0.781 -2.263,0.781l-13.093,0l-0.012,-12.316l12.63,0zm-10.2,10.315l10.37,0c0.361,0 0.687,-0.11 0.887,-0.278c0.199,-0.168 0.345,-0.379 0.345,-0.925l-0.012,-0.767c0,-0.549 -0.148,-0.758 -0.345,-0.925c-0.197,-0.168 -0.524,-0.278 -0.887,-0.278l-10.358,0l0,3.178l0,-0.005zm0.002,-5.177l9.895,0c0.361,0 0.687,-0.11 0.887,-0.278c0.196,-0.168 0.345,-0.379 0.345,-0.925l0,-0.726c0,-0.549 -0.149,-0.76 -0.345,-0.925c-0.2,-0.168 -0.524,-0.278 -0.887,-0.278l-9.895,0l0,3.137l0,-0.005z"></path>
            </g>
            <defs fill="#FFFFFF" transform="translate(-24 -28) translate(161.5 0) translate(0 114.943)">
                <clipPath fill="#FFFFFF" id="svg_1">
                    <rect x="137.5" y="86.9435" fill="#FFFFFF" height="162" width="177"></rect>
                </clipPath>
            </defs>
        </g>
    </g>
</svg>