<?xml version="1.0" encoding="UTF-8"?>
<svg id="Layer_2" data-name="Layer 2" xmlns="http://www.w3.org/2000/svg" xmlns:xlink="http://www.w3.org/1999/xlink" viewBox="0 0 684 684">
    <defs>
        <style>
            .cls-1 {
            stroke: url(#radial-gradient);
            }

            .cls-1, .cls-2 {
            fill: none;
            }

            .cls-2 {
            stroke: url(#radial-gradient-2);
            }

            .cls-3 {
            fill: #fff;
            }

            .cls-4 {
            fill: #3c175e;
            }

            .cls-5 {
            fill: url(#linear-gradient);
            }
        </style>
        <linearGradient id="linear-gradient" x1="170.97" y1="640.23" x2="513.03" y2="47.77" gradientTransform="translate(0 686) scale(1 -1)" gradientUnits="userSpaceOnUse">
            <stop offset="0" stop-color="#b843ff"/>
            <stop offset=".15" stop-color="#aa3df5"/>
            <stop offset=".44" stop-color="#8530dc"/>
            <stop offset=".84" stop-color="#4b1bb4"/>
            <stop offset="1" stop-color="#3112a3"/>
        </linearGradient>
        <radialGradient id="radial-gradient" cx="-603.24" cy="901.89" fx="-603.24" fy="901.89" r="3.78" gradientTransform="translate(-27872.03 93403.32) rotate(86.3) scale(147.63 -37.62)" gradientUnits="userSpaceOnUse">
            <stop offset="0" stop-color="#4cf3fe"/>
            <stop offset="1" stop-color="#fff" stop-opacity="0"/>
        </radialGradient>
        <radialGradient id="radial-gradient-2" cx="-632.26" cy="864.23" fx="-632.26" fy="864.23" r="3.48" gradientTransform="translate(22674.65 -101537.9) rotate(-93.14) scale(163.35 -32.63)" gradientUnits="userSpaceOnUse">
            <stop offset="0" stop-color="#eabfff"/>
            <stop offset="1" stop-color="#8726b7" stop-opacity="0"/>
        </radialGradient>
    </defs>
    <circle class="cls-4" cx="342" cy="342" r="239.2"/>
    <g>
        <path class="cls-5" d="M342,118.64c30.21,0,59.44,5.89,86.9,17.5,13.21,5.59,25.96,12.51,37.89,20.57,11.85,8.01,23,17.21,33.14,27.34,10.14,10.14,19.33,21.29,27.34,33.14,8.06,11.94,14.98,24.69,20.57,37.89,11.62,27.46,17.5,56.7,17.5,86.9s-5.89,59.44-17.5,86.9c-5.59,13.21-12.51,25.96-20.57,37.89-8.01,11.85-17.21,23-27.34,33.14-10.14,10.14-21.29,19.33-33.14,27.34-11.94,8.06-24.69,14.98-37.89,20.57-27.46,11.62-56.7,17.5-86.9,17.5s-59.44-5.89-86.9-17.5c-13.21-5.59-25.96-12.51-37.89-20.57-11.85-8.01-23-17.21-33.14-27.34-10.14-10.14-19.33-21.29-27.34-33.14-8.06-11.94-14.98-24.69-20.57-37.89-11.62-27.46-17.5-56.7-17.5-86.9s5.89-59.44,17.5-86.9c5.59-13.21,12.51-25.96,20.57-37.89,8.01-11.85,17.21-23,27.34-33.14,10.14-10.14,21.28-19.33,33.14-27.34,11.94-8.06,24.69-14.98,37.89-20.57,27.46-11.61,56.7-17.5,86.9-17.5ZM342,0C153.12,0,0,153.12,0,342s153.12,342,342,342,342-153.12,342-342S530.88,0,342,0Z"/>
        <path class="cls-1" d="M502.99,181.01h0c-10.33-10.33-21.7-19.7-33.78-27.87l-2.42,3.58,2.42-3.58c-12.17-8.22-25.16-15.27-38.63-20.97l-1.68,3.98,1.68-3.98c-28-11.84-57.81-17.85-88.59-17.85s-60.58,6-88.59,17.85h0c-13.47,5.7-26.46,12.75-38.63,20.97h0c-12.08,8.16-23.44,17.54-33.77,27.87h0c-10.33,10.34-19.7,21.7-27.87,33.78h0c-8.22,12.17-15.27,25.16-20.97,38.63h0c-11.84,28-17.85,57.81-17.85,88.59s6,60.58,17.85,88.59h0c5.7,13.47,12.75,26.46,20.97,38.63l3.58-2.42-3.58,2.42c8.16,12.08,17.54,23.45,27.87,33.78,10.33,10.33,21.69,19.71,33.77,27.87l2.42-3.58-2.42,3.58c12.17,8.22,25.16,15.27,38.63,20.97l1.68-3.98-1.68,3.98c28,11.84,57.81,17.85,88.59,17.85s60.58-6,88.59-17.85h0c13.47-5.7,26.46-12.75,38.63-20.97l-2.42-3.58,2.42,3.58c12.08-8.16,23.45-17.54,33.78-27.87h0c10.33-10.33,19.7-21.7,27.87-33.78l-3.58-2.42,3.58,2.42c8.22-12.17,15.27-25.16,20.97-38.63l-3.98-1.68,3.98,1.68c11.84-28,17.85-57.81,17.85-88.59s-6-60.58-17.85-88.59h0c-5.7-13.47-12.75-26.46-20.97-38.63l-3.58,2.42,3.58-2.42c-8.16-12.08-17.54-23.45-27.87-33.78ZM4.32,342C4.32,155.5,155.5,4.32,342,4.32s337.68,151.18,337.68,337.68-151.18,337.68-337.68,337.68S4.32,528.5,4.32,342Z"/>
        <path class="cls-2" d="M502.99,181.01h0c-10.33-10.33-21.7-19.7-33.78-27.87l-2.42,3.58,2.42-3.58c-12.17-8.22-25.16-15.27-38.63-20.97l-1.68,3.98,1.68-3.98c-28-11.84-57.81-17.85-88.59-17.85s-60.58,6-88.59,17.85h0c-13.47,5.7-26.46,12.75-38.63,20.97h0c-12.08,8.16-23.44,17.54-33.77,27.87h0c-10.33,10.34-19.7,21.7-27.87,33.78h0c-8.22,12.17-15.27,25.16-20.97,38.63h0c-11.84,28-17.85,57.81-17.85,88.59s6,60.58,17.85,88.59h0c5.7,13.47,12.75,26.46,20.97,38.63l3.58-2.42-3.58,2.42c8.16,12.08,17.54,23.45,27.87,33.78,10.33,10.33,21.69,19.71,33.77,27.87l2.42-3.58-2.42,3.58c12.17,8.22,25.16,15.27,38.63,20.97l1.68-3.98-1.68,3.98c28,11.84,57.81,17.85,88.59,17.85s60.58-6,88.59-17.85h0c13.47-5.7,26.46-12.75,38.63-20.97l-2.42-3.58,2.42,3.58c12.08-8.16,23.45-17.54,33.78-27.87h0c10.33-10.33,19.7-21.7,27.87-33.78l-3.58-2.42,3.58,2.42c8.22-12.17,15.27-25.16,20.97-38.63l-3.98-1.68,3.98,1.68c11.84-28,17.85-57.81,17.85-88.59s-6-60.58-17.85-88.59h0c-5.7-13.47-12.75-26.46-20.97-38.63l-3.58,2.42,3.58-2.42c-8.16-12.08-17.54-23.45-27.87-33.78ZM4.32,342C4.32,155.5,155.5,4.32,342,4.32s337.68,151.18,337.68,337.68-151.18,337.68-337.68,337.68S4.32,528.5,4.32,342Z"/>
    </g>
    <g id="Layer_2-2" data-name="Layer 2-2">
        <path class="cls-3" d="M327.56,236.92c-13.26,5.66-24.91,13.6-34.79,23.39-9.88,9.96-17.48,21.7-23.05,35.13-5.57,13.43-8.28,28.04-8.28,43.83s3.04,30.82,9.12,44.25c6.08,13.43,14.1,25,24.07,34.79,9.96,9.71,21.36,17.23,33.95,22.8,12.67,5.4,25.67,8.19,38.84,8.19s23.39-1.94,33.86-6.08c10.39-3.97,19.34-9.37,27.02-16.04,7.6-6.76,13.85-14.78,18.41-23.81,4.64-9.2,7.52-18.83,8.53-28.96v-.42h-66.63l89.76-32.51h0c0-10.39-1.18-20.44-3.72-29.98l-140.35,49.4,117.55-93.06c-.76-.93-1.6-1.86-2.36-2.79-.17-.17-.42-.42-.51-.51-.93-1.01-1.86-1.94-2.87-3.04-3.46-3.46-9.37-8.28-13.93-11.99-6.84-5.4-14.36-10.13-22.55-13.6-12.08-5.15-25-7.6-38.84-7.6s-29.98,2.87-43.32,8.53v.17s.08-.08.08-.08Z"/>
    </g>
    <g id="Layer_3" data-name="Layer 3">
        <polygon class="cls-3" points="502.7 287.08 509.03 264.87 486.91 258.53 409.56 319.84 502.7 287.08"/>
    </g>
    <g id="Layer_4" data-name="Layer 4">
        <path class="cls-3" d="M338.71,504.01c32.51,0,62.91-9.63,88.5-25.92-1.35.68-2.62,1.18-4.05,1.86-16.97,7.09-35.97,10.64-56.83,10.64s-40.11-3.97-58.18-11.82c-18.16-7.94-33.95-18.66-47.37-32.34-13.43-13.68-24.07-29.72-31.84-48.22-7.77-18.41-11.57-37.92-11.57-58.6s3.97-41.97,11.99-60.55c8.02-18.66,18.92-34.79,32.76-48.56,13.85-13.68,30.15-24.49,48.72-32.26,18.66-7.77,38.42-11.74,59.36-11.74s22.8,1.01,33.19,3.29c.25,0,.42,0,.68.17-20.01-8.7-41.97-13.6-65.19-13.6-90.61,0-163.91,73.3-163.91,163.74s73.3,163.74,163.74,163.74v.17h0Z"/>
    </g>
</svg>