<svg width="421" height="130" viewBox="0 0 421 130" fill="none" xmlns="http://www.w3.org/2000/svg">
<g clip-path="url(#clip0_22_25)">
<path d="M73.6863 106.692C73.6863 104.263 74.4341 102.311 75.9296 100.791C77.425 99.2703 79.3737 98.5213 81.7529 98.5213H109.51C111.889 98.5213 113.838 99.2703 115.333 100.791C116.829 102.311 117.576 104.263 117.576 106.692C117.576 109.12 117.576 107.826 117.531 108.19H112.659C112.682 107.872 112.705 107.418 112.705 106.828C112.614 105.353 112.297 104.241 111.753 103.492C111.232 102.743 110.212 102.38 108.739 102.38H82.5686C79.9175 102.38 78.6033 103.719 78.6033 106.397V122.125C78.6033 124.78 79.9175 126.096 82.5686 126.096H108.739C109.986 126.096 110.96 125.756 111.64 125.075C112.32 124.394 112.659 123.418 112.659 122.125V117.586H96.2998V113.727H117.554L117.599 121.852C117.599 124.235 116.851 126.187 115.333 127.708C113.815 129.228 111.889 129.977 109.533 129.977H81.7755C79.3963 129.977 77.4477 129.228 75.9522 127.708C74.4567 126.187 73.709 124.235 73.709 121.852V106.714L73.6863 106.692Z" fill="white"/>
<path d="M153.173 103.877L163.415 118.425H142.886L153.173 103.877ZM150.885 98.5213L128.815 129.955H134.842L140.212 122.352H166.134L171.436 129.955H177.464L155.394 98.5213H150.862H150.885Z" fill="white"/>
<path d="M233.068 98.5213L214.239 125.075L195.409 98.5213H190.674V129.955H195.613V106.601L211.973 129.955H216.55L232.932 106.601V129.955H237.849V98.5213H233.068Z" fill="white"/>
<path d="M253.008 98.5213V129.955H292.547V126.074H257.902V116.11H290.485V112.252H257.902V102.38H292.547V98.5213H253.008Z" fill="white"/>
<path d="M313.937 129.955C311.468 129.955 309.496 129.183 308.046 127.617C306.596 126.051 305.871 124.031 305.871 121.557H310.788C310.81 122.964 311.105 124.099 311.603 124.894C312.125 125.711 313.167 126.096 314.73 126.096H338.341C339.814 126.096 340.856 125.688 341.422 124.894C342.012 124.099 342.283 122.919 342.283 121.421C342.283 119.923 342.283 120.831 342.261 120.354C342.261 119.878 342.238 119.492 342.238 119.242C342.238 118.153 341.83 117.313 341.037 116.746C340.221 116.178 339.338 115.906 338.341 115.906H313.915C312.238 115.906 310.742 115.498 309.428 114.681C308.114 113.863 307.14 112.706 306.528 111.231C306.075 110.187 305.848 108.689 305.848 106.737C305.848 104.785 306.596 102.402 308.114 100.859C309.632 99.3383 311.558 98.5667 313.915 98.5667H338.16C340.289 98.5667 342.079 99.2022 343.552 100.45C345.025 101.699 345.886 103.355 346.135 105.375H341.264C340.879 103.401 339.587 102.425 337.412 102.425H314.776C313.484 102.425 312.532 102.72 311.921 103.31C311.309 103.9 310.946 104.831 310.856 106.102C310.833 106.51 310.81 107.191 310.81 108.076C310.81 110.731 312.125 112.048 314.776 112.048H339.157C341.536 112.048 343.484 112.797 345.002 114.295C346.521 115.793 347.268 117.744 347.268 120.173C347.268 122.601 347.042 124.099 346.589 125.211C345.977 126.755 345.003 127.935 343.688 128.774C342.374 129.591 340.856 130 339.157 130H313.96L313.937 129.955Z" fill="white"/>
<path d="M38.0894 42.0775H52.9082V42.1683C52.6816 44.4152 52.0472 46.5712 51.0049 48.6138C49.9626 50.6564 48.6031 52.4267 46.9037 53.9473C45.2043 55.4452 43.2103 56.648 40.8991 57.5332C38.5879 58.4183 36.0954 58.8722 33.3764 58.8722C30.6573 58.8722 27.5531 58.2594 24.7434 57.0566C21.911 55.8537 19.3959 54.1515 17.1754 51.9955C14.9548 49.8394 13.1647 47.2521 11.8279 44.2563C10.4684 41.2605 9.78859 37.9696 9.78859 34.3837C9.78859 30.7978 10.4004 27.5978 11.6466 24.602C12.8928 21.6061 14.5922 18.9962 16.7901 16.772C18.9881 14.5478 21.5485 12.8003 24.5168 11.5293C27.4851 10.2584 30.7026 9.62291 34.1468 9.62291C41.8054 9.62291 48.3085 13.1634 53.6786 20.2671L60.6802 13.5946C58.6182 11.2343 56.5336 9.21439 54.4717 7.53492C52.4097 5.85545 50.2798 4.47102 48.1272 3.38163C45.9746 2.29225 43.7314 1.49791 41.3976 0.998604C39.0637 0.499302 36.5939 0.272346 34.0108 0.272346C29.3431 0.272346 24.9473 1.13478 20.8008 2.85964C16.6542 4.5845 13.0288 6.99022 9.96986 10.0314C6.88827 13.0953 4.46378 16.7039 2.67374 20.8572C0.883692 25.0105 0 29.5042 0 34.361C0 39.2179 0.861033 43.3258 2.5831 47.4337C4.30517 51.5189 6.66168 55.1048 9.6753 58.1686C12.6663 61.2325 16.1784 63.6383 20.2116 65.3858C24.2449 67.1561 28.5501 68.0185 33.1724 68.0185C37.7948 68.0185 42.0547 67.2242 45.8387 65.6355C49.6001 64.0468 52.7949 61.8226 55.4234 58.9403C58.0518 56.058 60.0684 52.5855 61.5186 48.523C62.9687 44.4605 63.6712 39.9441 63.6712 34.9738V32.8177L38.1347 42.0775H38.0894Z" fill="white"/>
<path d="M113.294 0H113.045L81.9794 66.8156H92.1306L99.0415 51.5416L103.12 42.6222L107.108 33.771C108.06 31.6603 109.011 29.5269 109.986 27.3935C110.96 25.2601 111.912 23.1267 112.863 21.0161C113.702 23.1267 114.563 25.2374 115.446 27.3027C116.33 29.3907 117.259 31.4787 118.188 33.5894L122.108 42.5995L125.937 51.5189L132.599 66.7929H143L113.294 0Z" fill="white"/>
<path d="M168.921 66.8156V1.58869H178.778V57.5559H197.947V66.8156H168.921Z" fill="white"/>
<path d="M252.056 0H251.807L220.742 66.8156H230.893L237.804 51.5416L241.882 42.6222L245.87 33.771C246.822 31.6603 247.774 29.5269 248.748 27.3935C249.722 25.2601 250.674 23.1267 251.626 21.0161C252.464 23.1267 253.325 25.2374 254.209 27.3027C255.092 29.3907 256.021 31.4787 256.95 33.5894L260.87 42.5995L264.7 51.5189L271.361 66.7929H281.762L252.056 0Z" fill="white"/>
<path d="M299.979 66.8156L320.44 32.5681L302.563 1.58869H313.711L326.15 25.124L339.202 1.58869H350.509L331.679 32.5681L351.37 66.8156H340.403L325.969 40.1711L311.105 66.8156H299.979Z" fill="white"/>
<path d="M409.671 1.58869L394.739 28.3921L379.784 1.58869H368.568L389.822 38.6051V66.8156H399.565V38.6051L421 1.58869H409.671Z" fill="white"/>
</g>
<defs>
<clipPath id="clip0_22_25">
<rect width="421" height="130" fill="white"/>
</clipPath>
</defs>
</svg>
