<svg width="103" height="109" viewBox="0 0 103 109" fill="none" xmlns="http://www.w3.org/2000/svg">
<g style="mix-blend-mode:luminosity">
<path d="M41.5 109H51.5H62C67.5228 109 72 104.523 72 99V83.1115C72 80.1853 70.7183 77.4058 68.4926 75.5059L58.0734 66.6114C54.2984 63.3889 48.731 63.4229 44.9957 66.6913L34.915 75.5119C32.7448 77.4108 31.5 80.1541 31.5 83.0377V99C31.5 104.523 35.9772 109 41.5 109Z" fill="white"/>
</g>
<g style="mix-blend-mode:luminosity">
<path d="M41 0H51H61.5C67.0228 0 71.5 4.47715 71.5 10V25.8885C71.5 28.8147 70.2183 31.5942 67.9926 33.4941L57.5734 42.3886C53.7984 45.6111 48.231 45.5771 44.4957 42.3087L34.415 33.4881C32.2448 31.5892 31 28.8459 31 25.9623V10C31 4.47715 35.4772 0 41 0Z" fill="white"/>
</g>
<g style="mix-blend-mode:luminosity">
<path d="M103 64.5L103 54.5L103 44C103 38.4772 98.5228 34 93 34L77.1115 34C74.1853 34 71.4058 35.2817 69.5059 37.5074L60.6114 47.9266C57.3889 51.7016 57.4229 57.269 60.6913 61.0043L69.5119 71.085C71.4108 73.2552 74.1541 74.5 77.0377 74.5L93 74.5C98.5228 74.5 103 70.0228 103 64.5Z" fill="white"/>
</g>
<g style="mix-blend-mode:luminosity">
<path d="M4.37114e-07 64.5L8.74228e-07 54.5L1.3332e-06 44C1.57461e-06 38.4772 4.47716 34 10 34L25.8885 34C28.8147 34 31.5942 35.2817 33.4941 37.5074L42.3886 47.9266C45.6111 51.7016 45.5771 57.269 42.3087 61.0043L33.4881 71.085C31.5892 73.2552 28.8459 74.5 25.9623 74.5L10 74.5C4.47715 74.5 1.95703e-07 70.0228 4.37114e-07 64.5Z" fill="white"/>
</g>
</svg>
