<svg width="927" height="1043" viewBox="0 0 927 1043" fill="none" xmlns="http://www.w3.org/2000/svg">
<g style="mix-blend-mode:soft-light">
<g clip-path="url(#clip0_481_21873)">
<g filter="url(#filter0_f_481_21873)">
<path d="M636.894 601.238C628.7 587.349 616.768 579.748 599.839 580.009C588.489 580.186 577.409 581.577 566.607 584.686C537.983 592.937 509.468 601.541 480.877 609.867C440.177 621.725 403.705 615.227 371.857 586.237C338.473 555.848 308.388 522.711 283.097 485.454C258.616 449.385 246.186 409.751 247.198 366.097C248.101 327.011 257.485 289.635 270.135 252.943C289.055 198.021 314.844 146.008 339.941 93.699C343.705 85.8615 347.654 78.1083 351.451 70.2793H337.646C322.625 102.109 306.549 133.451 291.603 165.315C265.924 220.093 241.426 275.3 229.393 334.958C221.426 374.457 220.515 413.838 231.916 452.933C240.962 483.929 256.777 511.764 273.755 538.993C298.979 579.436 321.317 621.177 334.827 667.064C339.333 682.385 343.814 697.748 350.549 712.302C362.523 738.182 378.194 745.801 401.907 744.865C415.24 744.334 428.397 741.233 441.384 737.702C473.004 729.115 504.143 718.757 536.65 713.414C567.24 708.383 587.08 721.319 592.439 751.489C596.211 772.726 594.818 794.115 591.687 815.301C585.088 860.009 573.24 903.587 561.654 947.207C557.223 963.893 552.894 980.604 548.447 997.282H587.156C601.628 930.908 620.422 865.554 635.08 799.23C646.118 749.307 656.438 699.197 650.692 647.546C648.894 631.298 645.316 615.505 636.894 601.238Z" fill="url(#paint0_linear_481_21873)"/>
<path d="M841.754 207.604C833.517 195.831 821.796 191.828 807.619 192.957C790.328 194.339 774.488 200.356 759.256 207.772C699.779 236.729 640.615 266.326 581.071 295.156C546.421 311.935 511.788 329.152 472.32 332.464C451.147 334.242 431.231 330.357 413.822 318.087C388.328 300.128 378.843 273.978 377.366 244.322C375.501 206.609 385.704 171.012 397.501 135.752C404.936 113.529 413.974 91.9212 422.953 70.2881H406.64C404.615 74.5355 402.59 78.7829 400.716 83.0893C380.058 130.561 359.518 178.091 349.51 229.136C343.577 259.381 341.391 289.914 352.092 319.663C368.379 364.934 405.273 385.286 447.771 385.556C475.704 385.733 502.277 377.045 527.788 366.03C583.307 342.071 636.708 313.789 691.146 287.63C713.045 277.104 734.64 265.761 758.581 260.081C789.248 252.8 807.087 263.267 814.775 293.63C823.391 327.652 818.589 361.934 815.501 396.065C813.02 423.479 809.467 450.792 806.48 478.165C803.492 505.554 801.003 533.001 797.602 560.331C793.239 595.423 788.302 630.439 783.408 665.463C777.847 705.316 772.083 745.144 766.361 784.98C760.328 826.99 754.758 869.026 755.298 911.61C755.67 941.03 759.88 969.649 769.459 997.291H843.29C818.235 944.662 808.15 888.493 807.619 830.387C807.256 790.652 810.944 751.051 815.045 711.502C818.496 678.188 820.893 644.765 823.923 611.401C828.074 565.683 832.758 520.006 836.522 474.263C839.627 436.559 844.404 399.048 848.809 361.496C853.028 325.461 856.581 289.417 854.606 253.137C853.737 237.218 851.315 221.265 841.754 207.604Z" fill="url(#paint1_linear_481_21873)"/>
<path d="M700.75 463.374C693.594 450.337 680.623 444.353 665.737 446.342C650.919 448.323 637.028 453.008 623.231 458.301C584.413 473.183 547.299 492.103 508.05 505.949C478.159 516.492 447.543 524.708 415.67 517.284C352.666 502.612 310.666 463.096 286.852 404.913C269.763 363.147 274.514 320.049 284.582 277.331C295.687 230.222 314.227 185.759 334.354 141.895C345.35 117.927 356.387 93.9851 367.923 70.2705H354.674C338.793 103.517 322.666 136.661 307.451 170.202C281.569 227.272 258.05 285.143 252.548 348.433C249.805 379.951 252.649 410.846 265.35 439.861C291.485 499.578 335.122 545.473 386.97 584.18C404.025 596.914 424.337 602.611 445.662 601.827C464.851 601.119 483.467 596.206 501.729 590.248C530.573 580.851 559.062 570.292 588.877 564.005C621.096 557.213 640.733 568.008 651.104 598.802C656.218 613.988 658.986 629.722 659.788 645.683C661.611 681.795 657.476 717.459 650.767 752.896C639.999 809.756 624.725 865.587 611.054 921.781C604.944 946.894 598.792 972 593.375 997.273H634.092C642.826 941.273 655.704 886.091 668.033 830.799C684.843 755.416 703.602 680.396 708.792 602.956C711.163 567.578 713.028 532.225 709.67 496.864C708.606 485.361 706.514 473.849 700.75 463.374Z" fill="url(#paint2_linear_481_21873)"/>
<path d="M554.068 729.191C545.469 727.278 536.633 727.842 527.925 729.216C498.085 733.944 469.562 743.635 440.608 751.717C421.874 756.95 403.114 762.091 383.317 760.895C369.376 760.052 357.975 754.549 349.942 742.978C342.06 731.626 337.933 718.741 334.6 705.577C325.646 670.182 317.081 634.703 301.182 601.44C286.887 571.515 269.165 543.485 252.642 514.807C222.144 461.883 212.355 405.563 223.03 345.77C230.727 302.681 245.376 261.665 262.49 221.467C284.338 170.152 309.95 120.566 334.018 70.2627H319.52C302.119 107.276 283.368 143.657 265.773 180.577C242.321 229.801 220.068 279.481 206.195 332.362C193.942 379.092 190.186 426.125 202.364 473.445C210.921 506.708 226.87 537.063 241.807 567.764C260.127 605.418 272.954 644.529 274.667 686.607C276.102 721.842 271.874 756.773 268.6 791.764C267.241 806.259 266.946 820.982 270.077 835.426C274.448 855.618 287.79 866.304 308.828 867.29C326.887 868.141 344.186 864.273 361.435 859.891C396.38 851.017 430.659 839.674 466.76 835.173C498.819 831.179 520.186 846.247 521.722 875.574C522.929 898.665 520.633 921.428 515.705 943.929C511.798 961.761 507.629 979.534 503.3 997.265H542.313C553.064 955.845 564.92 914.686 573.992 872.861C581.367 838.814 588.819 804.751 584.912 769.423C582.574 748.119 571.967 733.168 554.068 729.191Z" fill="url(#paint3_linear_481_21873)"/>
<path d="M802.118 284.478C794.025 271.306 781.586 265.87 765.957 267.741C750.776 269.561 736.59 274.289 722.886 280.5C670.582 304.189 619.713 330.786 567.831 355.352C532.785 371.945 497.637 388.075 458.076 392.314C407.181 397.767 362.346 370.504 346.278 322.544C335.595 290.655 338.658 258.496 345.477 226.447C354.473 184.166 370.532 144.221 387.561 104.62C392.489 93.1508 397.477 81.7149 402.473 70.2705H388.413C385.688 76.0938 382.979 81.9171 380.312 87.7657C357.046 138.802 333.502 189.754 320.118 244.473C311.629 279.16 307.08 314.032 315.941 349.453C329.932 405.385 381.055 445.668 438.709 444.555C464.321 444.067 488.447 437.67 512.076 428.763C557.207 411.748 599.645 388.952 643.341 368.869C667.645 357.695 691.257 344.27 718 339.795C742.877 335.632 758.607 339.483 767.662 368.313C772.894 384.982 773.628 402.469 772.902 419.712C771.586 451.002 768.624 482.201 765.586 513.39C761.797 552.367 757.856 591.327 751.721 630C738.556 712.951 720.599 795.067 706.877 877.925C700.329 917.466 694.362 957.075 696.607 997.273H759.308C752.658 977.073 749.265 956.173 748.084 934.953C745.696 892.108 750.692 849.634 756.708 807.312C761.679 772.304 767.35 737.39 772.396 702.391C778.877 657.498 786.16 612.715 791.105 567.612C794.717 534.602 798.43 501.609 802.168 468.607C805.392 440.165 808.776 411.739 811.097 383.196C812.919 360.821 813.983 338.43 811.603 316.105C810.43 305.175 808.101 294.228 802.118 284.478Z" fill="url(#paint4_linear_481_21873)"/>
<path d="M481.805 848.994C470.683 847.502 459.375 847.89 448.185 849.44C418.253 853.57 389.611 862.949 360.506 870.466C340.894 875.531 321.274 880.47 300.7 879.577C279.898 878.675 265.476 867.205 260.903 847.308C259.51 841.257 258.86 835.105 258.683 828.827C257.628 791.62 265.949 755.197 267.78 718.201C269.527 682.898 265.679 648.658 254.827 615.126C244.7 583.843 228.936 554.92 215.451 525.054C198.261 486.987 188.067 447.438 190.169 405.562C192.253 364.2 202.633 324.474 216.818 285.64C244.008 211.218 281.839 141.583 315.949 70.2705H300.076C279.35 115.349 256.211 159.297 234.953 204.122C211.932 252.656 190.405 301.754 176.641 353.81C163.654 402.941 160.152 452.199 174.38 501.71C183.004 531.72 196.422 559.935 208.236 588.748C224.725 628.938 233.097 670.519 229.974 713.953C227.333 750.73 218.388 786.404 209.595 822.093C202.295 851.733 194.633 881.329 195.645 912.292C196.658 943.245 213.316 959.645 244.498 960.125C267.822 960.488 289.983 954.31 312.371 949.229C342.692 942.344 372.658 933.343 404.523 936.849C426.438 939.259 440.919 951.125 445.949 972.278C447.924 980.57 448.008 988.922 447.797 997.282H496.818C498.506 990.675 500.236 984.084 501.712 977.435C508.278 947.847 514.438 918.216 512.447 887.599C511.071 866.143 500.058 851.446 481.805 848.994Z" fill="url(#paint5_linear_481_21873)"/>
<path d="M379.19 946.237C351.342 949.195 324.236 955.229 297.131 961.76C276.675 966.69 256.127 971.325 234.751 970.66C210.22 969.893 194.717 957.681 189.224 934.127C184.093 912.165 188.034 890.549 192.211 869.084C199.544 831.439 211.384 794.814 218.532 757.085C228.245 705.855 227.156 655.4 208.701 606.134C198.92 580.026 187.789 554.415 177.747 528.408C162.464 488.85 156.633 447.969 162.101 405.832C167.274 365.945 178.768 327.651 193.376 290.225C222.861 214.69 262.017 143.555 296.464 70.2705H279.705C255.629 124.062 227.84 176.118 202.819 229.464C177.933 282.514 155.021 336.289 142.085 393.646C133.123 433.414 130.76 473.276 140.38 513.348C147.612 543.493 160.633 571.59 171.874 600.293C188.751 643.399 196.481 687.652 190.566 733.783C186.017 769.296 176.177 803.57 165.156 837.549C153.393 873.821 140.566 909.814 134.042 947.51C131.173 964.069 129.781 980.663 132.203 997.282H438.515C438.515 997.054 438.506 996.843 438.498 996.616C437.907 962.333 413.688 942.579 379.19 946.237Z" fill="url(#paint6_linear_481_21873)"/>
<path d="M206.946 70.2793C205.224 76.2964 203.359 82.2715 201.367 88.2128C181.19 148.485 151.739 204.839 125.469 262.533C90.9288 338.379 59.7474 415.321 44.8951 497.741C40.3803 522.804 37.4436 548.103 37.9415 573.495C38.625 608.46 47.3423 641.832 61.5448 673.924C82.0596 720.274 83.9668 767.839 71.0385 816.599C60.9204 854.733 45.4352 890.743 29.0892 926.492C19.2749 947.957 9.39301 969.379 -0.455078 990.827V997.307H28.8698C36.9373 975.472 45.9162 953.974 55.0807 932.551C73.7305 888.974 93.3085 845.716 104.912 799.567C113.368 765.968 117.098 732.089 110.701 697.622C106.473 674.842 98.6081 653.243 88.971 632.293C73.2495 598.094 63.5617 562.64 64.9626 524.827C65.9246 498.879 69.7389 473.26 75.4858 447.902C86.4056 399.705 103.351 353.498 122.591 308.049C146.802 250.87 175.671 195.797 201.587 139.392C212.034 116.647 222.237 93.7917 230.768 70.2962H206.946V70.2793Z" fill="url(#paint7_linear_481_21873)"/>
<path d="M141.232 313.426C168.329 246.554 202.658 182.978 233.172 117.666C240.506 101.974 247.907 86.2994 254.447 70.2705H234.928C233.62 73.8353 232.278 77.3916 230.894 80.9227C207.426 140.791 176.928 197.49 149.966 255.782C115.89 329.438 84.5988 404.045 73.0545 485.066C69.8393 507.634 69.4258 530.287 71.5355 553.007C74.1515 581.205 84.3287 607.179 96.1177 632.494C121.021 685.966 125.544 740.803 110.624 797.722C99.046 841.906 81.0207 883.655 63.3245 925.565C53.2992 949.305 43.4005 973.078 34.5566 997.273H70.0418C76.8604 968.73 86.8435 941.122 97.2148 913.64C113.831 869.59 132.194 826.113 142.852 780.066C151.054 744.638 153.468 709.032 146.911 673.072C141.932 645.734 132.05 619.921 120.514 594.816C98.5735 547.041 92.1346 497.581 101.257 445.971C109.333 400.236 123.822 356.397 141.232 313.426Z" fill="url(#paint8_linear_481_21873)"/>
<path d="M647.114 70.2793C633.57 75.2009 619.798 79.4904 605.561 82.44C588.869 85.8952 572.27 85.1283 559.308 71.4507C558.945 71.063 558.599 70.6754 558.253 70.2793H489.055C486.878 80.6281 484.996 91.0275 484.338 101.638C483.072 121.948 484.616 141.71 497.739 158.674C505.68 168.947 516.684 173.801 529.553 174.888C549.426 176.565 568.135 171.821 586.397 164.759C622.886 150.66 656.954 131.108 693.612 117.54C729.418 104.284 763.443 87.4796 797.283 70.2793H647.114Z" fill="url(#paint9_linear_481_21873)"/>
<path d="M-0.447266 70.2793V99.851C14.1603 89.6707 28.8692 79.6505 43.9915 70.2793H-0.447266Z" fill="url(#paint10_linear_481_21873)"/>
<g style="mix-blend-mode:hard-light" filter="url(#filter1_f_481_21873)">
<path d="M118.46 240.562C141.647 190.462 166.56 76.3506 183.339 10.5265C185.98 0.16618 178.188 -10 167.496 -10V-10C157.802 -10 149.804 -1.51688 149.769 8.17739C149.647 41.3388 146.755 104.737 143.793 117.186C133.101 162.162 113.616 204.038 95.2108 246.234C62.5949 321.035 31.616 396.393 12.3839 475.897C3.86074 511.132 -2.15614 546.704 -5.33757 582.857C-9.59917 631.289 -3.1266 678.28 11.1941 724.428C27.0759 775.591 20.8312 825.296 2.1561 874.377C-2.31069 886.113 -7.13158 897.691 -12.2129 909.164C-13.0234 910.994 -13.4473 912.972 -13.4473 914.973V914.973C-13.4473 930.132 7.05995 934.756 13.3395 920.96C22.9968 899.742 32.1757 878.316 40.2742 856.418C49.962 830.209 57.3121 803.418 59.7088 775.515C62.6877 740.803 55.6413 707.844 42.0379 675.895C29.1097 645.523 21.0168 613.979 20.308 580.784C19.4725 541.605 25.4557 503.26 34.4767 465.287C53.0928 386.98 84.7467 313.4 118.46 240.562Z" fill="url(#paint11_linear_481_21873)"/>
</g>
<g style="mix-blend-mode:difference" filter="url(#filter2_f_481_21873)">
<path d="M141.535 378.409C159.181 312.414 188.109 250.878 218.134 189.788C236.049 153.334 280.662 68.3967 301.808 23.4883C304.237 18.3304 300.433 12.5 294.732 12.5H291.533C290.301 12.5 289.213 13.2489 288.723 14.3793V14.3793C263.162 74.8204 200.674 190.352 173.063 249.85C146.455 307.181 122.042 365.313 109.265 427.473C102.48 460.484 98.9867 493.637 105.029 527.245C109.662 553.024 119.594 577.017 129.628 600.993C143.696 634.618 155.164 668.841 156.185 705.694C156.911 732.089 153.24 757.969 147.071 783.563C136.075 829.206 117.611 872.354 101.628 916.337C94.7871 935.168 88.1109 954.046 82.5343 973.254C78.9911 985.458 88.3765 997.281 101.084 997.281H106.978C115.52 997.281 122.046 989.865 122.666 981.345V981.345C124.565 955.364 130.497 930.166 137.822 905.229C149.864 864.23 165.501 824.327 175.923 782.839C186.911 739.058 191.147 695.008 181.425 650.402C175.231 621.968 163.982 595.229 153.012 568.413C138.556 533.068 127.797 496.907 128.953 458.309C129.772 431.198 134.523 404.618 141.535 378.409Z" fill="url(#paint12_linear_481_21873)"/>
</g>
</g>
</g>
</g>
<g style="mix-blend-mode:hard-light" filter="url(#filter3_f_481_21873)">
<path d="M757.595 368.398C749.637 352.099 737.89 347.902 723.173 348.737C708 349.588 693.806 354.872 679.907 360.746C641.342 377.036 604.101 396.09 566.118 413.594C531.603 429.505 497.021 444.944 458.819 450.952C394.81 461.015 331.815 422.493 313.216 361.007C302.119 324.323 305.536 287.68 314.346 251.291C328.992 190.798 389.558 84.4188 419.292 23.7262C421.282 19.6657 418.29 15 413.769 15V15C411.385 15 409.236 16.3444 408.133 18.4578C395.959 41.7772 352.876 109.49 344.49 127.661C321.072 178.403 298.65 229.531 287.097 284.478C278.861 323.657 276.642 362.819 291.199 401.189C315.156 464.326 391.84 534.636 490.861 502.182C525.57 490.805 558.439 475.383 591.89 461.183C614.27 451.685 636.329 441.294 660.127 435.522C690.962 428.047 707.721 438.497 714.658 469.139C717.958 483.718 718.894 498.55 719.055 513.416C719.342 539.381 717.713 565.286 716.143 591.201C714.54 617.663 711.384 643.931 707.08 670.03C695.612 739.624 678.532 808.088 663.561 876.981C656.662 908.709 649.977 940.484 644.667 972.502C642.501 985.566 652.69 997.282 665.932 997.282V997.282C678.272 997.282 688.103 987.037 688.517 974.704C689.398 948.521 693.116 922.52 697.358 896.625C711.721 808.947 731.426 722.221 745.451 634.475C750.734 601.406 754.785 568.177 757.772 534.821C759.704 513.306 762.261 491.833 763.873 470.293C765.493 448.711 767.072 427.052 765.637 405.428C764.801 392.829 763.308 380.086 757.595 368.398Z" fill="url(#paint13_linear_481_21873)"/>
</g>
<defs>
<filter id="filter0_f_481_21873" x="-28.4473" y="-25" width="898.613" height="1037.31" filterUnits="userSpaceOnUse" color-interpolation-filters="sRGB">
<feFlood flood-opacity="0" result="BackgroundImageFix"/>
<feBlend mode="normal" in="SourceGraphic" in2="BackgroundImageFix" result="shape"/>
<feGaussianBlur stdDeviation="7.5" result="effect1_foregroundBlur_481_21873"/>
</filter>
<filter id="filter1_f_481_21873" x="-28.4473" y="-25" width="227.305" height="969.184" filterUnits="userSpaceOnUse" color-interpolation-filters="sRGB">
<feFlood flood-opacity="0" result="BackgroundImageFix"/>
<feBlend mode="normal" in="SourceGraphic" in2="BackgroundImageFix" result="shape"/>
<feGaussianBlur stdDeviation="7.5" result="effect1_foregroundBlur_481_21873"/>
</filter>
<filter id="filter2_f_481_21873" x="66.7793" y="-2.5" width="250.775" height="1014.78" filterUnits="userSpaceOnUse" color-interpolation-filters="sRGB">
<feFlood flood-opacity="0" result="BackgroundImageFix"/>
<feBlend mode="normal" in="SourceGraphic" in2="BackgroundImageFix" result="shape"/>
<feGaussianBlur stdDeviation="7.5" result="effect1_foregroundBlur_481_21873"/>
</filter>
<filter id="filter3_f_481_21873" x="265.586" y="0" width="515.613" height="1012.28" filterUnits="userSpaceOnUse" color-interpolation-filters="sRGB">
<feFlood flood-opacity="0" result="BackgroundImageFix"/>
<feBlend mode="normal" in="SourceGraphic" in2="BackgroundImageFix" result="shape"/>
<feGaussianBlur stdDeviation="7.5" result="effect1_foregroundBlur_481_21873"/>
</filter>
<linearGradient id="paint0_linear_481_21873" x1="437.857" y1="70.7485" x2="437.857" y2="912.5" gradientUnits="userSpaceOnUse">
<stop stop-color="#FFA7A7" stop-opacity="0"/>
<stop offset="0.5" stop-color="#FF4F4F"/>
<stop offset="1" stop-color="white" stop-opacity="0"/>
</linearGradient>
<linearGradient id="paint1_linear_481_21873" x1="599.865" y1="70.7573" x2="599.865" y2="912.509" gradientUnits="userSpaceOnUse">
<stop stop-color="#FFA7A7" stop-opacity="0"/>
<stop offset="0.5" stop-color="#FF4F4F"/>
<stop offset="1" stop-color="white" stop-opacity="0"/>
</linearGradient>
<linearGradient id="paint2_linear_481_21873" x1="481.545" y1="70.7397" x2="481.545" y2="912.491" gradientUnits="userSpaceOnUse">
<stop stop-color="#FFA7A7" stop-opacity="0"/>
<stop offset="0.5" stop-color="#FF4F4F"/>
<stop offset="1" stop-color="white" stop-opacity="0"/>
</linearGradient>
<linearGradient id="paint3_linear_481_21873" x1="390.444" y1="70.7319" x2="390.444" y2="912.483" gradientUnits="userSpaceOnUse">
<stop stop-color="#FFA7A7" stop-opacity="0"/>
<stop offset="0.5" stop-color="#FF4F4F"/>
<stop offset="1" stop-color="white" stop-opacity="0"/>
</linearGradient>
<linearGradient id="paint4_linear_481_21873" x1="562.054" y1="70.7397" x2="562.054" y2="912.491" gradientUnits="userSpaceOnUse">
<stop stop-color="#FFA7A7" stop-opacity="0"/>
<stop offset="0.5" stop-color="#FF4F4F"/>
<stop offset="1" stop-color="white" stop-opacity="0"/>
</linearGradient>
<linearGradient id="paint5_linear_481_21873" x1="339.009" y1="70.7397" x2="339.009" y2="912.499" gradientUnits="userSpaceOnUse">
<stop stop-color="#FFA7A7" stop-opacity="0"/>
<stop offset="0.5" stop-color="#FF4F4F"/>
<stop offset="1" stop-color="white" stop-opacity="0"/>
</linearGradient>
<linearGradient id="paint6_linear_481_21873" x1="284.738" y1="70.7397" x2="284.738" y2="912.499" gradientUnits="userSpaceOnUse">
<stop stop-color="#FFA7A7" stop-opacity="0"/>
<stop offset="0.5" stop-color="#FF4F4F"/>
<stop offset="1" stop-color="white" stop-opacity="0"/>
</linearGradient>
<linearGradient id="paint7_linear_481_21873" x1="115.157" y1="70.7485" x2="115.157" y2="912.523" gradientUnits="userSpaceOnUse">
<stop stop-color="#FFA7A7" stop-opacity="0"/>
<stop offset="0.5" stop-color="#FF4F4F"/>
<stop offset="1" stop-color="white" stop-opacity="0"/>
</linearGradient>
<linearGradient id="paint8_linear_481_21873" x1="144.502" y1="70.7397" x2="144.502" y2="912.491" gradientUnits="userSpaceOnUse">
<stop stop-color="#FFA7A7" stop-opacity="0"/>
<stop offset="0.5" stop-color="#FF4F4F"/>
<stop offset="1" stop-color="white" stop-opacity="0"/>
</linearGradient>
<linearGradient id="paint9_linear_481_21873" x1="640.631" y1="70.3324" x2="640.631" y2="165.628" gradientUnits="userSpaceOnUse">
<stop stop-color="#FFA7A7" stop-opacity="0"/>
<stop offset="0.5" stop-color="#FF4F4F"/>
<stop offset="1" stop-color="white" stop-opacity="0"/>
</linearGradient>
<linearGradient id="paint10_linear_481_21873" x1="21.7721" y1="70.2943" x2="21.7721" y2="97.1464" gradientUnits="userSpaceOnUse">
<stop stop-color="#FFA7A7" stop-opacity="0"/>
<stop offset="0.5" stop-color="#FF4F4F"/>
<stop offset="1" stop-color="white" stop-opacity="0"/>
</linearGradient>
<linearGradient id="paint11_linear_481_21873" x1="87.6581" y1="-9.5" x2="87.6581" y2="887.554" gradientUnits="userSpaceOnUse">
<stop stop-color="#FFA7A7" stop-opacity="0"/>
<stop offset="0.5" stop-color="#FF4F4F"/>
<stop offset="1" stop-color="white" stop-opacity="0"/>
</linearGradient>
<linearGradient id="paint12_linear_481_21873" x1="191.555" y1="12.9984" x2="191.555" y2="907.215" gradientUnits="userSpaceOnUse">
<stop stop-color="#FFA7A7" stop-opacity="0"/>
<stop offset="0.5" stop-color="#FF4F4F"/>
<stop offset="1" stop-color="white" stop-opacity="0"/>
</linearGradient>
<linearGradient id="paint13_linear_481_21873" x1="523.392" y1="15.4972" x2="523.392" y2="907.444" gradientUnits="userSpaceOnUse">
<stop stop-color="#FFA7A7" stop-opacity="0"/>
<stop offset="0.5" stop-color="#FF4F4F"/>
<stop offset="1" stop-color="white" stop-opacity="0"/>
</linearGradient>
<clipPath id="clip0_481_21873">
<rect y="59.5" width="927" height="983" rx="25" fill="white"/>
</clipPath>
</defs>
</svg>
