<svg width="517" height="1013" viewBox="0 0 517 1013" fill="none" xmlns="http://www.w3.org/2000/svg">
<g style="mix-blend-mode:hard-light" filter="url(#filter0_f_114_1452)">
<path d="M492.594 368.398C484.636 352.099 472.89 347.902 458.172 348.737C442.999 349.588 428.805 354.872 414.906 360.746C376.341 377.036 339.101 396.09 301.118 413.594C266.603 429.505 232.021 444.944 193.818 450.952C129.81 461.015 66.8141 422.493 48.2149 361.007C37.1179 324.323 40.5356 287.68 49.3457 251.291C63.991 190.798 124.557 84.4188 154.292 23.7262C156.281 19.6657 153.29 15 148.768 15C146.384 15 144.235 16.3444 143.132 18.4578C130.959 41.7773 87.8758 109.49 79.4892 127.661C56.0715 178.403 33.6495 229.531 22.0968 284.478C13.8605 323.657 11.6411 362.819 26.1981 401.189C50.1559 464.326 126.839 534.636 225.86 502.182C260.569 490.805 293.438 475.383 326.89 461.183C349.269 451.685 371.328 441.294 395.126 435.522C425.961 428.047 442.721 438.497 449.657 469.139C452.957 483.718 453.894 498.55 454.054 513.416C454.341 539.381 452.712 565.286 451.143 591.201C449.539 617.663 446.383 643.931 442.079 670.03C430.611 739.624 413.531 808.088 398.56 876.981C391.661 908.709 384.976 940.484 379.667 972.502C377.501 985.566 387.689 997.282 400.931 997.282C413.271 997.282 423.102 987.037 423.517 974.704C424.397 948.521 428.115 922.52 432.358 896.625C446.721 808.947 466.425 722.221 480.451 634.475C485.733 601.406 489.784 568.177 492.771 534.821C494.704 513.306 497.261 491.833 498.873 470.293C500.493 448.711 502.071 427.052 500.636 405.428C499.801 392.829 498.307 380.086 492.594 368.398Z" fill="url(#paint0_linear_114_1452)"/>
</g>
<defs>
<filter id="filter0_f_114_1452" x="0.585327" y="0" width="515.613" height="1012.28" filterUnits="userSpaceOnUse" color-interpolation-filters="sRGB">
<feFlood flood-opacity="0" result="BackgroundImageFix"/>
<feBlend mode="normal" in="SourceGraphic" in2="BackgroundImageFix" result="shape"/>
<feGaussianBlur stdDeviation="7.5" result="effect1_foregroundBlur_114_1452"/>
</filter>
<linearGradient id="paint0_linear_114_1452" x1="258.392" y1="15.4972" x2="258.392" y2="907.444" gradientUnits="userSpaceOnUse">
<stop stop-color="#AB00FF" stop-opacity="0"/>
<stop offset="0.5" stop-color="#AB00FF"/>
<stop offset="1" stop-color="#AB00FF" stop-opacity="0"/>
</linearGradient>
</defs>
</svg>
