<svg width="927" height="984" viewBox="0 0 927 984" fill="none" xmlns="http://www.w3.org/2000/svg">
<g style="mix-blend-mode:soft-light">
<g clip-path="url(#clip0_114_1443)">
<g filter="url(#filter0_f_114_1443)">
<path d="M636.894 542.238C628.7 528.349 616.767 520.748 599.839 521.009C588.489 521.186 577.409 522.577 566.607 525.686C537.983 533.937 509.468 542.541 480.877 550.867C440.177 562.725 403.704 556.227 371.856 527.237C338.472 496.848 308.388 463.711 283.097 426.454C258.616 390.385 246.185 350.751 247.198 307.097C248.101 268.011 257.485 230.635 270.135 193.943C289.055 139.021 314.844 87.0077 339.941 34.699C343.704 26.8615 347.654 19.1083 351.451 11.2793H337.645C322.624 43.1095 306.548 74.4509 291.603 106.315C265.924 161.093 241.426 216.3 229.392 275.958C221.426 315.457 220.515 354.838 231.915 393.933C240.962 424.929 256.776 452.764 273.755 479.993C298.979 520.436 321.316 562.177 334.827 608.064C339.333 623.385 343.814 638.748 350.548 653.302C362.523 679.182 378.194 686.801 401.907 685.865C415.24 685.334 428.396 682.233 441.384 678.702C473.004 670.115 504.143 659.757 536.649 654.414C567.24 649.383 587.079 662.319 592.438 692.489C596.21 713.726 594.818 735.115 591.687 756.301C585.088 801.009 573.24 844.587 561.653 888.207C557.223 904.893 552.894 921.604 548.447 938.282H587.155C601.628 871.908 620.421 806.554 635.079 740.23C646.117 690.307 656.438 640.197 650.691 588.546C648.894 572.298 645.316 556.505 636.894 542.238Z" fill="url(#paint0_linear_114_1443)"/>
<path d="M841.754 148.603C833.518 136.83 821.797 132.827 807.619 133.956C790.328 135.339 774.489 141.356 759.257 148.772C699.78 177.728 640.615 207.325 581.071 236.155C546.421 252.934 511.788 270.151 472.32 273.463C451.147 275.241 431.232 271.356 413.822 259.086C388.329 241.127 378.843 214.977 377.367 185.321C375.502 147.609 385.704 112.012 397.502 76.7514C404.936 54.5285 413.974 32.9207 422.953 11.2876H406.641C404.616 15.535 402.59 19.7824 400.717 24.0888C380.059 71.5602 359.519 119.091 349.51 170.135C343.578 200.381 341.392 230.913 352.092 260.662C368.379 305.934 405.274 326.286 447.772 326.556C475.704 326.733 502.278 318.044 527.789 307.029C583.307 283.07 636.708 254.788 691.147 228.63C713.046 218.104 734.641 206.761 758.582 201.08C789.248 193.799 807.088 204.266 814.776 234.63C823.392 268.651 818.59 302.934 815.501 337.065C813.02 364.479 809.468 391.792 806.48 419.164C803.493 446.553 801.003 474.001 797.603 501.331C793.24 536.423 788.303 571.438 783.409 606.463C777.847 646.316 772.084 686.143 766.362 725.979C760.328 767.99 754.759 810.026 755.299 852.609C755.67 882.029 759.881 910.649 769.459 938.29H843.29C818.235 885.661 808.151 829.493 807.619 771.386C807.257 731.651 810.944 692.051 815.046 652.501C818.497 619.188 820.894 585.765 823.923 552.401C828.075 506.682 832.759 461.006 836.522 415.262C839.628 377.558 844.404 340.048 848.809 302.496C853.029 266.46 856.581 230.416 854.607 194.136C853.738 178.217 851.316 162.264 841.754 148.603Z" fill="url(#paint1_linear_114_1443)"/>
<path d="M700.75 404.374C693.594 391.337 680.624 385.354 665.738 387.343C650.919 389.323 637.029 394.009 623.231 399.301C584.413 414.184 547.299 433.103 508.05 446.949C478.16 457.492 447.544 465.709 415.67 458.284C352.666 443.612 310.666 404.096 286.852 345.914C269.763 304.148 274.515 261.05 284.582 218.332C295.687 171.223 314.228 126.76 334.354 82.8953C345.35 58.9278 356.388 34.9856 367.924 11.271H354.675C338.793 44.517 322.666 77.6618 307.451 111.203C281.569 168.273 258.05 226.144 252.548 289.433C249.806 320.952 252.65 351.846 265.35 380.862C291.485 440.578 335.122 486.474 386.97 525.181C404.025 537.914 424.337 543.611 445.662 542.828C464.852 542.12 483.468 537.207 501.729 531.248C530.573 521.852 559.063 511.292 588.877 505.006C621.096 498.213 640.733 509.009 651.105 539.802C656.219 554.988 658.987 570.722 659.788 586.684C661.611 622.795 657.476 658.46 650.767 693.897C639.999 750.756 624.725 806.588 611.054 862.781C604.944 887.895 598.793 913 593.375 938.274H634.092C642.826 882.274 655.704 827.091 668.033 771.799C684.843 696.417 703.603 621.396 708.792 543.957C711.164 508.579 713.029 473.226 709.67 437.865C708.607 426.361 706.514 414.85 700.75 404.374Z" fill="url(#paint2_linear_114_1443)"/>
<path d="M554.067 670.19C545.468 668.277 536.632 668.842 527.924 670.216C498.084 674.943 469.561 684.635 440.607 692.717C421.873 697.95 403.114 703.091 383.316 701.894C369.375 701.051 357.974 695.548 349.941 683.977C342.059 672.626 337.932 659.74 334.599 646.577C325.645 611.182 317.08 575.703 301.181 542.44C286.886 512.514 269.164 484.485 252.641 455.806C222.143 402.882 212.354 346.562 223.029 286.77C230.726 243.681 245.375 202.665 262.489 162.466C284.337 111.152 309.949 61.5652 334.017 11.2622H319.519C302.118 48.2752 283.367 84.6562 265.772 121.577C242.32 170.801 220.067 220.48 206.194 273.362C193.941 320.092 190.185 367.125 202.363 414.445C210.92 447.708 226.869 478.063 241.806 508.764C260.126 546.417 272.953 585.529 274.666 627.607C276.101 662.842 271.873 697.773 268.599 732.763C267.24 747.259 266.945 761.981 270.076 776.426C274.447 796.618 287.789 807.304 308.827 808.29C326.886 809.141 344.185 805.273 361.434 800.89C396.379 792.016 430.658 780.673 466.759 776.173C498.818 772.178 520.185 787.247 521.721 816.574C522.928 839.665 520.632 862.427 515.704 884.928C511.797 902.76 507.628 920.534 503.299 938.265H542.312C553.063 896.844 564.919 855.685 573.991 813.86C581.367 779.813 588.818 745.75 584.911 710.422C582.573 689.118 571.966 674.168 554.067 670.19Z" fill="url(#paint3_linear_114_1443)"/>
<path d="M802.117 225.478C794.025 212.306 781.586 206.87 765.957 208.741C750.776 210.562 736.59 215.289 722.885 221.5C670.582 245.19 619.712 271.786 567.831 296.352C532.784 312.946 497.637 329.076 458.076 333.315C407.181 338.767 362.346 311.505 346.278 263.544C335.595 231.655 338.658 199.496 345.476 167.447C354.472 125.167 370.531 85.2212 387.561 45.621C392.489 34.1513 397.476 22.7154 402.472 11.271H388.413C385.687 17.0943 382.979 22.9176 380.312 28.7662C357.046 79.8024 333.502 130.754 320.118 185.473C311.628 220.16 307.08 255.033 315.941 290.453C329.932 346.386 381.055 386.668 438.708 385.556C464.32 385.067 488.447 378.671 512.076 369.763C557.206 352.748 599.645 329.952 643.341 309.87C667.645 298.695 691.257 285.27 717.999 280.795C742.877 276.632 758.607 280.483 767.662 309.314C772.894 325.983 773.628 343.47 772.902 360.712C771.586 392.003 768.624 423.201 765.586 454.391C761.797 493.367 757.856 532.327 751.721 571C738.556 653.951 720.599 736.067 706.877 818.925C700.328 858.467 694.362 898.075 696.607 938.274H759.307C752.658 918.073 749.265 897.174 748.084 875.953C745.695 833.109 750.691 790.635 756.708 748.312C761.679 713.305 767.35 678.39 772.396 643.391C778.877 598.499 786.16 553.716 791.105 508.613C794.717 475.603 798.43 442.609 802.168 409.608C805.392 381.165 808.776 352.74 811.096 324.196C812.919 301.822 813.982 279.43 811.603 257.106C810.43 246.176 808.1 235.228 802.117 225.478Z" fill="url(#paint4_linear_114_1443)"/>
<path d="M481.805 789.994C470.683 788.502 459.375 788.89 448.185 790.441C418.253 794.57 389.611 803.95 360.506 811.467C340.894 816.532 321.274 821.47 300.7 820.577C279.899 819.675 265.477 808.206 260.903 788.309C259.51 782.258 258.861 776.106 258.683 769.827C257.628 732.62 265.949 696.197 267.78 659.201C269.527 623.899 265.679 589.659 254.827 556.126C244.7 524.844 228.937 495.921 215.451 466.054C198.261 427.988 188.067 388.438 190.169 346.562C192.253 305.201 202.633 265.474 216.818 226.641C244.008 152.219 281.839 82.5834 315.949 11.271H300.076C279.35 56.349 256.211 100.298 234.953 145.123C211.932 193.656 190.405 242.754 176.641 294.81C163.654 343.942 160.152 393.2 174.38 442.71C183.004 472.72 196.422 500.935 208.236 529.748C224.726 569.938 233.097 611.519 229.975 654.954C227.333 691.731 218.388 727.404 209.595 763.094C202.295 792.733 194.633 822.33 195.645 853.292C196.658 884.246 213.316 900.646 244.498 901.126C267.823 901.488 289.983 895.311 312.371 890.229C342.692 883.344 372.658 874.344 404.523 877.849C426.438 880.26 440.919 892.125 445.949 913.278C447.924 921.571 448.008 929.922 447.797 938.282H496.818C498.506 931.675 500.236 925.085 501.713 918.436C508.278 888.847 514.438 859.216 512.447 828.6C511.071 807.144 500.059 792.446 481.805 789.994Z" fill="url(#paint5_linear_114_1443)"/>
<path d="M379.19 887.237C351.341 890.195 324.236 896.23 297.131 902.761C276.675 907.691 256.126 912.326 234.751 911.66C210.219 910.893 194.717 898.682 189.223 875.127C184.093 853.166 188.034 831.549 192.211 810.085C199.544 772.44 211.384 735.814 218.531 698.085C228.245 646.855 227.156 596.4 208.7 547.134C198.92 521.026 187.789 495.415 177.747 469.408C162.464 429.85 156.633 388.969 162.101 346.832C167.274 306.945 178.768 268.651 193.375 231.225C222.861 155.691 262.017 84.5554 296.464 11.271H279.704C255.628 65.0629 227.839 117.119 202.818 170.464C177.932 223.514 155.021 277.289 142.084 334.646C133.122 374.415 130.759 414.276 140.38 454.349C147.612 484.493 160.633 512.59 171.873 541.294C188.751 584.4 196.481 628.652 190.565 674.783C186.017 710.296 176.177 744.571 165.156 778.55C153.392 814.821 140.565 850.814 134.042 888.51C131.173 905.07 129.78 921.663 132.202 938.282H438.514C438.514 938.055 438.506 937.844 438.497 937.616C437.907 903.334 413.687 883.58 379.19 887.237Z" fill="url(#paint6_linear_114_1443)"/>
<path d="M206.945 11.2788C205.223 17.296 203.358 23.271 201.367 29.2123C181.19 89.4849 151.738 145.839 125.468 203.533C90.9282 279.379 59.7468 356.321 44.8945 438.741C40.3798 463.804 37.4431 489.103 37.9409 514.494C38.6245 549.459 47.3418 582.832 61.5443 614.923C82.059 661.274 83.9662 708.838 71.038 757.599C60.9198 795.733 45.4346 831.743 29.0886 867.492C19.2743 888.956 9.39246 910.379 -0.455627 931.826V938.307H28.8692C36.9367 916.472 45.9156 894.973 55.0802 873.551C73.7299 829.973 93.308 786.715 104.911 740.567C113.367 706.967 117.097 673.089 110.7 638.621C106.473 615.842 98.6075 594.242 88.9704 573.292C73.2489 539.094 63.5612 503.64 64.962 465.826C65.924 439.878 69.7384 414.259 75.4852 388.901C86.405 340.705 103.35 294.498 122.591 249.049C146.802 191.869 175.671 136.796 201.586 80.3917C212.034 57.6462 222.236 34.7912 230.768 11.2957H206.945V11.2788Z" fill="url(#paint7_linear_114_1443)"/>
<path d="M141.232 254.426C168.329 187.555 202.658 123.979 233.173 58.6666C240.506 42.9748 247.907 27.2999 254.447 11.271H234.928C233.62 14.8358 232.278 18.3921 230.894 21.9232C207.426 81.7913 176.928 138.491 149.966 196.783C115.89 270.438 84.5991 345.046 73.0549 426.066C69.8397 448.635 69.4262 471.288 71.5359 494.008C74.1519 522.206 84.3291 548.179 96.1181 573.495C121.021 626.967 125.544 681.804 110.624 738.722C99.0464 782.907 81.0211 824.656 63.3249 866.565C53.2996 890.305 43.4009 914.079 34.557 938.274H70.0422C76.8608 909.73 86.8439 882.122 97.2152 854.641C113.831 810.591 132.194 767.114 142.852 721.067C151.055 685.638 153.468 650.032 146.911 614.073C141.932 586.734 132.051 560.921 120.515 535.816C98.5738 488.041 92.135 438.581 101.257 386.972C109.333 341.236 123.823 297.397 141.232 254.426Z" fill="url(#paint8_linear_114_1443)"/>
<path d="M647.113 11.2793C633.569 16.2009 619.797 20.4904 605.561 23.44C588.869 26.8952 572.269 26.1283 559.307 12.4507C558.945 12.063 558.599 11.6754 558.253 11.2793H489.054C486.877 21.6281 484.995 32.0275 484.337 42.6376C483.071 62.9475 484.616 82.7097 497.738 99.674C505.679 109.947 516.683 114.801 529.552 115.888C549.426 117.565 568.134 112.821 586.396 105.759C622.885 91.6596 656.953 72.1081 693.611 58.54C729.417 45.2838 763.442 28.4796 797.282 11.2793H647.113Z" fill="url(#paint9_linear_114_1443)"/>
<path d="M-0.447449 11.2788V40.8505C14.1601 30.6702 28.869 20.65 43.9913 11.2788H-0.447449Z" fill="url(#paint10_linear_114_1443)"/>
<g style="mix-blend-mode:hard-light" filter="url(#filter1_f_114_1443)">
<path d="M118.46 181.562C141.647 131.462 166.56 17.3506 183.339 -48.4735C185.98 -58.8338 178.188 -69 167.496 -69C157.802 -69 149.804 -60.5169 149.769 -50.8226C149.647 -17.6612 146.755 45.7367 143.793 58.1856C133.101 103.162 113.616 145.038 95.2107 187.234C62.5947 262.035 31.6158 337.393 12.3838 416.897C3.86056 452.132 -2.15632 487.704 -5.33775 523.857C-9.59935 572.289 -3.12678 619.28 11.1939 665.428C27.0757 716.591 20.831 766.296 2.15592 815.377C-2.31088 827.113 -7.13177 838.691 -12.2131 850.164C-13.0236 851.994 -13.4474 853.972 -13.4474 855.973C-13.4474 871.132 7.05977 875.756 13.3393 861.96C22.9967 840.742 32.1756 819.316 40.274 797.418C49.9618 771.209 57.312 744.418 59.7086 716.515C62.6875 681.803 55.6411 648.844 42.0377 616.895C29.1095 586.523 21.0166 554.979 20.3078 521.784C19.4723 482.605 25.4555 444.26 34.4766 406.287C53.0926 327.98 84.7465 254.4 118.46 181.562Z" fill="url(#paint11_linear_114_1443)"/>
</g>
<g style="mix-blend-mode:difference" filter="url(#filter2_f_114_1443)">
<path d="M141.536 319.409C159.181 253.414 188.11 191.878 218.135 130.788C236.049 94.3345 280.663 9.39674 301.809 -35.5117C304.238 -40.6696 300.433 -46.5 294.732 -46.5H291.533C290.301 -46.5 289.213 -45.7511 288.724 -44.6207C263.162 15.8204 200.675 131.352 173.063 190.85C146.456 248.181 122.042 306.313 109.266 368.473C102.481 401.484 98.9873 434.637 105.029 468.245C109.662 494.024 119.595 518.017 129.629 541.993C143.696 575.618 155.164 609.841 156.186 646.694C156.911 673.089 153.24 698.969 147.072 724.563C136.076 770.206 117.612 813.354 101.629 857.337C94.7877 876.168 88.1115 895.046 82.5348 914.254C78.9917 926.458 88.377 938.281 101.085 938.281H106.978C115.52 938.281 122.047 930.865 122.667 922.345C124.565 896.364 130.498 871.166 137.823 846.229C149.865 805.23 165.502 765.327 175.924 723.839C186.911 680.058 191.148 636.008 181.426 591.402C175.232 562.968 163.983 536.229 153.013 509.413C138.557 474.068 127.797 437.907 128.953 399.309C129.772 372.198 134.523 345.618 141.536 319.409Z" fill="url(#paint12_linear_114_1443)"/>
</g>
</g>
<path d="M214.5 943V1127.5" stroke="#AB00FF" style="mix-blend-mode:hard-light"/>
</g>
</g>
<defs>
<filter id="filter0_f_114_1443" x="-28.4474" y="-84" width="898.615" height="1037.31" filterUnits="userSpaceOnUse" color-interpolation-filters="sRGB">
<feFlood flood-opacity="0" result="BackgroundImageFix"/>
<feBlend mode="normal" in="SourceGraphic" in2="BackgroundImageFix" result="shape"/>
<feGaussianBlur stdDeviation="7.5" result="effect1_foregroundBlur_114_1443"/>
</filter>
<filter id="filter1_f_114_1443" x="-28.4474" y="-84" width="227.304" height="969.183" filterUnits="userSpaceOnUse" color-interpolation-filters="sRGB">
<feFlood flood-opacity="0" result="BackgroundImageFix"/>
<feBlend mode="normal" in="SourceGraphic" in2="BackgroundImageFix" result="shape"/>
<feGaussianBlur stdDeviation="7.5" result="effect1_foregroundBlur_114_1443"/>
</filter>
<filter id="filter2_f_114_1443" x="66.7797" y="-61.5" width="250.775" height="1014.78" filterUnits="userSpaceOnUse" color-interpolation-filters="sRGB">
<feFlood flood-opacity="0" result="BackgroundImageFix"/>
<feBlend mode="normal" in="SourceGraphic" in2="BackgroundImageFix" result="shape"/>
<feGaussianBlur stdDeviation="7.5" result="effect1_foregroundBlur_114_1443"/>
</filter>
<linearGradient id="paint0_linear_114_1443" x1="437.856" y1="11.7485" x2="437.856" y2="853.5" gradientUnits="userSpaceOnUse">
<stop stop-color="#FFA7A7" stop-opacity="0"/>
<stop offset="0.5" stop-color="#FF4F4F"/>
<stop offset="1" stop-color="white" stop-opacity="0"/>
</linearGradient>
<linearGradient id="paint1_linear_114_1443" x1="599.865" y1="11.7568" x2="599.865" y2="853.508" gradientUnits="userSpaceOnUse">
<stop stop-color="#FFA7A7" stop-opacity="0"/>
<stop offset="0.5" stop-color="#FF4F4F"/>
<stop offset="1" stop-color="white" stop-opacity="0"/>
</linearGradient>
<linearGradient id="paint2_linear_114_1443" x1="481.545" y1="11.7402" x2="481.545" y2="853.491" gradientUnits="userSpaceOnUse">
<stop stop-color="#FFA7A7" stop-opacity="0"/>
<stop offset="0.5" stop-color="#FF4F4F"/>
<stop offset="1" stop-color="white" stop-opacity="0"/>
</linearGradient>
<linearGradient id="paint3_linear_114_1443" x1="390.443" y1="11.7314" x2="390.443" y2="853.483" gradientUnits="userSpaceOnUse">
<stop stop-color="#FFA7A7" stop-opacity="0"/>
<stop offset="0.5" stop-color="#FF4F4F"/>
<stop offset="1" stop-color="white" stop-opacity="0"/>
</linearGradient>
<linearGradient id="paint4_linear_114_1443" x1="562.054" y1="11.7402" x2="562.054" y2="853.491" gradientUnits="userSpaceOnUse">
<stop stop-color="#FFA7A7" stop-opacity="0"/>
<stop offset="0.5" stop-color="#FF4F4F"/>
<stop offset="1" stop-color="white" stop-opacity="0"/>
</linearGradient>
<linearGradient id="paint5_linear_114_1443" x1="339.009" y1="11.7402" x2="339.009" y2="853.499" gradientUnits="userSpaceOnUse">
<stop stop-color="#FFA7A7" stop-opacity="0"/>
<stop offset="0.5" stop-color="#FF4F4F"/>
<stop offset="1" stop-color="white" stop-opacity="0"/>
</linearGradient>
<linearGradient id="paint6_linear_114_1443" x1="284.737" y1="11.7402" x2="284.737" y2="853.499" gradientUnits="userSpaceOnUse">
<stop stop-color="#FFA7A7" stop-opacity="0"/>
<stop offset="0.5" stop-color="#FF4F4F"/>
<stop offset="1" stop-color="white" stop-opacity="0"/>
</linearGradient>
<linearGradient id="paint7_linear_114_1443" x1="115.156" y1="11.748" x2="115.156" y2="853.522" gradientUnits="userSpaceOnUse">
<stop stop-color="#FFA7A7" stop-opacity="0"/>
<stop offset="0.5" stop-color="#FF4F4F"/>
<stop offset="1" stop-color="white" stop-opacity="0"/>
</linearGradient>
<linearGradient id="paint8_linear_114_1443" x1="144.502" y1="11.7402" x2="144.502" y2="853.491" gradientUnits="userSpaceOnUse">
<stop stop-color="#FFA7A7" stop-opacity="0"/>
<stop offset="0.5" stop-color="#FF4F4F"/>
<stop offset="1" stop-color="white" stop-opacity="0"/>
</linearGradient>
<linearGradient id="paint9_linear_114_1443" x1="640.63" y1="11.3324" x2="640.63" y2="106.628" gradientUnits="userSpaceOnUse">
<stop stop-color="#FFA7A7" stop-opacity="0"/>
<stop offset="0.5" stop-color="#FF4F4F"/>
<stop offset="1" stop-color="white" stop-opacity="0"/>
</linearGradient>
<linearGradient id="paint10_linear_114_1443" x1="21.7719" y1="11.2938" x2="21.7719" y2="38.1459" gradientUnits="userSpaceOnUse">
<stop stop-color="#FFA7A7" stop-opacity="0"/>
<stop offset="0.5" stop-color="#FF4F4F"/>
<stop offset="1" stop-color="white" stop-opacity="0"/>
</linearGradient>
<linearGradient id="paint11_linear_114_1443" x1="87.6579" y1="-68.5" x2="87.6579" y2="828.554" gradientUnits="userSpaceOnUse">
<stop stop-color="#FFA7A7" stop-opacity="0"/>
<stop offset="0.5" stop-color="#FF4F4F"/>
<stop offset="1" stop-color="white" stop-opacity="0"/>
</linearGradient>
<linearGradient id="paint12_linear_114_1443" x1="191.556" y1="-46.0016" x2="191.556" y2="848.215" gradientUnits="userSpaceOnUse">
<stop stop-color="#FFA7A7" stop-opacity="0"/>
<stop offset="0.5" stop-color="#FF4F4F"/>
<stop offset="1" stop-color="white" stop-opacity="0"/>
</linearGradient>
<clipPath id="clip0_114_1443">
<rect x="-6.10352e-05" y="0.5" width="927" height="983" rx="25" fill="white"/>
</clipPath>
</defs>
</svg>
