<svg width="535" height="183" viewBox="0 0 535 183" fill="none" xmlns="http://www.w3.org/2000/svg">
<g clip-path="url(#clip0_523_21971)">
<path d="M325.991 132.838V141.161H317.615V124.517H334.365V132.838H325.991Z" fill="#AB00FF"/>
<path d="M317.615 91.2275H334.365V99.5511H317.615V91.2275Z" fill="#AB00FF"/>
<path d="M275.739 91.2275H284.115V99.5511H275.739V91.2275Z" fill="#AB00FF"/>
<path d="M325.989 141.162H334.365V149.486H325.989V141.162Z" fill="#AB00FF"/>
<path d="M309.239 174.451H317.615V182.775H309.239V174.451Z" fill="#AB00FF"/>
<path d="M325.989 174.451H334.365V182.775H325.989V174.451Z" fill="#AB00FF"/>
<path d="M334.365 157.807V166.128H325.991V174.451H317.615V157.807H334.365Z" fill="#AB00FF"/>
<path d="M284.116 124.517H292.492V132.84H284.116V124.517Z" fill="#AB00FF"/>
<path d="M284.116 166.128H292.492V174.452H284.116V166.128Z" fill="#AB00FF"/>
<path d="M267.366 107.872H275.742V116.196H267.366V107.872Z" fill="#AB00FF"/>
<path d="M275.739 141.162H284.115V157.807H275.739V141.162Z" fill="#AB00FF"/>
<path d="M292.489 91.2275H300.865V107.872H292.489V91.2275Z" fill="#AB00FF"/>
<path d="M359.491 149.483H367.865V157.806H376.241V149.483H367.865V141.159H359.489L359.491 149.483H351.113V141.159H334.363V132.836H342.739V124.512H351.115V132.836H359.491V124.512H351.115V107.867H342.739V91.2227H351.115V99.5462H359.491V91.2227H535.365V182.768H392.989V174.444H376.239V182.768H367.865V166.123H359.489V174.446H342.739V166.123H351.115V157.799H359.491V149.483ZM384.615 99.5487H376.239V107.872H359.489V116.196H376.239V107.872H384.615V99.5487ZM418.115 132.838H409.739V141.162H418.115V132.838ZM401.365 124.517V116.193H392.989V124.517H401.365ZM384.615 157.806H392.991V149.483H384.615V157.806ZM384.615 141.162V124.517H367.865V132.841H376.241V141.164L384.615 141.162Z" fill="#AB00FF"/>
<path d="M309.242 107.872H325.992V116.196H309.242V107.872Z" fill="#AB00FF"/>
<path d="M334.365 149.482H351.115V157.806H334.365V149.482Z" fill="#AB00FF"/>
<path d="M334.366 107.872H342.742V124.517H334.366V107.872Z" fill="#AB00FF"/>
<path d="M300.866 132.838H309.242V166.127H300.866V132.838Z" fill="#AB00FF"/>
<path d="M300.866 116.193H309.242V124.517H300.866V116.193Z" fill="#AB00FF"/>
</g>
<g clip-path="url(#clip1_523_21971)">
<path d="M325.991 50.1622V41.8387H317.615V58.4834H334.365V50.1622H325.991Z" fill="#AB00FF"/>
<path d="M317.615 91.7725H334.365V83.4489H317.615V91.7725Z" fill="#AB00FF"/>
<path d="M275.739 91.7725H284.115V83.4489H275.739V91.7725Z" fill="#AB00FF"/>
<path d="M325.989 41.8379H334.365V33.5143H325.989V41.8379Z" fill="#AB00FF"/>
<path d="M309.239 8.54883H317.615V0.22526H309.239V8.54883Z" fill="#AB00FF"/>
<path d="M325.989 8.54883H334.365V0.22526H325.989V8.54883Z" fill="#AB00FF"/>
<path d="M334.365 25.1934V16.8722H325.991V8.54862H317.615V25.1934H334.365Z" fill="#AB00FF"/>
<path d="M284.116 58.4834H292.492V50.1598H284.116V58.4834Z" fill="#AB00FF"/>
<path d="M284.116 16.8721H292.492V8.54848H284.116V16.8721Z" fill="#AB00FF"/>
<path d="M267.366 75.1279H275.742V66.8044H267.366V75.1279Z" fill="#AB00FF"/>
<path d="M275.739 41.8379H284.115V25.1932H275.739V41.8379Z" fill="#AB00FF"/>
<path d="M292.489 91.7725H300.865V75.1277H292.489V91.7725Z" fill="#AB00FF"/>
<path d="M359.491 33.5171H367.865V25.1935H376.241V33.5171H367.865V41.8407H359.489L359.491 33.5171H351.113V41.8407H334.363V50.1643H342.739V58.4879H351.115V50.1643H359.491V58.4879H351.115V75.1326H342.739V91.7773H351.115V83.4538H359.491V91.7773H535.365V0.23249H392.989V8.55606H376.239V0.23249H367.865V16.8772H359.489V8.55364H342.739V16.8772H351.115V25.2008H359.491V33.5171ZM384.615 83.4513H376.239V75.1278H359.489V66.8042H376.239V75.1278H384.615V83.4513ZM418.115 50.1619H409.739V41.8383H418.115V50.1619ZM401.365 58.483V66.8066H392.989V58.483H401.365ZM384.615 25.1935H392.991V33.5171H384.615V25.1935ZM384.615 41.8383V58.483H367.865V50.1594H376.241V41.8359L384.615 41.8383Z" fill="#AB00FF"/>
<path d="M309.242 75.1279H325.992V66.8044H309.242V75.1279Z" fill="#AB00FF"/>
<path d="M334.365 33.5176H351.115V25.194H334.365V33.5176Z" fill="#AB00FF"/>
<path d="M334.366 75.1279H342.742V58.4832H334.366V75.1279Z" fill="#AB00FF"/>
<path d="M300.866 50.1621H309.242V16.8726H300.866V50.1621Z" fill="#AB00FF"/>
<path d="M300.866 66.8066H309.242V58.4831H300.866V66.8066Z" fill="#AB00FF"/>
</g>
<g clip-path="url(#clip2_523_21971)">
<path d="M209.009 132.838V141.161H217.385V124.517H200.635V132.838H209.009Z" fill="#AB00FF"/>
<path d="M217.385 91.2275H200.635V99.5511H217.385V91.2275Z" fill="#AB00FF"/>
<path d="M259.261 91.2275H250.885V99.5511H259.261V91.2275Z" fill="#AB00FF"/>
<path d="M209.011 141.162H200.635V149.486H209.011V141.162Z" fill="#AB00FF"/>
<path d="M225.761 174.451H217.385V182.775H225.761V174.451Z" fill="#AB00FF"/>
<path d="M209.011 174.451H200.635V182.775H209.011V174.451Z" fill="#AB00FF"/>
<path d="M200.635 157.807V166.128H209.009V174.451H217.385V157.807H200.635Z" fill="#AB00FF"/>
<path d="M250.884 124.517H242.508V132.84H250.884V124.517Z" fill="#AB00FF"/>
<path d="M250.884 166.128H242.508V174.452H250.884V166.128Z" fill="#AB00FF"/>
<path d="M267.634 107.872H259.258V116.196H267.634V107.872Z" fill="#AB00FF"/>
<path d="M259.261 141.162H250.885V157.807H259.261V141.162Z" fill="#AB00FF"/>
<path d="M242.511 91.2275H234.135V107.872H242.511V91.2275Z" fill="#AB00FF"/>
<path d="M175.509 149.483H167.135V157.806H158.759V149.483H167.135V141.159H175.511L175.509 149.483H183.887V141.159H200.637V132.836H192.261V124.512H183.885V132.836H175.509V124.512H183.885V107.867H192.261V91.2227H183.885V99.5462H175.509V91.2227H-0.365234V182.768H142.011V174.444H158.761V182.768H167.135V166.123H175.511V174.446H192.261V166.123H183.885V157.799H175.509V149.483ZM150.385 99.5487H158.761V107.872H175.511V116.196H158.761V107.872H150.385V99.5487ZM116.885 132.838H125.261V141.162H116.885V132.838ZM133.635 124.517V116.193H142.011V124.517H133.635ZM150.385 157.806H142.009V149.483H150.385V157.806ZM150.385 141.162V124.517H167.135V132.841H158.759V141.164L150.385 141.162Z" fill="#AB00FF"/>
<path d="M225.758 107.872H209.008V116.196H225.758V107.872Z" fill="#AB00FF"/>
<path d="M200.635 149.482H183.885V157.806H200.635V149.482Z" fill="#AB00FF"/>
<path d="M200.634 107.872H192.258V124.517H200.634V107.872Z" fill="#AB00FF"/>
<path d="M234.134 132.838H225.758V166.127H234.134V132.838Z" fill="#AB00FF"/>
<path d="M234.134 116.193H225.758V124.517H234.134V116.193Z" fill="#AB00FF"/>
</g>
<g clip-path="url(#clip3_523_21971)">
<path d="M209.009 50.1622V41.8387H217.385V58.4834H200.635V50.1622H209.009Z" fill="#AB00FF"/>
<path d="M217.385 91.7725H200.635V83.4489H217.385V91.7725Z" fill="#AB00FF"/>
<path d="M259.261 91.7725H250.885V83.4489H259.261V91.7725Z" fill="#AB00FF"/>
<path d="M209.011 41.8379H200.635V33.5143H209.011V41.8379Z" fill="#AB00FF"/>
<path d="M225.761 8.54883H217.385V0.22526H225.761V8.54883Z" fill="#AB00FF"/>
<path d="M209.011 8.54883H200.635V0.22526H209.011V8.54883Z" fill="#AB00FF"/>
<path d="M200.635 25.1934V16.8722H209.009V8.54862H217.385V25.1934H200.635Z" fill="#AB00FF"/>
<path d="M250.884 58.4834H242.508V50.1598H250.884V58.4834Z" fill="#AB00FF"/>
<path d="M250.884 16.8721H242.508V8.54848H250.884V16.8721Z" fill="#AB00FF"/>
<path d="M267.634 75.1279H259.258V66.8044H267.634V75.1279Z" fill="#AB00FF"/>
<path d="M259.261 41.8379H250.885V25.1932H259.261V41.8379Z" fill="#AB00FF"/>
<path d="M242.511 91.7725H234.135V75.1277H242.511V91.7725Z" fill="#AB00FF"/>
<path d="M175.509 33.5171H167.135V25.1935H158.759V33.5171H167.135V41.8407H175.511L175.509 33.5171H183.887V41.8407H200.637V50.1643H192.261V58.4879H183.885V50.1643H175.509V58.4879H183.885V75.1326H192.261V91.7773H183.885V83.4538H175.509V91.7773H-0.365234V0.23249H142.011V8.55606H158.761V0.23249H167.135V16.8772H175.511V8.55364H192.261V16.8772H183.885V25.2008H175.509V33.5171ZM150.385 83.4513H158.761V75.1278H175.511V66.8042H158.761V75.1278H150.385V83.4513ZM116.885 50.1619H125.261V41.8383H116.885V50.1619ZM133.635 58.483V66.8066H142.011V58.483H133.635ZM150.385 25.1935H142.009V33.5171H150.385V25.1935ZM150.385 41.8383V58.483H167.135V50.1594H158.759V41.8359L150.385 41.8383Z" fill="#AB00FF"/>
<path d="M225.758 75.1279H209.008V66.8044H225.758V75.1279Z" fill="#AB00FF"/>
<path d="M200.635 33.5176H183.885V25.194H200.635V33.5176Z" fill="#AB00FF"/>
<path d="M200.634 75.1279H192.258V58.4832H200.634V75.1279Z" fill="#AB00FF"/>
<path d="M234.134 50.1621H225.758V16.8726H234.134V50.1621Z" fill="#AB00FF"/>
<path d="M234.134 66.8066H225.758V58.4831H234.134V66.8066Z" fill="#AB00FF"/>
</g>
<defs>
<clipPath id="clip0_523_21971">
<rect width="268" height="92" fill="white" transform="matrix(-1 0 0 1 535 91)"/>
</clipPath>
<clipPath id="clip1_523_21971">
<rect width="268" height="92" fill="white" transform="matrix(-1 0 0 -1 535 92)"/>
</clipPath>
<clipPath id="clip2_523_21971">
<rect width="268" height="92" fill="white" transform="translate(0 91)"/>
</clipPath>
<clipPath id="clip3_523_21971">
<rect width="268" height="92" fill="white" transform="matrix(1 0 0 -1 0 92)"/>
</clipPath>
</defs>
</svg>
