<svg width="1487" height="1544" viewBox="0 0 1487 1544" fill="none" xmlns="http://www.w3.org/2000/svg">
<path d="M1225.83 363.513C1225.83 363.513 1225.83 484.68 1346.91 484.68C1346.91 484.68 1468 484.68 1468 605.847V848.167C1468 848.167 1468 969.333 1346.91 969.333C1346.91 969.333 1225.83 969.333 1225.83 1090.5C1225.83 1090.5 1225.83 1211.67 1104.74 1211.67C1104.74 1211.67 983.658 1211.67 983.658 1332.83C983.658 1332.83 983.658 1454 862.572 1454H620.428C620.428 1454 499.342 1454 499.342 1332.83C499.342 1332.83 499.342 1211.67 378.257 1211.67C378.257 1211.67 257.171 1211.67 257.171 1090.5C257.171 1090.5 257.171 969.333 136.086 969.333C136.086 969.333 15 969.333 15 848.167V605.833C15 605.833 15 484.667 136.086 484.667C136.086 484.667 257.171 484.667 257.171 363.5C257.171 363.5 257.171 242.333 378.257 242.333C378.257 242.333 499.342 242.333 499.342 121.167C499.342 121.167 499.342 0 620.428 0H862.586C862.586 0 983.671 0 983.671 121.167C983.671 121.167 983.671 242.333 1104.76 242.333C1104.74 242.347 1225.83 242.347 1225.83 363.513ZM620.428 242.347C620.428 242.347 499.342 242.347 499.342 363.513C499.342 363.513 499.342 484.68 378.257 484.68C378.257 484.68 257.171 484.68 257.171 605.847V848.167C257.171 848.167 257.171 969.333 378.257 969.333C378.257 969.333 499.342 969.333 499.342 1090.5C499.342 1090.5 499.342 1211.67 620.428 1211.67H862.586C862.586 1211.67 983.671 1211.67 983.671 1090.5C983.671 1090.5 983.671 969.333 1104.76 969.333C1104.76 969.333 1225.84 969.333 1225.84 848.167V605.833C1225.84 605.833 1225.84 484.667 1104.76 484.667C1104.76 484.667 983.671 484.667 983.671 363.5C983.671 363.5 983.671 242.333 862.586 242.333L620.428 242.347Z" fill="url(#paint0_linear_64_13)"/>
<defs>
<linearGradient id="paint0_linear_64_13" x1="741.5" y1="0" x2="741.5" y2="1454" gradientUnits="userSpaceOnUse">
<stop stop-color="#AB00FF"/>
<stop offset="1" stop-color="#3F17AC" stop-opacity="0"/>
</linearGradient>
</defs>
</svg>
