<svg width="745" height="135" viewBox="0 0 745 135" fill="none" xmlns="http://www.w3.org/2000/svg">
<path d="M53.264 55.6421C50.5081 52.9275 47.3213 51.0843 43.7036 50.1026C40.1159 49.1259 34.8145 48.6401 27.7895 48.6401H0V132.469H12.6521V98.4258H31.9685C40.6971 98.4258 47.632 96.1819 52.773 91.6942C57.914 87.2065 60.4845 81.126 60.4845 73.4528C60.4845 66.2854 58.0794 60.3502 53.264 55.6421ZM30.831 86.7006H12.6521V60.3102H30.2848C42.2705 60.3102 48.2633 64.6376 48.2633 73.2875C48.2633 81.9374 42.4509 86.7006 30.831 86.7006Z" fill="white"/>
<path d="M157.157 59.8787C148.609 51.334 138.362 47.0616 126.416 47.0616C114.471 47.0616 103.963 51.2989 95.3447 59.7685C86.6911 68.2381 82.3619 78.3705 82.3619 90.1708C82.3619 103.599 87.107 114.458 96.5923 122.747C105.211 130.24 114.937 133.986 125.76 133.986C138.001 133.986 148.448 129.769 157.102 121.334C165.72 112.94 170.03 102.712 170.03 90.6617C170.03 78.6109 165.74 68.4184 157.157 59.8787ZM148.193 112.985C142.145 119.061 134.724 122.096 125.925 122.096C117.813 122.096 110.662 119.111 104.469 113.145C98.2409 107.18 95.1292 99.567 95.1292 90.306C95.1292 81.0451 98.1306 74.0731 104.143 68.0678C110.156 61.9923 117.522 58.9521 126.251 58.9521C134.979 58.9521 142.365 61.9923 148.303 68.0678C154.276 74.1082 157.267 81.5911 157.267 90.5264C157.267 99.4618 154.241 106.835 148.193 112.985Z" fill="white"/>
<path d="M225.073 120.579V48.6401H212.421V132.469H249.736V120.579H225.073Z" fill="white"/>
<path d="M324.765 43.3707L283.267 132.469H296.901L306.246 112.109L324.55 71.7145L342.148 112.109L350.946 132.469H364.796L324.765 43.3707Z" fill="white"/>
<path d="M430.161 96.7428C435.738 95.5458 440.228 92.8161 443.63 88.5437C447.033 84.2714 448.736 79.1726 448.736 73.2324C448.736 65.6343 446.02 59.5138 440.589 54.8808C435.663 50.7186 427.661 48.6401 416.582 48.6401H401.756V132.469H414.408V98.1553H416.693L440.644 132.469H456.122L430.161 96.7428ZM414.408 87.1313V60.5305H418.917C430.577 60.5305 436.405 64.8179 436.405 73.3977C436.405 82.5534 430.412 87.1313 418.426 87.1313H414.408Z" fill="white"/>
<path d="M495.201 48.6401V132.469H507.853V48.6401H495.201Z" fill="white"/>
<path d="M599.341 92.6656C596.194 88.7038 591.214 85.343 584.404 82.5882L576.041 79.1673C569.958 76.668 566.917 73.3724 566.917 69.2753C566.917 66.3052 568.074 63.846 570.394 61.8876C572.709 59.8992 575.625 58.9024 579.138 58.9024C581.999 58.9024 584.334 59.4784 586.143 60.6354C587.882 61.6522 589.71 63.8209 591.63 67.1516L601.897 61.0712C596.465 51.7 588.914 47.012 579.248 47.012C572.078 47.012 566.085 49.1456 561.27 53.413C556.449 57.6453 554.044 62.9043 554.044 69.2002C554.044 78.5312 559.781 85.6184 571.261 90.4668L579.353 93.8326C581.453 94.7341 583.267 95.6858 584.785 96.6775C586.308 97.6742 587.546 98.741 588.508 99.878C589.465 101.02 590.171 102.267 590.627 103.624C591.078 104.982 591.304 106.474 591.304 108.097C591.304 112.149 590.001 115.495 587.396 118.134C584.785 120.779 581.508 122.096 577.565 122.096C572.564 122.096 568.761 120.288 566.155 116.667C564.707 114.784 563.695 111.383 563.114 106.459L550.296 109.284C551.454 117.103 554.37 123.173 559.04 127.496C563.785 131.823 569.793 133.987 577.073 133.987C584.75 133.987 591.179 131.452 596.355 126.379C601.496 121.345 604.066 114.969 604.066 107.256C604.066 101.496 602.493 96.6324 599.341 92.6656Z" fill="white"/>
<path d="M506.535 16.844L521.522 19.9794L506.535 23.1148C505.598 23.3102 504.866 24.0414 504.671 24.978L501.534 39.9588L498.397 24.978C498.202 24.0414 497.47 23.3102 496.533 23.1148L481.546 19.9794L496.533 16.844C497.47 16.6487 498.202 15.9174 498.397 14.9808L501.534 0L504.671 14.9808C504.866 15.9174 505.598 16.6487 506.535 16.844Z" fill="white"/>
<path d="M729.027 133.946L724.272 134.021L712.757 103.133H673.158L661.087 133.966L657.103 133.946L693.892 46.9311L729.032 133.941L729.027 133.946ZM711.8 100.093L693.496 53.0717L674.305 100.093H711.8Z" fill="#AB00FF"/>
<path d="M744.369 133.949H740.185V47.2203H744.369V133.949Z" fill="#AB00FF"/>
</svg>
