<svg width="306" height="55" viewBox="0 0 306 55" fill="none" xmlns="http://www.w3.org/2000/svg">
<path d="M21.8254 22.7993C20.6961 21.687 19.3903 20.9317 17.9079 20.5295C16.4378 20.1293 14.2655 19.9302 11.387 19.9302H0V54.28H5.1843V40.3303H13.0993C16.676 40.3303 19.5176 39.4109 21.6242 37.572C23.7307 35.7331 24.784 33.2416 24.784 30.0974C24.784 27.1605 23.7985 24.7285 21.8254 22.7993ZM12.6333 35.5258H5.1843V24.7121H12.4095C17.3207 24.7121 19.7763 26.4853 19.7763 30.0297C19.7763 33.574 17.3946 35.5258 12.6333 35.5258Z" fill="white"/>
<path d="M64.3962 24.5356C60.8934 21.0343 56.6947 19.2837 51.7999 19.2837C46.9051 19.2837 42.5995 21.02 39.068 24.4904C35.5222 27.9609 33.7482 32.1128 33.7482 36.9481C33.7482 42.4503 35.6926 46.8998 39.5793 50.2964C43.1108 53.3667 47.096 54.9018 51.5309 54.9018C56.5468 54.9018 60.8277 53.1738 64.3736 49.7176C67.9051 46.2779 69.6708 42.0871 69.6708 37.1492C69.6708 32.2113 67.9133 28.0348 64.3962 24.5356ZM60.723 46.2964C58.2448 48.7859 55.204 50.0296 51.5986 50.0296C48.2745 50.0296 45.3446 48.8064 42.8069 46.3621C40.2548 43.9178 38.9798 40.7982 38.9798 37.0035C38.9798 33.2087 40.2096 30.3519 42.6734 27.8911C45.1373 25.4017 48.1554 24.1559 51.7321 24.1559C55.3088 24.1559 58.3352 25.4017 60.7682 27.8911C63.2156 30.3663 64.4413 33.4324 64.4413 37.0938C64.4413 40.7551 63.2012 43.7762 60.723 46.2964Z" fill="white"/>
<path d="M92.2251 49.4077V19.9302H87.0408V54.28H102.331V49.4077H92.2251Z" fill="white"/>
<path d="M133.075 17.7711L116.071 54.28H121.657L125.487 45.9373L132.987 29.3852L140.198 45.9373L143.803 54.28H149.478L133.075 17.7711Z" fill="white"/>
<path d="M176.262 39.6407C178.547 39.1502 180.387 38.0317 181.781 36.2811C183.175 34.5304 183.873 32.4412 183.873 30.0071C183.873 26.8937 182.76 24.3858 180.535 22.4874C178.516 20.7819 175.238 19.9302 170.698 19.9302H164.623V54.28H169.807V40.2195H170.743L180.557 54.28H186.9L176.262 39.6407ZM169.807 35.7023V24.8024H171.655C176.432 24.8024 178.82 26.5592 178.82 30.0748C178.82 33.8265 176.365 35.7023 171.454 35.7023H169.807Z" fill="white"/>
<path d="M202.912 19.9302V54.28H208.097V19.9302H202.912Z" fill="white"/>
<path d="M245.586 37.9701C244.296 36.3468 242.256 34.9696 239.465 33.8409L236.039 32.4391C233.546 31.415 232.3 30.0646 232.3 28.3858C232.3 27.1687 232.774 26.1611 233.725 25.3586C234.673 24.5438 235.868 24.1354 237.307 24.1354C238.48 24.1354 239.437 24.3714 240.178 24.8455C240.89 25.2621 241.64 26.1508 242.426 27.5156L246.633 25.0241C244.407 21.1842 241.313 19.2632 237.353 19.2632C234.414 19.2632 231.959 20.1375 229.986 21.8861C228.011 23.6203 227.025 25.7752 227.025 28.355C227.025 32.1785 229.376 35.0825 234.08 37.0692L237.396 38.4483C238.256 38.8177 238.999 39.2077 239.621 39.6141C240.246 40.0225 240.753 40.4596 241.147 40.9255C241.539 41.3934 241.829 41.9045 242.015 42.4606C242.2 43.0168 242.293 43.6284 242.293 44.2934C242.293 45.9537 241.759 47.3246 240.691 48.4062C239.621 49.4899 238.279 50.0296 236.663 50.0296C234.614 50.0296 233.055 49.2887 231.988 47.8049C231.394 47.0332 230.979 45.6397 230.741 43.6222L225.489 44.7798C225.964 47.9834 227.159 50.4709 229.072 52.242C231.016 54.0152 233.478 54.9018 236.462 54.9018C239.607 54.9018 242.241 53.8634 244.362 51.7844C246.469 49.7218 247.522 47.1092 247.522 43.9486C247.522 41.5884 246.877 39.5956 245.586 37.9701Z" fill="white"/>
<path d="M207.557 6.90198L213.698 8.18673L207.557 9.47149C207.173 9.55153 206.873 9.85117 206.793 10.235L205.508 16.3735L204.222 10.235C204.142 9.85117 203.843 9.55153 203.459 9.47149L197.318 8.18673L203.459 6.90198C203.843 6.82194 204.142 6.5223 204.222 6.13851L205.508 0L206.793 6.13851C206.873 6.5223 207.173 6.82194 207.557 6.90198Z" fill="white"/>
<path d="M298.724 54.8854L296.776 54.9162L292.058 42.2595H275.831L270.885 54.8936L269.253 54.8854L284.328 19.2303L298.727 54.8834L298.724 54.8854ZM291.666 41.0137L284.165 21.7465L276.302 41.0137H291.666Z" fill="#AB00FF"/>
<path d="M305.011 54.8875H303.297V19.3494H305.011V54.8875Z" fill="#AB00FF"/>
</svg>
