<svg width="1919" height="711" viewBox="0 0 1919 711" fill="none" xmlns="http://www.w3.org/2000/svg" xmlns:xlink="http://www.w3.org/1999/xlink">
<g filter="url(#filter0_b_493_4)">
<path d="M554 77L1364 77L959 711L554 77ZM765.179 192.273L959 494.864L1152.82 192.273L765.179 192.273Z" fill="url(#paint0_linear_493_4)"/>
<path d="M765.179 191.773L764.264 191.773L764.758 192.542L958.579 495.133L959 495.791L959.421 495.133L1153.24 192.542L1153.74 191.773L1152.82 191.773L765.179 191.773ZM554.913 77.5L1363.09 77.5L959 710.071L554.913 77.5Z" stroke="url(#paint1_linear_493_4)"/>
</g>
<path d="M699.28 156.96V111.84L710.32 100.8H744.88L755.92 111.84V156.96L744.88 168H710.32L699.28 156.96ZM737.968 156.864L742.864 151.968V116.832L737.968 111.936H717.232L712.336 116.832V151.968L717.232 156.864H737.968ZM767.459 156.48V100.8H780.515V151.968L785.411 156.864H804.227L809.123 151.968V100.8H822.179V156.48L810.659 168H778.979L767.459 156.48ZM887.478 145.728V168H874.422V148.704L868.662 142.272H847.734V168H834.678V100.8H876.822L887.094 111.168V131.52L880.566 138.144L887.478 145.728ZM847.734 131.52H870.87L874.23 128.16V115.104L870.87 111.744H847.734V131.52ZM940.879 111.84H920.815V100.8H973.999V111.84H953.935V168H940.879V111.84ZM979.311 156.96V111.84L990.351 100.8H1024.91L1035.95 111.84V156.96L1024.91 168H990.351L979.311 156.96ZM1018 156.864L1022.9 151.968V116.832L1018 111.936H997.263L992.367 116.832V151.968L997.263 156.864H1018ZM1046.53 156.96V111.84L1057.57 100.8H1092.13L1103.17 111.84V156.96L1092.13 168H1057.57L1046.53 156.96ZM1085.22 156.864L1090.11 151.968V116.832L1085.22 111.936H1064.48L1059.59 116.832V151.968L1064.48 156.864H1085.22ZM1114.71 100.8H1127.76V156.96H1161.36V168H1114.71V100.8ZM1165.68 157.632V148.032H1178.54V153.696L1181.71 156.864H1201.58L1204.84 153.6V142.464L1201.68 139.296H1176.24L1165.87 128.928V111.168L1176.24 100.8H1206.57L1216.94 111.168V120.864H1204.08V115.104L1200.91 111.936H1181.9L1178.73 115.104V124.992L1181.9 128.16H1207.34L1217.71 138.528V157.44L1207.15 168H1176.04L1165.68 157.632Z" fill="white"/>
<g filter="url(#filter1_f_493_4)">
<path d="M699.28 156.96V111.84L710.32 100.8H744.88L755.92 111.84V156.96L744.88 168H710.32L699.28 156.96ZM737.968 156.864L742.864 151.968V116.832L737.968 111.936H717.232L712.336 116.832V151.968L717.232 156.864H737.968ZM767.459 156.48V100.8H780.515V151.968L785.411 156.864H804.227L809.123 151.968V100.8H822.179V156.48L810.659 168H778.979L767.459 156.48ZM887.478 145.728V168H874.422V148.704L868.662 142.272H847.734V168H834.678V100.8H876.822L887.094 111.168V131.52L880.566 138.144L887.478 145.728ZM847.734 131.52H870.87L874.23 128.16V115.104L870.87 111.744H847.734V131.52ZM940.879 111.84H920.815V100.8H973.999V111.84H953.935V168H940.879V111.84ZM979.311 156.96V111.84L990.351 100.8H1024.91L1035.95 111.84V156.96L1024.91 168H990.351L979.311 156.96ZM1018 156.864L1022.9 151.968V116.832L1018 111.936H997.263L992.367 116.832V151.968L997.263 156.864H1018ZM1046.53 156.96V111.84L1057.57 100.8H1092.13L1103.17 111.84V156.96L1092.13 168H1057.57L1046.53 156.96ZM1085.22 156.864L1090.11 151.968V116.832L1085.22 111.936H1064.48L1059.59 116.832V151.968L1064.48 156.864H1085.22ZM1114.71 100.8H1127.76V156.96H1161.36V168H1114.71V100.8ZM1165.68 157.632V148.032H1178.54V153.696L1181.71 156.864H1201.58L1204.84 153.6V142.464L1201.68 139.296H1176.24L1165.87 128.928V111.168L1176.24 100.8H1206.57L1216.94 111.168V120.864H1204.08V115.104L1200.91 111.936H1181.9L1178.73 115.104V124.992L1181.9 128.16H1207.34L1217.71 138.528V157.44L1207.15 168H1176.04L1165.68 157.632Z" fill="white"/>
</g>
<defs>
<pattern id="pattern0_493_4" patternContentUnits="objectBoundingBox" width="1" height="1">
<use xlink:href="#image0_493_4" transform="matrix(0.000332084 0 0 0.000326813 -0.193548 -0.190476)"/>
</pattern>
<pattern id="pattern1_493_4" patternContentUnits="objectBoundingBox" width="1" height="1">
<use xlink:href="#image1_493_4" transform="matrix(0.000332084 0 0 0.000326813 -0.193548 -0.190476)"/>
</pattern>
<pattern id="pattern2_493_4" patternContentUnits="objectBoundingBox" width="1" height="1">
<use xlink:href="#image2_493_4" transform="matrix(0.000332084 0 0 0.000326813 -0.193548 -0.190476)"/>
</pattern>
<pattern id="pattern3_493_4" patternContentUnits="objectBoundingBox" width="1" height="1">
<use xlink:href="#image3_493_4" transform="matrix(0.000332084 0 0 0.000846131 -0.193548 -0.493151)"/>
</pattern>
<pattern id="pattern4_493_4" patternContentUnits="objectBoundingBox" width="1" height="1">
<use xlink:href="#image4_493_4" transform="matrix(0.000332084 0 0 0.000326813 -0.193548 -0.190476)"/>
</pattern>
<pattern id="pattern5_493_4" patternContentUnits="objectBoundingBox" width="1" height="1">
<use xlink:href="#image5_493_4" transform="matrix(0.000332084 0 0 0.000326813 -0.193548 -0.190476)"/>
</pattern>
<pattern id="pattern6_493_4" patternContentUnits="objectBoundingBox" width="1" height="1">
<use xlink:href="#image6_493_4" transform="matrix(0.000332084 0 0 0.000326813 -0.193548 -0.190476)"/>
</pattern>
<pattern id="pattern7_493_4" patternContentUnits="objectBoundingBox" width="1" height="1">
<use xlink:href="#image6_493_4" transform="matrix(0.000332084 0 0 0.000326813 -0.193548 -0.190476)"/>
</pattern>
<pattern id="pattern8_493_4" patternContentUnits="objectBoundingBox" width="1" height="1">
<use xlink:href="#image6_493_4" transform="matrix(0.000332084 0 0 0.000326813 -0.193548 -0.190476)"/>
</pattern>
<pattern id="pattern9_493_4" patternContentUnits="objectBoundingBox" width="1" height="1">
<use xlink:href="#image7_493_4" transform="matrix(0.000332084 0 0 0.000718228 -0.193548 -1.61628)"/>
</pattern>
<pattern id="pattern10_493_4" patternContentUnits="objectBoundingBox" width="1" height="1">
<use xlink:href="#image7_493_4" transform="matrix(0.000332084 0 0 0.000678765 -0.193548 -0.395604)"/>
</pattern>
<pattern id="pattern11_493_4" patternContentUnits="objectBoundingBox" width="1" height="1">
<use xlink:href="#image8_493_4" transform="matrix(0.000332084 0 0 0.00095027 -0.193548 -2.46154)"/>
</pattern>
<pattern id="pattern12_493_4" patternContentUnits="objectBoundingBox" width="1" height="1">
<use xlink:href="#image9_493_4" transform="matrix(0.000332084 0 0 0.000490219 -0.193548 -0.285714)"/>
</pattern>
<pattern id="pattern13_493_4" patternContentUnits="objectBoundingBox" width="1" height="1">
<use xlink:href="#image10_493_4" transform="matrix(0.000332084 0 0 0.00143646 -0.193548 -4.23256)"/>
</pattern>
<pattern id="pattern14_493_4" patternContentUnits="objectBoundingBox" width="1" height="1">
<use xlink:href="#image11_493_4" transform="matrix(0.000374349 0 0 0.000744188 -0.218182 -0.433735)"/>
</pattern>
<pattern id="pattern15_493_4" patternContentUnits="objectBoundingBox" width="1" height="1">
<use xlink:href="#image11_493_4" transform="matrix(0.000332084 0 0 0.000425983 -0.193548 -0.531034)"/>
</pattern>
<pattern id="pattern16_493_4" patternContentUnits="objectBoundingBox" width="1" height="1">
<use xlink:href="#image12_493_4" transform="matrix(0.000332084 0 0 0.000326813 -0.193548 -0.190476)"/>
</pattern>
<pattern id="pattern17_493_4" patternContentUnits="objectBoundingBox" width="1" height="1">
<use xlink:href="#image13_493_4" transform="matrix(0.000332084 0 0 0.000326813 -0.193548 -0.190476)"/>
</pattern>
<pattern id="pattern18_493_4" patternContentUnits="objectBoundingBox" width="1" height="1">
<use xlink:href="#image14_493_4" transform="matrix(0.000332084 0 0 0.000326813 -0.193548 -0.190476)"/>
</pattern>
<pattern id="pattern19_493_4" patternContentUnits="objectBoundingBox" width="1" height="1">
<use xlink:href="#image15_493_4" transform="matrix(0.000332084 0 0 0.000846131 -0.193548 -0.493151)"/>
</pattern>
<pattern id="pattern20_493_4" patternContentUnits="objectBoundingBox" width="1" height="1">
<use xlink:href="#image16_493_4" transform="matrix(0.000332084 0 0 0.000326813 -0.193548 -0.190476)"/>
</pattern>
<pattern id="pattern21_493_4" patternContentUnits="objectBoundingBox" width="1" height="1">
<use xlink:href="#image17_493_4" transform="matrix(0.000332084 0 0 0.000326813 -0.193548 -0.190476)"/>
</pattern>
<pattern id="pattern22_493_4" patternContentUnits="objectBoundingBox" width="1" height="1">
<use xlink:href="#image18_493_4" transform="matrix(0.000332084 0 0 0.000326813 -0.193548 -0.190476)"/>
</pattern>
<pattern id="pattern23_493_4" patternContentUnits="objectBoundingBox" width="1" height="1">
<use xlink:href="#image18_493_4" transform="matrix(0.000332084 0 0 0.000304274 -0.193548 -0.108374)"/>
</pattern>
<pattern id="pattern24_493_4" patternContentUnits="objectBoundingBox" width="1" height="1">
<use xlink:href="#image18_493_4" transform="matrix(0.000332084 0 0 0.000678765 -0.193548 -0.395604)"/>
</pattern>
<pattern id="pattern25_493_4" patternContentUnits="objectBoundingBox" width="1" height="1">
<use xlink:href="#image19_493_4" transform="matrix(0.000332084 0 0 0.00095027 -0.193548 -2.46154)"/>
</pattern>
<pattern id="pattern26_493_4" patternContentUnits="objectBoundingBox" width="1" height="1">
<use xlink:href="#image20_493_4" transform="matrix(0.000332084 0 0 0.000490219 -0.193548 -0.285714)"/>
</pattern>
<pattern id="pattern27_493_4" patternContentUnits="objectBoundingBox" width="1" height="1">
<use xlink:href="#image21_493_4" transform="matrix(0.000332084 0 0 0.00143646 -0.193548 -4.23256)"/>
</pattern>
<pattern id="pattern28_493_4" patternContentUnits="objectBoundingBox" width="1" height="1">
<use xlink:href="#image22_493_4" transform="matrix(0.000374349 0 0 0.000744188 -0.218182 -0.433735)"/>
</pattern>
<pattern id="pattern29_493_4" patternContentUnits="objectBoundingBox" width="1" height="1">
<use xlink:href="#image22_493_4" transform="matrix(0.000332084 0 0 0.000425983 -0.193548 -0.531034)"/>
</pattern>
<filter id="filter0_b_493_4" x="539" y="62" width="840" height="664" filterUnits="userSpaceOnUse" color-interpolation-filters="sRGB">
<feFlood flood-opacity="0" result="BackgroundImageFix"/>
<feGaussianBlur in="BackgroundImageFix" stdDeviation="7.5"/>
<feComposite in2="SourceAlpha" operator="in" result="effect1_backgroundBlur_493_4"/>
<feBlend mode="normal" in="SourceGraphic" in2="effect1_backgroundBlur_493_4" result="shape"/>
</filter>
<filter id="filter1_f_493_4" x="693.28" y="94.8" width="530.427" height="79.2" filterUnits="userSpaceOnUse" color-interpolation-filters="sRGB">
<feFlood flood-opacity="0" result="BackgroundImageFix"/>
<feBlend mode="normal" in="SourceGraphic" in2="BackgroundImageFix" result="shape"/>
<feGaussianBlur stdDeviation="3" result="effect1_foregroundBlur_493_4"/>
</filter>
<linearGradient id="paint0_linear_493_4" x1="959" y1="77" x2="959" y2="639" gradientUnits="userSpaceOnUse">
<stop stop-color="#FF4433"/>
<stop offset="1" stop-color="#FF4433" stop-opacity="0"/>
</linearGradient>
<linearGradient id="paint1_linear_493_4" x1="959" y1="77" x2="959" y2="598.5" gradientUnits="userSpaceOnUse">
<stop stop-color="white"/>
<stop offset="1" stop-color="white" stop-opacity="0"/>
</linearGradient>
<clipPath id="clip0_493_4">
<rect width="103" height="186" fill="white"/>
</clipPath>
<clipPath id="clip1_493_4">
<rect width="103" height="186" fill="white" transform="translate(0 209)"/>
</clipPath>
<clipPath id="clip2_493_4">
<rect width="186" height="63" fill="white" transform="translate(21 39)"/>
</clipPath>
<clipPath id="clip3_493_4">
<rect width="103" height="186" fill="white" transform="matrix(-1 0 0 -1 1919 395)"/>
</clipPath>
<clipPath id="clip4_493_4">
<rect width="103" height="186" fill="white" transform="matrix(-1 0 0 -1 1919 186)"/>
</clipPath>
<clipPath id="clip5_493_4">
<rect width="186" height="63" fill="white" transform="matrix(-1 0 0 -1 1898 356)"/>
</clipPath>
</defs>
</svg>
