<svg width="394" height="358" viewBox="0 0 394 358" fill="none" xmlns="http://www.w3.org/2000/svg">
<g clip-path="url(#clip0_569_22923)">
<rect x="1" y="144" width="393" height="214" fill="url(#paint0_linear_569_22923)"/>
<path d="M197.074 336L197.074 143.017" stroke="url(#paint1_linear_569_22923)" stroke-miterlimit="10"/>
<path d="M179.102 336L179.102 143.017" stroke="url(#paint2_linear_569_22923)" stroke-miterlimit="10"/>
<path d="M161.125 336L161.125 143.017" stroke="url(#paint3_linear_569_22923)" stroke-miterlimit="10"/>
<path d="M143.164 336L143.164 143.017" stroke="url(#paint4_linear_569_22923)" stroke-miterlimit="10"/>
<path d="M125.188 336L125.187 143.017" stroke="url(#paint5_linear_569_22923)" stroke-miterlimit="10"/>
<path d="M107.715 336L107.715 143.017" stroke="url(#paint6_linear_569_22923)" stroke-miterlimit="10"/>
<path d="M215.426 336L215.426 143.536" stroke="url(#paint7_linear_569_22923)" stroke-miterlimit="10"/>
<path d="M234.008 336L234.008 143.017" stroke="url(#paint8_linear_569_22923)" stroke-miterlimit="10"/>
<path d="M250.973 336L250.973 143.017" stroke="url(#paint9_linear_569_22923)" stroke-miterlimit="10"/>
<path d="M268.945 336L268.945 143.017" stroke="url(#paint10_linear_569_22923)" stroke-miterlimit="10"/>
<path d="M286.922 336L286.922 143.017" stroke="url(#paint11_linear_569_22923)" stroke-miterlimit="10"/>
<path d="M304.883 336L304.883 143.017" stroke="url(#paint12_linear_569_22923)" stroke-miterlimit="10"/>
<path d="M322.859 336L322.859 143.017" stroke="url(#paint13_linear_569_22923)" stroke-miterlimit="10"/>
<path d="M90.3594 336L90.3594 143.017" stroke="url(#paint14_linear_569_22923)" stroke-miterlimit="10"/>
<path d="M72.3867 336L72.3867 143.017" stroke="url(#paint15_linear_569_22923)" stroke-miterlimit="10"/>
<path d="M54.4102 336L54.4101 143.017" stroke="url(#paint16_linear_569_22923)" stroke-miterlimit="10"/>
<path d="M36.4492 336L36.4492 143.017" stroke="url(#paint17_linear_569_22923)" stroke-miterlimit="10"/>
<path d="M18.4766 336L18.4766 143.017" stroke="url(#paint18_linear_569_22923)" stroke-miterlimit="10"/>
<path d="M1 336L0.999992 143.017" stroke="url(#paint19_linear_569_22923)" stroke-miterlimit="10"/>
<path d="M394 336L394 143.017" stroke="url(#paint20_linear_569_22923)" stroke-miterlimit="10"/>
<path d="M376.023 336L376.023 143.017" stroke="url(#paint21_linear_569_22923)" stroke-miterlimit="10"/>
<path d="M358.051 336L358.051 143.017" stroke="url(#paint22_linear_569_22923)" stroke-miterlimit="10"/>
<path d="M340.09 336L340.09 143.017" stroke="url(#paint23_linear_569_22923)" stroke-miterlimit="10"/>
<path d="M312.939 129.778C318.054 129.778 322.201 125.63 322.201 120.512C322.201 115.395 318.054 111.246 312.939 111.246C307.823 111.246 303.676 115.395 303.676 120.512C303.676 125.63 307.823 129.778 312.939 129.778Z" stroke="#AB00FF" stroke-miterlimit="10"/>
<path d="M312.939 101.981C318.054 101.981 322.201 97.8327 322.201 92.7152C322.201 87.5977 318.054 83.4492 312.939 83.4492C307.823 83.4492 303.676 87.5977 303.676 92.7152C303.676 97.8327 307.823 101.981 312.939 101.981Z" stroke="#AB00FF" stroke-miterlimit="10"/>
<path d="M312.939 74.1804C318.054 74.1804 322.201 70.0319 322.201 64.9144C322.201 59.797 318.054 55.6484 312.939 55.6484C307.823 55.6484 303.676 59.797 303.676 64.9144C303.676 70.0319 307.823 74.1804 312.939 74.1804Z" stroke="#AB00FF" stroke-miterlimit="10"/>
<path d="M312.939 46.3835C318.054 46.3835 322.201 42.235 322.201 37.1175C322.201 32.0001 318.054 27.8516 312.939 27.8516C307.823 27.8516 303.676 32.0001 303.676 37.1175C303.676 42.235 307.823 46.3835 312.939 46.3835Z" stroke="#AB00FF" stroke-miterlimit="10"/>
<path d="M323.002 9.32031H294.413V27.8523H285.15V46.3842H266.624V55.6502H229.573V46.3842H220.31V9.32031H111.473V18.5863H211.047V55.6502H220.31V64.9162H211.047V74.1822H220.31V83.4481H211.047V92.7141H229.573V64.9162H275.887V55.6502H294.413V37.1182H303.676" stroke="#AB00FF" stroke-miterlimit="10"/>
<path d="M83.6847 46.3835C88.8005 46.3835 92.9476 42.235 92.9476 37.1175C92.9476 32.0001 88.8005 27.8516 83.6847 27.8516C78.569 27.8516 74.4219 32.0001 74.4219 37.1175C74.4219 42.235 78.569 46.3835 83.6847 46.3835Z" stroke="#AB00FF" stroke-miterlimit="10"/>
<path d="M83.6847 74.1804C88.8005 74.1804 92.9476 70.0319 92.9476 64.9144C92.9476 59.797 88.8005 55.6484 83.6847 55.6484C78.569 55.6484 74.4219 59.797 74.4219 64.9144C74.4219 70.0319 78.569 74.1804 83.6847 74.1804Z" stroke="#AB00FF" stroke-miterlimit="10"/>
<path d="M83.6847 101.981C88.8005 101.981 92.9476 97.8327 92.9476 92.7152C92.9476 87.5977 88.8005 83.4492 83.6847 83.4492C78.569 83.4492 74.4219 87.5977 74.4219 92.7152C74.4219 97.8327 78.569 101.981 83.6847 101.981Z" stroke="#AB00FF" stroke-miterlimit="10"/>
<path d="M83.6847 129.778C88.8005 129.778 92.9476 125.63 92.9476 120.512C92.9476 115.395 88.8005 111.246 83.6847 111.246C78.569 111.246 74.4219 115.395 74.4219 120.512C74.4219 125.63 78.569 129.778 83.6847 129.778Z" stroke="#AB00FF" stroke-miterlimit="10"/>
<path d="M92.9492 9.32031H102.212V27.8523H120.738H167.052H201.787V101.98H238.838V74.1822H266.627V83.4481H285.152V64.9162H303.678" stroke="#AB00FF" stroke-miterlimit="10"/>
<path d="M92.9492 37.1172H130.001H167.052H192.524V111.245H248.101V83.4471H257.364V101.979H266.627V92.7131H303.678" stroke="#AB00FF" stroke-miterlimit="10"/>
<path d="M92.9492 64.9148H111.475V46.3828H130.001H167.052H183.261V120.511H192.524V134.499H201.787V120.511H257.364V111.245H266.627V120.511H275.889V101.979H294.415V120.511H303.678" stroke="#AB00FF" stroke-miterlimit="10"/>
<path d="M92.9492 92.7124H120.738V55.6484H173.998V129.776H183.261V142.498M211.049 142.498V129.776H229.575H295.504V142.998" stroke="#AB00FF" stroke-miterlimit="10"/>
<path d="M139.263 143.002V74.184H164.735V64.918H130.001V120.514H92.9492" stroke="#AB00FF" stroke-miterlimit="10"/>
<path d="M533.613 9.32031H524.35V27.8523H515.088V46.3842H496.562V55.6502H459.51V46.3842H450.248V9.32031H341.41V18.5863H440.985V55.6502H450.248V64.9162H440.985V74.1822H450.248V83.4481H440.985V92.7141H459.51V64.9162H505.825V55.6502H524.35V37.1182H533.613" stroke="#AB00FF" stroke-miterlimit="10"/>
<path d="M313.622 46.3835C318.738 46.3835 322.885 42.235 322.885 37.1175C322.885 32.0001 318.738 27.8516 313.622 27.8516C308.506 27.8516 304.359 32.0001 304.359 37.1175C304.359 42.235 308.506 46.3835 313.622 46.3835Z" stroke="#AB00FF" stroke-miterlimit="10"/>
<path d="M313.622 74.1804C318.738 74.1804 322.885 70.0319 322.885 64.9144C322.885 59.797 318.738 55.6484 313.622 55.6484C308.506 55.6484 304.359 59.797 304.359 64.9144C304.359 70.0319 308.506 74.1804 313.622 74.1804Z" stroke="#AB00FF" stroke-miterlimit="10"/>
<path d="M313.622 101.981C318.738 101.981 322.885 97.8327 322.885 92.7152C322.885 87.5977 318.738 83.4492 313.622 83.4492C308.506 83.4492 304.359 87.5977 304.359 92.7152C304.359 97.8327 308.506 101.981 313.622 101.981Z" stroke="#AB00FF" stroke-miterlimit="10"/>
<path d="M313.622 129.778C318.738 129.778 322.885 125.63 322.885 120.512C322.885 115.395 318.738 111.246 313.622 111.246C308.506 111.246 304.359 115.395 304.359 120.512C304.359 125.63 308.506 129.778 313.622 129.778Z" stroke="#AB00FF" stroke-miterlimit="10"/>
<path d="M322.887 9.32031H332.15V27.8523H350.675H396.99H431.724V101.98H468.776V74.1822H496.564V83.4481H515.09V64.9162H533.615" stroke="#AB00FF" stroke-miterlimit="10"/>
<path d="M322.887 37.1172H359.938H396.99H422.461V111.245H478.038V83.4471H487.301V101.979H496.564V92.7131H533.615" stroke="#AB00FF" stroke-miterlimit="10"/>
<path d="M322.887 64.9148H341.412V46.3828H359.938H396.99H413.198V120.511H422.461V148.309H431.724V120.511H487.301V111.245H496.564V120.511H505.827V101.979H524.353V120.511H533.615" stroke="#AB00FF" stroke-miterlimit="10"/>
<path d="M322.887 92.7124H350.675V55.6484H403.936V129.776H413.198V157.574H440.987V129.776H450.25V139.042H459.513V129.776H524.353V148.308H533.615" stroke="#AB00FF" stroke-miterlimit="10"/>
<path d="M369.201 143.002V74.184H394.673V64.918H359.938V120.514H322.887" stroke="#AB00FF" stroke-miterlimit="10"/>
<path d="M55.7188 0.0546875H229.571M229.571 0.0546875V37.1186H238.834V46.3846H257.359V37.1186H275.885V18.5866H285.148V0.0546875H229.571Z" stroke="#AB00FF" stroke-miterlimit="10"/>
<path d="M83.005 129.778C88.1208 129.778 92.2679 125.63 92.2679 120.512C92.2679 115.395 88.1208 111.246 83.005 111.246C77.8893 111.246 73.7422 115.395 73.7422 120.512C73.7422 125.63 77.8893 129.778 83.005 129.778Z" stroke="#AB00FF" stroke-miterlimit="10"/>
<path d="M83.005 101.981C88.1208 101.981 92.2679 97.8327 92.2679 92.7152C92.2679 87.5977 88.1208 83.4492 83.005 83.4492C77.8893 83.4492 73.7422 87.5977 73.7422 92.7152C73.7422 97.8327 77.8893 101.981 83.005 101.981Z" stroke="#AB00FF" stroke-miterlimit="10"/>
<path d="M83.005 74.1804C88.1208 74.1804 92.2679 70.0319 92.2679 64.9144C92.2679 59.797 88.1208 55.6484 83.005 55.6484C77.8893 55.6484 73.7422 59.797 73.7422 64.9144C73.7422 70.0319 77.8893 74.1804 83.005 74.1804Z" stroke="#AB00FF" stroke-miterlimit="10"/>
<path d="M83.005 46.3835C88.1208 46.3835 92.2679 42.235 92.2679 37.1175C92.2679 32.0001 88.1208 27.8516 83.005 27.8516C77.8893 27.8516 73.7422 32.0001 73.7422 37.1175C73.7422 42.235 77.8893 46.3835 83.005 46.3835Z" stroke="#AB00FF" stroke-miterlimit="10"/>
<path d="M93.0004 9.32031H65.4792V27.8523H56.2164V46.3842H37.6907V55.6502H-0.49955V46.3842H-8.62357V9.32031H-117.461V18.5863H-17.8864V55.6502H-8.62357V64.9162H-17.8864V74.1822H-8.62357V83.4481H-17.8864V92.7141H-0.49955V64.9162H46.9536V55.6502H65.4792V37.1182H74.0004" stroke="#AB00FF" stroke-miterlimit="10"/>
<path d="M-135.984 9.32031H-126.722V27.8523H-108.196H-61.8816H-27.147V101.98H9.9044V74.1822H37.693V83.4481H56.2187V64.9162H74.0027" stroke="#AB00FF" stroke-miterlimit="10"/>
<path d="M-135.984 37.1211H-98.933H-61.8816H-36.4099V111.249H19.1673V83.451H28.4301V101.983H37.693V92.717H73.7048" stroke="#AB00FF" stroke-miterlimit="10"/>
<path d="M-135.984 -18.4766H-126.722V0.0553875H-0.497269V37.1193H9.9044V46.3853H28.4301V37.1193H46.9558V18.5873H56.2187V0.0553875H1.00273" stroke="#AB00FF" stroke-miterlimit="10"/>
<path d="M-135.984 64.9187H-117.459V46.3867H-98.933H-61.8816H-45.6727V120.515H-36.4099V148.312H-27.147V120.515H28.4301V111.249H37.693V120.515H46.9558V101.983H65.4815V120.515L73.5027 120.502" stroke="#AB00FF" stroke-miterlimit="10"/>
<path d="M-135.984 92.7163H-108.196V55.6523H-54.9356V129.78H-45.6727V157.578H-17.8841V129.78H-8.6213V139.046H-0.997269V129.78H65.4815V143.002" stroke="#AB00FF" stroke-miterlimit="10"/>
<path d="M284.652 0.0553875H459.509V37.1193H468.772V46.3853H487.298V37.1193H505.824V18.5873H515.086V-18.4766H524.349H533.612" stroke="#AB00FF" stroke-miterlimit="10"/>
<line y1="143.5" x2="394" y2="143.5" stroke="#AB00FF"/>
</g>
<defs>
<linearGradient id="paint0_linear_569_22923" x1="197.5" y1="144" x2="197.5" y2="735.339" gradientUnits="userSpaceOnUse">
<stop/>
<stop offset="1" stop-opacity="0"/>
</linearGradient>
<linearGradient id="paint1_linear_569_22923" x1="197.574" y1="143.017" x2="197.574" y2="336" gradientUnits="userSpaceOnUse">
<stop stop-color="#AB00FF"/>
<stop offset="0.5" stop-color="#AB00FF" stop-opacity="0"/>
</linearGradient>
<linearGradient id="paint2_linear_569_22923" x1="179.602" y1="143.017" x2="179.602" y2="336" gradientUnits="userSpaceOnUse">
<stop stop-color="#AB00FF"/>
<stop offset="0.5" stop-color="#AB00FF" stop-opacity="0"/>
</linearGradient>
<linearGradient id="paint3_linear_569_22923" x1="161.625" y1="143.017" x2="161.625" y2="336" gradientUnits="userSpaceOnUse">
<stop stop-color="#AB00FF"/>
<stop offset="0.5" stop-color="#AB00FF" stop-opacity="0"/>
</linearGradient>
<linearGradient id="paint4_linear_569_22923" x1="143.664" y1="143.017" x2="143.664" y2="336" gradientUnits="userSpaceOnUse">
<stop stop-color="#AB00FF"/>
<stop offset="0.5" stop-color="#AB00FF" stop-opacity="0"/>
</linearGradient>
<linearGradient id="paint5_linear_569_22923" x1="125.687" y1="143.017" x2="125.688" y2="336" gradientUnits="userSpaceOnUse">
<stop stop-color="#AB00FF"/>
<stop offset="0.5" stop-color="#AB00FF" stop-opacity="0"/>
</linearGradient>
<linearGradient id="paint6_linear_569_22923" x1="108.215" y1="143.017" x2="108.215" y2="336" gradientUnits="userSpaceOnUse">
<stop stop-color="#AB00FF"/>
<stop offset="0.5" stop-color="#AB00FF" stop-opacity="0"/>
</linearGradient>
<linearGradient id="paint7_linear_569_22923" x1="215.926" y1="143.017" x2="215.926" y2="336" gradientUnits="userSpaceOnUse">
<stop stop-color="#AB00FF"/>
<stop offset="0.5" stop-color="#AB00FF" stop-opacity="0"/>
</linearGradient>
<linearGradient id="paint8_linear_569_22923" x1="234.508" y1="143.017" x2="234.508" y2="336" gradientUnits="userSpaceOnUse">
<stop stop-color="#AB00FF"/>
<stop offset="0.5" stop-color="#AB00FF" stop-opacity="0"/>
</linearGradient>
<linearGradient id="paint9_linear_569_22923" x1="251.473" y1="143.017" x2="251.473" y2="336" gradientUnits="userSpaceOnUse">
<stop stop-color="#AB00FF"/>
<stop offset="0.5" stop-color="#AB00FF" stop-opacity="0"/>
</linearGradient>
<linearGradient id="paint10_linear_569_22923" x1="269.445" y1="143.017" x2="269.445" y2="336" gradientUnits="userSpaceOnUse">
<stop stop-color="#AB00FF"/>
<stop offset="0.5" stop-color="#AB00FF" stop-opacity="0"/>
</linearGradient>
<linearGradient id="paint11_linear_569_22923" x1="287.422" y1="143.017" x2="287.422" y2="336" gradientUnits="userSpaceOnUse">
<stop stop-color="#AB00FF"/>
<stop offset="0.5" stop-color="#AB00FF" stop-opacity="0"/>
</linearGradient>
<linearGradient id="paint12_linear_569_22923" x1="305.383" y1="143.017" x2="305.383" y2="336" gradientUnits="userSpaceOnUse">
<stop stop-color="#AB00FF"/>
<stop offset="0.5" stop-color="#AB00FF" stop-opacity="0"/>
</linearGradient>
<linearGradient id="paint13_linear_569_22923" x1="323.359" y1="143.017" x2="323.359" y2="336" gradientUnits="userSpaceOnUse">
<stop stop-color="#AB00FF"/>
<stop offset="0.5" stop-color="#AB00FF" stop-opacity="0"/>
</linearGradient>
<linearGradient id="paint14_linear_569_22923" x1="90.8594" y1="143.017" x2="90.8594" y2="336" gradientUnits="userSpaceOnUse">
<stop stop-color="#AB00FF"/>
<stop offset="0.5" stop-color="#AB00FF" stop-opacity="0"/>
</linearGradient>
<linearGradient id="paint15_linear_569_22923" x1="72.8867" y1="143.017" x2="72.8867" y2="336" gradientUnits="userSpaceOnUse">
<stop stop-color="#AB00FF"/>
<stop offset="0.5" stop-color="#AB00FF" stop-opacity="0"/>
</linearGradient>
<linearGradient id="paint16_linear_569_22923" x1="54.9101" y1="143.017" x2="54.9102" y2="336" gradientUnits="userSpaceOnUse">
<stop stop-color="#AB00FF"/>
<stop offset="0.5" stop-color="#AB00FF" stop-opacity="0"/>
</linearGradient>
<linearGradient id="paint17_linear_569_22923" x1="36.9492" y1="143.017" x2="36.9492" y2="336" gradientUnits="userSpaceOnUse">
<stop stop-color="#AB00FF"/>
<stop offset="0.5" stop-color="#AB00FF" stop-opacity="0"/>
</linearGradient>
<linearGradient id="paint18_linear_569_22923" x1="18.9766" y1="143.017" x2="18.9766" y2="336" gradientUnits="userSpaceOnUse">
<stop stop-color="#AB00FF"/>
<stop offset="0.5" stop-color="#AB00FF" stop-opacity="0"/>
</linearGradient>
<linearGradient id="paint19_linear_569_22923" x1="1.49999" y1="143.017" x2="1.5" y2="336" gradientUnits="userSpaceOnUse">
<stop stop-color="#AB00FF"/>
<stop offset="0.5" stop-color="#AB00FF" stop-opacity="0"/>
</linearGradient>
<linearGradient id="paint20_linear_569_22923" x1="394.5" y1="143.017" x2="394.5" y2="336" gradientUnits="userSpaceOnUse">
<stop stop-color="#AB00FF"/>
<stop offset="0.5" stop-color="#AB00FF" stop-opacity="0"/>
</linearGradient>
<linearGradient id="paint21_linear_569_22923" x1="376.523" y1="143.017" x2="376.523" y2="336" gradientUnits="userSpaceOnUse">
<stop stop-color="#AB00FF"/>
<stop offset="0.5" stop-color="#AB00FF" stop-opacity="0"/>
</linearGradient>
<linearGradient id="paint22_linear_569_22923" x1="358.551" y1="143.017" x2="358.551" y2="336" gradientUnits="userSpaceOnUse">
<stop stop-color="#AB00FF"/>
<stop offset="0.5" stop-color="#AB00FF" stop-opacity="0"/>
</linearGradient>
<linearGradient id="paint23_linear_569_22923" x1="340.59" y1="143.017" x2="340.59" y2="336" gradientUnits="userSpaceOnUse">
<stop stop-color="#AB00FF"/>
<stop offset="0.5" stop-color="#AB00FF" stop-opacity="0"/>
</linearGradient>
<clipPath id="clip0_569_22923">
<rect width="394" height="358" fill="white"/>
</clipPath>
</defs>
</svg>
