<svg width="711" height="358" viewBox="0 0 711 358" fill="none" xmlns="http://www.w3.org/2000/svg">
<g clip-path="url(#clip0_523_22280)">
<path d="M469.935 129.778C475.05 129.778 479.198 125.63 479.198 120.512C479.198 115.395 475.05 111.246 469.935 111.246C464.819 111.246 460.672 115.395 460.672 120.512C460.672 125.63 464.819 129.778 469.935 129.778Z" stroke="#AB00FF" stroke-miterlimit="10"/>
<path d="M469.935 101.98C475.05 101.98 479.198 97.8317 479.198 92.7142C479.198 87.5968 475.05 83.4482 469.935 83.4482C464.819 83.4482 460.672 87.5968 460.672 92.7142C460.672 97.8317 464.819 101.98 469.935 101.98Z" stroke="#AB00FF" stroke-miterlimit="10"/>
<path d="M469.935 74.1824C475.05 74.1824 479.198 70.0338 479.198 64.9164C479.198 59.7989 475.05 55.6504 469.935 55.6504C464.819 55.6504 460.672 59.7989 460.672 64.9164C460.672 70.0338 464.819 74.1824 469.935 74.1824Z" stroke="#AB00FF" stroke-miterlimit="10"/>
<path d="M469.935 46.3845C475.05 46.3845 479.198 42.236 479.198 37.1185C479.198 32.0011 475.05 27.8525 469.935 27.8525C464.819 27.8525 460.672 32.0011 460.672 37.1185C460.672 42.236 464.819 46.3845 469.935 46.3845Z" stroke="#AB00FF" stroke-miterlimit="10"/>
<path d="M479.998 9.32031H451.409V27.8523H442.146V46.3842H423.62V55.6502H386.569V46.3842H377.306V9.32031H268.469V18.5863H368.043V55.6502H377.306V64.9162H368.043V74.1822H377.306V83.4481H368.043V92.7141H386.569V64.9162H432.883V55.6502H451.409V37.1182H460.672" stroke="#AB00FF" stroke-miterlimit="10"/>
<path d="M240.681 46.3845C245.797 46.3845 249.944 42.236 249.944 37.1185C249.944 32.0011 245.797 27.8525 240.681 27.8525C235.565 27.8525 231.418 32.0011 231.418 37.1185C231.418 42.236 235.565 46.3845 240.681 46.3845Z" stroke="#AB00FF" stroke-miterlimit="10"/>
<path d="M240.681 74.1824C245.797 74.1824 249.944 70.0338 249.944 64.9164C249.944 59.7989 245.797 55.6504 240.681 55.6504C235.565 55.6504 231.418 59.7989 231.418 64.9164C231.418 70.0338 235.565 74.1824 240.681 74.1824Z" stroke="#AB00FF" stroke-miterlimit="10"/>
<path d="M240.681 101.98C245.797 101.98 249.944 97.8317 249.944 92.7142C249.944 87.5968 245.797 83.4482 240.681 83.4482C235.565 83.4482 231.418 87.5968 231.418 92.7142C231.418 97.8317 235.565 101.98 240.681 101.98Z" stroke="#AB00FF" stroke-miterlimit="10"/>
<path d="M240.681 129.778C245.797 129.778 249.944 125.63 249.944 120.512C249.944 115.395 245.797 111.246 240.681 111.246C235.565 111.246 231.418 115.395 231.418 120.512C231.418 125.63 235.565 129.778 240.681 129.778Z" stroke="#AB00FF" stroke-miterlimit="10"/>
<path d="M249.943 9.32031H259.206V27.8523H277.732H324.046H358.781V101.98H395.832V74.1822H423.621V83.4481H442.146V64.9162H460.672" stroke="#AB00FF" stroke-miterlimit="10"/>
<path d="M249.943 37.1182H286.995H324.046H349.518V111.246H405.095V83.448H414.358V101.98H423.621V92.714H460.672" stroke="#AB00FF" stroke-miterlimit="10"/>
<path d="M249.943 64.9157H268.469V46.3838H286.995H324.046H340.255V120.512H349.518V134.5H358.781V120.512H414.358V111.246H423.621V120.512H432.884V101.98H451.409V120.512H460.672" stroke="#AB00FF" stroke-miterlimit="10"/>
<path d="M249.943 92.7143H277.732V55.6504H330.992V129.778H340.255V142.5M368.044 142.5V129.778H386.569H452.499V143" stroke="#AB00FF" stroke-miterlimit="10"/>
<path d="M296.258 143V74.182H321.729V64.916H286.995V120.512H249.943" stroke="#AB00FF" stroke-miterlimit="10"/>
<path d="M699.876 129.778C704.992 129.778 709.139 125.63 709.139 120.512C709.139 115.395 704.992 111.246 699.876 111.246C694.76 111.246 690.613 115.395 690.613 120.512C690.613 125.63 694.76 129.778 699.876 129.778Z" stroke="#AB00FF" stroke-miterlimit="10"/>
<path d="M699.876 157.576C704.992 157.576 709.139 153.427 709.139 148.31C709.139 143.192 704.992 139.044 699.876 139.044C694.76 139.044 690.613 143.192 690.613 148.31C690.613 153.427 694.76 157.576 699.876 157.576Z" stroke="#AB00FF" stroke-miterlimit="10"/>
<path d="M699.876 101.98C704.992 101.98 709.139 97.8317 709.139 92.7142C709.139 87.5968 704.992 83.4482 699.876 83.4482C694.76 83.4482 690.613 87.5968 690.613 92.7142C690.613 97.8317 694.76 101.98 699.876 101.98Z" stroke="#AB00FF" stroke-miterlimit="10"/>
<path d="M699.876 74.1824C704.992 74.1824 709.139 70.0338 709.139 64.9164C709.139 59.7989 704.992 55.6504 699.876 55.6504C694.76 55.6504 690.613 59.7989 690.613 64.9164C690.613 70.0338 694.76 74.1824 699.876 74.1824Z" stroke="#AB00FF" stroke-miterlimit="10"/>
<path d="M699.876 46.3845C704.992 46.3845 709.139 42.236 709.139 37.1185C709.139 32.0011 704.992 27.8525 699.876 27.8525C694.76 27.8525 690.613 32.0011 690.613 37.1185C690.613 42.236 694.76 46.3845 699.876 46.3845Z" stroke="#AB00FF" stroke-miterlimit="10"/>
<path d="M699.876 18.5866C704.992 18.5866 709.139 14.4381 709.139 9.32067C709.139 4.20321 704.992 0.0546875 699.876 0.0546875C694.76 0.0546875 690.613 4.20321 690.613 9.32067C690.613 14.4381 694.76 18.5866 699.876 18.5866Z" stroke="#AB00FF" stroke-miterlimit="10"/>
<path d="M690.613 9.32031H681.35V27.8523H672.088V46.3842H653.562V55.6502H616.51V46.3842H607.248V9.32031H498.41V18.5863H597.985V55.6502H607.248V64.9162H597.985V74.1822H607.248V83.4481H597.985V92.7141H616.51V64.9162H662.825V55.6502H681.35V37.1182H690.613" stroke="#AB00FF" stroke-miterlimit="10"/>
<path d="M470.622 46.3845C475.738 46.3845 479.885 42.236 479.885 37.1185C479.885 32.0011 475.738 27.8525 470.622 27.8525C465.506 27.8525 461.359 32.0011 461.359 37.1185C461.359 42.236 465.506 46.3845 470.622 46.3845Z" stroke="#AB00FF" stroke-miterlimit="10"/>
<path d="M470.622 74.1824C475.738 74.1824 479.885 70.0338 479.885 64.9164C479.885 59.7989 475.738 55.6504 470.622 55.6504C465.506 55.6504 461.359 59.7989 461.359 64.9164C461.359 70.0338 465.506 74.1824 470.622 74.1824Z" stroke="#AB00FF" stroke-miterlimit="10"/>
<path d="M470.622 101.98C475.738 101.98 479.885 97.8317 479.885 92.7142C479.885 87.5968 475.738 83.4482 470.622 83.4482C465.506 83.4482 461.359 87.5968 461.359 92.7142C461.359 97.8317 465.506 101.98 470.622 101.98Z" stroke="#AB00FF" stroke-miterlimit="10"/>
<path d="M470.622 129.778C475.738 129.778 479.885 125.63 479.885 120.512C479.885 115.395 475.738 111.246 470.622 111.246C465.506 111.246 461.359 115.395 461.359 120.512C461.359 125.63 465.506 129.778 470.622 129.778Z" stroke="#AB00FF" stroke-miterlimit="10"/>
<path d="M479.885 9.32031H489.148V27.8523H507.673H553.988H588.722V101.98H625.774V74.1822H653.562V83.4481H672.088V64.9162H690.614" stroke="#AB00FF" stroke-miterlimit="10"/>
<path d="M479.885 37.1182H516.936H553.988H579.459V111.246H635.036V83.448H644.299V101.98H653.562V92.714H690.614" stroke="#AB00FF" stroke-miterlimit="10"/>
<path d="M479.885 64.9157H498.41V46.3838H516.936H553.988H570.196V120.512H579.459V148.31H588.722V120.512H644.299V111.246H653.562V120.512H662.825V101.98H681.351V120.512H690.614" stroke="#AB00FF" stroke-miterlimit="10"/>
<path d="M479.885 92.7143H507.673V55.6504H560.934V129.778H570.196V157.576H597.985V129.778H607.248V139.044H616.511V129.778H681.351V148.31H690.614" stroke="#AB00FF" stroke-miterlimit="10"/>
<path d="M526.199 143V74.182H551.671V64.916H516.936V120.512H479.885" stroke="#AB00FF" stroke-miterlimit="10"/>
<path d="M212.719 0.0546875H386.571M386.571 0.0546875V37.1186H395.834V46.3846H414.359V37.1186H432.885V18.5866H442.148V0.0546875H386.571Z" stroke="#AB00FF" stroke-miterlimit="10"/>
<path d="M240.003 129.778C245.119 129.778 249.266 125.63 249.266 120.512C249.266 115.395 245.119 111.246 240.003 111.246C234.887 111.246 230.74 115.395 230.74 120.512C230.74 125.63 234.887 129.778 240.003 129.778Z" stroke="#AB00FF" stroke-miterlimit="10"/>
<path d="M240.003 101.98C245.119 101.98 249.266 97.8317 249.266 92.7142C249.266 87.5968 245.119 83.4482 240.003 83.4482C234.887 83.4482 230.74 87.5968 230.74 92.7142C230.74 97.8317 234.887 101.98 240.003 101.98Z" stroke="#AB00FF" stroke-miterlimit="10"/>
<path d="M240.003 74.1824C245.119 74.1824 249.266 70.0338 249.266 64.9164C249.266 59.7989 245.119 55.6504 240.003 55.6504C234.887 55.6504 230.74 59.7989 230.74 64.9164C230.74 70.0338 234.887 74.1824 240.003 74.1824Z" stroke="#AB00FF" stroke-miterlimit="10"/>
<path d="M240.003 46.3845C245.119 46.3845 249.266 42.236 249.266 37.1185C249.266 32.0011 245.119 27.8525 240.003 27.8525C234.887 27.8525 230.74 32.0011 230.74 37.1185C230.74 42.236 234.887 46.3845 240.003 46.3845Z" stroke="#AB00FF" stroke-miterlimit="10"/>
<path d="M249.998 9.32031H222.477V27.8523H213.214V46.3842H194.689V55.6502H156.498V46.3842H148.374V9.32031H39.5371V18.5863H139.112V55.6502H148.374V64.9162H139.112V74.1822H148.374V83.4481H139.112V92.7141H156.498V64.9162H203.952V55.6502H222.477V37.1182H230.998" stroke="#AB00FF" stroke-miterlimit="10"/>
<path d="M11.7492 18.5866C16.8649 18.5866 21.012 14.4381 21.012 9.32067C21.012 4.20321 16.8649 0.0546875 11.7492 0.0546875C6.63345 0.0546875 2.48633 4.20321 2.48633 9.32067C2.48633 14.4381 6.63345 18.5866 11.7492 18.5866Z" stroke="#AB00FF" stroke-miterlimit="10"/>
<path d="M11.7492 46.3845C16.8649 46.3845 21.012 42.236 21.012 37.1185C21.012 32.0011 16.8649 27.8525 11.7492 27.8525C6.63345 27.8525 2.48633 32.0011 2.48633 37.1185C2.48633 42.236 6.63345 46.3845 11.7492 46.3845Z" stroke="#AB00FF" stroke-miterlimit="10"/>
<path d="M11.7492 74.1824C16.8649 74.1824 21.012 70.0338 21.012 64.9164C21.012 59.7989 16.8649 55.6504 11.7492 55.6504C6.63345 55.6504 2.48633 59.7989 2.48633 64.9164C2.48633 70.0338 6.63345 74.1824 11.7492 74.1824Z" stroke="#AB00FF" stroke-miterlimit="10"/>
<path d="M11.7492 101.98C16.8649 101.98 21.012 97.8317 21.012 92.7142C21.012 87.5968 16.8649 83.4482 11.7492 83.4482C6.63345 83.4482 2.48633 87.5968 2.48633 92.7142C2.48633 97.8317 6.63345 101.98 11.7492 101.98Z" stroke="#AB00FF" stroke-miterlimit="10"/>
<path d="M11.7492 129.778C16.8649 129.778 21.012 125.63 21.012 120.512C21.012 115.395 16.8649 111.246 11.7492 111.246C6.63345 111.246 2.48633 115.395 2.48633 120.512C2.48633 125.63 6.63345 129.778 11.7492 129.778Z" stroke="#AB00FF" stroke-miterlimit="10"/>
<path d="M11.7492 157.576C16.8649 157.576 21.012 153.427 21.012 148.31C21.012 143.192 16.8649 139.044 11.7492 139.044C6.63345 139.044 2.48633 143.192 2.48633 148.31C2.48633 153.427 6.63345 157.576 11.7492 157.576Z" stroke="#AB00FF" stroke-miterlimit="10"/>
<path d="M21.0117 9.32031H30.2746V27.8523H48.8003H95.1145H129.849V101.98H166.9V74.1822H194.689V83.4481H213.215V64.9162H230.999" stroke="#AB00FF" stroke-miterlimit="10"/>
<path d="M21.0117 37.1191H58.0631H95.1145H120.586V111.247H176.163V83.449H185.426V101.981H194.689V92.715H230.701" stroke="#AB00FF" stroke-miterlimit="10"/>
<path d="M21.0117 -18.4775H30.2746V0.0544109H156.499V37.1183H166.9V46.3843H185.426V37.1183H203.952V18.5864H213.215V0.0544109H157.999" stroke="#AB00FF" stroke-miterlimit="10"/>
<path d="M21.0117 64.9167H39.5374V46.3848H58.0631H95.1145H111.323V120.513H120.586V148.311H129.849V120.513H185.426V111.247H194.689V120.513H203.952V101.981H222.478V120.513L230.499 120.5" stroke="#AB00FF" stroke-miterlimit="10"/>
<path d="M21.0117 92.7143H48.8003V55.6504H102.061V129.778H111.323V157.576H139.112V129.778H148.375V139.044H155.999V129.778H222.478V143" stroke="#AB00FF" stroke-miterlimit="10"/>
<path d="M21.0117 148.311H30.2746H67.326V74.183H92.7977V64.917H58.0631V120.513H21.0117" stroke="#AB00FF" stroke-miterlimit="10"/>
<path d="M441.654 0.0544109H616.511V37.1183H625.774V46.3843H644.3V37.1183H662.826V18.5864H672.088V-18.4775H681.351H690.614" stroke="#AB00FF" stroke-miterlimit="10"/>
<path d="M335.602 329L335.602 143" stroke="url(#paint0_linear_523_22280)" stroke-miterlimit="10"/>
<path d="M317.578 329L317.578 143" stroke="url(#paint1_linear_523_22280)" stroke-miterlimit="10"/>
<path d="M299.555 329L299.555 143" stroke="url(#paint2_linear_523_22280)" stroke-miterlimit="10"/>
<path d="M281.545 329L281.545 143" stroke="url(#paint3_linear_523_22280)" stroke-miterlimit="10"/>
<path d="M263.523 329L263.523 143" stroke="url(#paint4_linear_523_22280)" stroke-miterlimit="10"/>
<path d="M246 329L246 143" stroke="url(#paint5_linear_523_22280)" stroke-miterlimit="10"/>
<path d="M354 329L354 143.5" stroke="url(#paint6_linear_523_22280)" stroke-miterlimit="10"/>
<path d="M372.633 329L372.633 143" stroke="url(#paint7_linear_523_22280)" stroke-miterlimit="10"/>
<path d="M389.643 329L389.643 143" stroke="url(#paint8_linear_523_22280)" stroke-miterlimit="10"/>
<path d="M407.666 329L407.666 143" stroke="url(#paint9_linear_523_22280)" stroke-miterlimit="10"/>
<path d="M425.689 329L425.689 143" stroke="url(#paint10_linear_523_22280)" stroke-miterlimit="10"/>
<path d="M443.699 329L443.699 143" stroke="url(#paint11_linear_523_22280)" stroke-miterlimit="10"/>
<path d="M461.723 329L461.723 143" stroke="url(#paint12_linear_523_22280)" stroke-miterlimit="10"/>
<path d="M228.602 329L228.602 143" stroke="url(#paint13_linear_523_22280)" stroke-miterlimit="10"/>
<path d="M210.578 329L210.578 143" stroke="url(#paint14_linear_523_22280)" stroke-miterlimit="10"/>
<path d="M192.555 329L192.555 143" stroke="url(#paint15_linear_523_22280)" stroke-miterlimit="10"/>
<path d="M174.545 329L174.545 143" stroke="url(#paint16_linear_523_22280)" stroke-miterlimit="10"/>
<path d="M156.523 329L156.523 143" stroke="url(#paint17_linear_523_22280)" stroke-miterlimit="10"/>
<path d="M139 329L139 143" stroke="url(#paint18_linear_523_22280)" stroke-miterlimit="10"/>
<path d="M533.055 329L533.055 143" stroke="url(#paint19_linear_523_22280)" stroke-miterlimit="10"/>
<path d="M515.033 329L515.033 143" stroke="url(#paint20_linear_523_22280)" stroke-miterlimit="10"/>
<path d="M497.01 329L497.01 143" stroke="url(#paint21_linear_523_22280)" stroke-miterlimit="10"/>
<path d="M479 329L479 143" stroke="url(#paint22_linear_523_22280)" stroke-miterlimit="10"/>
</g>
<defs>
<linearGradient id="paint0_linear_523_22280" x1="336.102" y1="143" x2="336.102" y2="329" gradientUnits="userSpaceOnUse">
<stop stop-color="#AB00FF"/>
<stop offset="0.5" stop-color="#AB00FF" stop-opacity="0"/>
</linearGradient>
<linearGradient id="paint1_linear_523_22280" x1="318.078" y1="143" x2="318.078" y2="329" gradientUnits="userSpaceOnUse">
<stop stop-color="#AB00FF"/>
<stop offset="0.5" stop-color="#AB00FF" stop-opacity="0"/>
</linearGradient>
<linearGradient id="paint2_linear_523_22280" x1="300.055" y1="143" x2="300.055" y2="329" gradientUnits="userSpaceOnUse">
<stop stop-color="#AB00FF"/>
<stop offset="0.5" stop-color="#AB00FF" stop-opacity="0"/>
</linearGradient>
<linearGradient id="paint3_linear_523_22280" x1="282.045" y1="143" x2="282.045" y2="329" gradientUnits="userSpaceOnUse">
<stop stop-color="#AB00FF"/>
<stop offset="0.5" stop-color="#AB00FF" stop-opacity="0"/>
</linearGradient>
<linearGradient id="paint4_linear_523_22280" x1="264.023" y1="143" x2="264.023" y2="329" gradientUnits="userSpaceOnUse">
<stop stop-color="#AB00FF"/>
<stop offset="0.5" stop-color="#AB00FF" stop-opacity="0"/>
</linearGradient>
<linearGradient id="paint5_linear_523_22280" x1="246.5" y1="143" x2="246.5" y2="329" gradientUnits="userSpaceOnUse">
<stop stop-color="#AB00FF"/>
<stop offset="0.5" stop-color="#AB00FF" stop-opacity="0"/>
</linearGradient>
<linearGradient id="paint6_linear_523_22280" x1="354.5" y1="143" x2="354.5" y2="329" gradientUnits="userSpaceOnUse">
<stop stop-color="#AB00FF"/>
<stop offset="0.5" stop-color="#AB00FF" stop-opacity="0"/>
</linearGradient>
<linearGradient id="paint7_linear_523_22280" x1="373.133" y1="143" x2="373.133" y2="329" gradientUnits="userSpaceOnUse">
<stop stop-color="#AB00FF"/>
<stop offset="0.5" stop-color="#AB00FF" stop-opacity="0"/>
</linearGradient>
<linearGradient id="paint8_linear_523_22280" x1="390.143" y1="143" x2="390.143" y2="329" gradientUnits="userSpaceOnUse">
<stop stop-color="#AB00FF"/>
<stop offset="0.5" stop-color="#AB00FF" stop-opacity="0"/>
</linearGradient>
<linearGradient id="paint9_linear_523_22280" x1="408.166" y1="143" x2="408.166" y2="329" gradientUnits="userSpaceOnUse">
<stop stop-color="#AB00FF"/>
<stop offset="0.5" stop-color="#AB00FF" stop-opacity="0"/>
</linearGradient>
<linearGradient id="paint10_linear_523_22280" x1="426.189" y1="143" x2="426.189" y2="329" gradientUnits="userSpaceOnUse">
<stop stop-color="#AB00FF"/>
<stop offset="0.5" stop-color="#AB00FF" stop-opacity="0"/>
</linearGradient>
<linearGradient id="paint11_linear_523_22280" x1="444.199" y1="143" x2="444.199" y2="329" gradientUnits="userSpaceOnUse">
<stop stop-color="#AB00FF"/>
<stop offset="0.5" stop-color="#AB00FF" stop-opacity="0"/>
</linearGradient>
<linearGradient id="paint12_linear_523_22280" x1="462.223" y1="143" x2="462.223" y2="329" gradientUnits="userSpaceOnUse">
<stop stop-color="#AB00FF"/>
<stop offset="0.5" stop-color="#AB00FF" stop-opacity="0"/>
</linearGradient>
<linearGradient id="paint13_linear_523_22280" x1="229.102" y1="143" x2="229.102" y2="329" gradientUnits="userSpaceOnUse">
<stop stop-color="#AB00FF"/>
<stop offset="0.5" stop-color="#AB00FF" stop-opacity="0"/>
</linearGradient>
<linearGradient id="paint14_linear_523_22280" x1="211.078" y1="143" x2="211.078" y2="329" gradientUnits="userSpaceOnUse">
<stop stop-color="#AB00FF"/>
<stop offset="0.5" stop-color="#AB00FF" stop-opacity="0"/>
</linearGradient>
<linearGradient id="paint15_linear_523_22280" x1="193.055" y1="143" x2="193.055" y2="329" gradientUnits="userSpaceOnUse">
<stop stop-color="#AB00FF"/>
<stop offset="0.5" stop-color="#AB00FF" stop-opacity="0"/>
</linearGradient>
<linearGradient id="paint16_linear_523_22280" x1="175.045" y1="143" x2="175.045" y2="329" gradientUnits="userSpaceOnUse">
<stop stop-color="#AB00FF"/>
<stop offset="0.5" stop-color="#AB00FF" stop-opacity="0"/>
</linearGradient>
<linearGradient id="paint17_linear_523_22280" x1="157.023" y1="143" x2="157.023" y2="329" gradientUnits="userSpaceOnUse">
<stop stop-color="#AB00FF"/>
<stop offset="0.5" stop-color="#AB00FF" stop-opacity="0"/>
</linearGradient>
<linearGradient id="paint18_linear_523_22280" x1="139.5" y1="143" x2="139.5" y2="329" gradientUnits="userSpaceOnUse">
<stop stop-color="#AB00FF"/>
<stop offset="0.5" stop-color="#AB00FF" stop-opacity="0"/>
</linearGradient>
<linearGradient id="paint19_linear_523_22280" x1="533.555" y1="143" x2="533.555" y2="329" gradientUnits="userSpaceOnUse">
<stop stop-color="#AB00FF"/>
<stop offset="0.5" stop-color="#AB00FF" stop-opacity="0"/>
</linearGradient>
<linearGradient id="paint20_linear_523_22280" x1="515.533" y1="143" x2="515.533" y2="329" gradientUnits="userSpaceOnUse">
<stop stop-color="#AB00FF"/>
<stop offset="0.5" stop-color="#AB00FF" stop-opacity="0"/>
</linearGradient>
<linearGradient id="paint21_linear_523_22280" x1="497.51" y1="143" x2="497.51" y2="329" gradientUnits="userSpaceOnUse">
<stop stop-color="#AB00FF"/>
<stop offset="0.5" stop-color="#AB00FF" stop-opacity="0"/>
</linearGradient>
<linearGradient id="paint22_linear_523_22280" x1="479.5" y1="143" x2="479.5" y2="329" gradientUnits="userSpaceOnUse">
<stop stop-color="#AB00FF"/>
<stop offset="0.5" stop-color="#AB00FF" stop-opacity="0"/>
</linearGradient>
<clipPath id="clip0_523_22280">
<rect width="711" height="358" fill="white"/>
</clipPath>
</defs>
</svg>
