<svg width="58" height="58" viewBox="0 0 58 58" fill="none" xmlns="http://www.w3.org/2000/svg">
<path d="M34.9063 21.8394H31.9974V23.3261H34.9063V21.8394Z" fill="#FF4F4F"/>
<path d="M37.2739 24.2437H35.8239V27.2082H37.2739V24.2437Z" fill="#FF4F4F"/>
<path d="M37.2739 32.0172H35.8239V34.981H37.2739V32.0172Z" fill="#FF4F4F"/>
<path d="M34.9063 35.8982H31.9974V37.3849H34.9063V35.8982Z" fill="#FF4F4F"/>
<path d="M27.2534 21.8394H24.3434V23.3261H27.2534V21.8394Z" fill="#FF4F4F"/>
<path d="M23.4258 24.2437H21.9766V27.2082H23.4258V24.2437Z" fill="#FF4F4F"/>
<path d="M23.4258 32.0172H21.9766V34.981H23.4258V32.0172Z" fill="#FF4F4F"/>
<path d="M27.2534 35.8982H24.3434V37.3849H27.2534V35.8982Z" fill="#FF4F4F"/>
<path d="M37.2738 20.9214V19.4393H32.7858C32.7858 19.4447 32.7858 20.9214 32.7858 20.9214H37.2738Z" fill="#FF4F4F"/>
<path d="M39.6406 21.8394H38.1914V26.4098H39.6406V21.8394Z" fill="#FF4F4F"/>
<path d="M39.6406 32.8157H38.1914V37.3849H39.6406V32.8157Z" fill="#FF4F4F"/>
<path d="M37.2738 38.3025H32.7858V39.7803C32.7858 39.7857 37.2738 39.7857 37.2738 39.7857V38.3025Z" fill="#FF4F4F"/>
<path d="M26.4638 20.9214V19.4447C26.4638 19.4393 21.9766 19.4393 21.9766 19.4393V20.9214H26.4638Z" fill="#FF4F4F"/>
<path d="M21.0589 21.8394H19.6082V26.4098H21.0589V21.8394Z" fill="#FF4F4F"/>
<path d="M21.0589 32.8157H19.6082V37.3849H21.0589V32.8157Z" fill="#FF4F4F"/>
<path d="M21.9766 38.3025V39.7857H26.4638C26.4638 39.7803 26.4638 38.3025 26.4638 38.3025H21.9766Z" fill="#FF4F4F"/>
<path d="M39.6406 17.0358H33.5746V18.5221H39.6406V17.0358Z" fill="#FF4F4F"/>
<path d="M42.009 19.4393H40.5582V25.609H42.009V19.4393Z" fill="#FF4F4F"/>
<path d="M42.009 33.6161H40.5582V39.7857H42.009V33.6161Z" fill="#FF4F4F"/>
<path d="M39.6406 40.7032H33.5746V42.1892H39.6406V40.7032Z" fill="#FF4F4F"/>
<path d="M25.6742 17.0358H19.6082V18.5221H25.6742V17.0358Z" fill="#FF4F4F"/>
<path d="M18.6906 19.4393H17.2406V25.609H18.6906V19.4393Z" fill="#FF4F4F"/>
<path d="M18.6906 33.6161H17.2406V39.7857H18.6906V33.6161Z" fill="#FF4F4F"/>
<path d="M25.6742 40.7032H19.6082V42.1892H25.6742V40.7032Z" fill="#FF4F4F"/>
<path d="M42.0089 8.34583H34.3641V16.1182H42.0089V8.34583Z" fill="#FF4F4F"/>
<path d="M50.5709 17.0358H42.9269V24.8085H50.5709V17.0358Z" fill="#FF4F4F"/>
<path d="M50.5709 34.4169H42.9269V42.1893H50.5709V34.4169Z" fill="#FF4F4F"/>
<path d="M42.0089 43.1068H34.3641V50.8792H42.0089V43.1068Z" fill="#FF4F4F"/>
<path d="M24.8838 8.34583H17.2406V16.1182H24.8838V8.34583Z" fill="#FF4F4F"/>
<path d="M16.3227 17.0358H8.67676V24.8085H16.3227V17.0358Z" fill="#FF4F4F"/>
<path d="M16.3227 34.4169H8.67676V42.1893H16.3227V34.4169Z" fill="#FF4F4F"/>
<path d="M24.8838 43.1068H17.2406V50.8792H24.8838V43.1068Z" fill="#FF4F4F"/>
<path d="M33.9837 25.2535H25.2655V33.9713H33.9837V25.2535Z" fill="#FF4F4F"/>
</svg>
