<svg width="1453" height="1319" viewBox="0 0 1453 1319" fill="none" xmlns="http://www.w3.org/2000/svg">
<path d="M1210.83 363.513C1210.83 363.513 1210.83 484.68 1331.91 484.68C1331.91 484.68 1453 484.68 1453 605.847V848.167C1453 848.167 1453 969.333 1331.91 969.333C1331.91 969.333 1210.83 969.333 1210.83 1090.5C1210.83 1090.5 1210.83 1211.67 1089.74 1211.67C1089.74 1211.67 968.658 1211.67 968.658 1332.83C968.658 1332.83 968.658 1454 847.572 1454H605.428C605.428 1454 484.342 1454 484.342 1332.83C484.342 1332.83 484.342 1211.67 363.257 1211.67C363.257 1211.67 242.171 1211.67 242.171 1090.5C242.171 1090.5 242.171 969.333 121.086 969.333C121.086 969.333 0 969.333 0 848.167V605.833C0 605.833 0 484.667 121.086 484.667C121.086 484.667 242.171 484.667 242.171 363.5C242.171 363.5 242.171 242.333 363.257 242.333C363.257 242.333 484.342 242.333 484.342 121.167C484.342 121.167 484.342 0 605.428 0H847.586C847.586 0 968.671 0 968.671 121.167C968.671 121.167 968.671 242.333 1089.76 242.333C1089.74 242.347 1210.83 242.347 1210.83 363.513ZM605.428 242.347C605.428 242.347 484.342 242.347 484.342 363.513C484.342 363.513 484.342 484.68 363.257 484.68C363.257 484.68 242.171 484.68 242.171 605.847V848.167C242.171 848.167 242.171 969.333 363.257 969.333C363.257 969.333 484.342 969.333 484.342 1090.5C484.342 1090.5 484.342 1211.67 605.428 1211.67H847.586C847.586 1211.67 968.671 1211.67 968.671 1090.5C968.671 1090.5 968.671 969.333 1089.76 969.333C1089.76 969.333 1210.84 969.333 1210.84 848.167V605.833C1210.84 605.833 1210.84 484.667 1089.76 484.667C1089.76 484.667 968.671 484.667 968.671 363.5C968.671 363.5 968.671 242.333 847.586 242.333L605.428 242.347Z" fill="url(#paint0_linear_64_16)"/>
<defs>
<linearGradient id="paint0_linear_64_16" x1="726.5" y1="136" x2="726.5" y2="1390.5" gradientUnits="userSpaceOnUse">
<stop/>
<stop offset="1" stop-opacity="0"/>
</linearGradient>
</defs>
</svg>
