<svg width="68" height="30" viewBox="0 0 68 30" fill="none" xmlns="http://www.w3.org/2000/svg">
<path d="M1.34357 14.951C1.34357 31.028 34.4374 14.9594 34.4186 14.9594C34.3998 14.9594 67.4955 31.028 67.4955 14.951C67.4955 -1.12659 34.4004 14.9366 34.4186 14.9366C34.4374 14.936 1.34357 -1.12719 1.34357 14.951Z" stroke="#FF4F4F" stroke-width="0.8189" stroke-miterlimit="10"/>
<path d="M4.1004 14.9504C4.1004 -2.47059 34.4398 14.9138 34.4192 14.9138C34.3986 14.9138 64.7393 -2.47059 64.7393 14.9504C64.7393 32.372 34.3986 14.9816 34.4192 14.9816C34.4398 14.9816 4.1004 32.372 4.1004 14.9504Z" stroke="#FF4F4F" stroke-width="0.8189" stroke-miterlimit="10"/>
<path d="M6.85718 14.9503C6.85718 -3.81409 34.4416 14.8921 34.4192 14.8921C34.3962 14.8921 61.9824 -3.81409 61.9824 14.9503C61.9824 33.7165 34.3962 15.0043 34.4192 15.0043C34.4416 15.0037 6.85718 33.7159 6.85718 14.9503Z" stroke="#FF4F4F" stroke-width="0.8189" stroke-miterlimit="10"/>
<path d="M9.61401 14.9499C9.61401 -5.15792 34.4441 14.8695 34.4192 14.8695C34.3944 14.8695 59.2257 -5.15792 59.2257 14.9499C59.2257 35.0601 34.3944 15.0267 34.4192 15.0267C34.4441 15.0267 9.61401 35.0601 9.61401 14.9499Z" stroke="#FF4F4F" stroke-width="0.8189" stroke-miterlimit="10"/>
<path d="M12.3702 14.9498C12.3702 -6.50083 34.4459 14.8478 34.4186 14.8478C34.3913 14.8478 56.4682 -6.50083 56.4682 14.9498C56.4682 36.4046 34.3913 15.0494 34.4186 15.0494C34.4459 15.0488 12.3702 36.4046 12.3702 14.9498Z" stroke="#FF4F4F" stroke-width="0.8189" stroke-miterlimit="10"/>
<path d="M15.127 14.9491C15.127 -7.8449 34.4483 14.8249 34.4192 14.8249C34.3901 14.8249 53.712 -7.8449 53.712 14.9491C53.712 37.7485 34.3901 15.0715 34.4192 15.0715C34.4483 15.0709 15.127 37.7485 15.127 14.9491Z" stroke="#FF4F4F" stroke-width="0.8189" stroke-miterlimit="10"/>
<path d="M17.8838 14.9485C17.8838 -9.18887 34.4507 14.8027 34.4192 14.8027C34.3877 14.8027 50.9552 -9.18827 50.9552 14.9485C50.9552 39.0919 34.3877 15.0931 34.4192 15.0931C34.4501 15.0937 17.8838 39.0925 17.8838 14.9485Z" stroke="#FF4F4F" stroke-width="0.8189" stroke-miterlimit="10"/>
<path d="M20.6406 14.9486C20.6406 -10.5316 34.4525 14.7806 34.4192 14.7806C34.3859 14.7806 48.1984 -10.5316 48.1984 14.9486C48.1984 40.4366 34.3859 15.116 34.4192 15.116C34.4525 15.116 20.6406 40.4366 20.6406 14.9486Z" stroke="#FF4F4F" stroke-width="0.8189" stroke-miterlimit="10"/>
<path d="M23.3969 14.948C23.3969 -11.8756 34.4544 14.7584 34.4186 14.7584C34.3829 14.7584 45.441 -11.8756 45.441 14.948C45.441 41.7806 34.3829 15.1382 34.4186 15.1382C34.4544 15.1388 23.3969 41.7806 23.3969 14.948Z" stroke="#FF4F4F" stroke-width="0.8189" stroke-miterlimit="10"/>
<path d="M26.1536 14.9481C26.1536 -13.2189 34.4568 14.7363 34.4192 14.7363C34.3816 14.7363 42.6848 -13.2189 42.6848 14.9481C42.6848 43.1253 34.3816 15.1611 34.4192 15.1611C34.4568 15.1611 26.1536 43.1247 26.1536 14.9481Z" stroke="#FF4F4F" stroke-width="0.8189" stroke-miterlimit="10"/>
<path d="M28.9105 14.9472C28.9105 -14.5626 34.4592 14.7138 34.4192 14.7138C34.3792 14.7138 39.928 -14.5626 39.928 14.9472C39.928 44.4684 34.3792 15.183 34.4192 15.183C34.4586 15.183 28.9105 44.469 28.9105 14.9472Z" stroke="#FF4F4F" stroke-width="0.8189" stroke-miterlimit="10"/>
<path d="M31.6672 14.9473C31.6672 -15.9059 34.461 14.6917 34.4192 14.6917C34.3774 14.6917 37.1712 -15.9059 37.1712 14.9473C37.1712 45.8131 34.3768 15.2059 34.4192 15.2059C34.461 15.2059 31.6672 45.8131 31.6672 14.9473Z" stroke="#FF4F4F" stroke-width="0.8189" stroke-miterlimit="10"/>
<path d="M34.4232 14.9468C34.4232 -17.2498 34.4622 14.6696 34.4184 14.6696C34.3746 14.6696 34.4136 -17.2492 34.4136 14.9468C34.4136 47.1572 34.3746 15.2282 34.4184 15.2282C34.4622 15.2282 34.4232 47.1572 34.4232 14.9468Z" stroke="#FF4F4F" stroke-width="0.8189" stroke-miterlimit="10"/>
</svg>
