<svg width="67" height="67" viewBox="0 0 67 67" fill="none" xmlns="http://www.w3.org/2000/svg">
<path d="M31.0116 65.9077C29.9724 64.9267 31.1754 63.3229 33.9684 62.7409C36.7536 62.1457 39.7764 62.9935 40.4424 64.3003C41.1192 65.6257 39.4572 66.6097 37.0422 66.8581C34.6254 67.1011 32.0604 66.8923 31.0116 65.9077Z" fill="#FF4F4F"/>
<path d="M21.2256 55.2128C19.3584 51.7124 21.2424 47.5382 25.8828 46.1834C30.5196 44.8166 35.904 47.09 37.4394 50.9528C38.9892 54.83 36.3996 58.4858 32.1114 59.456C27.8154 60.4274 23.1144 58.724 21.2256 55.2128Z" fill="#FF4F4F"/>
<path d="M2.20623 47.4872C2.81943 46.1168 4.74183 46.3232 6.57963 48.2642C8.40603 50.2046 9.04323 53.051 7.96443 54.3608C6.89643 55.6778 4.77123 55.0922 3.38823 53.213C2.01543 51.3176 1.59423 48.8576 2.20623 47.4872Z" fill="#FF4F4F"/>
<path d="M7.70043 34.5817C9.90183 31.4233 14.6784 30.7741 18.2802 33.7297C21.876 36.6685 22.392 42.0211 19.4736 45.1447C16.5618 48.2839 11.7666 48.0703 8.86143 45.1477C5.97903 42.2047 5.51103 37.7431 7.70043 34.5817Z" fill="#FF4F4F"/>
<path d="M4.57502 15.4674C6.20762 15.2424 7.27922 17.103 6.57962 19.6368C5.89322 22.1784 3.79622 24.1548 2.41862 24.0768C1.03862 23.9988 0.724219 22.2192 1.13762 19.9872C1.55882 17.7456 2.91662 15.687 4.57502 15.4674Z" fill="#FF4F4F"/>
<path d="M19.9986 13.3321C24.2724 13.6051 27.321 17.1565 26.307 21.4951C25.3074 25.8295 20.4498 28.9099 16.0632 28.2013C11.6718 27.4945 9.52924 23.7055 10.605 19.8085C11.6916 15.8893 15.6966 13.0495 19.9986 13.3321Z" fill="#FF4F4F"/>
<path d="M36.9252 1.99332C37.9644 2.97492 36.7614 4.57812 33.9684 5.16012C31.1832 5.75532 28.1616 4.90752 27.4944 3.60072C26.8176 2.27472 28.479 1.29072 30.8946 1.04292C33.3108 0.800521 35.8758 1.00872 36.9252 1.99332Z" fill="#FF4F4F"/>
<path d="M46.7112 12.6884C48.579 16.1876 46.6944 20.363 42.054 21.7178C37.4172 23.0858 32.0328 20.81 30.4974 16.9484C28.9476 13.0712 31.5366 9.41538 35.8254 8.44518C40.1214 7.47438 44.823 9.17898 46.7112 12.6884Z" fill="#FF4F4F"/>
<path d="M65.7306 20.414C65.1168 21.785 63.195 21.5774 61.3572 19.637C59.5314 17.6954 58.8942 14.849 59.9724 13.5404C61.0404 12.2222 63.1656 12.8084 64.5492 14.6882C65.922 16.5842 66.3414 19.0442 65.7306 20.414Z" fill="#FF4F4F"/>
<path d="M60.2364 33.3201C58.035 36.4797 53.2584 37.1271 49.6566 34.1721C46.0608 31.2333 45.5448 25.8807 48.4632 22.7571C51.375 19.6173 56.1702 19.8333 59.0754 22.7541C61.9578 25.6965 62.4246 30.1575 60.2364 33.3201Z" fill="#FF4F4F"/>
<path d="M63.3618 52.434C61.7292 52.659 60.657 50.8002 61.3572 48.264C62.0436 45.7224 64.1407 43.746 65.5183 43.824C66.8983 43.9026 67.2126 45.681 66.7992 47.9136C66.3774 50.1546 65.0196 52.215 63.3618 52.434Z" fill="#FF4F4F"/>
<path d="M47.9382 54.5695C43.6638 54.2965 40.6158 50.7439 41.6298 46.4065C42.63 42.0727 47.4876 38.9911 51.8736 39.7003C56.2656 40.4071 58.4082 44.1949 57.3318 48.0931C56.2452 52.0123 52.2402 54.8515 47.9382 54.5695Z" fill="#FF4F4F"/>
</svg>
