<svg width="67" height="67" viewBox="0 0 67 67" fill="none" xmlns="http://www.w3.org/2000/svg">
<path d="M31.651 27.4525C31.6722 28.7119 31.6934 29.9383 31.7164 31.1161C32.8847 31.1299 33.9167 31.1293 35.0844 31.1155C35.108 29.9371 35.1292 28.7107 35.1498 27.4507C33.9494 27.4711 32.8526 27.4729 31.651 27.4525Z" fill="#FF4F4F"/>
<path d="M33.5254 35.2262C32.9428 35.2184 32.3456 35.2346 31.7176 35.2418C31.6946 36.4178 31.6728 37.6454 31.6522 38.9054C32.8532 38.8856 33.95 38.8874 35.1497 38.9078C35.1286 37.6472 35.1067 36.419 35.0843 35.2424C34.5447 35.2364 34.0257 35.2334 33.5254 35.2262Z" fill="#FF4F4F"/>
<path d="M31.5317 47.4404C32.7902 47.441 34.0118 47.4428 35.2697 47.4428C35.254 46.1438 35.24 44.8376 35.2225 43.5434C34.6507 43.5374 34.0887 43.5386 33.5364 43.5302C32.8938 43.5206 32.2445 43.5356 31.5789 43.5416C31.5607 44.8358 31.5468 46.1414 31.5317 47.4404Z" fill="#FF4F4F"/>
<path d="M31.5292 18.9174C31.5444 20.2164 31.5577 21.519 31.5759 22.8162C32.815 22.8276 33.9863 22.8264 35.2249 22.8144C35.243 21.5166 35.2564 20.2134 35.2721 18.915C34.0124 18.915 32.7896 18.9162 31.5292 18.9174Z" fill="#FF4F4F"/>
<path d="M31.5208 61.164C31.4923 60.8052 31.4602 60.4494 31.4305 60.0918C30.3695 60.0846 29.3078 60.078 28.243 60.0588C28.3242 60.42 28.412 60.7788 28.4895 61.1412C29.5016 61.1544 30.5112 61.1586 31.5208 61.164Z" fill="#FF4F4F"/>
<path d="M21.8856 62.309C21.7166 61.9364 21.5404 61.5716 21.3538 61.2116C20.3291 61.1786 19.3001 61.142 18.2645 61.1006C18.5122 61.478 18.7484 61.8602 18.9725 62.2502C19.9463 62.2724 20.9172 62.291 21.8856 62.309Z" fill="#FF4F4F"/>
<path d="M28.392 62.3972C28.3242 62.0492 28.2503 61.7108 28.1758 61.3754C27.1692 61.361 26.1608 61.3412 25.1488 61.3184C25.2711 61.6616 25.3868 62.0102 25.4983 62.366C26.4643 62.3786 27.4291 62.3894 28.392 62.3972Z" fill="#FF4F4F"/>
<path d="M15.3004 62.1583C14.997 61.7407 14.6772 61.3309 14.349 60.9223C13.3309 60.8563 12.3891 60.7561 11.5091 60.6331C11.8422 61.0921 12.1729 61.5493 12.4927 62.0125C13.3787 62.0797 14.3102 62.1313 15.3004 62.1583Z" fill="#FF4F4F"/>
<path d="M38.5577 60.0588C37.493 60.078 36.4319 60.0846 35.3708 60.0918C35.3411 60.4494 35.3097 60.8046 35.2812 61.164C36.2902 61.1586 37.2998 61.1544 38.3112 61.1412C38.3887 60.7782 38.4766 60.42 38.5577 60.0588Z" fill="#FF4F4F"/>
<path d="M35.7524 14.6443C35.736 15.9127 35.7136 17.2123 35.6948 18.5185C36.9624 18.5209 38.2506 18.5251 39.5503 18.5437C39.5715 17.2507 39.5988 15.9619 39.6127 14.6983C38.3251 14.6677 37.0375 14.6551 35.7524 14.6443Z" fill="#FF4F4F"/>
<path d="M62.1886 24.5778C62.1771 23.5674 62.1608 22.5558 62.145 21.543C61.8495 21.372 61.5533 21.2005 61.2366 21.0312C61.262 22.0921 61.2868 23.151 61.305 24.21C61.6109 24.3318 61.8998 24.456 62.1886 24.5778Z" fill="#FF4F4F"/>
<path d="M35.5477 39.2954C35.5731 40.556 35.5985 41.8454 35.621 43.1492C36.8662 43.1612 38.1531 43.1708 39.4674 43.1708C39.4389 41.8772 39.3983 40.5962 39.3632 39.3374C38.0441 39.3254 36.7662 39.3158 35.5477 39.2954Z" fill="#FF4F4F"/>
<path d="M39.5431 47.8147C38.2452 47.8327 36.9588 47.8369 35.6924 47.8393C35.7118 49.1455 35.7342 50.4421 35.7512 51.7135C37.0339 51.7027 38.3203 51.6901 39.6061 51.6595C39.5922 50.3935 39.5631 49.1077 39.5431 47.8147Z" fill="#FF4F4F"/>
<path d="M35.2552 55.4641C35.2921 54.4735 35.3369 53.3479 35.3248 52.1041C34.7325 52.1083 34.1414 52.1233 33.5491 52.1233C32.8587 52.1233 32.1682 52.1065 31.4772 52.1011C31.4645 53.3443 31.5093 54.4705 31.5462 55.4611C32.7836 55.4707 34.0191 55.4725 35.2552 55.4641Z" fill="#FF4F4F"/>
<path d="M31.5426 10.8968C31.5056 11.888 31.4626 13.0106 31.4741 14.2568C32.7599 14.246 34.0427 14.2448 35.3272 14.2532C35.3393 13.007 35.2957 11.8844 35.2588 10.8938C34.0196 10.8854 32.7823 10.8872 31.5426 10.8968Z" fill="#FF4F4F"/>
<path d="M62.2456 18.2456C62.2662 19.259 62.285 20.2712 62.3013 21.281C62.5884 21.4484 62.8779 21.614 63.1874 21.773C63.1783 20.813 63.1686 19.8536 63.1577 18.8924C62.8391 18.6836 62.5412 18.4658 62.2456 18.2456Z" fill="#FF4F4F"/>
<path d="M63.2279 28.2127C63.2243 27.2545 63.2243 26.2963 63.2183 25.3369C62.9154 25.2283 62.6326 25.1161 62.3534 25.0015C62.3649 26.0023 62.374 27.0025 62.3806 28.0021C62.6544 28.0717 62.9312 28.1467 63.2279 28.2127Z" fill="#FF4F4F"/>
<path d="M62.2226 28.3129C61.9386 28.2427 61.6558 28.1683 61.3578 28.0981C61.3681 29.1469 61.3711 30.1963 61.3747 31.2457C61.6709 31.2709 61.9513 31.2973 62.2342 31.3225C62.2311 30.3199 62.2293 29.3167 62.2226 28.3129Z" fill="#FF4F4F"/>
<path d="M7.93884 8.11453C8.56265 7.89853 9.22826 7.69393 9.94958 7.52113C10.2815 7.01593 10.6237 6.52333 10.9683 6.03613C10.2058 6.15673 9.48868 6.30193 8.80733 6.45733C8.50996 7.00153 8.21865 7.55173 7.93884 8.11453Z" fill="#FF4F4F"/>
<path d="M5.36005 11.2885C5.78642 11.0155 6.22733 10.7593 6.70276 10.5079C6.94865 9.81307 7.2333 9.14886 7.53309 8.50146C6.98014 8.71086 6.45989 8.92687 5.95418 9.15907C5.73615 9.85027 5.53144 10.5577 5.36005 11.2885Z" fill="#FF4F4F"/>
<path d="M13.4653 6.9434C14.5664 6.8354 15.7286 6.7946 16.8527 6.7316C17.1367 6.3218 17.4244 5.921 17.7006 5.5166C16.6462 5.5592 15.5972 5.5898 14.5191 5.6546C14.1703 6.0806 13.8136 6.506 13.4653 6.9434Z" fill="#FF4F4F"/>
<path d="M3.68787 15.3086C4.02824 15.0398 4.35105 14.7608 4.68051 14.486C4.76349 13.5344 4.90157 12.629 5.08206 11.7566C4.6787 12.0302 4.28745 12.3128 3.88652 12.59C3.78901 13.4678 3.71512 14.3708 3.68787 15.3086Z" fill="#FF4F4F"/>
<path d="M31.2785 58.1533C31.224 57.4141 31.175 56.6299 31.135 55.7611C29.9043 55.7497 28.6749 55.7377 27.4418 55.7095C27.5508 56.5819 27.6834 57.3679 27.8306 58.1089C28.9819 58.1335 30.1308 58.1431 31.2785 58.1533Z" fill="#FF4F4F"/>
<path d="M20.9735 6.52877C22.0697 6.48197 23.1605 6.43517 24.2452 6.40037C24.3912 6.02777 24.5401 5.66057 24.6806 5.28857C23.6547 5.31257 22.6245 5.34497 21.5901 5.37737C21.3908 5.76137 21.1794 6.14177 20.9735 6.52877Z" fill="#FF4F4F"/>
<path d="M27.8227 8.24948C27.6749 8.98928 27.5411 9.77648 27.4321 10.6489C28.667 10.6207 29.8988 10.6081 31.1319 10.5973C31.1725 9.72728 31.2216 8.94308 31.2761 8.20508C30.126 8.21468 28.9765 8.22488 27.8227 8.24948Z" fill="#FF4F4F"/>
<path d="M24.0102 8.10798C25.1676 8.06598 26.3201 8.03358 27.4696 8.00658C27.5774 7.50678 27.6798 7.02318 27.7924 6.54858C26.712 6.56958 25.6285 6.59718 24.5407 6.63078C24.3596 7.11018 24.1834 7.59978 24.0102 8.10798Z" fill="#FF4F4F"/>
<path d="M4.44973 41.3491C4.43822 40.3483 4.42974 39.3493 4.42248 38.3515C4.14873 38.2819 3.87134 38.2075 3.57336 38.1421C3.577 39.0997 3.577 40.0567 3.58305 41.0149C3.88648 41.1235 4.16992 41.2345 4.44973 41.3491Z" fill="#FF4F4F"/>
<path d="M4.68475 51.8761C4.35347 51.6001 4.02945 51.3193 3.68787 51.0493C3.71512 51.9871 3.78901 52.8901 3.88652 53.7685C4.28927 54.0463 4.68173 54.3301 5.0869 54.6049C4.90642 53.7325 4.76833 52.8271 4.68475 51.8761Z" fill="#FF4F4F"/>
<path d="M4.55573 18.2605C4.25957 18.4795 3.9622 18.6955 3.64363 18.9037C3.63273 19.8637 3.62304 20.8231 3.61395 21.7819C3.92404 21.6241 4.21354 21.4597 4.50001 21.2929C4.51636 20.2837 4.53514 19.2733 4.55573 18.2605Z" fill="#FF4F4F"/>
<path d="M6.71545 55.8572C6.23699 55.6046 5.79305 55.3472 5.36426 55.073C5.53626 55.8032 5.74097 56.5106 5.9596 57.2024C6.46774 57.4358 6.9892 57.6524 7.54457 57.8618C7.24478 57.2144 6.96073 56.5508 6.71545 55.8572Z" fill="#FF4F4F"/>
<path d="M4.55936 48.1005C4.53816 47.0871 4.51939 46.0761 4.50304 45.0675C4.21536 44.9001 3.92465 44.7357 3.61395 44.5767C3.62304 45.5355 3.63273 46.4943 3.64363 47.4549C3.96341 47.6631 4.26199 47.8803 4.55936 48.1005Z" fill="#FF4F4F"/>
<path d="M9.9696 58.8416C9.24464 58.6682 8.57662 58.4642 7.95099 58.2476C8.23019 58.8098 8.52211 59.3594 8.82009 59.9036C9.50446 60.0596 10.2234 60.2042 10.9895 60.3254C10.6443 59.8376 10.3009 59.3462 9.9696 58.8416Z" fill="#FF4F4F"/>
<path d="M3.57336 28.2164C3.87013 28.151 4.14751 28.0766 4.42066 28.0076C4.42732 27.0092 4.43641 26.0102 4.44791 25.01C4.16871 25.124 3.88588 25.235 3.58305 25.3436C3.577 26.3012 3.577 27.2588 3.57336 28.2164Z" fill="#FF4F4F"/>
<path d="M3.56127 34.6034C3.85743 34.6238 4.13361 34.6466 4.40554 34.6676C4.40372 33.6746 4.40312 32.6828 4.40493 31.6904C4.133 31.7114 3.85683 31.7348 3.56127 31.7546C3.56006 32.7044 3.56006 33.6536 3.56127 34.6034Z" fill="#FF4F4F"/>
<path d="M53.1568 35.354C51.7911 35.3516 50.3872 35.345 48.9755 35.3396C48.9821 36.5408 48.9827 37.7564 48.9742 38.9816C50.3642 38.9768 51.7481 38.9762 53.1029 38.9642C53.1308 37.757 53.1465 36.554 53.1568 35.354Z" fill="#FF4F4F"/>
<path d="M44.3791 18.6404C45.7122 18.6782 47.0464 18.7322 48.3818 18.785C48.3431 17.5346 48.2916 16.2902 48.2395 15.0542C46.9416 14.9798 45.6455 14.9042 44.3464 14.8496C44.361 16.1012 44.3749 17.3672 44.3791 18.6404Z" fill="#FF4F4F"/>
<path d="M48.4909 23.2752C47.1167 23.2494 45.7395 23.2248 44.372 23.2104C44.3635 24.4728 44.3453 25.7316 44.3259 26.9742C45.7189 26.9706 47.1228 26.988 48.5267 26.9916C48.52 25.7598 48.5121 24.5184 48.4909 23.2752Z" fill="#FF4F4F"/>
<path d="M44.3592 43.1479C45.7255 43.1335 47.1003 43.1089 48.4739 43.0831C48.4963 41.8381 48.5072 40.5973 48.5157 39.3667C47.113 39.3703 45.7098 39.3877 44.3186 39.3841C44.3362 40.6261 44.3519 41.8831 44.3592 43.1479Z" fill="#FF4F4F"/>
<path d="M48.6592 14.6906C49.9517 14.7668 51.2405 14.8568 52.5275 14.9522C52.4402 13.7444 52.3155 12.5648 52.026 11.5562C50.7572 11.4632 49.4914 11.378 48.225 11.3054C48.4733 12.3062 48.6041 13.4684 48.6592 14.6906Z" fill="#FF4F4F"/>
<path d="M44.2314 31.4043C44.1986 32.6013 44.1968 33.7563 44.2289 34.9545C45.6461 34.9605 47.0803 34.9605 48.512 34.9641C48.5017 33.7653 48.5042 32.5923 48.5157 31.3953C47.0839 31.3983 45.6492 31.3977 44.2314 31.4043Z" fill="#FF4F4F"/>
<path d="M52.5033 51.4082C51.2175 51.503 49.9299 51.593 48.6399 51.6686C48.5848 52.889 48.4522 54.0518 48.2032 55.0544C49.4672 54.9818 50.7318 54.8978 51.9982 54.8042C52.2883 53.7944 52.4155 52.6148 52.5033 51.4082Z" fill="#FF4F4F"/>
<path d="M48.3637 47.5735C47.0294 47.6257 45.697 47.6803 44.3646 47.7175C44.3598 48.9895 44.3471 50.2561 44.3325 51.5089C45.6298 51.4543 46.9235 51.3787 48.2195 51.3049C48.2722 50.0677 48.3243 48.8221 48.3637 47.5735Z" fill="#FF4F4F"/>
<path d="M57.0395 15.4136C57.9891 15.596 58.7577 15.8258 59.4057 16.103C59.347 14.9552 59.2798 13.796 59.0333 12.773C58.3368 12.4748 57.524 12.2258 56.5441 12.0308C56.8426 13.049 56.9565 14.2274 57.0395 15.4136Z" fill="#FF4F4F"/>
<path d="M51.2683 8.79663C51.6959 9.54963 52.0756 10.3596 52.3651 11.265C53.6394 11.3586 54.9797 11.4372 56.0668 11.625C55.7592 10.7016 55.3522 9.87003 54.8804 9.10023C53.7775 8.93763 52.4881 8.87883 51.2683 8.79663Z" fill="#FF4F4F"/>
<path d="M43.2836 8.37012C43.5355 9.11172 43.7675 9.90132 43.9498 10.7815C45.2022 10.8307 46.4547 10.8985 47.7108 10.9669C47.4704 10.0777 47.1633 9.28032 46.8254 8.53332C45.6401 8.47332 44.4603 8.41332 43.2836 8.37012Z" fill="#FF4F4F"/>
<path d="M59.8031 20.0029C60.2724 20.1799 60.6776 20.3749 61.0525 20.5711C61.0253 19.4905 60.9938 18.4099 60.9592 17.3263C60.5716 17.0737 60.1501 16.8217 59.6577 16.5967C59.7122 17.7337 59.7613 18.8677 59.8031 20.0029Z" fill="#FF4F4F"/>
<path d="M56.9208 47.0564C55.8712 47.2064 54.5237 47.2766 53.2094 47.3468C53.1392 48.5636 53.0532 49.7768 52.9659 50.9876C54.259 50.8898 55.6132 50.804 56.6852 50.6246C56.7712 49.436 56.8542 48.2474 56.9208 47.0564Z" fill="#FF4F4F"/>
<path d="M59.6946 42.6829C59.0757 42.8461 58.3471 42.9871 57.4435 43.1005C57.3998 44.2729 57.3435 45.4447 57.283 46.6165C58.2047 46.4677 58.9491 46.2817 59.579 46.0639C59.6213 44.9353 59.6631 43.8091 59.6946 42.6829Z" fill="#FF4F4F"/>
<path d="M59.8127 35.219C59.2053 35.2538 58.4955 35.2862 57.6136 35.3108C57.6033 36.479 57.59 37.6466 57.5652 38.8154C58.4537 38.7464 59.1689 38.6558 59.78 38.5586C59.7976 37.4444 59.8061 36.332 59.8127 35.219Z" fill="#FF4F4F"/>
<path d="M43.8964 51.9092C42.6131 51.9608 41.3279 52.0004 40.0433 52.0328C40.056 53.2724 39.9416 54.4064 39.8217 55.3994C41.0699 55.3694 42.3181 55.3304 43.5676 55.2818C43.7523 54.2864 43.8825 53.1434 43.8964 51.9092Z" fill="#FF4F4F"/>
<path d="M59.7037 23.6774C59.6734 22.5506 59.6323 21.4256 59.5899 20.2982C58.9618 20.0798 58.2199 19.8938 57.3005 19.7444C57.3599 20.9156 57.4186 22.0862 57.461 23.2604C58.361 23.3732 59.0872 23.5148 59.7037 23.6774Z" fill="#FF4F4F"/>
<path d="M39.9034 43.5631C39.9313 44.8411 39.9458 46.1287 39.967 47.4109C41.2764 47.3917 42.5998 47.3689 43.9285 47.3347C43.931 46.0717 43.9237 44.8045 43.9164 43.5439C42.5628 43.5571 41.2207 43.5607 39.9034 43.5631Z" fill="#FF4F4F"/>
<path d="M47.6902 55.3921C46.4366 55.4599 45.1859 55.5277 43.9353 55.5775C43.753 56.4565 43.521 57.2467 43.2697 57.9889C44.444 57.9451 45.6214 57.8857 46.8054 57.8257C47.1427 57.0781 47.4504 56.2807 47.6902 55.3921Z" fill="#FF4F4F"/>
<path d="M59.7874 27.8012C59.1775 27.704 58.4634 27.6134 57.5762 27.5444C57.5992 28.7114 57.6089 29.879 57.6168 31.0472C58.4986 31.0718 59.2078 31.1042 59.8146 31.139C59.8098 30.0266 59.8037 28.9136 59.7874 27.8012Z" fill="#FF4F4F"/>
<path d="M27.4769 58.3513C26.3292 58.3249 25.1791 58.2919 24.0235 58.2505C24.1955 58.7587 24.3705 59.2477 24.551 59.7277C25.6381 59.7613 26.721 59.7883 27.8009 59.8093C27.6882 59.3335 27.5853 58.8523 27.4769 58.3513Z" fill="#FF4F4F"/>
<path d="M61.1816 27.6975C61.1701 26.6355 61.1555 25.5729 61.138 24.5103C60.774 24.3735 60.3815 24.2391 59.9309 24.1143C59.9582 25.2303 59.9794 26.3469 59.9963 27.4629C60.436 27.5403 60.8224 27.6129 61.1816 27.6975Z" fill="#FF4F4F"/>
<path d="M39.9756 18.947C39.9538 20.2292 39.9411 21.5138 39.9126 22.7948C41.2305 22.7972 42.5738 22.8008 43.928 22.8146C43.9371 21.5522 43.9413 20.285 43.9395 19.0238C42.6101 18.989 41.2856 18.9662 39.9756 18.947Z" fill="#FF4F4F"/>
<path d="M39.7805 38.9593C41.108 38.9707 42.4786 38.9971 43.8637 39.0013C43.8425 37.7533 43.8153 36.5233 43.7832 35.3209C42.3787 35.3125 40.9942 35.2969 39.6642 35.2861C39.7072 36.4765 39.7447 37.7053 39.7805 38.9593Z" fill="#FF4F4F"/>
<path d="M53.1155 27.3948C51.7601 27.3828 50.375 27.3822 48.9845 27.3774C48.9911 28.6008 48.9863 29.8164 48.9784 31.0188C50.3908 31.0134 51.7946 31.0074 53.1604 31.0044C53.1531 29.8038 53.1422 28.5996 53.1155 27.3948Z" fill="#FF4F4F"/>
<path d="M52.9848 22.9975C52.9376 21.7885 52.8752 20.5819 52.8098 19.3765C51.4931 19.3087 50.1655 19.2433 48.8325 19.1899C48.8713 20.4235 48.9046 21.6595 48.9294 22.8943C50.2909 22.9213 51.6463 22.9585 52.9848 22.9975Z" fill="#FF4F4F"/>
<path d="M52.7898 46.9818C52.857 45.7758 52.9139 44.568 52.9636 43.3608C51.627 43.3998 50.2727 43.4364 48.9113 43.464C48.8858 44.697 48.8561 45.9336 48.8168 47.1684C50.1486 47.115 51.4737 47.0502 52.7898 46.9818Z" fill="#FF4F4F"/>
<path d="M53.2289 19.0123C54.5437 19.0831 55.8913 19.1539 56.9396 19.3045C56.8742 18.1123 56.7949 16.9249 56.7101 15.7375C55.6405 15.5569 54.2851 15.4705 52.9908 15.3721C53.0768 16.5823 53.1598 17.7949 53.2289 19.0123Z" fill="#FF4F4F"/>
<path d="M57.2382 27.1352C57.2121 25.9568 57.1819 24.7796 57.1395 23.6042C56.1093 23.4902 54.775 23.435 53.442 23.396C53.4887 24.6008 53.5189 25.808 53.548 27.0128C54.8919 27.0254 56.2159 27.0626 57.2382 27.1352Z" fill="#FF4F4F"/>
<path d="M57.1267 42.7549C57.1709 41.5783 57.1982 40.4005 57.2267 39.2239C56.2037 39.2965 54.8786 39.3331 53.534 39.3457C53.5032 40.5499 53.4717 41.7559 53.4232 42.9625C54.7574 42.9235 56.0941 42.8689 57.1267 42.7549Z" fill="#FF4F4F"/>
<path d="M57.2958 31.4203C56.2795 31.3969 54.9646 31.3843 53.6092 31.3843C53.6159 32.5819 53.6135 33.7747 53.6044 34.9735C54.9598 34.9735 56.2746 34.9609 57.2915 34.9375C57.3006 33.7645 57.3024 32.5927 57.2958 31.4203Z" fill="#FF4F4F"/>
<path d="M9.00116 9.53175C9.79031 9.27675 10.6776 9.06374 11.6975 8.90054C12.0639 8.31914 12.4636 7.77135 12.8749 7.23975C11.8477 7.35915 10.9271 7.52174 10.0877 7.71854C9.70249 8.30054 9.33245 8.89935 9.00116 9.53175Z" fill="#FF4F4F"/>
<path d="M6.9856 31.1414C7.59245 31.1066 8.30287 31.0748 9.18408 31.0502C9.19195 29.8832 9.20164 28.7174 9.22466 27.5522C8.3386 27.6212 7.62394 27.7112 7.01345 27.8078C6.99771 28.9184 6.99165 30.0296 6.9856 31.1414Z" fill="#FF4F4F"/>
<path d="M9.50018 19.76C8.58081 19.9094 7.8389 20.0966 7.21024 20.315C7.16845 21.4406 7.12666 22.5638 7.09698 23.6894C7.71413 23.5268 8.4397 23.3852 9.33968 23.2718C9.38208 22.0988 9.44082 20.9294 9.50018 19.76Z" fill="#FF4F4F"/>
<path d="M9.51836 46.601C9.45779 45.4304 9.40147 44.2604 9.35786 43.0892C8.45485 42.9758 7.72626 42.8348 7.10669 42.6716C7.13758 43.796 7.17997 44.9204 7.22237 46.0472C7.85223 46.2656 8.59596 46.4516 9.51836 46.601Z" fill="#FF4F4F"/>
<path d="M9.23552 38.8074C9.21129 37.6404 9.19736 36.4746 9.18767 35.3082C8.30646 35.2836 7.59544 35.2518 6.98859 35.217C6.99525 36.3282 7.00373 37.4394 7.02129 38.5524C7.63238 38.649 8.34825 38.739 9.23552 38.8074Z" fill="#FF4F4F"/>
<path d="M9.86115 19.3209C10.9101 19.1697 12.2571 19.0977 13.5713 19.0269C13.6397 17.8107 13.7233 16.5993 13.8093 15.3909C12.5151 15.4899 11.1609 15.5781 10.0901 15.7593C10.0053 16.9443 9.92595 18.1305 9.86115 19.3209Z" fill="#FF4F4F"/>
<path d="M13.3775 42.9529C13.3291 41.7481 13.2976 40.5433 13.2673 39.3403C11.9246 39.3277 10.5989 39.2887 9.57532 39.2161C9.60318 40.3915 9.63043 41.5681 9.67464 42.7435C10.7073 42.8581 12.0439 42.9133 13.3775 42.9529Z" fill="#FF4F4F"/>
<path d="M13.1916 31.3862C11.838 31.3862 10.5219 31.3994 9.50565 31.4228C9.49899 32.5934 9.50081 33.7634 9.50989 34.9352C10.5268 34.9586 11.8428 34.9724 13.1964 34.9724C13.1874 33.7742 13.1855 32.5826 13.1916 31.3862Z" fill="#FF4F4F"/>
<path d="M13.3593 23.4055C12.0269 23.4451 10.6927 23.5009 9.66189 23.6155C9.61889 24.7897 9.58861 25.9663 9.56317 27.1429C10.5855 27.0703 11.91 27.0301 13.2546 27.0175C13.2824 25.8145 13.3133 24.6091 13.3593 23.4055Z" fill="#FF4F4F"/>
<path d="M27.1335 31.0731C27.0893 29.8809 27.0542 28.6533 27.0172 27.4011C25.6872 27.3897 24.3191 27.3657 22.9304 27.3621C22.9528 28.6071 22.9824 29.8365 23.0158 31.0389C24.4227 31.0479 25.8029 31.0623 27.1335 31.0731Z" fill="#FF4F4F"/>
<path d="M26.8259 18.9548C25.5165 18.9752 24.1919 18.9956 22.8619 19.031C22.8607 20.2922 22.8643 21.5588 22.8734 22.8206C24.2282 22.8062 25.5716 22.8038 26.8882 22.8008C26.8598 21.5198 26.8471 20.2358 26.8259 18.9548Z" fill="#FF4F4F"/>
<path d="M26.7574 52.0231C25.474 51.9889 24.1889 51.9529 22.9049 51.9001C22.9188 53.1337 23.0472 54.2773 23.232 55.2733C24.482 55.3231 25.7302 55.3591 26.9779 55.3903C26.8585 54.3967 26.7447 53.2621 26.7574 52.0231Z" fill="#FF4F4F"/>
<path d="M27.1365 35.2849C25.806 35.2957 24.4257 35.3107 23.0182 35.3191C22.9861 36.5209 22.9588 37.7497 22.9382 38.9965C24.3258 38.9929 25.6927 38.9683 27.0203 38.9575C27.0566 37.7041 27.0929 36.4753 27.1365 35.2849Z" fill="#FF4F4F"/>
<path d="M13.5907 47.333C12.2771 47.2622 10.9295 47.1908 9.87994 47.0408C9.94656 48.2306 10.0289 49.4168 10.1149 50.6042C11.1875 50.7836 12.5411 50.8718 13.8342 50.9702C13.747 49.76 13.661 48.548 13.5907 47.333Z" fill="#FF4F4F"/>
<path d="M26.8967 43.5576C25.5812 43.5546 24.2391 43.5522 22.8855 43.5378C22.8776 44.7978 22.8704 46.0644 22.8728 47.3268C24.2016 47.3628 25.5249 47.3826 26.8337 47.403C26.8543 46.122 26.8694 44.8344 26.8967 43.5576Z" fill="#FF4F4F"/>
<path d="M23.5293 57.9818C23.2779 57.239 23.0466 56.4482 22.8643 55.5686C21.6142 55.5182 20.3624 55.4474 19.1075 55.3784C19.3461 56.2682 19.6544 57.0668 19.9905 57.815C21.1758 57.8756 22.3549 57.9374 23.5293 57.9818Z" fill="#FF4F4F"/>
<path d="M18.1609 51.6547C16.8709 51.5779 15.5833 51.4861 14.2969 51.3901C14.3847 52.5961 14.5088 53.7757 14.7977 54.7861C16.0654 54.8803 17.3305 54.9673 18.5951 55.0405C18.3474 54.0379 18.216 52.8739 18.1609 51.6547Z" fill="#FF4F4F"/>
<path d="M22.57 31.4058C21.1546 31.3998 19.7174 31.3998 18.2856 31.3962C18.2978 32.5926 18.2996 33.7638 18.2893 34.9614C19.7204 34.9578 21.1582 34.9578 22.573 34.9518C22.6045 33.7548 22.6033 32.6016 22.57 31.4058Z" fill="#FF4F4F"/>
<path d="M63.3 15.7922C63.3128 16.7666 63.3194 17.7014 63.3309 18.6542C63.6992 18.8888 64.0971 19.1126 64.5519 19.3166C64.5483 18.416 64.5495 17.5148 64.5446 16.6154C64.0801 16.3628 63.6762 16.0856 63.3 15.7922Z" fill="#FF4F4F"/>
<path d="M18.3105 23.2832C18.2887 24.5252 18.2814 25.766 18.2748 26.9972C19.6781 26.993 21.0856 26.9774 22.4755 26.9804C22.4567 25.7384 22.438 24.4808 22.4295 23.219C21.0632 23.234 19.6859 23.2568 18.3105 23.2832Z" fill="#FF4F4F"/>
<path d="M64.5683 25.4071C64.5659 24.5059 64.5641 23.6047 64.561 22.7029C64.1171 22.5505 63.7283 22.3825 63.3679 22.2073C63.3764 23.1565 63.3885 24.1057 63.3946 25.0537C63.7495 25.1779 64.1322 25.2985 64.5683 25.4071Z" fill="#FF4F4F"/>
<path d="M64.1716 63.3476C64.9899 63.3158 65.8269 63.296 66.6881 63.281C66.6881 62.4356 66.6899 61.5908 66.6917 60.7466C65.8517 60.8204 65.0571 60.905 64.2885 61.0028C64.2419 61.7792 64.2043 62.5616 64.1716 63.3476Z" fill="#FF4F4F"/>
<path d="M64.5773 28.7989C64.1419 28.7353 63.7597 28.6675 63.4072 28.5955C63.4109 29.5387 63.4163 30.4807 63.4175 31.4233C63.7694 31.4491 64.151 31.4731 64.5846 31.4953C64.5846 30.5959 64.5791 29.6977 64.5773 28.7989Z" fill="#FF4F4F"/>
<path d="M64.6203 10.6225C65.2575 10.8811 65.9419 11.1157 66.7092 11.3317C66.7074 10.4887 66.7044 9.64632 66.7019 8.80392C65.9031 8.65152 65.1715 8.48472 64.4774 8.29932C64.5277 9.07032 64.578 9.84312 64.6203 10.6225Z" fill="#FF4F4F"/>
<path d="M0.108948 60.7458C0.110765 61.59 0.112581 62.4348 0.112581 63.2802C0.973805 63.2952 1.8108 63.3156 2.62903 63.3468C2.59693 62.5608 2.55938 61.7784 2.51214 61.0014C1.74418 60.9048 0.948974 60.8196 0.108948 60.7458Z" fill="#FF4F4F"/>
<path d="M17.9847 47.1577C17.9453 45.9241 17.9156 44.6887 17.8896 43.4563C16.5293 43.4281 15.1745 43.3897 13.8366 43.3513C13.8869 44.5573 13.9444 45.7633 14.0104 46.9687C15.3277 47.0365 16.6535 47.1037 17.9847 47.1577Z" fill="#FF4F4F"/>
<path d="M17.8272 38.9754C17.8187 37.7514 17.8199 36.5376 17.8259 35.3376C16.4148 35.3424 15.0121 35.3496 13.6446 35.352C13.6549 36.5508 13.67 37.7526 13.6985 38.9586C15.0545 38.9706 16.4378 38.9706 17.8272 38.9754Z" fill="#FF4F4F"/>
<path d="M17.9683 19.2007C16.6365 19.2547 15.3083 19.3219 13.9905 19.3909C13.9257 20.5951 13.8633 21.8005 13.8154 23.0077C15.1545 22.9687 16.5105 22.9303 17.872 22.9021C17.8975 21.6685 17.9302 20.4331 17.9683 19.2007Z" fill="#FF4F4F"/>
<path d="M22.4367 47.7061C21.1061 47.6677 19.7713 47.6155 18.4371 47.5627C18.477 48.8101 18.5285 50.0551 18.5812 51.2905C19.8773 51.3655 21.1722 51.4411 22.4682 51.4969C22.4537 50.2447 22.4416 48.9781 22.4367 47.7061Z" fill="#FF4F4F"/>
<path d="M14.2721 14.9702C15.5603 14.8736 16.8497 14.7818 18.1415 14.7044C18.1967 13.4834 18.3257 12.3206 18.574 11.3186C17.307 11.3924 16.04 11.48 14.7705 11.5742C14.4823 12.5834 14.3593 13.763 14.2721 14.9702Z" fill="#FF4F4F"/>
<path d="M18.3274 43.0748C19.7004 43.1012 21.0771 43.124 22.4416 43.139C22.4494 41.8754 22.4652 40.6184 22.4834 39.3776C21.094 39.3806 19.6877 39.365 18.2856 39.3608C18.2941 40.5914 18.305 41.831 18.3274 43.0748Z" fill="#FF4F4F"/>
<path d="M18.4201 18.7964C19.7549 18.743 21.0904 18.6908 22.4228 18.6524C22.4264 17.3786 22.441 16.1132 22.4549 14.8616C21.157 14.9174 19.8603 14.993 18.5624 15.068C18.5097 16.3034 18.4583 17.5466 18.4201 18.7964Z" fill="#FF4F4F"/>
<path d="M6.11829 13.3898C6.55738 13.097 7.03947 12.8072 7.59545 12.557C7.83952 11.6114 8.16657 10.7402 8.55903 9.9248C7.92128 10.1546 7.35077 10.4228 6.82689 10.6988C6.52952 11.5442 6.28726 12.4358 6.11829 13.3898Z" fill="#FF4F4F"/>
<path d="M40.0513 14.3258C41.3377 14.3582 42.6246 14.3972 43.9104 14.4494C43.8965 13.214 43.7675 12.0716 43.5828 11.0768C42.3321 11.0282 41.0821 10.9892 39.832 10.9592C39.9519 11.9522 40.064 13.0832 40.0513 14.3258Z" fill="#FF4F4F"/>
<path d="M4.72595 17.7739C5.03301 17.5435 5.34189 17.3137 5.67499 17.0863C5.70952 16.0075 5.71678 14.9017 5.86517 13.8799C5.4933 14.1469 5.15233 14.4193 4.82164 14.6995C4.74049 15.7087 4.74715 16.7497 4.72595 17.7739Z" fill="#FF4F4F"/>
<path d="M31.1774 23.2107C29.9316 23.1999 28.6428 23.1921 27.3249 23.1927C27.3534 24.4821 27.3988 25.7649 27.4345 27.0231C28.756 27.0351 30.0351 27.0459 31.2525 27.0651C31.2277 25.8045 31.1998 24.5115 31.1774 23.2107Z" fill="#FF4F4F"/>
<path d="M4.61267 24.5868C4.90217 24.465 5.18985 24.3402 5.4957 24.2196C5.51387 23.1618 5.5393 22.104 5.56414 21.0444C5.24799 21.213 4.95183 21.3858 4.65628 21.5556C4.64053 22.5672 4.62418 23.5776 4.61267 24.5868Z" fill="#FF4F4F"/>
<path d="M16.1047 8.51487C17.3027 8.43627 18.4928 8.36547 19.6768 8.30367C19.9269 7.77927 20.1862 7.27767 20.4514 6.78687C19.3389 6.83607 18.2202 6.89127 17.0931 6.95307C16.754 7.45647 16.4209 7.97247 16.1047 8.51487Z" fill="#FF4F4F"/>
<path d="M4.56726 31.3244C4.8501 31.2992 5.13051 31.2722 5.42667 31.2476C5.4303 30.1994 5.43394 29.1512 5.44423 28.103C5.14565 28.1726 4.86342 28.2482 4.57937 28.3184C4.57211 29.321 4.56968 30.323 4.56726 31.3244Z" fill="#FF4F4F"/>
<path d="M24.2579 59.9581C23.1744 59.9239 22.0855 59.8771 20.9911 59.8303C21.1958 60.2161 21.4066 60.5971 21.6046 60.9817C22.6372 61.0141 23.6662 61.0465 24.6904 61.0699C24.5511 60.6985 24.4033 60.3307 24.2579 59.9581Z" fill="#FF4F4F"/>
<path d="M11.7272 57.462C10.7048 57.3 9.81514 57.0877 9.02417 56.8333C9.35546 57.4645 9.72369 58.0633 10.1083 58.6441C10.9489 58.8409 11.8719 59.0029 12.9009 59.1211C12.4903 58.5901 12.093 58.0416 11.7272 57.462Z" fill="#FF4F4F"/>
<path d="M8.58145 56.4411C8.18779 55.6245 7.85892 54.7551 7.61424 53.8101C7.05402 53.5593 6.56951 53.2689 6.1286 52.9749C6.29879 53.9289 6.53923 54.8199 6.8372 55.6653C7.36472 55.9419 7.93887 56.2113 8.58145 56.4411Z" fill="#FF4F4F"/>
<path d="M16.8733 59.6275C15.751 59.5651 14.5918 59.5249 13.4902 59.4175C13.8384 59.8543 14.1957 60.2791 14.5434 60.7051C15.6214 60.7687 16.6674 60.7993 17.7194 60.8425C17.445 60.4375 17.1561 60.0367 16.8733 59.6275Z" fill="#FF4F4F"/>
<path d="M5.87421 52.4846C5.72522 51.4616 5.71675 50.3558 5.68222 49.2764C5.3473 49.0484 5.03661 48.818 4.72894 48.5864C4.75014 49.6106 4.74408 50.651 4.82524 51.6614C5.15834 51.9434 5.50053 52.217 5.87421 52.4846Z" fill="#FF4F4F"/>
<path d="M31.3457 31.4676C30.1629 31.4562 28.8965 31.4472 27.5726 31.4382C27.6168 32.619 27.6192 33.7374 27.5756 34.9194C28.8983 34.9104 30.1647 34.9014 31.3463 34.89C31.3736 33.7212 31.3736 32.6352 31.3457 31.4676Z" fill="#FF4F4F"/>
<path d="M5.44787 38.256C5.43697 37.206 5.43212 36.1584 5.42788 35.1102C5.13172 35.0856 4.85131 35.058 4.56787 35.0334C4.5709 36.0348 4.57393 37.0368 4.58059 38.04C4.86524 38.1102 5.14808 38.1858 5.44787 38.256Z" fill="#FF4F4F"/>
<path d="M5.57081 45.3169C5.54538 44.2561 5.51873 43.1977 5.49995 42.1405C5.19289 42.0193 4.904 41.8945 4.6145 41.7727C4.62661 42.7813 4.64297 43.7923 4.65932 44.8045C4.95609 44.9749 5.25285 45.1471 5.57081 45.3169Z" fill="#FF4F4F"/>
<path d="M6.87716 42.2348C6.84869 41.1194 6.82992 40.0046 6.81236 38.891C6.37024 38.8136 5.98384 38.7416 5.62408 38.657C5.63559 39.7172 5.64892 40.778 5.66769 41.8406C6.03229 41.9768 6.42596 42.11 6.87716 42.2348Z" fill="#FF4F4F"/>
<path d="M5.59685 34.7618C5.95357 34.7876 6.33634 34.8098 6.7718 34.8338C6.76635 33.7304 6.76513 32.6282 6.76937 31.5254C6.33392 31.5494 5.95236 31.571 5.59564 31.5968C5.59201 32.6516 5.59322 33.7058 5.59685 34.7618Z" fill="#FF4F4F"/>
<path d="M5.74762 20.585C6.12251 20.3888 6.5289 20.1956 6.99767 20.0192C7.03885 18.8858 7.08791 17.753 7.14181 16.6184C6.65003 16.8428 6.22789 17.0924 5.84028 17.3444C5.80637 18.4262 5.77487 19.5056 5.74762 20.585Z" fill="#FF4F4F"/>
<path d="M6.87052 24.1255C6.41993 24.2497 6.02747 24.3829 5.66348 24.5197C5.64531 25.5811 5.63138 26.6419 5.61987 27.7027C5.97962 27.6181 6.36481 27.5461 6.80572 27.4687C6.82207 26.3545 6.84327 25.2397 6.87052 24.1255Z" fill="#FF4F4F"/>
<path d="M22.8915 14.4585C24.1779 14.4057 25.4649 14.3691 26.7501 14.3355C26.7374 13.0929 26.8482 11.9619 26.9681 10.9683C25.7193 11.0001 24.4692 11.0361 23.218 11.0853C23.0333 12.0801 22.9055 13.2237 22.8915 14.4585Z" fill="#FF4F4F"/>
<path d="M19.0869 10.9807C20.3436 10.9117 21.5979 10.8403 22.8498 10.7899C23.0327 9.90911 23.264 9.11891 23.5154 8.37671C22.3392 8.42111 21.1582 8.48351 19.9705 8.54411C19.6332 9.29171 19.3261 10.0897 19.0869 10.9807Z" fill="#FF4F4F"/>
<path d="M10.7272 11.646C11.815 11.4576 13.1553 11.3772 14.4295 11.283C14.7184 10.3764 15.0969 9.56524 15.5245 8.81104C14.3042 8.89444 13.0147 8.95443 11.9101 9.11703C11.4389 9.88803 11.0337 10.7208 10.7272 11.646Z" fill="#FF4F4F"/>
<path d="M7.39502 16.1246C8.04366 15.848 8.81162 15.617 9.76066 15.4346C9.84363 14.2496 9.95386 13.0712 10.2512 12.053C9.27251 12.248 8.45974 12.494 7.76386 12.7928C7.51857 13.8164 7.45316 14.9774 7.39502 16.1246Z" fill="#FF4F4F"/>
<path d="M27.2498 18.5511C28.5513 18.5319 29.8389 18.5253 31.1065 18.5211C31.0871 17.2155 31.0653 15.9159 31.0484 14.6475C29.7638 14.6601 28.4774 14.6757 27.188 14.7075C27.2019 15.9705 27.2292 17.2587 27.2498 18.5511Z" fill="#FF4F4F"/>
<path d="M31.1089 47.8369C29.8431 47.8333 28.5573 47.8267 27.2576 47.8069C27.2376 49.0999 27.2092 50.3845 27.1953 51.6505C28.4822 51.6823 29.7686 51.6979 31.0508 51.7105C31.0677 50.4391 31.0895 49.1431 31.1089 47.8369Z" fill="#FF4F4F"/>
<path d="M31.1798 43.1474C31.2022 41.8436 31.2283 40.5542 31.2531 39.293C30.0364 39.3122 28.7572 39.323 27.4369 39.335C27.4018 40.5926 27.3612 41.873 27.3328 43.1648C28.6488 43.1666 29.9358 43.1588 31.1798 43.1474Z" fill="#FF4F4F"/>
<path d="M15.5518 57.549C15.1254 56.7936 14.7456 55.983 14.4568 55.077C13.1849 54.9828 11.8452 54.9036 10.7557 54.717C11.0627 55.6416 11.4691 56.4738 11.9415 57.246C13.0462 57.4074 14.3338 57.4662 15.5518 57.549Z" fill="#FF4F4F"/>
<path d="M9.78428 50.9282C8.8316 50.747 8.06123 50.5166 7.41077 50.24C7.46951 51.3872 7.53674 52.5482 7.78324 53.573C8.48154 53.8706 9.29734 54.116 10.2791 54.3104C9.98111 53.2916 9.86786 52.1126 9.78428 50.9282Z" fill="#FF4F4F"/>
<path d="M19.6968 58.055C18.5146 57.9932 17.3276 57.923 16.132 57.845C16.447 58.3868 16.7764 58.9028 17.115 59.4062C18.2403 59.468 19.3577 59.5232 20.4678 59.5718C20.2031 59.0804 19.9457 58.5788 19.6968 58.055Z" fill="#FF4F4F"/>
<path d="M7.00922 46.3436C6.53742 46.1666 6.13043 45.9728 5.75372 45.7766C5.78158 46.8554 5.81368 47.936 5.84881 49.019C6.23824 49.2722 6.66279 49.5224 7.157 49.7474C7.10249 48.611 7.05101 47.477 7.00922 46.3436Z" fill="#FF4F4F"/>
<path d="M13.6398 31.0057C15.0073 31.0081 16.4106 31.0153 17.8223 31.0201C17.8145 29.8195 17.8096 28.6045 17.8169 27.3823C16.4263 27.3871 15.0418 27.3871 13.6852 27.3991C13.6592 28.6039 13.6476 29.8069 13.6398 31.0057Z" fill="#FF4F4F"/>
<path d="M31.6298 3.69318C31.657 3.28098 31.6812 2.85438 31.7031 2.40918C30.7988 2.40978 29.894 2.41338 28.9898 2.41578C28.9298 2.86338 28.8632 3.29118 28.7893 3.70518C29.7365 3.69798 30.6832 3.69618 31.6298 3.69318Z" fill="#FF4F4F"/>
<path d="M35.1062 7.9453C35.0741 7.4509 35.0438 6.9727 35.0099 6.5023C33.9361 6.4963 32.8641 6.4963 31.7903 6.5023C31.7564 6.9733 31.7267 7.4521 31.6946 7.9477C32.8332 7.9399 33.9694 7.9381 35.1062 7.9453Z" fill="#FF4F4F"/>
<path d="M34.8342 3.94443C33.8785 3.94203 32.9228 3.94203 31.9671 3.94443C31.9471 4.28703 31.9247 4.62063 31.9029 4.95123C32.9016 4.94703 33.8997 4.94703 34.8984 4.95123C34.8766 4.62063 34.8542 4.28703 34.8342 3.94443Z" fill="#FF4F4F"/>
<path d="M23.0254 0.189209H20.446C20.3158 0.903209 20.1322 1.56741 19.8942 2.18721C20.7954 2.18001 21.696 2.17221 22.5966 2.16621C22.7819 1.55301 22.9249 0.897809 23.0254 0.189209Z" fill="#FF4F4F"/>
<path d="M22.3428 3.79147C23.3016 3.77407 24.2579 3.75727 25.2136 3.74407C25.3462 3.31927 25.4704 2.88307 25.577 2.42407C24.6697 2.42827 23.7625 2.43487 22.8546 2.44087C22.7038 2.91067 22.5288 3.35707 22.3428 3.79147Z" fill="#FF4F4F"/>
<path d="M28.859 0.189209H26.2777C26.2069 0.889409 26.1087 1.53861 25.981 2.14641C26.8822 2.14281 27.7827 2.14221 28.6839 2.13981C28.7627 1.53501 28.8166 0.888209 28.859 0.189209Z" fill="#FF4F4F"/>
<path d="M50.9686 3.93846C50.6464 3.47046 50.3484 2.99166 50.0916 2.48646C49.1819 2.47746 48.2734 2.47326 47.3644 2.46606C47.5691 2.95326 47.8065 3.41526 48.0615 3.86646C49.0287 3.88926 49.9971 3.91146 50.9686 3.93846Z" fill="#FF4F4F"/>
<path d="M34.6913 0.189209H32.1107C32.0967 0.884009 32.0798 1.52901 32.0562 2.13081C32.9531 2.13021 33.8489 2.13021 34.7458 2.13081C34.7216 1.52901 34.7046 0.884609 34.6913 0.189209Z" fill="#FF4F4F"/>
<path d="M56.8294 4.33087C56.5308 3.76687 56.2419 3.19867 55.9797 2.61187C55.1784 2.57887 54.3632 2.55067 53.525 2.53027C53.82 3.07267 54.1476 3.59407 54.4898 4.10947C55.3002 4.17067 56.0772 4.24627 56.8294 4.33087Z" fill="#FF4F4F"/>
<path d="M53.0271 2.24235C52.691 1.59675 52.413 0.913347 52.2023 0.185547C51.3392 0.186147 50.4689 0.189147 49.6101 0.189147C49.7718 0.911547 50.0026 1.58475 50.3024 2.21295C51.192 2.22255 52.1405 2.22615 53.0271 2.24235Z" fill="#FF4F4F"/>
<path d="M15.8322 3.93858C16.8043 3.91158 17.7721 3.88938 18.7393 3.86598C18.9949 3.41538 19.2323 2.95338 19.437 2.46558C18.5279 2.47278 17.6189 2.47698 16.7098 2.48598C16.4524 2.99238 16.1544 3.47118 15.8322 3.93858Z" fill="#FF4F4F"/>
<path d="M38.012 3.70518C37.9381 3.29118 37.8715 2.86338 37.8115 2.41578C36.9073 2.41338 36.0025 2.40978 35.0983 2.40918C35.1201 2.85498 35.1443 3.28098 35.1716 3.69318C36.1176 3.69618 37.0648 3.69798 38.012 3.70518Z" fill="#FF4F4F"/>
<path d="M0.0969238 34.4582C0.832174 34.4762 1.44993 34.493 1.98713 34.5164C1.98653 33.6242 1.98653 32.7338 1.98713 31.8416C1.44993 31.865 0.832174 31.8818 0.0969238 31.8998V34.4582Z" fill="#FF4F4F"/>
<path d="M44.4591 3.79147C44.2726 3.35707 44.0975 2.91067 43.9473 2.44087C43.0395 2.43547 42.1322 2.42827 41.225 2.42407C41.3316 2.88307 41.4557 3.31927 41.5878 3.74407C42.5435 3.75727 43.5004 3.77407 44.4591 3.79147Z" fill="#FF4F4F"/>
<path d="M46.9066 2.1877C46.6685 1.5673 46.485 0.903697 46.3548 0.189697H43.776C43.8771 0.897697 44.0195 1.5535 44.2048 2.1673C45.1054 2.1727 46.006 2.1799 46.9066 2.1877Z" fill="#FF4F4F"/>
<path d="M0.0969238 20.3406V22.8948C0.840653 22.767 1.4687 22.6194 2.01318 22.4454C2.01621 21.5514 2.01621 20.6574 2.02045 19.7634C1.47537 19.9878 0.844287 20.1756 0.0969238 20.3406Z" fill="#FF4F4F"/>
<path d="M2.0041 25.8032C1.46265 25.9256 0.838235 26.0288 0.0975342 26.12V28.6784C0.837024 28.6238 1.45781 28.571 1.99744 28.496C1.99804 27.5978 2.00168 26.7008 2.0041 25.8032Z" fill="#FF4F4F"/>
<path d="M2.32335 8.29932C1.62928 8.48472 0.89827 8.65152 0.0988211 8.80392C0.0957929 9.64632 0.0933697 10.4887 0.0915527 11.3317C0.858902 11.1157 1.54388 10.8805 2.18102 10.6225C2.22342 9.84312 2.27368 9.07032 2.32335 8.29932Z" fill="#FF4F4F"/>
<path d="M7.26174 4.67656C7.47735 4.04176 7.68508 3.40216 7.87344 2.74756C7.11699 2.78716 6.36599 2.83276 5.61015 2.87176C5.49992 3.58276 5.37334 4.28116 5.23889 4.97536C5.91358 4.87636 6.58342 4.77316 7.26174 4.67656Z" fill="#FF4F4F"/>
<path d="M17.1919 0.189147C16.3325 0.189147 15.4628 0.186147 14.5991 0.185547C14.3884 0.913347 14.1104 1.59615 13.7742 2.24235C14.6609 2.22555 15.6093 2.22195 16.4996 2.21295C16.7988 1.58475 17.0302 0.912147 17.1919 0.189147Z" fill="#FF4F4F"/>
<path d="M11.3492 0.186768C10.4965 0.187968 9.64617 0.189167 8.79584 0.190367C8.66079 0.966167 8.48576 1.70837 8.27863 2.42897C9.05143 2.39357 9.83028 2.36357 10.62 2.33357C10.9077 1.64897 11.1536 0.935568 11.3492 0.186768Z" fill="#FF4F4F"/>
<path d="M9.97137 4.33087C10.7242 4.24627 11.5012 4.17127 12.3116 4.10947C12.6538 3.59467 12.9814 3.07327 13.2764 2.53027C12.4376 2.55067 11.6224 2.57887 10.8211 2.61187C10.5588 3.19807 10.27 3.76687 9.97137 4.33087Z" fill="#FF4F4F"/>
<path d="M5.57808 0.195801C4.72594 0.197001 3.8732 0.197601 3.01864 0.197601C3.01561 1.0328 3.00168 1.8596 2.96655 2.6726C3.76782 2.6432 4.55576 2.6084 5.33946 2.5718C5.44666 1.7984 5.52297 1.0076 5.57808 0.195801Z" fill="#FF4F4F"/>
<path d="M2.62903 3.01099C1.8108 3.04279 0.973805 3.06259 0.112581 3.07759C0.112581 3.92299 0.110765 4.76779 0.108948 5.61199C0.948974 5.53819 1.74358 5.45359 2.51214 5.35579C2.55938 4.57879 2.59693 3.79699 2.62903 3.01099Z" fill="#FF4F4F"/>
<path d="M4.49883 7.37184C4.62662 6.68964 4.7641 6.01044 4.88886 5.32764C4.20327 5.43444 3.51102 5.53944 2.79636 5.63724C2.74307 6.39144 2.68614 7.14444 2.6286 7.89864C3.2724 7.72824 3.88955 7.55004 4.49883 7.37184Z" fill="#FF4F4F"/>
<path d="M40.8204 2.14641C40.692 1.53861 40.5939 0.889409 40.5236 0.189209H37.9418C37.9848 0.887609 38.0387 1.53501 38.1168 2.13981C39.0186 2.14221 39.9192 2.14281 40.8204 2.14641Z" fill="#FF4F4F"/>
<path d="M50.9541 62.4194C49.9826 62.447 49.0154 62.4692 48.0494 62.492C47.7957 62.9426 47.5588 63.4046 47.356 63.8918C48.2638 63.8846 49.1729 63.8804 50.0813 63.8714C50.3363 63.3656 50.6331 62.8868 50.9541 62.4194Z" fill="#FF4F4F"/>
<path d="M56.8208 62.0281C56.0662 62.1127 55.288 62.1883 54.4746 62.2495C54.1336 62.7637 53.8072 63.2851 53.514 63.8275C54.3535 63.8071 55.1705 63.7789 55.9723 63.7465C56.2346 63.1597 56.5229 62.5915 56.8208 62.0281Z" fill="#FF4F4F"/>
<path d="M62.4873 56.6917C61.9883 56.9281 61.4941 57.1687 60.9872 57.3961C60.7915 58.0333 60.5844 58.6585 60.3706 59.2801C60.952 59.1103 61.5238 58.9302 62.0991 58.7538C62.2366 58.0722 62.3644 57.3865 62.4873 56.6917Z" fill="#FF4F4F"/>
<path d="M59.9939 59.6545C59.3876 59.8195 58.7699 59.9701 58.1224 60.1159C57.8396 60.6499 57.5537 61.1797 57.2758 61.7143C57.9819 61.6261 58.6663 61.5337 59.3416 61.4335C59.556 60.8383 59.7771 60.2479 59.9939 59.6545Z" fill="#FF4F4F"/>
<path d="M58.5221 2.42897C58.315 1.70837 58.14 0.965567 58.0049 0.190367C57.1546 0.189167 56.3037 0.187368 55.4509 0.186768C55.6472 0.936167 55.893 1.64897 56.1801 2.33417C56.9705 2.36417 57.7493 2.39357 58.5221 2.42897Z" fill="#FF4F4F"/>
<path d="M22.3525 62.5664C22.5373 63.0008 22.7117 63.4472 22.8607 63.917C23.7679 63.9224 24.6746 63.9296 25.5818 63.9338C25.4758 63.4748 25.3517 63.0386 25.2203 62.6138C24.2658 62.6012 23.3095 62.5838 22.3525 62.5664Z" fill="#FF4F4F"/>
<path d="M44.4494 62.5664C43.4919 62.5838 42.5355 62.6006 41.5811 62.6138C41.4502 63.038 41.3261 63.4748 41.2201 63.9338C42.1267 63.9296 43.0334 63.923 43.9406 63.917C44.0896 63.4472 44.2641 63.0008 44.4494 62.5664Z" fill="#FF4F4F"/>
<path d="M62.3025 7.37172C62.9118 7.54992 63.5283 7.72812 64.1727 7.89912C64.1158 7.14492 64.0589 6.39192 64.005 5.63772C63.2903 5.53992 62.5981 5.43432 61.9131 5.32812C62.0372 6.01032 62.1747 6.68892 62.3025 7.37172Z" fill="#FF4F4F"/>
<path d="M66.6922 5.61199C66.6904 4.76779 66.6886 3.92299 66.6886 3.07759C65.8273 3.06259 64.9903 3.04219 64.1721 3.01099C64.2042 3.79699 64.2424 4.57939 64.289 5.35639C65.057 5.45359 65.8522 5.53819 66.6922 5.61199Z" fill="#FF4F4F"/>
<path d="M63.8348 2.6726C63.7997 1.8596 63.7857 1.0328 63.7827 0.197601C62.9282 0.197601 62.0754 0.197001 61.2239 0.195801C61.279 1.0076 61.3553 1.7984 61.4619 2.5724C62.2456 2.6084 63.0341 2.6432 63.8348 2.6726Z" fill="#FF4F4F"/>
<path d="M61.5618 4.97536C61.4273 4.28116 61.3008 3.58216 61.1905 2.87176C60.4353 2.83276 59.6843 2.78716 58.9272 2.74756C59.1156 3.40216 59.3239 4.04176 59.5389 4.67656C60.2173 4.77256 60.8877 4.87636 61.5618 4.97536Z" fill="#FF4F4F"/>
<path d="M64.5029 53.1079C63.996 53.3881 63.5315 53.6827 63.0809 53.9815C62.9967 54.7567 62.8931 55.5145 62.775 56.2609C63.2922 56.0077 63.8192 55.7545 64.3824 55.5127C64.4309 54.7189 64.4751 53.9203 64.5029 53.1079Z" fill="#FF4F4F"/>
<path d="M64.5519 47.0413C64.0965 47.2453 63.6986 47.4691 63.3309 47.7037C63.32 48.6559 63.3128 49.5907 63.3 50.5657C63.6762 50.2723 64.0801 49.9951 64.5446 49.7431C64.5501 48.8431 64.5483 47.9419 64.5519 47.0413Z" fill="#FF4F4F"/>
<path d="M64.5683 40.9507C64.1322 41.0593 63.7489 41.1793 63.3946 41.3041C63.3885 42.2521 63.3764 43.2007 63.3679 44.1499C63.7283 43.9753 64.1171 43.8073 64.561 43.6543C64.5641 42.7537 64.5665 41.8525 64.5683 40.9507Z" fill="#FF4F4F"/>
<path d="M64.5846 34.863C64.1504 34.8852 63.7688 34.9092 63.4175 34.935C63.4163 35.8776 63.4109 36.8202 63.4072 37.7634C63.7597 37.6908 64.1425 37.6236 64.5773 37.56C64.5791 36.66 64.5846 35.7624 64.5846 34.863Z" fill="#FF4F4F"/>
<path d="M62.3025 58.9863C62.1747 59.6691 62.0372 60.3477 61.9125 61.0305C62.5975 60.9237 63.2897 60.8187 64.0044 60.7209C64.0583 59.9667 64.1152 59.2137 64.1721 58.4595C63.5283 58.6299 62.9118 58.8081 62.3025 58.9863Z" fill="#FF4F4F"/>
<path d="M61.2233 66.1621C62.0754 66.1609 62.9275 66.1603 63.7821 66.1603C63.7851 65.3251 63.7991 64.4983 63.8342 63.6853C63.0335 63.7147 62.2456 63.7495 61.4613 63.7861C61.3547 64.5595 61.2784 65.3503 61.2233 66.1621Z" fill="#FF4F4F"/>
<path d="M59.5354 61.682C59.321 62.3162 59.1127 62.9558 58.9249 63.611C59.6826 63.5714 60.4342 63.5258 61.1912 63.4862C61.3015 62.7752 61.428 62.0768 61.5625 61.3826C60.8866 61.4822 60.2149 61.5854 59.5354 61.682Z" fill="#FF4F4F"/>
<path d="M64.4774 58.0587C65.1715 57.8733 65.9031 57.7065 66.7019 57.5541C66.705 56.7123 66.7074 55.8699 66.7092 55.0269C65.9419 55.2429 65.2569 55.4775 64.6203 55.7361C64.578 56.5155 64.5277 57.2877 64.4774 58.0587Z" fill="#FF4F4F"/>
<path d="M43.7754 66.1687H46.3542C46.4826 65.4535 46.6631 64.7905 46.8993 64.1707C45.9987 64.1779 45.0987 64.1857 44.1987 64.1917C44.0152 64.8049 43.8747 65.4595 43.7754 66.1687Z" fill="#FF4F4F"/>
<path d="M49.6089 66.1687C50.4683 66.1687 51.338 66.1717 52.2016 66.1723C52.4094 65.4439 52.6849 64.7611 53.018 64.1155C52.1308 64.1323 51.1823 64.1359 50.2927 64.1449C49.9959 64.7725 49.7676 65.4451 49.6089 66.1687Z" fill="#FF4F4F"/>
<path d="M55.4509 66.1716C56.3037 66.1704 57.1546 66.1692 58.0049 66.168C58.1394 65.3916 58.3132 64.65 58.5197 63.9294C57.7457 63.9648 56.9656 63.9948 56.1741 64.0248C55.8888 64.7088 55.6453 65.4216 55.4509 66.1716Z" fill="#FF4F4F"/>
<path d="M37.9418 66.1686H40.523C40.5927 65.4672 40.6896 64.8192 40.8162 64.2114C39.9156 64.215 39.015 64.2156 38.1144 64.218C38.0369 64.8234 37.9836 65.4678 37.9418 66.1686Z" fill="#FF4F4F"/>
<path d="M66.711 14.5521C65.9666 14.3073 65.3252 14.0343 64.7511 13.7271C64.7711 14.6031 64.7662 15.5121 64.7711 16.3923C65.3198 16.6713 65.9551 16.9071 66.7043 17.1123C66.7043 16.2609 66.7091 15.4047 66.711 14.5521Z" fill="#FF4F4F"/>
<path d="M66.7044 20.3408C65.9583 20.1734 65.3266 19.9832 64.7809 19.7576C64.7851 20.6516 64.7851 21.5462 64.7881 22.4408C65.3326 22.6172 65.9613 22.7654 66.7044 22.895V20.3408Z" fill="#FF4F4F"/>
<path d="M64.7711 49.9665C64.7662 50.8467 64.7711 51.7557 64.7511 52.6317C65.3252 52.3239 65.9672 52.0515 66.711 51.8067C66.7091 50.9541 66.7043 50.0973 66.7043 49.2471C65.9551 49.4517 65.3198 49.6875 64.7711 49.9665Z" fill="#FF4F4F"/>
<path d="M66.7044 37.6802C65.9667 37.7354 65.3441 37.7888 64.8051 37.8644C64.8039 38.7626 64.7997 39.6602 64.7979 40.5584C65.3399 40.4348 65.9643 40.3304 66.7044 40.2386V37.6802Z" fill="#FF4F4F"/>
<path d="M64.7803 46.6003C65.3266 46.3747 65.9576 46.1845 66.7038 46.0171V43.4629C65.9607 43.5925 65.332 43.7407 64.7875 43.9171C64.7845 44.8117 64.7845 45.7063 64.7803 46.6003Z" fill="#FF4F4F"/>
<path d="M66.7043 31.8999C65.9709 31.8819 65.3513 31.8645 64.8147 31.8411C64.8153 32.7333 64.8153 33.6249 64.8147 34.5171C65.3513 34.4937 65.9709 34.4763 66.7043 34.4583V31.8999Z" fill="#FF4F4F"/>
<path d="M66.7044 26.1198C65.9637 26.0274 65.3393 25.9236 64.7979 25.8C64.7997 26.6982 64.8039 27.5958 64.8051 28.494C65.3441 28.569 65.9667 28.623 66.7044 28.6782V26.1198Z" fill="#FF4F4F"/>
<path d="M2.18102 55.7361C1.54388 55.4781 0.859508 55.2429 0.0915527 55.0269C0.0933697 55.8705 0.0963985 56.7123 0.0988211 57.5547C0.89827 57.7071 1.62928 57.8739 2.32335 58.0593C2.27368 57.2877 2.22342 56.5155 2.18102 55.7361Z" fill="#FF4F4F"/>
<path d="M4.49883 58.9869C3.88955 58.8087 3.273 58.6305 2.6286 58.4595C2.68614 59.2137 2.74307 59.9667 2.79636 60.7209C3.51102 60.8187 4.20327 60.9243 4.88886 61.0305C4.76349 60.3477 4.62662 59.6691 4.49883 58.9869Z" fill="#FF4F4F"/>
<path d="M5.23889 61.3826C5.37334 62.0768 5.49992 62.7752 5.61015 63.4862C6.3672 63.5258 7.11881 63.5714 7.87647 63.611C7.68872 62.9564 7.48038 62.3162 7.26598 61.682C6.58645 61.5854 5.91479 61.4822 5.23889 61.3826Z" fill="#FF4F4F"/>
<path d="M2.96655 63.6853C3.00168 64.4983 3.01561 65.3251 3.01864 66.1603C3.8732 66.1603 4.72594 66.1609 5.57808 66.1621C5.52297 65.3503 5.44666 64.5595 5.33946 63.7855C4.55576 63.7495 3.76782 63.7147 2.96655 63.6853Z" fill="#FF4F4F"/>
<path d="M0.0969188 40.238C0.838226 40.3292 1.46204 40.4318 2.00348 40.5548C2.00167 39.6572 1.99743 38.7602 1.99621 37.8626C1.45659 37.7876 0.835803 37.7348 0.0963135 37.6802L0.0969188 40.238Z" fill="#FF4F4F"/>
<path d="M35.1703 62.6648C35.1437 63.077 35.1195 63.503 35.0977 63.9488C36.0013 63.9482 36.9049 63.9446 37.8091 63.9422C37.8685 63.494 37.9345 63.0668 38.0078 62.6528C37.0611 62.66 36.1157 62.6618 35.1703 62.6648Z" fill="#FF4F4F"/>
<path d="M2.03021 16.3994C2.03505 15.5192 2.0296 14.6096 2.05019 13.7336C1.47604 14.039 0.835273 14.3096 0.090332 14.552C0.092149 15.4046 0.0969939 16.2614 0.0969939 17.1122C0.84678 16.91 1.48149 16.676 2.03021 16.3994Z" fill="#FF4F4F"/>
<path d="M2.03021 49.9587C1.4821 49.6821 0.847385 49.4486 0.0969939 49.2458C0.0969939 50.0966 0.0915433 50.9535 0.090332 51.8061C0.835273 52.0485 1.47604 52.3185 2.05019 52.6245C2.0296 51.7485 2.03505 50.8389 2.03021 49.9587Z" fill="#FF4F4F"/>
<path d="M0.0969238 46.0171C0.843681 46.1821 1.47476 46.3705 2.02045 46.5943C2.01621 45.7003 2.01621 44.8063 2.01318 43.9123C1.4687 43.7377 0.840048 43.5907 0.0969238 43.4629V46.0171Z" fill="#FF4F4F"/>
<path d="M31.9047 61.4072C31.9265 61.7372 31.9483 62.0714 31.9683 62.414C32.9228 62.4164 33.8779 62.4164 34.8324 62.414C34.8524 62.0714 34.8742 61.7372 34.896 61.4072C34.3969 61.409 33.8979 61.4168 33.3995 61.4168C32.9016 61.4162 32.4032 61.409 31.9047 61.4072Z" fill="#FF4F4F"/>
<path d="M32.0568 64.2266C32.0804 64.8296 32.0967 65.4716 32.1107 66.1682H34.6907C34.7046 65.471 34.721 64.8296 34.7446 64.2266C34.2964 64.2272 33.8483 64.2302 33.4007 64.2302C32.9531 64.2302 32.5049 64.2272 32.0568 64.2266Z" fill="#FF4F4F"/>
<path d="M33.5212 58.4282C32.9138 58.4282 32.3051 58.4144 31.697 58.4102C31.7291 58.9064 31.76 59.3834 31.7933 59.8556C32.8647 59.8616 33.9355 59.8616 35.0075 59.8556C35.0414 59.3846 35.0717 58.9076 35.1038 58.4126C34.5762 58.4162 34.0493 58.4282 33.5212 58.4282Z" fill="#FF4F4F"/>
<path d="M19.9021 64.1707C20.1383 64.7905 20.3188 65.4535 20.4466 66.1687H23.026C22.9273 65.4595 22.7862 64.8049 22.6027 64.1911C21.7027 64.1851 20.8027 64.1779 19.9021 64.1707Z" fill="#FF4F4F"/>
<path d="M13.7827 64.1155C14.1164 64.7611 14.392 65.4433 14.5991 66.1723C15.4628 66.1717 16.3331 66.1687 17.1925 66.1687C17.0338 65.4451 16.8055 64.7725 16.5087 64.1449C15.6184 64.1359 14.6706 64.1323 13.7827 64.1155Z" fill="#FF4F4F"/>
<path d="M28.7936 62.6528C28.8669 63.0668 28.9323 63.4946 28.9922 63.9422C29.8958 63.9446 30.8001 63.9482 31.7037 63.9488C31.6819 63.5024 31.6583 63.077 31.6316 62.6648C30.6856 62.6618 29.7396 62.66 28.7936 62.6528Z" fill="#FF4F4F"/>
<path d="M25.9846 64.2114C26.1111 64.8192 26.2086 65.4672 26.2777 66.1686H28.8589C28.8171 65.4684 28.7639 64.8234 28.6863 64.218C27.7851 64.2156 26.8851 64.215 25.9846 64.2114Z" fill="#FF4F4F"/>
<path d="M8.28168 63.929C8.4882 64.6496 8.66263 65.3918 8.79647 66.1676C9.6468 66.1694 10.4971 66.1706 11.3505 66.1712C11.1561 65.4212 10.912 64.709 10.6267 64.0238C9.83576 63.9944 9.05569 63.9644 8.28168 63.929Z" fill="#FF4F4F"/>
<path d="M62.0712 48.603C61.7635 48.8352 61.4528 49.065 61.1179 49.2936C61.0834 50.3742 61.0737 51.4812 60.9235 52.5048C61.2977 52.236 61.6411 51.9642 61.9743 51.6822C62.056 50.6706 62.05 49.6278 62.0712 48.603Z" fill="#FF4F4F"/>
<path d="M45.8103 59.8303C44.7159 59.8771 43.627 59.9239 42.5435 59.9581C42.3994 60.3301 42.251 60.6979 42.1111 61.0699C43.1358 61.0459 44.1648 61.0135 45.1974 60.9811C45.3949 60.5971 45.605 60.2161 45.8103 59.8303Z" fill="#FF4F4F"/>
<path d="M62.1191 14.4667C62.4497 14.7427 62.7725 15.0241 63.1129 15.2941C63.0851 14.3569 63.0112 13.4539 62.9131 12.5767C62.5115 12.2989 62.1197 12.0139 61.7157 11.7397C61.8962 12.6115 62.0355 13.5157 62.1191 14.4667Z" fill="#FF4F4F"/>
<path d="M62.2335 35.0354C61.9507 35.0606 61.6703 35.087 61.3735 35.1122C61.3699 36.161 61.3644 37.2104 61.3541 38.261C61.6533 38.1908 61.9368 38.1164 62.2208 38.0456C62.2275 37.0418 62.2305 36.0386 62.2335 35.0354Z" fill="#FF4F4F"/>
<path d="M53.3112 59.4175C52.2096 59.5249 51.0504 59.5651 49.9275 59.6275C49.6453 60.0367 49.3558 60.4375 49.0814 60.8419C50.134 60.7993 51.18 60.7687 52.258 60.7045C52.6057 60.2791 52.963 59.8543 53.3112 59.4175Z" fill="#FF4F4F"/>
<path d="M60.6691 52.9946C60.2276 53.2886 59.7425 53.5796 59.1817 53.8304C58.9358 54.7736 58.6063 55.6418 58.212 56.456C58.8558 56.2262 59.4294 55.9586 59.9581 55.6814C60.2567 54.8372 60.4983 53.9474 60.6691 52.9946Z" fill="#FF4F4F"/>
<path d="M57.7694 56.8489C56.9778 57.1027 56.0875 57.3175 55.0634 57.4789C54.7012 58.0525 54.3075 58.5949 53.9011 59.1211C54.9301 59.0029 55.8525 58.8403 56.6931 58.6441C57.0747 58.0681 57.4405 57.4741 57.7694 56.8489Z" fill="#FF4F4F"/>
<path d="M62.1869 41.7805C61.8968 41.9029 61.6079 42.0271 61.3014 42.1489C61.2827 43.2073 61.256 44.2669 61.23 45.3289C61.5479 45.1591 61.8447 44.9869 62.1415 44.8159C62.1578 43.8025 62.1748 42.7903 62.1869 41.7805Z" fill="#FF4F4F"/>
<path d="M38.9768 8.24284C37.8243 8.21884 36.6748 8.21164 35.5253 8.20264C35.5798 8.94124 35.6294 9.72484 35.6694 10.5942C36.9013 10.6044 38.1338 10.6134 39.3675 10.6404C39.2585 9.76804 39.1246 8.98204 38.9768 8.24284Z" fill="#FF4F4F"/>
<path d="M41.6525 61.3184C40.6405 61.3412 39.6321 61.361 38.6249 61.3754C38.5504 61.7108 38.4765 62.0498 38.4087 62.3972C39.3723 62.3894 40.3365 62.3786 41.3025 62.366C41.4145 62.0096 41.5296 61.6616 41.6525 61.3184Z" fill="#FF4F4F"/>
<path d="M48.5363 61.1006C47.5013 61.142 46.4723 61.1786 45.4475 61.2116C45.261 61.5716 45.0847 61.9358 44.9158 62.309C45.8848 62.2916 46.855 62.2724 47.8283 62.2502C48.053 61.8596 48.2886 61.478 48.5363 61.1006Z" fill="#FF4F4F"/>
<path d="M60.092 10.4905C60.5686 10.7419 61.0107 10.9975 61.4371 11.2711C61.2663 10.5463 61.0634 9.84487 60.8472 9.15907C60.3415 8.92627 59.8213 8.71026 59.2683 8.50146C59.5651 9.14346 59.8479 9.80167 60.092 10.4905Z" fill="#FF4F4F"/>
<path d="M56.8518 7.52113C57.5731 7.69393 58.2387 7.89853 58.8619 8.11453C58.5821 7.55173 58.2908 7.00153 57.9934 6.45733C57.3115 6.30133 56.595 6.15673 55.8319 6.03613C56.1777 6.52333 56.5199 7.01593 56.8518 7.52113Z" fill="#FF4F4F"/>
<path d="M42.5562 6.39975C43.6409 6.43455 44.7317 6.48135 45.8285 6.52815C45.6226 6.14115 45.4106 5.76135 45.2113 5.37615C44.1769 5.34375 43.1467 5.31135 42.1207 5.28735C42.2612 5.65995 42.4102 6.02715 42.5562 6.39975Z" fill="#FF4F4F"/>
<path d="M39.3293 7.99987C40.4794 8.02507 41.6319 8.06047 42.7881 8.10127C42.6161 7.59547 42.4405 7.10827 42.2606 6.63127C41.1729 6.59767 40.0888 6.57067 39.0083 6.54907C39.1203 7.02127 39.2221 7.50247 39.3293 7.99987Z" fill="#FF4F4F"/>
<path d="M49.948 6.7316C51.0727 6.7946 52.2349 6.8348 53.336 6.9434C52.9871 6.506 52.6304 6.0806 52.2815 5.6546C51.2035 5.5904 50.1545 5.5598 49.1001 5.5166C49.3763 5.9216 49.6646 6.3224 49.948 6.7316Z" fill="#FF4F4F"/>
<path d="M61.0471 45.7898C60.671 45.9872 60.264 46.1828 59.7916 46.3598C59.7492 47.495 59.6977 48.6302 59.6426 49.7684C60.138 49.5428 60.5619 49.2902 60.9508 49.037C60.9865 47.9516 61.0192 46.8698 61.0471 45.7898Z" fill="#FF4F4F"/>
<path d="M61.1337 41.8491C61.1524 40.7853 61.1652 39.7233 61.1773 38.6619C60.8175 38.7465 60.4305 38.8197 59.989 38.8971C59.9714 40.0125 59.9527 41.1285 59.9242 42.2463C60.3754 42.1209 60.7691 41.9865 61.1337 41.8491Z" fill="#FF4F4F"/>
<path d="M59.3894 50.2615C58.7395 50.5381 57.9686 50.7673 57.0153 50.9485C56.9311 52.1347 56.816 53.3131 56.5156 54.3325C57.4992 54.1387 58.315 53.8903 59.0133 53.5927C59.2616 52.5685 59.3307 51.4093 59.3894 50.2615Z" fill="#FF4F4F"/>
<path d="M61.2057 31.5949C60.8496 31.5691 60.4674 31.5469 60.032 31.5229C60.0368 32.6269 60.035 33.7303 60.0295 34.8349C60.465 34.8109 60.8478 34.7887 61.2039 34.7629C61.2081 33.7064 61.2087 32.6509 61.2057 31.5949Z" fill="#FF4F4F"/>
<path d="M56.0384 54.738C54.95 54.9246 53.6104 55.0014 52.3385 55.0944C52.0484 55.9992 51.6681 56.8086 51.2411 57.5634C52.4584 57.4812 53.7448 57.4236 54.8495 57.2634C55.3225 56.4924 55.7301 55.6614 56.0384 54.738Z" fill="#FF4F4F"/>
<path d="M39.6672 31.0724C40.9972 31.0616 42.3811 31.046 43.7856 31.0376C43.8195 29.834 43.8492 28.6034 43.871 27.3572C42.4841 27.3614 41.1117 27.3878 39.7829 27.3992C39.7472 28.652 39.7114 29.8802 39.6672 31.0724Z" fill="#FF4F4F"/>
<path d="M60.9332 13.8608C61.0828 14.8826 61.0913 15.9896 61.1258 17.0702C61.4589 17.2976 61.7684 17.5268 62.0749 17.7584C62.0537 16.733 62.0597 15.6908 61.9786 14.681C61.6473 14.3996 61.3057 14.1284 60.9332 13.8608Z" fill="#FF4F4F"/>
<path d="M50.6609 57.8594C49.4672 57.9368 48.2814 58.0052 47.0998 58.0658C46.8521 58.586 46.5971 59.084 46.3342 59.5718C47.4444 59.5232 48.5618 59.468 49.6871 59.4062C50.022 58.907 50.349 58.3958 50.6609 57.8594Z" fill="#FF4F4F"/>
<path d="M35.624 23.2088C35.601 24.5096 35.5737 25.802 35.5489 27.0632C36.768 27.0434 38.0466 27.0332 39.3669 27.0212C39.4026 25.7624 39.4474 24.4778 39.4765 23.1878C38.1598 23.1872 36.871 23.1968 35.624 23.2088Z" fill="#FF4F4F"/>
<path d="M39.3578 55.718C38.1265 55.745 36.8964 55.754 35.6658 55.7636C35.6258 56.6324 35.5767 57.416 35.5222 58.1558C36.6705 58.1468 37.8188 58.1402 38.9689 58.1162C39.1161 57.3752 39.2487 56.5892 39.3578 55.718Z" fill="#FF4F4F"/>
<path d="M35.455 34.8907C36.6373 34.9027 37.9031 34.9111 39.2252 34.9207C39.1816 33.7375 39.1846 32.6197 39.2282 31.4377C37.9055 31.4467 36.6391 31.4557 35.4557 31.4677C35.4278 32.6347 35.4272 33.7213 35.455 34.8907Z" fill="#FF4F4F"/>
<path d="M55.093 8.88363C56.1135 9.04623 57.002 9.26103 57.7917 9.51603C57.4623 8.88903 57.0952 8.29563 56.7137 7.71903C55.8743 7.52223 54.9537 7.35963 53.9259 7.24023C54.3335 7.76643 54.7296 8.30883 55.093 8.88363Z" fill="#FF4F4F"/>
<path d="M42.7748 58.2571C41.6205 58.2979 40.4698 58.3327 39.3221 58.3585C39.2143 58.8571 39.1113 59.3359 38.9993 59.8093C40.0791 59.7883 41.1614 59.7607 42.2491 59.7277C42.4296 59.2495 42.6034 58.7629 42.7748 58.2571Z" fill="#FF4F4F"/>
<path d="M58.2345 9.90918C58.627 10.7228 58.9552 11.5922 59.1999 12.5354C59.7577 12.7862 60.2392 13.0766 60.6789 13.37C60.5087 12.4166 60.2664 11.5262 59.9679 10.6814C59.4434 10.4054 58.8728 10.1384 58.2345 9.90918Z" fill="#FF4F4F"/>
<path d="M15.848 62.4194C16.1683 62.8868 16.4651 63.3656 16.7201 63.8714C17.6286 63.8804 18.537 63.8846 19.4455 63.8918C19.2426 63.4046 19.0058 62.9426 18.752 62.492C17.786 62.4692 16.8188 62.447 15.848 62.4194Z" fill="#FF4F4F"/>
<path d="M47.1197 8.29324C48.3038 8.35444 49.4914 8.42284 50.6876 8.50084C50.3751 7.96384 50.045 7.45204 49.7089 6.95404C48.5818 6.89224 47.4632 6.83704 46.3506 6.78784C46.6134 7.27444 46.8708 7.77304 47.1197 8.29324Z" fill="#FF4F4F"/>
<path d="M2.29791 13.2589C2.80544 12.9799 3.26876 12.6865 3.71875 12.3889C3.80354 11.6089 3.90771 10.8475 4.02581 10.0969C3.50859 10.3501 2.98168 10.6033 2.41844 10.8457C2.36998 11.6419 2.32577 12.4435 2.29791 13.2589Z" fill="#FF4F4F"/>
<path d="M55.2923 60.6331C54.4123 60.7561 53.4705 60.8563 52.4524 60.9223C52.1236 61.3303 51.8044 61.7407 51.5004 62.1583C52.4912 62.1313 53.4233 62.0791 54.3093 62.0125C54.6285 61.5499 54.9592 61.0921 55.2923 60.6331Z" fill="#FF4F4F"/>
<path d="M2.24884 19.3237C2.70428 19.1215 3.10219 18.8983 3.46982 18.6649C3.48072 17.7133 3.48799 16.7797 3.5001 15.8059C3.12399 16.0975 2.72064 16.3735 2.2555 16.6237C2.25126 17.5231 2.25308 18.4237 2.24884 19.3237Z" fill="#FF4F4F"/>
<path d="M4.31348 9.66606C4.81071 9.43026 5.3031 9.19086 5.80881 8.96346C6.00443 8.32626 6.21096 7.69986 6.42535 7.07886C5.84515 7.24806 5.27584 7.42746 4.70169 7.60326C4.56482 8.28546 4.43703 8.97126 4.31348 9.66606Z" fill="#FF4F4F"/>
<path d="M18.2463 5.25856C19.2831 5.21656 20.3133 5.17996 21.3399 5.14696C21.527 4.78696 21.7051 4.42216 21.8747 4.04956C20.905 4.06756 19.9336 4.08676 18.9591 4.10836C18.7338 4.49896 18.4958 4.88056 18.2463 5.25856Z" fill="#FF4F4F"/>
<path d="M6.80206 6.7052C7.4071 6.5408 8.02243 6.3908 8.66684 6.2456C8.95028 5.711 9.23735 5.1806 9.51595 4.646C8.81219 4.7336 8.12963 4.826 7.45555 4.9268C7.24055 5.5208 7.01888 6.1112 6.80206 6.7052Z" fill="#FF4F4F"/>
<path d="M11.4897 5.7272C12.3679 5.6036 13.3091 5.5034 14.326 5.4368C14.656 5.0276 14.9776 4.6178 15.2829 4.2002C14.2933 4.2278 13.3624 4.27939 12.4769 4.3466C12.1566 4.8098 11.8241 5.2676 11.4897 5.7272Z" fill="#FF4F4F"/>
<path d="M9.52501 61.7145C9.24702 61.1799 8.96116 60.6501 8.67832 60.1161C8.0315 59.9703 7.41374 59.8203 6.8075 59.6553C7.02492 60.2487 7.24598 60.8391 7.45916 61.4337C8.13506 61.5339 8.81883 61.6263 9.52501 61.7145Z" fill="#FF4F4F"/>
<path d="M6.43081 59.2808C6.21702 58.6592 6.00989 58.034 5.81426 57.3968C5.30734 57.1694 4.81314 56.9288 4.31409 56.6924C4.43703 57.3872 4.56482 58.073 4.7017 58.7546C5.27767 58.931 5.84879 59.111 6.43081 59.2808Z" fill="#FF4F4F"/>
<path d="M9.98047 62.0281C10.2791 62.5915 10.5667 63.1597 10.8284 63.7465C11.6302 63.7795 12.4479 63.8077 13.2873 63.8275C12.9948 63.2851 12.6671 62.7637 12.3267 62.2495C11.5134 62.1883 10.7351 62.1127 9.98047 62.0281Z" fill="#FF4F4F"/>
<path d="M4.02581 56.2609C3.90771 55.5109 3.80354 54.7489 3.71875 53.9689C3.26936 53.6713 2.80484 53.3773 2.29791 53.0989C2.32577 53.9149 2.36998 54.7165 2.41904 55.5127C2.98168 55.7545 3.50859 56.0077 4.02581 56.2609Z" fill="#FF4F4F"/>
<path d="M2.21674 31.4959C2.65098 31.4737 3.03193 31.4503 3.38381 31.4245C3.38563 30.4831 3.39047 29.5411 3.39411 28.5991C3.04162 28.6711 2.65946 28.7377 2.224 28.8013C2.22279 29.6995 2.21674 30.5971 2.21674 31.4959Z" fill="#FF4F4F"/>
<path d="M2.224 37.5577C2.65946 37.6207 3.04162 37.6879 3.39411 37.7599C3.39047 36.8179 3.38563 35.8759 3.38381 34.9339C3.03193 34.9081 2.65098 34.8847 2.21674 34.8625C2.21674 35.7613 2.22279 36.6589 2.224 37.5577Z" fill="#FF4F4F"/>
<path d="M3.50071 50.5525C3.4886 49.5787 3.48133 48.6451 3.47043 47.6935C3.10219 47.4601 2.70489 47.2369 2.24945 47.0347C2.25308 47.9341 2.25187 48.8353 2.25672 49.7347C2.72125 49.9849 3.1246 50.2609 3.50071 50.5525Z" fill="#FF4F4F"/>
<path d="M3.43287 44.1421C3.42439 43.1935 3.41228 42.2455 3.40622 41.2981C3.05252 41.1745 2.66915 41.0545 2.23248 40.9465C2.23491 41.8471 2.23672 42.7477 2.23975 43.6489C2.68369 43.8013 3.07312 43.9687 3.43287 44.1421Z" fill="#FF4F4F"/>
<path d="M2.23248 25.4107C2.66915 25.3027 3.05192 25.1833 3.40622 25.0591C3.41228 24.1117 3.42439 23.1637 3.43287 22.2151C3.07251 22.3891 2.68369 22.5565 2.24036 22.7083C2.23672 23.6095 2.23491 24.5101 2.23248 25.4107Z" fill="#FF4F4F"/>
<path d="M63.2279 38.1458C62.93 38.2118 62.6526 38.2868 62.3788 38.3564C62.3715 39.3554 62.3631 40.3556 62.3516 41.357C62.6314 41.2424 62.9148 41.1296 63.2182 41.021C63.2243 40.0622 63.2243 39.104 63.2279 38.1458Z" fill="#FF4F4F"/>
<path d="M62.775 10.0969C62.8931 10.8433 62.9967 11.6011 63.0809 12.3763C63.5315 12.6751 63.9954 12.9697 64.5029 13.2499C64.4751 12.4369 64.4309 11.6389 64.3824 10.8457C63.8198 10.6039 63.2922 10.3507 62.775 10.0969Z" fill="#FF4F4F"/>
<path d="M63.1578 47.4656C63.1687 46.505 63.1784 45.5444 63.1875 44.585C62.8768 44.7446 62.5867 44.9108 62.2984 45.0788C62.2814 46.0886 62.2627 47.1008 62.2421 48.1154C62.5394 47.894 62.838 47.6756 63.1578 47.4656Z" fill="#FF4F4F"/>
<path d="M63.2401 31.7533C62.944 31.7329 62.6684 31.7095 62.3965 31.6885C62.3983 32.6821 62.3983 33.6751 62.3959 34.6693C62.6678 34.6477 62.944 34.6249 63.2401 34.6045C63.2414 33.6541 63.2414 32.7037 63.2401 31.7533Z" fill="#FF4F4F"/>
<path d="M60.376 7.07959C60.5904 7.70119 60.7969 8.32699 60.9925 8.96419C61.4976 9.19099 61.99 9.43099 62.4879 9.66619C62.3649 8.97139 62.2371 8.28559 62.1002 7.60399C61.5255 7.42819 60.9562 7.24879 60.376 7.07959Z" fill="#FF4F4F"/>
<path d="M58.8504 58.2476C58.2248 58.4642 57.5561 58.6682 56.8318 58.8416C56.5005 59.3462 56.1571 59.8376 55.8125 60.3254C56.5786 60.2042 57.2975 60.0596 57.9819 59.9036C58.2787 59.3594 58.5712 58.8104 58.8504 58.2476Z" fill="#FF4F4F"/>
<path d="M63.1129 51.0637C62.7707 51.3349 62.4461 51.6175 62.1148 51.8947C62.0306 52.8451 61.8925 53.7493 61.7114 54.6211C62.1172 54.3457 62.5103 54.0601 62.9136 53.7811C63.0111 52.9039 63.085 52.0003 63.1129 51.0637Z" fill="#FF4F4F"/>
<path d="M61.4328 55.0898C61.004 55.3646 60.5595 55.6214 60.0804 55.874C59.8357 56.5616 59.5541 57.2198 59.2567 57.8612C59.8121 57.6512 60.3342 57.4346 60.8423 57.2018C61.0585 56.516 61.262 55.814 61.4328 55.0898Z" fill="#FF4F4F"/>
<path d="M44.926 4.04956C45.0962 4.42216 45.2743 4.78696 45.4614 5.14696C46.4874 5.18056 47.5182 5.21716 48.5544 5.25856C48.3049 4.88056 48.0669 4.49836 47.8416 4.10836C46.8671 4.08676 45.8957 4.06756 44.926 4.04956Z" fill="#FF4F4F"/>
<path d="M35.283 5.19434C35.3115 5.55374 35.3436 5.90774 35.3733 6.26594C36.4362 6.27374 37.4991 6.27974 38.5656 6.29894C38.4838 5.93714 38.3954 5.57954 38.3167 5.21714C37.3041 5.20394 36.2932 5.19974 35.283 5.19434Z" fill="#FF4F4F"/>
<path d="M38.413 3.96143C38.4814 4.30943 38.5559 4.64783 38.631 4.98323C39.6388 4.99763 40.6484 5.01743 41.6616 5.04023C41.5387 4.69643 41.4218 4.34783 41.3098 3.99203C40.3431 3.98003 39.3778 3.96923 38.413 3.96143Z" fill="#FF4F4F"/>
<path d="M28.2352 6.29967C29.3017 6.28047 30.3646 6.27387 31.4281 6.26667C31.4578 5.90847 31.4893 5.55447 31.5184 5.19507C30.5075 5.20047 29.4967 5.20467 28.4841 5.21787C28.4054 5.58027 28.3169 5.93727 28.2352 6.29967Z" fill="#FF4F4F"/>
<path d="M57.2854 4.64526C57.564 5.17986 57.8511 5.71026 58.1345 6.24546C58.7789 6.39066 59.3942 6.54066 59.9993 6.70506C59.7819 6.11106 59.5608 5.52066 59.3458 4.92606C58.6723 4.82526 57.9898 4.73286 57.2854 4.64526Z" fill="#FF4F4F"/>
<path d="M51.5178 4.2002C51.8231 4.6178 52.1447 5.0282 52.4753 5.4374C53.4922 5.504 54.4328 5.6042 55.311 5.7278C54.976 5.2676 54.6442 4.8104 54.3232 4.3466C53.4389 4.27939 52.5074 4.2272 51.5178 4.2002Z" fill="#FF4F4F"/>
<path d="M25.1397 5.04023C26.1523 5.01743 27.162 4.99763 28.1691 4.98323C28.2442 4.64783 28.3193 4.30943 28.3872 3.96143C27.4224 3.96923 26.457 3.98003 25.4904 3.99263C25.3795 4.34783 25.2627 4.69643 25.1397 5.04023Z" fill="#FF4F4F"/>
</svg>
