<?xml version="1.0" encoding="UTF-8"?>
<svg xmlns="http://www.w3.org/2000/svg" xmlns:xlink="http://www.w3.org/1999/xlink" viewBox="0 0 1920 1080">
  <defs>
    <style>
      .cls-1 {
        fill: #494949;
      }

      .cls-2 {
        fill: #fff;
      }

      .cls-3 {
        fill: #9b9b9b;
      }
    </style>
    <symbol id="Circle_star_3px" data-name="Circle star 3px" viewBox="0 0 3 3">
      <circle class="cls-2" cx="1.5" cy="1.5" r="1.5"/>
    </symbol>
    <symbol id="Circle_star_grey" data-name="Circle star grey" viewBox="0 0 1 1">
      <circle class="cls-3" cx=".5" cy=".5" r=".5"/>
    </symbol>
    <symbol id="Circle_star_mooore_grey" data-name="Circle star mooore grey" viewBox="0 0 1 1">
      <circle class="cls-1" cx=".5" cy=".5" r=".5"/>
    </symbol>
    <symbol id="Star_1px" data-name="Star 1px" viewBox="0 0 1.65 1.65">
      <path class="cls-2" d="M1.65.825c-.65.097-.728.175-.825.825-.097-.65-.175-.728-.825-.825.65-.097.728-.175.825-.825.097.65.175.728.825.825Z"/>
    </symbol>
  </defs>
  <g id="Livello_1" data-name="Livello 1">
    <g>
      <rect x="0" y="0" width="1920" height="1080"/>
      <path d="M1919,1v1078H1V1h1918M1920,0H0v1080h1920V0h0Z"/>
    </g>
  </g>
  <g id="Livello_3" data-name="Livello 3">
    <g>
      <use width="3" height="3" transform="translate(865.916 402.864)" xlink:href="#Circle_star_3px"/>
      <use width="3" height="3" transform="translate(946.563 693.546)" xlink:href="#Circle_star_3px"/>
      <use width="3" height="3" transform="translate(1038.663 803.021)" xlink:href="#Circle_star_3px"/>
      <use width="3" height="3" transform="translate(1063.85 826.982)" xlink:href="#Circle_star_3px"/>
      <use width="3" height="3" transform="translate(1132.794 891.047)" xlink:href="#Circle_star_3px"/>
      <use width="3" height="3" transform="translate(1275.779 943.862)" xlink:href="#Circle_star_3px"/>
      <use width="3" height="3" transform="translate(1612.997 283.628)" xlink:href="#Circle_star_3px"/>
      <use width="3" height="3" transform="translate(1014.481 71.743)" xlink:href="#Circle_star_3px"/>
      <use width="3" height="3" transform="translate(398.789 316.816)" xlink:href="#Circle_star_3px"/>
      <use width="3" height="3" transform="translate(148.779 592.668)" xlink:href="#Circle_star_3px"/>
      <use width="3" height="3" transform="translate(243.67 744.265)" xlink:href="#Circle_star_3px"/>
      <use width="3" height="3" transform="translate(1486.117 24.974)" xlink:href="#Circle_star_3px"/>
      <use width="3" height="3" transform="translate(1842.017 789.745)" xlink:href="#Circle_star_3px"/>
      <use width="3" height="3" transform="translate(1187.161 785.878)" xlink:href="#Circle_star_3px"/>
    </g>
    <use width="1" height="1" transform="translate(753 179)" xlink:href="#Circle_star_grey"/>
  </g>
  <g id="Livello_4" data-name="Livello 4">
    <g>
      <use width="1" height="1" transform="translate(188.752 143.912)" xlink:href="#Circle_star_grey"/>
      <use width="1" height="1" transform="translate(143.336 238.327)" xlink:href="#Circle_star_grey"/>
      <use width="1" height="1" transform="translate(185.174 342.047)" xlink:href="#Circle_star_grey"/>
      <use width="1" height="1" transform="translate(228.798 412.929)" xlink:href="#Circle_star_grey"/>
      <use width="1" height="1" transform="translate(366.747 569.091)" xlink:href="#Circle_star_grey"/>
      <use width="1" height="1" transform="translate(628.205 808.865)" xlink:href="#Circle_star_grey"/>
      <use width="1" height="1" transform="translate(738.919 879.756)" xlink:href="#Circle_star_grey"/>
      <use width="1" height="1" transform="translate(822.538 887.099)" xlink:href="#Circle_star_grey"/>
      <use width="1" height="1" transform="translate(911.668 839.907)" xlink:href="#Circle_star_grey"/>
      <use width="1" height="1" transform="translate(1067.668 540.044)" xlink:href="#Circle_star_grey"/>
      <use width="1" height="1" transform="translate(1327.36 331.059)" xlink:href="#Circle_star_grey"/>
      <use width="1" height="1" transform="translate(1465.376 222.009)" xlink:href="#Circle_star_grey"/>
      <use width="1" height="1" transform="translate(1659.574 149.432)" xlink:href="#Circle_star_grey"/>
      <use width="1" height="1" transform="translate(1812.102 173.081)" xlink:href="#Circle_star_grey"/>
      <use width="1" height="1" transform="translate(1862.978 285.739)" xlink:href="#Circle_star_grey"/>
      <use width="1" height="1" transform="translate(1823.059 556.336)" xlink:href="#Circle_star_grey"/>
      <use width="1" height="1" transform="translate(1748.59 779.683)" xlink:href="#Circle_star_grey"/>
      <use width="1" height="1" transform="translate(1695.895 906.826)" xlink:href="#Circle_star_grey"/>
      <use width="1" height="1" transform="translate(1614.128 1017.611)" xlink:href="#Circle_star_grey"/>
      <use width="1" height="1" transform="translate(1537.965 783.39)" xlink:href="#Circle_star_grey"/>
      <use width="1" height="1" transform="translate(1358.24 501.924)" xlink:href="#Circle_star_grey"/>
      <use width="1" height="1" transform="translate(1140.451 358.366)" xlink:href="#Circle_star_grey"/>
      <use width="1" height="1" transform="translate(866.229 212.866)" xlink:href="#Circle_star_grey"/>
      <use width="1" height="1" transform="translate(713.72 149.299)" xlink:href="#Circle_star_grey"/>
      <use width="1" height="1" transform="translate(642.84 163.844)" xlink:href="#Circle_star_grey"/>
      <use width="1" height="1" transform="translate(575.727 245.739)" xlink:href="#Circle_star_grey"/>
      <use width="1" height="1" transform="translate(546.593 438.456)" xlink:href="#Circle_star_grey"/>
      <use width="1" height="1" transform="translate(388.572 757.983)" xlink:href="#Circle_star_grey"/>
      <use width="1" height="1" transform="translate(276.063 877.812)" xlink:href="#Circle_star_grey"/>
      <use width="1" height="1" transform="translate(181.7 959.48)" xlink:href="#Circle_star_grey"/>
      <use width="1" height="1" transform="translate(145.191 979.541)" xlink:href="#Circle_star_grey"/>
      <use width="1" height="1" transform="translate(539.261 721.667)" xlink:href="#Circle_star_grey"/>
      <use width="1" height="1" transform="translate(544.734 581.826)" xlink:href="#Circle_star_grey"/>
      <use width="1" height="1" transform="translate(544.757 365.589)" xlink:href="#Circle_star_grey"/>
      <use width="1" height="1" transform="translate(519.243 227.787)" xlink:href="#Circle_star_grey"/>
      <use width="1" height="1" transform="translate(472.062 156.59)" xlink:href="#Circle_star_grey"/>
      <use width="1" height="1" transform="translate(419.395 112.987)" xlink:href="#Circle_star_grey"/>
      <use width="1" height="1" transform="translate(308.654 85.785)" xlink:href="#Circle_star_grey"/>
      <use width="1" height="1" transform="translate(877.039 398.359)" xlink:href="#Circle_star_grey"/>
      <use width="1" height="1" transform="translate(978.83 691.348)" xlink:href="#Circle_star_grey"/>
      <use width="1" height="1" transform="translate(978.847 695.547)" xlink:href="#Circle_star_grey"/>
      <use width="1" height="1" transform="translate(895.481 741.448)" xlink:href="#Circle_star_grey"/>
      <use width="1" height="1" transform="translate(873.452 750.53)" xlink:href="#Circle_star_grey"/>
      <use width="1" height="1" transform="translate(856.815 761.515)" xlink:href="#Circle_star_grey"/>
      <use width="1" height="1" transform="translate(849.497 778.315)" xlink:href="#Circle_star_grey"/>
      <use width="1" height="1" transform="translate(1677.851 390.969)" xlink:href="#Circle_star_grey"/>
      <use width="1" height="1" transform="translate(1567.01 338.315)" xlink:href="#Circle_star_grey"/>
      <use width="1" height="1" transform="translate(1380.021 256.516)" xlink:href="#Circle_star_grey"/>
      <use width="1" height="1" transform="translate(1231.182 231.023)" xlink:href="#Circle_star_grey"/>
      <use width="1" height="1" transform="translate(1160.349 249.163)" xlink:href="#Circle_star_grey"/>
      <use width="1" height="1" transform="translate(1112.986 263.69)" xlink:href="#Circle_star_grey"/>
      <use width="1" height="1" transform="translate(1082.051 314.66)" xlink:href="#Circle_star_grey"/>
      <use width="1" height="1" transform="translate(1154.878 481.942)" xlink:href="#Circle_star_grey"/>
      <use width="1" height="1" transform="translate(1274.667 641.773)" xlink:href="#Circle_star_grey"/>
      <use width="1" height="1" transform="translate(1381.746 737.987)" xlink:href="#Circle_star_grey"/>
      <use width="1" height="1" transform="translate(1430.792 799.806)" xlink:href="#Circle_star_grey"/>
      <use width="1" height="1" transform="translate(1567.021 634.448)" xlink:href="#Circle_star_grey"/>
      <use width="1" height="1" transform="translate(1614.139 478.313)" xlink:href="#Circle_star_grey"/>
      <use width="1" height="1" transform="translate(1654.274 458.268)" xlink:href="#Circle_star_grey"/>
      <use width="1" height="1" transform="translate(1350.987 416.492)" xlink:href="#Circle_star_grey"/>
      <use width="1" height="1" transform="translate(1100.244 369.349)" xlink:href="#Circle_star_grey"/>
      <use width="1" height="1" transform="translate(798.859 274.686)" xlink:href="#Circle_star_grey"/>
      <use width="1" height="1" transform="translate(519.283 209.087)" xlink:href="#Circle_star_grey"/>
      <use width="1" height="1" transform="translate(256.035 200.318)" xlink:href="#Circle_star_grey"/>
      <use width="1" height="1" transform="translate(137.844 273.082)" xlink:href="#Circle_star_grey"/>
      <use width="1" height="1" transform="translate(96.101 414.695)" xlink:href="#Circle_star_grey"/>
      <use width="1" height="1" transform="translate(96.155 534.552)" xlink:href="#Circle_star_grey"/>
      <use width="1" height="1" transform="translate(112.536 657.976)" xlink:href="#Circle_star_grey"/>
      <use width="1" height="1" transform="translate(112.544 732.397)" xlink:href="#Circle_star_grey"/>
      <use width="1" height="1" transform="translate(112.546 763.55)" xlink:href="#Circle_star_grey"/>
      <use width="1" height="1" transform="translate(510.068 402.019)" xlink:href="#Circle_star_grey"/>
      <use width="1" height="1" transform="translate(659.214 354.767)" xlink:href="#Circle_star_grey"/>
      <use width="1" height="1" transform="translate(826.326 293.017)" xlink:href="#Circle_star_grey"/>
    </g>
  </g>
  <g id="Livello_5" data-name="Livello 5">
    <g>
      <use width="1.65" height="1.65" transform="translate(159.246 79.994)" xlink:href="#Star_1px"/>
      <use width="1.65" height="1.65" transform="translate(203.071 94.554)" xlink:href="#Star_1px"/>
      <use width="1.65" height="1.65" transform="translate(255.775 127.225)" xlink:href="#Star_1px"/>
      <use width="1.65" height="1.65" transform="translate(292.167 170.879)" xlink:href="#Star_1px"/>
      <use width="1.65" height="1.65" transform="translate(304.822 229.121)" xlink:href="#Star_1px"/>
      <use width="1.65" height="1.65" transform="translate(293.782 305.436)" xlink:href="#Star_1px"/>
      <use width="1.65" height="1.65" transform="translate(297.363 403.502)" xlink:href="#Star_1px"/>
      <use width="1.65" height="1.65" transform="translate(337.269 559.581)" xlink:href="#Star_1px"/>
      <use width="1.65" height="1.65" transform="translate(360.889 670.365)" xlink:href="#Star_1px"/>
      <use width="1.65" height="1.65" transform="translate(384.369 772.007)" xlink:href="#Star_1px"/>
      <use width="1.65" height="1.65" transform="translate(415.405 814.368)" xlink:href="#Star_1px"/>
      <use width="1.65" height="1.65" transform="translate(426.745 795.551)" xlink:href="#Star_1px"/>
      <use width="1.65" height="1.65" transform="translate(522.538 539.657)" xlink:href="#Star_1px"/>
      <use width="1.65" height="1.65" transform="translate(620.441 456.184)" xlink:href="#Star_1px"/>
      <use width="1.65" height="1.65" transform="translate(644.366 435.882)" xlink:href="#Star_1px"/>
      <use width="1.65" height="1.65" transform="translate(693.575 425.058)" xlink:href="#Star_1px"/>
      <use width="1.65" height="1.65" transform="translate(985.537 277.823)" xlink:href="#Star_1px"/>
      <use width="1.65" height="1.65" transform="translate(647.954 266.97)" xlink:href="#Star_1px"/>
      <use width="1.65" height="1.65" transform="translate(213.888 957.426)" xlink:href="#Star_1px"/>
      <use width="1.65" height="1.65" transform="translate(524.582 990.202)" xlink:href="#Star_1px"/>
      <use width="1.65" height="1.65" transform="translate(1227.181 570.504)" xlink:href="#Star_1px"/>
      <use width="1.65" height="1.65" transform="translate(820.552 601.508)" xlink:href="#Star_1px"/>
      <use width="1.65" height="1.65" transform="translate(833.245 436.06)" xlink:href="#Star_1px"/>
      <use width="1.65" height="1.65" transform="translate(1483.247 543.316)" xlink:href="#Star_1px"/>
      <use width="1.65" height="1.65" transform="translate(1417.797 292.543)" xlink:href="#Star_1px"/>
      <use width="1.65" height="1.65" transform="translate(1183.567 301.553)" xlink:href="#Star_1px"/>
      <use width="1.65" height="1.65" transform="translate(1318.17 630.55)" xlink:href="#Star_1px"/>
      <use width="1.65" height="1.65" transform="translate(1274.283 647.077)" xlink:href="#Star_1px"/>
      <use width="1.65" height="1.65" transform="translate(1163.43 599.777)" xlink:href="#Star_1px"/>
      <use width="1.65" height="1.65" transform="translate(1121.697 519.632)" xlink:href="#Star_1px"/>
      <use width="1.65" height="1.65" transform="translate(1523.184 394.332)" xlink:href="#Star_1px"/>
      <use width="1.65" height="1.65" transform="translate(1673.735 170.959)" xlink:href="#Star_1px"/>
      <use width="1.65" height="1.65" transform="translate(1397.764 78.245)" xlink:href="#Star_1px"/>
      <use width="1.65" height="1.65" transform="translate(1751.838 49.25)" xlink:href="#Star_1px"/>
      <use width="1.65" height="1.65" transform="translate(1804.548 241.818)" xlink:href="#Star_1px"/>
      <use width="1.65" height="1.65" transform="translate(1617.549 723.068)" xlink:href="#Star_1px"/>
      <use width="1.65" height="1.65" transform="translate(1750.089 881.026)" xlink:href="#Star_1px"/>
      <use width="1.65" height="1.65" transform="translate(1642.886 997.333)" xlink:href="#Star_1px"/>
      <use width="1.65" height="1.65" transform="translate(1523 913.792)" xlink:href="#Star_1px"/>
      <use width="1.65" height="1.65" transform="translate(727.916 710.564)" xlink:href="#Star_1px"/>
      <use width="1.65" height="1.65" transform="translate(631.635 587.006)" xlink:href="#Star_1px"/>
      <use width="1.65" height="1.65" transform="translate(397.326 923.068)" xlink:href="#Star_1px"/>
      <use width="1.65" height="1.65" transform="translate(93.986 890.119)" xlink:href="#Star_1px"/>
      <use width="1.65" height="1.65" transform="translate(46.723 109.247)" xlink:href="#Star_1px"/>
      <use width="1.65" height="1.65" transform="translate(1853.583 365.384)" xlink:href="#Star_1px"/>
      <use width="1.65" height="1.65" transform="translate(1258.056 417.871)" xlink:href="#Star_1px"/>
      <use width="1.65" height="1.65" transform="translate(1014.78 314.428)" xlink:href="#Star_1px"/>
    </g>
    <g>
      <use width="1.65" height="1.65" transform="translate(925.76 987.913)" xlink:href="#Star_1px"/>
      <use width="1.65" height="1.65" transform="translate(616.064 914.085)" xlink:href="#Star_1px"/>
      <use width="1.65" height="1.65" transform="translate(532.302 662.786)" xlink:href="#Star_1px"/>
      <use width="1.65" height="1.65" transform="translate(1053.56 155.917)" xlink:href="#Star_1px"/>
      <use width="1.65" height="1.65" transform="translate(865.064 97.477)" xlink:href="#Star_1px"/>
      <use width="1.65" height="1.65" transform="translate(1311.425 54.501)" xlink:href="#Star_1px"/>
      <use width="1.65" height="1.65" transform="translate(1584.738 101.9)" xlink:href="#Star_1px"/>
      <use width="1.65" height="1.65" transform="translate(1788.588 433.626)" xlink:href="#Star_1px"/>
    </g>
  </g>
  <g id="Livello_6" data-name="Livello 6">
    <g>
      <use width="1" height="1" transform="translate(981.024 124.577)" xlink:href="#Circle_star_mooore_grey"/>
      <use width="1" height="1" transform="translate(452.888 65.499)" xlink:href="#Circle_star_mooore_grey"/>
      <use width="1" height="1" transform="translate(284.019 137.565)" xlink:href="#Circle_star_mooore_grey"/>
      <use width="1" height="1" transform="translate(246.449 226.835)" xlink:href="#Circle_star_mooore_grey"/>
      <use width="1" height="1" transform="translate(238.627 400.51)" xlink:href="#Circle_star_mooore_grey"/>
      <use width="1" height="1" transform="translate(458.967 497.519)" xlink:href="#Circle_star_mooore_grey"/>
      <use width="1" height="1" transform="translate(678.381 567.965)" xlink:href="#Circle_star_mooore_grey"/>
      <use width="1" height="1" transform="translate(625.12 802.714)" xlink:href="#Circle_star_mooore_grey"/>
      <use width="1" height="1" transform="translate(683.014 884.072)" xlink:href="#Circle_star_mooore_grey"/>
      <use width="1" height="1" transform="translate(978.694 622.692)" xlink:href="#Circle_star_mooore_grey"/>
      <use width="1" height="1" transform="translate(1094.543 306.494)" xlink:href="#Circle_star_mooore_grey"/>
      <use width="1" height="1" transform="translate(1365.19 334.636)" xlink:href="#Circle_star_mooore_grey"/>
      <use width="1" height="1" transform="translate(1266.569 680.495)" xlink:href="#Circle_star_mooore_grey"/>
      <use width="1" height="1" transform="translate(1455.967 768.192)" xlink:href="#Circle_star_mooore_grey"/>
      <use width="1" height="1" transform="translate(1668.66 671.222)" xlink:href="#Circle_star_mooore_grey"/>
      <use width="1" height="1" transform="translate(1637.351 287.709)" xlink:href="#Circle_star_mooore_grey"/>
      <use width="1" height="1" transform="translate(1199.382 107.708)" xlink:href="#Circle_star_mooore_grey"/>
      <use width="1" height="1" transform="translate(1272.776 395.763)" xlink:href="#Circle_star_mooore_grey"/>
      <use width="1" height="1" transform="translate(978.694 715.072)" xlink:href="#Circle_star_mooore_grey"/>
      <use width="1" height="1" transform="translate(908.311 384.877)" xlink:href="#Circle_star_mooore_grey"/>
      <use width="1" height="1" transform="translate(474.82 172.07)" xlink:href="#Circle_star_mooore_grey"/>
      <use width="1" height="1" transform="translate(611.011 377.036)" xlink:href="#Circle_star_mooore_grey"/>
      <use width="1" height="1" transform="translate(603.211 729.101)" xlink:href="#Circle_star_mooore_grey"/>
      <use width="1" height="1" transform="translate(305.847 777.582)" xlink:href="#Circle_star_mooore_grey"/>
      <use width="1" height="1" transform="translate(248.059 907.472)" xlink:href="#Circle_star_mooore_grey"/>
      <use width="1" height="1" transform="translate(277.866 998.284)" xlink:href="#Circle_star_mooore_grey"/>
      <use width="1" height="1" transform="translate(72.895 683.67)" xlink:href="#Circle_star_mooore_grey"/>
      <use width="1" height="1" transform="translate(470.146 326.927)" xlink:href="#Circle_star_mooore_grey"/>
      <use width="1" height="1" transform="translate(847.257 735.383)" xlink:href="#Circle_star_mooore_grey"/>
      <use width="1" height="1" transform="translate(869 913.686)" xlink:href="#Circle_star_mooore_grey"/>
      <use width="1" height="1" transform="translate(1106.878 974.909)" xlink:href="#Circle_star_mooore_grey"/>
      <use width="1" height="1" transform="translate(1241.425 998.521)" xlink:href="#Circle_star_mooore_grey"/>
      <use width="1" height="1" transform="translate(1424.67 912.33)" xlink:href="#Circle_star_mooore_grey"/>
      <use width="1" height="1" transform="translate(1357.285 725.883)" xlink:href="#Circle_star_mooore_grey"/>
      <use width="1" height="1" transform="translate(1512.284 932.667)" xlink:href="#Circle_star_mooore_grey"/>
      <use width="1" height="1" transform="translate(1740.722 877.807)" xlink:href="#Circle_star_mooore_grey"/>
      <use width="1" height="1" transform="translate(1696.917 631.968)" xlink:href="#Circle_star_mooore_grey"/>
      <use width="1" height="1" transform="translate(1554.451 498.976)" xlink:href="#Circle_star_mooore_grey"/>
      <use width="1" height="1" transform="translate(1668.653 455.167)" xlink:href="#Circle_star_mooore_grey"/>
      <use width="1" height="1" transform="translate(1769.004 489.583)" xlink:href="#Circle_star_mooore_grey"/>
      <use width="1" height="1" transform="translate(1690.716 283)" xlink:href="#Circle_star_mooore_grey"/>
      <use width="1" height="1" transform="translate(1477.732 207.865)" xlink:href="#Circle_star_mooore_grey"/>
      <use width="1" height="1" transform="translate(1307.184 322.069)" xlink:href="#Circle_star_mooore_grey"/>
      <use width="1" height="1" transform="translate(1066.387 472.43)" xlink:href="#Circle_star_mooore_grey"/>
      <use width="1" height="1" transform="translate(960.045 345.622)" xlink:href="#Circle_star_mooore_grey"/>
      <use width="1" height="1" transform="translate(853.676 156.242)" xlink:href="#Circle_star_mooore_grey"/>
      <use width="1" height="1" transform="translate(706.665 63.851)" xlink:href="#Circle_star_mooore_grey"/>
      <use width="1" height="1" transform="translate(742.594 173.554)" xlink:href="#Circle_star_mooore_grey"/>
      <use width="1" height="1" transform="translate(850.446 322.189)" xlink:href="#Circle_star_mooore_grey"/>
      <use width="1" height="1" transform="translate(690.826 342.679)" xlink:href="#Circle_star_mooore_grey"/>
      <use width="1" height="1" transform="translate(714.397 308.076)" xlink:href="#Circle_star_mooore_grey"/>
      <use width="1" height="1" transform="translate(978.693 516.282)" xlink:href="#Circle_star_mooore_grey"/>
      <use width="1" height="1" transform="translate(1214.794 688.368)" xlink:href="#Circle_star_mooore_grey"/>
      <use width="1" height="1" transform="translate(1451.209 395.701)" xlink:href="#Circle_star_mooore_grey"/>
      <use width="1" height="1" transform="translate(1551.364 207.855)" xlink:href="#Circle_star_mooore_grey"/>
      <use width="1" height="1" transform="translate(651.781 34.077)" xlink:href="#Circle_star_mooore_grey"/>
      <use width="1" height="1" transform="translate(548.492 59.041)" xlink:href="#Circle_star_mooore_grey"/>
      <use width="1" height="1" transform="translate(537.405 89.069)" xlink:href="#Circle_star_mooore_grey"/>
      <use width="1" height="1" transform="translate(570.426 126.708)" xlink:href="#Circle_star_mooore_grey"/>
      <use width="1" height="1" transform="translate(692.455 131.281)" xlink:href="#Circle_star_mooore_grey"/>
      <use width="1" height="1" transform="translate(1111.726 124.935)" xlink:href="#Circle_star_mooore_grey"/>
      <use width="1" height="1" transform="translate(1460.554 82.652)" xlink:href="#Circle_star_mooore_grey"/>
      <use width="1" height="1" transform="translate(1732.765 73.343)" xlink:href="#Circle_star_mooore_grey"/>
      <use width="1" height="1" transform="translate(1831.415 87.463)" xlink:href="#Circle_star_mooore_grey"/>
      <use width="1" height="1" transform="translate(1833.016 193.917)" xlink:href="#Circle_star_mooore_grey"/>
      <use width="1" height="1" transform="translate(1718.883 431.61)" xlink:href="#Circle_star_mooore_grey"/>
      <use width="1" height="1" transform="translate(1768.977 583.474)" xlink:href="#Circle_star_mooore_grey"/>
      <use width="1" height="1" transform="translate(1817.506 672.646)" xlink:href="#Circle_star_mooore_grey"/>
      <use width="1" height="1" transform="translate(1820.636 713.553)" xlink:href="#Circle_star_mooore_grey"/>
      <use width="1" height="1" transform="translate(1706.315 790.17)" xlink:href="#Circle_star_mooore_grey"/>
      <use width="1" height="1" transform="translate(1803.261 965.327)" xlink:href="#Circle_star_mooore_grey"/>
      <use width="1" height="1" transform="translate(1815.825 1001.528)" xlink:href="#Circle_star_mooore_grey"/>
      <use width="1" height="1" transform="translate(1648.33 965.508)" xlink:href="#Circle_star_mooore_grey"/>
      <use width="1" height="1" transform="translate(1624.848 769.828)" xlink:href="#Circle_star_mooore_grey"/>
      <use width="1" height="1" transform="translate(1523.163 635.158)" xlink:href="#Circle_star_mooore_grey"/>
      <use width="1" height="1" transform="translate(1421.421 560.012)" xlink:href="#Circle_star_mooore_grey"/>
      <use width="1" height="1" transform="translate(1388.605 807.343)" xlink:href="#Circle_star_mooore_grey"/>
      <use width="1" height="1" transform="translate(1349.487 882.494)" xlink:href="#Circle_star_mooore_grey"/>
      <use width="1" height="1" transform="translate(1280.622 929.463)" xlink:href="#Circle_star_mooore_grey"/>
      <use width="1" height="1" transform="translate(1315.152 965.65)" xlink:href="#Circle_star_mooore_grey"/>
      <use width="1" height="1" transform="translate(1238.191 920.03)" xlink:href="#Circle_star_mooore_grey"/>
      <use width="1" height="1" transform="translate(1120.976 830.837)" xlink:href="#Circle_star_mooore_grey"/>
      <use width="1" height="1" transform="translate(885.05 924.933)" xlink:href="#Circle_star_mooore_grey"/>
      <use width="1" height="1" transform="translate(730.026 998.351)" xlink:href="#Circle_star_mooore_grey"/>
      <use width="1" height="1" transform="translate(675.108 1007.756)" xlink:href="#Circle_star_mooore_grey"/>
      <use width="1" height="1" transform="translate(412.45 845.004)" xlink:href="#Circle_star_mooore_grey"/>
      <use width="1" height="1" transform="translate(368.552 807.356)" xlink:href="#Circle_star_mooore_grey"/>
      <use width="1" height="1" transform="translate(351.311 713.349)" xlink:href="#Circle_star_mooore_grey"/>
      <use width="1" height="1" transform="translate(495.141 502.432)" xlink:href="#Circle_star_mooore_grey"/>
      <use width="1" height="1" transform="translate(506.395 487.89)" xlink:href="#Circle_star_mooore_grey"/>
      <use width="1" height="1" transform="translate(554.749 568.033)" xlink:href="#Circle_star_mooore_grey"/>
    </g>
  </g>
</svg>