<svg width="248" height="679" viewBox="0 0 248 679" fill="none" xmlns="http://www.w3.org/2000/svg">
<g filter="url(#filter0_f_47_19)">
<path d="M329.33 248.492C324.086 237.724 316.346 234.951 306.648 235.502C296.649 236.064 287.296 239.555 278.137 243.436C252.724 254.199 228.184 266.789 203.155 278.353C180.411 288.866 157.622 299.066 132.448 303.036C90.2695 309.685 48.7578 284.233 36.5016 243.609C29.1891 219.371 31.4413 195.162 37.2468 171.119C46.8988 131.146 86.819 60.8466 106.41 20.7494C107.718 18.0725 105.746 15 102.766 15C101.193 15 99.7755 15.888 99.049 17.2834C91.028 32.6896 62.6368 77.4296 57.1102 89.436C41.6788 122.961 26.9036 156.742 19.2908 193.046C13.8634 218.931 12.4009 244.806 21.9934 270.157C37.7806 311.873 88.3121 358.327 153.563 336.884C176.435 329.368 198.094 319.178 220.137 309.796C234.885 303.521 249.421 296.655 265.103 292.841C285.422 287.903 296.466 294.807 301.037 315.052C303.211 324.685 303.828 334.485 303.934 344.307C304.123 361.462 303.05 378.578 302.015 395.699C300.959 413.183 298.879 430.539 296.043 447.783C288.486 493.763 277.231 538.998 267.366 584.517C262.816 605.494 258.408 626.502 254.908 647.672C253.485 656.281 260.2 664 268.926 664C277.059 664 283.538 657.248 283.81 649.12C284.388 631.808 286.839 614.616 289.637 597.496C299.102 539.566 312.086 482.265 321.328 424.291C324.809 402.442 327.479 380.488 329.447 358.449C330.721 344.234 332.405 330.047 333.468 315.815C334.535 301.555 335.575 287.246 334.63 272.958C334.079 264.634 333.095 256.215 329.33 248.492Z" fill="url(#paint0_linear_47_19)"/>
</g>
<defs>
<filter id="filter0_f_47_19" x="0" y="0" width="350" height="679" filterUnits="userSpaceOnUse" color-interpolation-filters="sRGB">
<feFlood flood-opacity="0" result="BackgroundImageFix"/>
<feBlend mode="normal" in="SourceGraphic" in2="BackgroundImageFix" result="shape"/>
<feGaussianBlur stdDeviation="7.5" result="effect1_foregroundBlur_47_19"/>
</filter>
<linearGradient id="paint0_linear_47_19" x1="175" y1="15.3285" x2="175" y2="604.643" gradientUnits="userSpaceOnUse">
<stop stop-opacity="0"/>
<stop offset="0.5" stop-color="#FFCC00" stop-opacity="0.5"/>
<stop offset="1" stop-opacity="0"/>
</linearGradient>
</defs>
</svg>
