<svg width="267" height="679" viewBox="0 0 267 679" fill="none" xmlns="http://www.w3.org/2000/svg">
<g filter="url(#filter0_f_49_56)">
<path d="M-62.3303 430.508C-57.0864 441.276 -49.3457 444.049 -39.6476 443.498C-29.6492 442.936 -20.2959 439.445 -11.1371 435.564C14.2759 424.801 38.816 412.211 63.8453 400.647C86.5892 390.134 109.378 379.934 134.552 375.964C176.731 369.315 218.242 394.767 230.498 435.391C237.811 459.629 235.559 483.838 229.753 507.881C220.101 547.854 180.181 618.153 160.59 658.251C159.282 660.927 161.254 664 164.234 664C165.807 664 167.224 663.112 167.951 661.717C175.972 646.31 204.363 601.57 209.89 589.564C225.321 556.039 240.096 522.258 247.709 485.954C253.137 460.069 254.599 434.194 245.007 408.843C229.219 367.127 178.688 320.673 113.437 342.116C90.5652 349.632 68.9057 359.822 46.8625 369.204C32.1151 375.479 17.5791 382.345 1.89749 386.159C-18.4218 391.097 -29.4657 384.193 -34.0367 363.948C-36.211 354.315 -36.8282 344.515 -36.9339 334.693C-37.123 317.538 -36.0497 300.422 -35.0154 283.301C-33.9589 265.817 -31.8791 248.461 -29.043 231.217C-21.4858 185.237 -10.2307 140.002 -0.365768 94.4835C4.18359 73.5064 8.59207 52.4977 12.0917 31.3281C13.515 22.7188 6.80019 15 -1.92599 15C-10.0587 15 -16.5383 21.7521 -16.8097 29.8804C-17.3875 47.1923 -19.8391 64.3837 -22.6369 81.5045C-32.1015 139.434 -45.0861 196.735 -54.3282 254.709C-57.8093 276.558 -60.4785 298.512 -62.4471 320.551C-63.7205 334.766 -65.4055 348.953 -66.4676 363.185C-67.5352 377.445 -68.5751 391.754 -67.6298 406.042C-67.0793 414.366 -66.095 422.785 -62.3303 430.508Z" fill="url(#paint0_linear_49_56)"/>
</g>
<defs>
<filter id="filter0_f_49_56" x="-83" y="0" width="350" height="679" filterUnits="userSpaceOnUse" color-interpolation-filters="sRGB">
<feFlood flood-opacity="0" result="BackgroundImageFix"/>
<feBlend mode="normal" in="SourceGraphic" in2="BackgroundImageFix" result="shape"/>
<feGaussianBlur stdDeviation="7.5" result="effect1_foregroundBlur_49_56"/>
</filter>
<linearGradient id="paint0_linear_49_56" x1="92" y1="663.672" x2="92" y2="74.3566" gradientUnits="userSpaceOnUse">
<stop stop-opacity="0"/>
<stop offset="0.5" stop-color="#FFCC00" stop-opacity="0.5"/>
<stop offset="1" stop-opacity="0"/>
</linearGradient>
</defs>
</svg>
