<svg width="1776" height="1121" viewBox="0 0 1776 1121" fill="none" xmlns="http://www.w3.org/2000/svg" xmlns:xlink="http://www.w3.org/1999/xlink">
<g style="mix-blend-mode:luminosity" opacity="0.5">
<rect x="1775.32" y="1021" width="1021" height="1021" transform="rotate(180 1775.32 1021)" fill="url(#pattern0_674_12)" style="mix-blend-mode:color-dodge"/>
<rect width="1021" height="1021" transform="matrix(1 8.74228e-08 8.74228e-08 -1 0.725548 1021)" fill="url(#pattern1_674_12)" style="mix-blend-mode:color-dodge"/>
</g>
<g style="mix-blend-mode:soft-light">
<g clip-path="url(#clip0_674_12)">
<g filter="url(#filter0_f_674_12)">
<path d="M1306.89 679.238C1298.7 665.349 1286.77 657.748 1269.84 658.009C1258.49 658.186 1247.41 659.577 1236.61 662.686C1207.98 670.937 1179.47 679.541 1150.88 687.867C1110.18 699.725 1073.7 693.227 1041.86 664.237C1008.47 633.848 978.388 600.711 953.097 563.454C928.616 527.385 916.185 487.751 917.198 444.097C918.101 405.011 927.485 367.635 940.135 330.943C959.055 276.021 984.844 224.008 1009.94 171.699C1013.7 163.862 1017.65 156.108 1021.45 148.279H1007.65C992.624 180.109 976.548 211.451 961.603 243.315C935.924 298.093 911.426 353.3 899.392 412.958C891.426 452.457 890.515 491.838 901.915 530.933C910.962 561.929 926.776 589.764 943.755 616.993C968.979 657.436 991.316 699.177 1004.83 745.064C1009.33 760.385 1013.81 775.748 1020.55 790.302C1032.52 816.182 1048.19 823.801 1071.91 822.865C1085.24 822.334 1098.4 819.233 1111.38 815.702C1143 807.115 1174.14 796.757 1206.65 791.414C1237.24 786.383 1257.08 799.319 1262.44 829.489C1266.21 850.726 1264.82 872.115 1261.69 893.301C1255.09 938.009 1243.24 981.587 1231.65 1025.21C1227.22 1041.89 1222.89 1058.6 1218.45 1075.28H1257.16C1271.63 1008.91 1290.42 943.554 1305.08 877.23C1316.12 827.307 1326.44 777.197 1320.69 725.546C1318.89 709.298 1315.32 693.505 1306.89 679.238Z" fill="url(#paint0_linear_674_12)"/>
<path d="M1511.75 285.603C1503.52 273.83 1491.8 269.827 1477.62 270.956C1460.33 272.339 1444.49 278.356 1429.26 285.772C1369.78 314.728 1310.62 344.325 1251.07 373.155C1216.42 389.934 1181.79 407.151 1142.32 410.463C1121.15 412.241 1101.23 408.356 1083.82 396.086C1058.33 378.127 1048.84 351.977 1047.37 322.321C1045.5 284.609 1055.7 249.012 1067.5 213.751C1074.94 191.528 1083.97 169.921 1092.95 148.288H1076.64C1074.62 152.535 1072.59 156.782 1070.72 161.089C1050.06 208.56 1029.52 256.091 1019.51 307.135C1013.58 337.381 1011.39 367.913 1022.09 397.662C1038.38 442.934 1075.27 463.286 1117.77 463.556C1145.7 463.733 1172.28 455.044 1197.79 444.029C1253.31 420.07 1306.71 391.788 1361.15 365.63C1383.05 355.104 1404.64 343.761 1428.58 338.08C1459.25 330.799 1477.09 341.266 1484.78 371.63C1493.39 405.651 1488.59 439.934 1485.5 474.065C1483.02 501.479 1479.47 528.792 1476.48 556.164C1473.49 583.553 1471 611.001 1467.6 638.331C1463.24 673.423 1458.3 708.438 1453.41 743.463C1447.85 783.316 1442.08 823.143 1436.36 862.979C1430.33 904.99 1424.76 947.026 1425.3 989.609C1425.67 1019.03 1429.88 1047.65 1439.46 1075.29H1513.29C1488.24 1022.66 1478.15 966.493 1477.62 908.386C1477.26 868.651 1480.94 829.051 1485.05 789.501C1488.5 756.188 1490.89 722.765 1493.92 689.401C1498.08 643.682 1502.76 598.006 1506.52 552.262C1509.63 514.558 1514.4 477.048 1518.81 439.496C1523.03 403.46 1526.58 367.416 1524.61 331.136C1523.74 315.217 1521.32 299.264 1511.75 285.603Z" fill="url(#paint1_linear_674_12)"/>
<path d="M1370.75 541.374C1363.59 528.337 1350.62 522.354 1335.74 524.343C1320.92 526.323 1307.03 531.009 1293.23 536.301C1254.41 551.184 1217.3 570.103 1178.05 583.949C1148.16 594.492 1117.54 602.709 1085.67 595.284C1022.67 580.612 980.666 541.096 956.852 482.914C939.763 441.148 944.515 398.05 954.582 355.332C965.687 308.223 984.228 263.76 1004.35 219.895C1015.35 195.928 1026.39 171.986 1037.92 148.271H1024.67C1008.79 181.517 992.666 214.662 977.451 248.203C951.569 305.273 928.05 363.144 922.548 426.433C919.806 457.952 922.65 488.846 935.35 517.862C961.485 577.578 1005.12 623.474 1056.97 662.181C1074.02 674.914 1094.34 680.611 1115.66 679.828C1134.85 679.12 1153.47 674.207 1171.73 668.248C1200.57 658.852 1229.06 648.292 1258.88 642.006C1291.1 635.213 1310.73 646.009 1321.1 676.802C1326.22 691.988 1328.99 707.722 1329.79 723.684C1331.61 759.795 1327.48 795.46 1320.77 830.897C1310 887.756 1294.73 943.588 1281.05 999.781C1274.94 1024.89 1268.79 1050 1263.37 1075.27H1304.09C1312.83 1019.27 1325.7 964.091 1338.03 908.799C1354.84 833.417 1373.6 758.396 1378.79 680.957C1381.16 645.579 1383.03 610.226 1379.67 574.865C1378.61 563.361 1376.51 551.85 1370.75 541.374Z" fill="url(#paint2_linear_674_12)"/>
<path d="M1224.07 807.19C1215.47 805.277 1206.63 805.842 1197.92 807.216C1168.08 811.943 1139.56 821.635 1110.61 829.717C1091.87 834.95 1073.11 840.091 1053.32 838.894C1039.38 838.051 1027.97 832.548 1019.94 820.977C1012.06 809.626 1007.93 796.74 1004.6 783.577C995.645 748.182 987.08 712.703 971.181 679.44C956.886 649.514 939.164 621.485 922.641 592.806C892.143 539.882 882.354 483.562 893.029 423.77C900.726 380.681 915.375 339.665 932.489 299.466C954.337 248.152 979.949 198.565 1004.02 148.262H989.519C972.118 185.275 953.367 221.656 935.772 258.577C912.32 307.801 890.067 357.48 876.194 410.362C863.941 457.092 860.185 504.125 872.363 551.445C880.92 584.708 896.869 615.063 911.806 645.764C930.126 683.417 942.953 722.529 944.666 764.607C946.101 799.842 941.873 834.773 938.599 869.763C937.24 884.259 936.945 898.981 940.076 913.426C944.447 933.618 957.789 944.304 978.827 945.29C996.886 946.141 1014.19 942.273 1031.43 937.89C1066.38 929.016 1100.66 917.673 1136.76 913.173C1168.82 909.178 1190.19 924.247 1191.72 953.574C1192.93 976.665 1190.63 999.427 1185.7 1021.93C1181.8 1039.76 1177.63 1057.53 1173.3 1075.26H1212.31C1223.06 1033.84 1234.92 992.685 1243.99 950.86C1251.37 916.813 1258.82 882.75 1254.91 847.422C1252.57 826.118 1241.97 811.168 1224.07 807.19Z" fill="url(#paint3_linear_674_12)"/>
<path d="M1472.12 362.478C1464.02 349.306 1451.59 343.87 1435.96 345.741C1420.78 347.562 1406.59 352.289 1392.89 358.5C1340.58 382.19 1289.71 408.786 1237.83 433.352C1202.78 449.946 1167.64 466.076 1128.08 470.315C1077.18 475.767 1032.35 448.505 1016.28 400.544C1005.59 368.655 1008.66 336.496 1015.48 304.447C1024.47 262.167 1040.53 222.221 1057.56 182.621C1062.49 171.151 1067.48 159.715 1072.47 148.271H1058.41C1055.69 154.094 1052.98 159.918 1050.31 165.766C1027.05 216.802 1003.5 267.754 990.118 322.473C981.628 357.16 977.08 392.033 985.941 427.453C999.932 483.386 1051.05 523.668 1108.71 522.556C1134.32 522.067 1158.45 515.671 1182.08 506.763C1227.21 489.748 1269.65 466.952 1313.34 446.87C1337.64 435.695 1361.26 422.27 1388 417.795C1412.88 413.632 1428.61 417.483 1437.66 446.314C1442.89 462.983 1443.63 480.47 1442.9 497.712C1441.59 529.003 1438.62 560.201 1435.59 591.391C1431.8 630.367 1427.86 669.327 1421.72 708C1408.56 790.951 1390.6 873.067 1376.88 955.925C1370.33 995.467 1364.36 1035.08 1366.61 1075.27H1429.31C1422.66 1055.07 1419.27 1034.17 1418.08 1012.95C1415.7 970.109 1420.69 927.635 1426.71 885.312C1431.68 850.305 1437.35 815.39 1442.4 780.391C1448.88 735.499 1456.16 690.716 1461.1 645.613C1464.72 612.603 1468.43 579.609 1472.17 546.608C1475.39 518.165 1478.78 489.74 1481.1 461.196C1482.92 438.822 1483.98 416.43 1481.6 394.106C1480.43 383.176 1478.1 372.228 1472.12 362.478Z" fill="url(#paint4_linear_674_12)"/>
<path d="M1151.81 926.994C1140.68 925.502 1129.38 925.89 1118.19 927.441C1088.25 931.57 1059.61 940.95 1030.51 948.467C1010.89 953.532 991.274 958.47 970.7 957.577C949.899 956.675 935.477 945.206 930.903 925.309C929.51 919.258 928.861 913.106 928.683 906.827C927.628 869.62 935.949 833.197 937.78 796.201C939.527 760.899 935.679 726.659 924.827 693.126C914.7 661.844 898.937 632.921 885.451 603.054C868.261 564.988 858.067 525.438 860.169 483.562C862.253 442.201 872.633 402.474 886.818 363.641C914.008 289.219 951.839 219.583 985.949 148.271H970.076C949.35 193.349 926.211 237.298 904.953 282.123C881.932 330.656 860.405 379.754 846.641 431.81C833.654 480.942 830.152 530.2 844.38 579.71C853.004 609.72 866.422 637.935 878.236 666.748C894.726 706.938 903.097 748.519 899.975 791.954C897.333 828.731 888.388 864.404 879.595 900.094C872.295 929.733 864.633 959.33 865.645 990.292C866.658 1021.25 883.316 1037.65 914.498 1038.13C937.823 1038.49 959.983 1032.31 982.371 1027.23C1012.69 1020.34 1042.66 1011.34 1074.52 1014.85C1096.44 1017.26 1110.92 1029.13 1115.95 1050.28C1117.92 1058.57 1118.01 1066.92 1117.8 1075.28H1166.82C1168.51 1068.68 1170.24 1062.08 1171.71 1055.44C1178.28 1025.85 1184.44 996.216 1182.45 965.6C1181.07 944.144 1170.06 929.446 1151.81 926.994Z" fill="url(#paint5_linear_674_12)"/>
<path d="M1049.19 1024.24C1021.34 1027.2 994.236 1033.23 967.131 1039.76C946.675 1044.69 926.126 1049.33 904.751 1048.66C880.219 1047.89 864.717 1035.68 859.223 1012.13C854.093 990.166 858.034 968.549 862.211 947.085C869.544 909.44 881.384 872.814 888.531 835.085C898.245 783.855 897.156 733.4 878.7 684.134C868.92 658.026 857.789 632.415 847.747 606.408C832.464 566.85 826.633 525.969 832.101 483.832C837.274 443.945 848.768 405.651 863.375 368.225C892.861 292.691 932.017 221.555 966.464 148.271H949.704C925.628 202.063 897.839 254.119 872.818 307.464C847.932 360.514 825.021 414.289 812.084 471.646C803.122 511.415 800.759 551.276 810.38 591.349C817.612 621.493 830.633 649.59 841.873 678.294C858.751 721.4 866.481 765.652 860.565 811.783C856.017 847.296 846.177 881.571 835.156 915.55C823.392 951.821 810.565 987.814 804.042 1025.51C801.173 1042.07 799.78 1058.66 802.202 1075.28H1108.51C1108.51 1075.05 1108.51 1074.84 1108.5 1074.62C1107.91 1040.33 1083.69 1020.58 1049.19 1024.24Z" fill="url(#paint6_linear_674_12)"/>
<path d="M876.945 148.279C875.223 154.296 873.358 160.271 871.367 166.212C851.19 226.485 821.738 282.839 795.468 340.533C760.928 416.379 729.747 493.321 714.895 575.741C710.38 600.804 707.443 626.103 707.941 651.494C708.624 686.459 717.342 719.832 731.544 751.923C752.059 798.274 753.966 845.838 741.038 894.599C730.92 932.733 715.435 968.743 699.089 1004.49C689.274 1025.96 679.392 1047.38 669.544 1068.83V1075.31H698.869C706.937 1053.47 715.916 1031.97 725.08 1010.55C743.73 966.973 763.308 923.715 774.911 877.567C783.367 843.967 787.097 810.089 780.7 775.621C776.473 752.842 768.608 731.242 758.97 710.292C743.249 676.094 733.561 640.64 734.962 602.826C735.924 576.878 739.738 551.259 745.485 525.901C756.405 477.705 773.35 431.498 792.591 386.049C816.802 328.869 845.671 273.796 871.586 217.392C882.034 194.646 892.236 171.791 900.768 148.296H876.945V148.279Z" fill="url(#paint7_linear_674_12)"/>
<path d="M811.232 391.426C838.329 324.555 872.658 260.979 903.173 195.667C910.506 179.975 917.907 164.3 924.447 148.271H904.928C903.62 151.836 902.278 155.392 900.894 158.923C877.426 218.791 846.928 275.491 819.966 333.783C785.89 407.438 754.599 482.046 743.055 563.066C739.84 585.635 739.426 608.288 741.536 631.008C744.152 659.206 754.329 685.179 766.118 710.495C791.021 763.967 795.544 818.804 780.624 875.722C769.046 919.907 751.021 961.656 733.325 1003.57C723.3 1027.31 713.401 1051.08 704.557 1075.27H740.042C746.861 1046.73 756.844 1019.12 767.215 991.641C783.831 947.591 802.194 904.114 812.852 858.067C821.055 822.638 823.468 787.032 816.911 751.073C811.932 723.734 802.051 697.921 790.515 672.816C768.574 625.041 762.135 575.581 771.257 523.972C779.333 478.236 793.823 434.397 811.232 391.426Z" fill="url(#paint8_linear_674_12)"/>
<path d="M1317.11 148.279C1303.57 153.201 1289.8 157.49 1275.56 160.44C1258.87 163.895 1242.27 163.128 1229.31 149.451C1228.94 149.063 1228.6 148.675 1228.25 148.279H1159.05C1156.88 158.628 1155 169.028 1154.34 179.638C1153.07 199.948 1154.62 219.71 1167.74 236.674C1175.68 246.947 1186.68 251.801 1199.55 252.888C1219.43 254.565 1238.13 249.821 1256.4 242.759C1292.89 228.66 1326.95 209.108 1363.61 195.54C1399.42 182.284 1433.44 165.48 1467.28 148.279H1317.11Z" fill="url(#paint9_linear_674_12)"/>
<path d="M669.553 148.279V177.85C684.16 167.67 698.869 157.65 713.991 148.279H669.553Z" fill="url(#paint10_linear_674_12)"/>
<g style="mix-blend-mode:hard-light" filter="url(#filter1_f_674_12)">
<path d="M788.46 318.562C811.647 268.462 836.56 154.351 853.339 88.5265C855.98 78.1662 848.188 68 837.496 68C827.802 68 819.804 76.4831 819.769 86.1774C819.647 119.339 816.755 182.737 813.793 195.186C803.101 240.162 783.616 282.038 765.211 324.234C732.595 399.035 701.616 474.393 682.384 553.897C673.861 589.132 667.844 624.704 664.662 660.857C660.401 709.289 666.873 756.28 681.194 802.428C697.076 853.591 690.831 903.296 672.156 952.377C667.689 964.113 662.868 975.691 657.787 987.164C656.976 988.994 656.553 990.972 656.553 992.973C656.553 1008.13 677.06 1012.76 683.339 998.96C692.997 977.742 702.176 956.316 710.274 934.418C719.962 908.209 727.312 881.418 729.709 853.515C732.687 818.803 725.641 785.844 712.038 753.895C699.109 723.523 691.017 691.979 690.308 658.784C689.472 619.605 695.455 581.26 704.477 543.287C723.093 464.98 754.747 391.4 788.46 318.562Z" fill="url(#paint11_linear_674_12)"/>
</g>
<g style="mix-blend-mode:difference" filter="url(#filter2_f_674_12)">
<path d="M811.536 456.409C829.181 390.414 858.11 328.878 888.135 267.788C906.049 231.334 950.663 146.397 971.809 101.488C974.238 96.3304 970.433 90.5 964.732 90.5H961.533C960.301 90.5 959.213 91.2489 958.724 92.3793C933.162 152.82 870.675 268.352 843.063 327.85C816.456 385.181 792.042 443.313 779.266 505.473C772.481 538.484 768.987 571.637 775.029 605.245C779.662 631.024 789.595 655.017 799.629 678.993C813.696 712.618 825.164 746.841 826.186 783.694C826.911 810.089 823.24 835.969 817.072 861.563C806.076 907.206 787.612 950.354 771.629 994.337C764.788 1013.17 758.111 1032.05 752.535 1051.25C748.992 1063.46 758.377 1075.28 771.085 1075.28H776.978C785.52 1075.28 792.047 1067.86 792.667 1059.35C794.565 1033.36 800.498 1008.17 807.823 983.229C819.865 942.23 835.502 902.327 845.924 860.839C856.911 817.058 861.148 773.008 851.426 728.402C845.232 699.968 833.983 673.229 823.013 646.413C808.557 611.068 797.797 574.907 798.953 536.309C799.772 509.198 804.523 482.618 811.536 456.409Z" fill="url(#paint12_linear_674_12)"/>
</g>
</g>
<path d="M884.5 1080V1264.5" stroke="#AB00FF" style="mix-blend-mode:hard-light"/>
</g>
</g>
<g style="mix-blend-mode:hard-light" filter="url(#filter3_f_674_12)">
<path d="M1427.59 446.398C1419.64 430.099 1407.89 425.902 1393.17 426.737C1378 427.588 1363.81 432.872 1349.91 438.746C1311.34 455.036 1274.1 474.09 1236.12 491.594C1201.6 507.505 1167.02 522.944 1128.82 528.952C1064.81 539.015 1001.81 500.493 983.215 439.007C972.118 402.323 975.536 365.68 984.346 329.291C998.991 268.798 1059.56 162.419 1089.29 101.726C1091.28 97.6657 1088.29 93 1083.77 93C1081.38 93 1079.24 94.3444 1078.13 96.4578C1065.96 119.777 1022.88 187.49 1014.49 205.661C991.071 256.403 968.65 307.531 957.097 362.478C948.861 401.657 946.641 440.819 961.198 479.189C985.156 542.326 1061.84 612.636 1160.86 580.182C1195.57 568.805 1228.44 553.383 1261.89 539.183C1284.27 529.685 1306.33 519.294 1330.13 513.522C1360.96 506.047 1377.72 516.497 1384.66 547.139C1387.96 561.718 1388.89 576.55 1389.05 591.416C1389.34 617.381 1387.71 643.286 1386.14 669.201C1384.54 695.663 1381.38 721.931 1377.08 748.03C1365.61 817.624 1348.53 886.088 1333.56 954.981C1326.66 986.709 1319.98 1018.48 1314.67 1050.5C1312.5 1063.57 1322.69 1075.28 1335.93 1075.28C1348.27 1075.28 1358.1 1065.04 1358.52 1052.7C1359.4 1026.52 1363.12 1000.52 1367.36 974.625C1381.72 886.947 1401.43 800.221 1415.45 712.475C1420.73 679.406 1424.78 646.177 1427.77 612.821C1429.7 591.306 1432.26 569.833 1433.87 548.293C1435.49 526.711 1437.07 505.052 1435.64 483.428C1434.8 470.829 1433.31 458.086 1427.59 446.398Z" fill="url(#paint13_linear_674_12)"/>
</g>
<defs>
<pattern id="pattern0_674_12" patternContentUnits="objectBoundingBox" width="1" height="1">
<use xlink:href="#image0_674_12" transform="scale(0.000244141)"/>
</pattern>
<pattern id="pattern1_674_12" patternContentUnits="objectBoundingBox" width="1" height="1">
<use xlink:href="#image0_674_12" transform="scale(0.000244141)"/>
</pattern>
<filter id="filter0_f_674_12" x="641.553" y="53" width="898.615" height="1037.31" filterUnits="userSpaceOnUse" color-interpolation-filters="sRGB">
<feFlood flood-opacity="0" result="BackgroundImageFix"/>
<feBlend mode="normal" in="SourceGraphic" in2="BackgroundImageFix" result="shape"/>
<feGaussianBlur stdDeviation="7.5" result="effect1_foregroundBlur_674_12"/>
</filter>
<filter id="filter1_f_674_12" x="641.553" y="53" width="227.304" height="969.183" filterUnits="userSpaceOnUse" color-interpolation-filters="sRGB">
<feFlood flood-opacity="0" result="BackgroundImageFix"/>
<feBlend mode="normal" in="SourceGraphic" in2="BackgroundImageFix" result="shape"/>
<feGaussianBlur stdDeviation="7.5" result="effect1_foregroundBlur_674_12"/>
</filter>
<filter id="filter2_f_674_12" x="736.78" y="75.5" width="250.775" height="1014.78" filterUnits="userSpaceOnUse" color-interpolation-filters="sRGB">
<feFlood flood-opacity="0" result="BackgroundImageFix"/>
<feBlend mode="normal" in="SourceGraphic" in2="BackgroundImageFix" result="shape"/>
<feGaussianBlur stdDeviation="7.5" result="effect1_foregroundBlur_674_12"/>
</filter>
<filter id="filter3_f_674_12" x="935.585" y="78" width="515.613" height="1012.28" filterUnits="userSpaceOnUse" color-interpolation-filters="sRGB">
<feFlood flood-opacity="0" result="BackgroundImageFix"/>
<feBlend mode="normal" in="SourceGraphic" in2="BackgroundImageFix" result="shape"/>
<feGaussianBlur stdDeviation="7.5" result="effect1_foregroundBlur_674_12"/>
</filter>
<linearGradient id="paint0_linear_674_12" x1="1107.86" y1="148.748" x2="1107.86" y2="990.5" gradientUnits="userSpaceOnUse">
<stop stop-color="#FFA7A7" stop-opacity="0"/>
<stop offset="0.5" stop-color="#FF4F4F"/>
<stop offset="1" stop-color="white" stop-opacity="0"/>
</linearGradient>
<linearGradient id="paint1_linear_674_12" x1="1269.87" y1="148.757" x2="1269.87" y2="990.508" gradientUnits="userSpaceOnUse">
<stop stop-color="#FFA7A7" stop-opacity="0"/>
<stop offset="0.5" stop-color="#FF4F4F"/>
<stop offset="1" stop-color="white" stop-opacity="0"/>
</linearGradient>
<linearGradient id="paint2_linear_674_12" x1="1151.55" y1="148.74" x2="1151.55" y2="990.491" gradientUnits="userSpaceOnUse">
<stop stop-color="#FFA7A7" stop-opacity="0"/>
<stop offset="0.5" stop-color="#FF4F4F"/>
<stop offset="1" stop-color="white" stop-opacity="0"/>
</linearGradient>
<linearGradient id="paint3_linear_674_12" x1="1060.44" y1="148.731" x2="1060.44" y2="990.483" gradientUnits="userSpaceOnUse">
<stop stop-color="#FFA7A7" stop-opacity="0"/>
<stop offset="0.5" stop-color="#FF4F4F"/>
<stop offset="1" stop-color="white" stop-opacity="0"/>
</linearGradient>
<linearGradient id="paint4_linear_674_12" x1="1232.05" y1="148.74" x2="1232.05" y2="990.491" gradientUnits="userSpaceOnUse">
<stop stop-color="#FFA7A7" stop-opacity="0"/>
<stop offset="0.5" stop-color="#FF4F4F"/>
<stop offset="1" stop-color="white" stop-opacity="0"/>
</linearGradient>
<linearGradient id="paint5_linear_674_12" x1="1009.01" y1="148.74" x2="1009.01" y2="990.499" gradientUnits="userSpaceOnUse">
<stop stop-color="#FFA7A7" stop-opacity="0"/>
<stop offset="0.5" stop-color="#FF4F4F"/>
<stop offset="1" stop-color="white" stop-opacity="0"/>
</linearGradient>
<linearGradient id="paint6_linear_674_12" x1="954.737" y1="148.74" x2="954.737" y2="990.499" gradientUnits="userSpaceOnUse">
<stop stop-color="#FFA7A7" stop-opacity="0"/>
<stop offset="0.5" stop-color="#FF4F4F"/>
<stop offset="1" stop-color="white" stop-opacity="0"/>
</linearGradient>
<linearGradient id="paint7_linear_674_12" x1="785.156" y1="148.748" x2="785.156" y2="990.522" gradientUnits="userSpaceOnUse">
<stop stop-color="#FFA7A7" stop-opacity="0"/>
<stop offset="0.5" stop-color="#FF4F4F"/>
<stop offset="1" stop-color="white" stop-opacity="0"/>
</linearGradient>
<linearGradient id="paint8_linear_674_12" x1="814.502" y1="148.74" x2="814.502" y2="990.491" gradientUnits="userSpaceOnUse">
<stop stop-color="#FFA7A7" stop-opacity="0"/>
<stop offset="0.5" stop-color="#FF4F4F"/>
<stop offset="1" stop-color="white" stop-opacity="0"/>
</linearGradient>
<linearGradient id="paint9_linear_674_12" x1="1310.63" y1="148.332" x2="1310.63" y2="243.628" gradientUnits="userSpaceOnUse">
<stop stop-color="#FFA7A7" stop-opacity="0"/>
<stop offset="0.5" stop-color="#FF4F4F"/>
<stop offset="1" stop-color="white" stop-opacity="0"/>
</linearGradient>
<linearGradient id="paint10_linear_674_12" x1="691.772" y1="148.294" x2="691.772" y2="175.146" gradientUnits="userSpaceOnUse">
<stop stop-color="#FFA7A7" stop-opacity="0"/>
<stop offset="0.5" stop-color="#FF4F4F"/>
<stop offset="1" stop-color="white" stop-opacity="0"/>
</linearGradient>
<linearGradient id="paint11_linear_674_12" x1="757.658" y1="68.5" x2="757.658" y2="965.554" gradientUnits="userSpaceOnUse">
<stop stop-color="#FFA7A7" stop-opacity="0"/>
<stop offset="0.5" stop-color="#FF4F4F"/>
<stop offset="1" stop-color="white" stop-opacity="0"/>
</linearGradient>
<linearGradient id="paint12_linear_674_12" x1="861.556" y1="90.9984" x2="861.556" y2="985.215" gradientUnits="userSpaceOnUse">
<stop stop-color="#FFA7A7" stop-opacity="0"/>
<stop offset="0.5" stop-color="#FF4F4F"/>
<stop offset="1" stop-color="white" stop-opacity="0"/>
</linearGradient>
<linearGradient id="paint13_linear_674_12" x1="1193.39" y1="93.4972" x2="1193.39" y2="985.444" gradientUnits="userSpaceOnUse">
<stop stop-color="#AB00FF" stop-opacity="0"/>
<stop offset="0.5" stop-color="#AB00FF"/>
<stop offset="1" stop-color="#AB00FF" stop-opacity="0"/>
</linearGradient>
<clipPath id="clip0_674_12">
<rect x="670" y="137.5" width="927" height="983" rx="25" fill="white"/>
</clipPath>
</defs>
</svg>
