<svg version="1.1" id="Layer_1" xmlns="http://www.w3.org/2000/svg" xmlns:xlink="http://www.w3.org/1999/xlink" x="0px" y="0px" viewBox="0 0 666.6 62.6" style="enable-background:new 0 0 841.9 213;">
  <style type="text/css">
    .st0{fill:#FFFFFF;}
  </style>
  <g transform="matrix(1, 0, 0, 1, -87.599998, -75.200005)">
    <path class="st0" d="M233.1,115.3c0,2.9-0.7,5.1-2.2,6.6c-1.5,1.6-3.5,2.3-6,2.3c-2.6,0-4.6-0.8-6-2.4c-1.4-1.6-2.1-3.8-2.1-6.6
		V75.8h-15.1v39.9c0,6.6,2.2,12,6.7,16c4.5,4.1,10,6.1,16.5,6.1c6.6,0,12.1-2,16.6-6.1c4.5-4.1,6.8-9.4,6.8-16V75.8h-15.1V115.3z"></path>
    <polygon class="st0" points="292.5,106.6 272.8,75.8 259.6,75.8 259.6,137.3 274.7,137.3 274.7,106.4 294.4,137.3 307.6,137.3
		307.6,75.8 292.5,75.8 	"></polygon>
    <polygon class="st0" points="316.4,89.2 331.5,89.2 331.5,137.3 346.6,137.3 346.6,89.2 361.7,89.2 361.7,75.8 316.4,75.8 	"></polygon>
    <path class="st0" d="M534.2,104.1c-2.1-2.1-5.9-3.5-11.3-4.3l-7.4-1c-1.1-0.1-2-0.3-2.6-0.6c-0.6-0.3-1.2-0.7-1.6-1.1
		c-0.4-0.4-0.7-0.9-1-1.3c-0.2-0.4-0.3-1-0.3-1.6c0-1.6,0.6-2.9,1.9-4c1.2-1.1,3.1-1.7,5.6-1.7h1.1c2.5,0,4.6,0.3,6.3,0.9
		c1.7,0.6,3.1,1.5,4.2,2.7l9.5-9.5c-2.6-2.6-5.6-4.5-8.9-5.7c-3.3-1.1-7.2-1.7-11.8-1.7c-6.9,0-12.4,1.8-16.4,5.4c-4,3.6-6,8.3-6,14
		c0,5.4,1.4,9.5,4.2,12.3c2.8,2.8,6.9,4.7,12.4,5.5l7.4,1c1,0.1,1.9,0.3,2.5,0.6c0.6,0.3,1.3,0.7,1.9,1.4c0.6,0.6,0.9,1.7,0.9,3.3
		c0,3.7-2.9,5.5-8.8,5.5c-2.8,0-5.4-0.3-7.8-1c-2.4-0.7-4.4-1.8-5.9-3.3l-9.7,9.7c3,3.1,6.3,5.2,10.1,6.3c3.7,1.2,8.1,1.8,13.2,1.8
		c6.8,0,12.4-1.7,17-5.2c4.5-3.5,6.8-8.2,6.8-14.2c0-3-0.4-5.6-1.1-7.8C537.8,108.4,536.3,106.2,534.2,104.1z"></path>
    <path class="st0" d="M675.3,91.4c0.7-0.9,1.5-1.6,2.5-2c1-0.4,2.2-0.6,3.5-0.6c2.4,0,4.1,0.6,5.3,1.9c1.2,1.3,2,3.1,2.6,5.3h15.4
		c-1.1-6.8-3.7-11.9-7.9-15.4c-4.2-3.5-9.3-5.3-15.4-5.3c-3.5,0-6.6,0.6-9.4,1.8c-2.8,1.2-5.6,3.1-8.2,5.6c-2.6,2.6-4.2,5.6-4.8,8.9
		c-0.6,3.4-0.9,8.3-0.9,14.9c0,6.3,0.3,11.2,1,14.7c0.6,3.5,2.8,7.2,6.6,10.9c3.7,3.7,9,5.6,15.8,5.6c6.1,0,11.2-1.6,15.4-4.9
		c4.2-3.3,6.8-8.1,7.9-14.4h-15.4c-0.6,1.8-1.5,3.2-2.6,4.3c-1.2,1.1-2.9,1.6-5.2,1.6c-2.6,0-4.5-0.7-5.6-2.2
		c-1.1-1.4-1.8-3.1-2.2-5c-0.3-1.9-0.5-5.4-0.5-10.7c0-5.1,0.2-8.6,0.6-10.7C674.1,93.8,674.6,92.3,675.3,91.4z"></path>
    <path class="st0" d="M118.8,96.5v2.9v1.7h-16.1v-1.7v-2.9V75.8H87.6v61.5h15.1v-14.6l9.5-9.5l6.5,2.2v5v16.9h15.1V75.8h-15.1V96.5z
		 M118.8,103.7v9l-16.1-5.3v-3.7H118.8z M102.7,119.1v-6.2v-2.8l6.8,2.2L102.7,119.1z"></path>
    <path class="st0" d="M162.5,75.8l-22.4,61.5h15.8l3-9.2h0l1.4-4.3l18.2,6.8l2.1,6.8h15.8l-22.4-61.5H162.5z M163.5,114.5
		L163.5,114.5l5.2-15.4l4.9,15.4l0,0l0.3,1h0l0.1,0.2h-10.8l0.1-0.2h0L163.5,114.5z M162.2,118.2h12.5l2.9,9.2l-16.4-6.1
		L162.2,118.2z"></path>
    <path class="st0" d="M462.4,81.8c-2.1-2.1-4.5-3.6-7.3-4.6c-2.8-1-5.9-1.5-9.3-1.5H423v13.5h2.5v10.2l0,0l0,0v24.4H423v13.5h22.8
		c3.3,0,6.4-0.5,9.2-1.5c2.9-1,5.3-2.5,7.3-4.5c2.8-2.8,4.6-5.7,5.3-8.6c0.7-2.9,1.1-6.8,1.1-11.5v-4.6v-4.4c0-5.9-0.5-10.3-1.6-13
		C466,86.4,464.5,84,462.4,81.8z M428.1,89.2h6.4l-6.4,7.3V89.2z M453.3,116.5c-0.2,1.6-0.7,2.9-1.4,3.9c-0.7,1-1.7,1.9-2.8,2.5
		c-1.2,0.6-2.6,0.9-4.4,0.9h-6.6h-3.9v-16.4h-2.6v16.4h-3.5v-23.4l9.8-11.2h0.2h6.6c1.8,0,3.3,0.3,4.4,0.9c1.1,0.6,2.1,1.4,2.8,2.6
		c0.6,0.9,1.1,2.2,1.3,3.8c0.2,1.6,0.3,5,0.3,10C453.6,111.6,453.5,114.9,453.3,116.5z"></path>
    <path class="st0" d="M385.6,123.8h-4.2l3.6-10.8h0.6H396h12.4V99.5h-12.9h-9.9h-1.4V89.2h1.4h9.9h16.8V75.8h-41.8v13.5h2.8v10.3
		h-2.8v13.5h2.8v10.8h-2.8v13.5h41.8v-13.5L385.6,123.8L385.6,123.8z M375.9,89.2h5.7v10.3h-5.7V89.2z M375.9,112.9h6.4l-3.6,10.8
		h-2.7V112.9z"></path>
    <path class="st0" d="M573.8,75.8h-24.3v13.5h1.6v12.4h-1.6v35.6h15.1v-22h9.2c6.5,0,11.6-2,15.4-5.9c3.7-3.9,5.6-8.5,5.6-13.9
		c0-5.4-1.9-10.1-5.6-13.9C585.5,77.7,580.4,75.8,573.8,75.8z M553.7,89.3h4.8l-2.5,12.4h-2.3V89.3z M577.9,99.9
		c-1.2,1.2-2.8,1.9-4.8,1.9h-6.8h-1.7h-5.9l2.5-12.4h3.4h1.7h6.8c2,0,3.6,0.6,4.8,1.9c1.2,1.2,1.8,2.7,1.8,4.4
		C579.7,97.2,579.1,98.6,577.9,99.9z"></path>
    <path class="st0" d="M619.7,75.8l-22.3,61.5h15.8l2.6-8l0,0l0.4-1.2h0l0.3-0.8l17.4-2.9l1.2,3.8h0l0.4,1.2l0,0l2.5,8h15.8
		l-22.3-61.5H619.7z M620.9,114.1L620.9,114.1l5.1-15l5.1,16.1h-10.5L620.9,114.1L620.9,114.1z M617.4,124.4l2.2-6.7h12.2l1.3,4.1
		L617.4,124.4z"></path>
    <path class="st0" d="M730.7,123.8h-3.1h-2.3v-10.9h2.3h3.1h19.7V99.5h-19.2h-3.6h-5.1l2.5-10.3h2.5h3.6h23.1V75.8h-41.8v13.5h2
		v10.3h-2v13.5h1.9v10.9h-1.9v13.5h41.8v-13.5H730.7z M717.1,89.2h5.3l-2.5,10.3h-2.8V89.2z M717,112.9h5.7v10.9H717V112.9z"></path>
  </g>
</svg>